<svg id="e93b05ea-af62-4ce5-bd1a-978e8d5554eb" data-name="Layer 1" xmlns="http://www.w3.org/2000/svg" viewBox="0 0 800 400"><title>cdk8s_banner</title><g id="7a7533a9-6706-4d36-8552-a4c05a1c3abe" data-name="Layer 1"><path d="M81.24,151.57c.33,16.27,4.35,31.87,26.3,32.87,24.63,1,29.42-18.16,30-35.55" fill="none" stroke="#232f3e" stroke-miterlimit="10" stroke-width="2"/><path d="M138,150.23c-1.45.33,1.89-6.91-5.91-12.37-4.35-3-4.46-6.69-4.57-9.69a3.71,3.71,0,0,0-5.91-2.79c-4.12,3.12-13.37,7.69-22.4,7.47A5.89,5.89,0,0,0,93.39,137c-1.89,5.57-7,11.25-12.59,15.82" fill="none" stroke="#232f3e" stroke-miterlimit="10" stroke-width="2"/><path d="M92.83,181.21l.11,9.36,11.48,21.73a5.46,5.46,0,0,0,9.92,0l11.59-21.73-.22-10.81" fill="none" stroke="#527fff" stroke-miterlimit="10" stroke-width="2"/><path d="M126.48,189.23c8.58,1.11,32,6.24,38.89,18.5,6.46,11.37,6.13,14.15,6,39.67H48.81c-.11-25.52.78-30.42,6-39.67,7-12.15,29.53-17.38,38.11-18.5" fill="none" stroke="#232f3e" stroke-miterlimit="10" stroke-width="2"/><line x1="74.33" y1="222" x2="74.33" y2="242.84" fill="none" stroke="#232f3e" stroke-miterlimit="10" stroke-width="2"/><line x1="144.2" y1="222" x2="144.2" y2="242.84" fill="none" stroke="#232f3e" stroke-miterlimit="10" stroke-width="2"/><path d="M69.32,195.36V139.09a45.24,45.24,0,0,1,5.79-24c11-17,29.08-18.16,39.78-17.5,6.35.45,19.61,1.78,20.39,18.5,0,0,15.27-2,14.71,18.05l-.22,62.4" fill="none" stroke="#232f3e" stroke-miterlimit="10" stroke-width="2"/><line x1="109.32" y1="221.33" x2="109.32" y2="242.84" fill="none" stroke="#232f3e" stroke-miterlimit="10" stroke-width="2"/><circle cx="99.29" cy="150.12" r="4.23" fill="none" stroke="#232f3e" stroke-linejoin="round" stroke-width="2"/><circle cx="119.35" cy="150.12" r="4.23" fill="none" stroke="#232f3e" stroke-linejoin="round" stroke-width="2"/><path d="M111.33,130.62s-13.26,4.9-25.41-.89" fill="none" stroke="#232f3e" stroke-miterlimit="10" stroke-width="2"/><path d="M76.11,155.47a32.56,32.56,0,0,0,8.58-6.24" fill="none" stroke="#232f3e" stroke-miterlimit="10" stroke-width="2"/><path d="M99.29,191.69a28.88,28.88,0,0,0,20.06.22" fill="none" stroke="#232f3e" stroke-miterlimit="10" stroke-width="2"/><circle cx="95.84" cy="232.03" r="5.01" fill="none" stroke="#232f3e" stroke-miterlimit="10" stroke-width="2"/><path d="M90.82,114.91a49,49,0,0,0,18.61,4.68" fill="none" stroke="#232f3e" stroke-linejoin="round" stroke-width="2"/></g><path d="M36.61,275.72V180a3.33,3.33,0,0,1,3.34-3.34H173.26A3.33,3.33,0,0,1,176.6,180v95.73" fill="#fff" stroke="#232f3e" stroke-linejoin="round" stroke-width="2"/><g id="47281fa1-73a0-4cb5-8cf2-62842f00cd3d" data-name="Choose AWS application"><path d="M36.61,270.89v8.43l.44.35a11.16,11.16,0,0,0,7.86,3.16H169.32a8.51,8.51,0,0,0,6.4-2.81l.87-.88v-8.43Z" fill="#e6e6e6" stroke="#232f3e" stroke-linejoin="round" stroke-width="2"/></g><path d="M165.53,263.43a3.15,3.15,0,0,1-3.16,3.16H53.12A3.15,3.15,0,0,1,50,263.43V191.94a3.15,3.15,0,0,1,3.16-3.16H161.85a3.15,3.15,0,0,1,3.16,3.16Z" fill="none" stroke="#232f3e" stroke-linejoin="round" stroke-width="2"/><polygon points="382.06 105.28 365.32 113.84 381.59 122.33 398.41 113.84 382.06 105.28" fill="none" stroke="#232f3e" stroke-linejoin="round" stroke-width="2"/><polygon points="365.32 113.84 365.32 135.49 381.83 143.98 381.83 122.33 365.32 113.84" fill="none" stroke="#232f3e" stroke-linejoin="round" stroke-width="2"/><polygon points="398.41 113.84 398.41 135.49 381.83 143.98 381.83 122.33 398.41 113.84" fill="none" stroke="#232f3e" stroke-linejoin="round" stroke-width="2"/><polygon points="445.81 130.28 429.07 138.85 445.35 147.34 462.17 138.85 445.81 130.28" fill="none" stroke="#232f3e" stroke-linejoin="round" stroke-width="2"/><polygon points="429.07 138.85 429.07 160.5 445.58 168.99 445.58 147.34 429.07 138.85" fill="none" stroke="#232f3e" stroke-linejoin="round" stroke-width="2"/><polygon points="462.17 138.85 462.17 160.5 445.58 168.99 445.58 147.34 462.17 138.85" fill="none" stroke="#232f3e" stroke-linejoin="round" stroke-width="2"/><polygon points="330.26 157.99 308.76 168.99 329.66 179.89 351.26 168.99 330.26 157.99" fill="none" stroke="#232f3e" stroke-linejoin="round" stroke-width="2"/><polygon points="308.76 168.99 308.76 196.79 329.96 207.69 329.96 179.89 308.76 168.99" fill="none" stroke="#232f3e" stroke-linejoin="round" stroke-width="2"/><polygon points="351.26 168.99 351.26 196.79 329.96 207.69 329.96 179.89 351.26 168.99" fill="none" stroke="#232f3e" stroke-linejoin="round" stroke-width="2"/><path d="M650.18,52.6a34,34,0,0,1-.3-4.5c0-12.9,8.8-27.8,21.3-33.1,16.1-6.8,30.8-1.6,40.5,8.1a41.87,41.87,0,0,1,9.9,16.3h0c8.2-11.1,26.5-7.6,27.9,12.5v.3c8.3,1.4,23,7.3,23,25.8,0,23.8-23.7,25.8-23.7,25.8l-91.9-.1c-13.5,0-25.3-10.3-26.1-23.8,0-.7-.1-1.4-.1-2.1,0-15.9,10.4-22.8,19.5-25.2Z" fill="#29abe2" stroke="#232f3e" stroke-linejoin="round" stroke-width="2"/><path d="M546.49,102.88a34,34,0,0,1-.3-4.5c0-12.9,8.8-27.8,21.3-33.1,16.1-6.8,30.8-1.6,40.5,8.1a41.87,41.87,0,0,1,9.9,16.3h0c8.2-11.1,26.5-7.6,27.9,12.5v.3c8.3,1.4,23,7.3,23,25.8,0,23.8-23.7,25.8-23.7,25.8l-91.9-.1c-13.5,0-25.3-10.3-26.1-23.8,0-.7-.1-1.4-.1-2.1,0-15.9,10.4-22.8,19.5-25.2Z" fill="#f7931e" stroke="#232f3e" stroke-linejoin="round" stroke-width="2"/><path d="M649.29,137.34a34,34,0,0,1-.3-4.5c0-12.9,8.8-27.8,21.3-33.1,16.1-6.8,30.8-1.6,40.5,8.1a41.87,41.87,0,0,1,9.9,16.3h0c8.2-11.1,26.5-7.6,27.9,12.5v.3c8.3,1.4,23,7.3,23,25.8,0,23.8-23.7,25.8-23.7,25.8l-91.9-.1c-13.5,0-25.3-10.3-26.1-23.8,0-.7-.1-1.4-.1-2.1,0-15.9,10.4-22.8,19.5-25.2Z" fill="#fff" stroke="#232f3e" stroke-linejoin="round" stroke-width="2"/><g id="725701a3-c306-44e0-88f6-6d5e5d664fe9" data-name="Layer 1"><path d="M721,311.87h-80.4a2,2,0,0,1-2-2v-18.5a2,2,0,0,1,2-2h80.5a2,2,0,0,1,2,2v18.5A2.16,2.16,0,0,1,721,311.87Z" fill="none" stroke="#232f3e" stroke-linejoin="round" stroke-width="2"/><path d="M721.09,342.37h-80.6a1.9,1.9,0,0,1-1.9-1.9v-18.6a1.9,1.9,0,0,1,1.9-1.9h80.6a1.9,1.9,0,0,1,1.9,1.9v18.6A1.84,1.84,0,0,1,721.09,342.37Z" fill="none" stroke="#232f3e" stroke-linejoin="round" stroke-width="2"/><rect x="649.79" y="311.87" width="62" height="7.6" fill="none" stroke="#232f3e" stroke-linejoin="round" stroke-width="2"/><path d="M721,372.87h-80.4a2,2,0,0,1-2-2v-18.5a2,2,0,0,1,2-2h80.5a2,2,0,0,1,2,2v18.5A2.16,2.16,0,0,1,721,372.87Z" fill="none" stroke="#232f3e" stroke-linejoin="round" stroke-width="2"/><rect x="651.39" y="296.67" width="7.9" height="7.9" fill="none" stroke="#527fff" stroke-linejoin="round" stroke-width="2"/><rect x="670.09" y="296.67" width="7.9" height="7.9" fill="none" stroke="#527fff" stroke-linejoin="round" stroke-width="2"/><rect x="649.79" y="342.77" width="62" height="7.6" fill="none" stroke="#232f3e" stroke-linejoin="round" stroke-width="2"/><rect x="686.19" y="327.17" width="7.9" height="7.9" fill="none" stroke="#527fff" stroke-linejoin="round" stroke-width="2"/><rect x="704.99" y="327.17" width="7.9" height="7.9" fill="none" stroke="#527fff" stroke-linejoin="round" stroke-width="2"/><rect x="651.39" y="357.67" width="7.9" height="7.9" fill="none" stroke="#527fff" stroke-linejoin="round" stroke-width="2"/><rect x="670.09" y="357.67" width="7.9" height="7.9" fill="none" stroke="#527fff" stroke-linejoin="round" stroke-width="2"/><rect x="647.09" y="372.87" width="20.4" height="7.6" fill="none" stroke="#232f3e" stroke-linejoin="round" stroke-width="2"/><rect x="694.39" y="372.87" width="20.4" height="7.6" fill="none" stroke="#232f3e" stroke-linejoin="round" stroke-width="2"/><path d="M663.89,261c0,6-14.6,10.8-34.7,10.8s-34.7-4.8-34.7-10.8,14.6-12.1,34.7-12.1S663.89,255,663.89,261Z" fill="none" stroke="#232f3e" stroke-linejoin="round" stroke-width="2"/><path d="M629.19,293.27c-20.1,0-34.7-4.8-34.7-10.8" fill="none" stroke="#232f3e" stroke-linejoin="round" stroke-width="2"/><path d="M629.19,314.57c-20.1,0-34.7-4.8-34.7-10.8" fill="none" stroke="#232f3e" stroke-linejoin="round" stroke-width="2"/><line x1="594.59" y1="260.27" x2="594.59" y2="323.87" fill="none" stroke="#232f3e" stroke-linejoin="round" stroke-width="2"/><line x1="663.89" y1="260.97" x2="663.89" y2="281.07" fill="none" stroke="#232f3e" stroke-linejoin="round" stroke-width="2"/><path d="M630.79,334.47c-20.1,0-36.2-4.8-36.2-10.8" fill="none" stroke="#232f3e" stroke-linejoin="round" stroke-width="2"/></g><polygon points="540.12 260.62 527.05 267.3 539.76 273.93 552.89 267.3 540.12 260.62" fill="none" stroke="#232f3e" stroke-linejoin="round" stroke-width="2"/><polygon points="527.05 267.3 527.05 284.2 539.94 290.83 539.94 273.93 527.05 267.3" fill="none" stroke="#232f3e" stroke-linejoin="round" stroke-width="2"/><polygon points="552.89 267.3 552.89 284.2 539.94 290.83 539.94 273.93 552.89 267.3" fill="none" stroke="#232f3e" stroke-linejoin="round" stroke-width="2"/><polygon points="419.73 213.09 398.23 224.09 419.13 235 440.73 224.09 419.73 213.09" fill="none" stroke="#232f3e" stroke-linejoin="round" stroke-width="2"/><polygon points="398.23 224.09 398.23 251.9 419.43 262.8 419.43 235 398.23 224.09" fill="none" stroke="#232f3e" stroke-linejoin="round" stroke-width="2"/><polygon points="440.73 224.09 440.73 251.9 419.43 262.8 419.43 235 440.73 224.09" fill="none" stroke="#232f3e" stroke-linejoin="round" stroke-width="2"/><polygon points="469.1 273.92 452.36 282.49 468.63 290.97 485.45 282.49 469.1 273.92" fill="none" stroke="#232f3e" stroke-linejoin="round" stroke-width="2"/><polygon points="452.36 282.49 452.36 304.13 468.87 312.62 468.87 290.97 452.36 282.49" fill="none" stroke="#232f3e" stroke-linejoin="round" stroke-width="2"/><polygon points="485.45 282.49 485.45 304.13 468.87 312.62 468.87 290.97 485.45 282.49" fill="none" stroke="#232f3e" stroke-linejoin="round" stroke-width="2"/><polygon points="477.31 44.16 464.27 50.83 476.95 57.44 490.04 50.83 477.31 44.16" fill="none" stroke="#232f3e" stroke-linejoin="round" stroke-width="2"/><polygon points="464.27 50.83 464.27 67.68 477.13 74.29 477.13 57.44 464.27 50.83" fill="none" stroke="#232f3e" stroke-linejoin="round" stroke-width="2"/><polygon points="490.04 50.83 490.04 67.68 477.13 74.29 477.13 57.44 490.04 50.83" fill="none" stroke="#232f3e" stroke-linejoin="round" stroke-width="2"/><polygon points="489.93 93.07 476.9 99.74 489.57 106.34 502.67 99.74 489.93 93.07" fill="none" stroke="#232f3e" stroke-linejoin="round" stroke-width="2"/><polygon points="476.9 99.74 476.9 116.59 489.75 123.2 489.75 106.34 476.9 99.74" fill="none" stroke="#232f3e" stroke-linejoin="round" stroke-width="2"/><polygon points="502.67 99.74 502.67 116.59 489.75 123.2 489.75 106.34 502.67 99.74" fill="none" stroke="#232f3e" stroke-linejoin="round" stroke-width="2"/><polygon points="232.71 155.08 207.79 167.83 232.02 180.47 257.06 167.83 232.71 155.08" fill="none" stroke="#232f3e" stroke-linejoin="round" stroke-width="2"/><polygon points="207.79 167.83 207.79 200.06 232.37 212.69 232.37 180.47 207.79 167.83" fill="none" stroke="#232f3e" stroke-linejoin="round" stroke-width="2"/><polygon points="257.06 167.83 257.06 200.06 232.37 212.69 232.37 180.47 257.06 167.83" fill="none" stroke="#232f3e" stroke-linejoin="round" stroke-width="2"/><path d="M107.75,238.54h0a10.85,10.85,0,0,0-10.86-10.86h0a10.85,10.85,0,0,0,10.86-10.86h0a10.85,10.85,0,0,0,10.86,10.86h0a10.73,10.73,0,0,0-10.86,10.86Z" fill="none" stroke="#527fff" stroke-linejoin="round" stroke-width="2"/><path d="M585,180.82h0a5.7,5.7,0,0,0-5.7-5.7h0a5.7,5.7,0,0,0,5.7-5.7h0a5.7,5.7,0,0,0,5.7,5.7h0a5.63,5.63,0,0,0-5.7,5.7Z" fill="none" stroke="#527fff" stroke-linejoin="round" stroke-width="2"/><path d="M538.11,58.25h0a5.7,5.7,0,0,0-5.7-5.7h0a5.7,5.7,0,0,0,5.7-5.7h0a5.7,5.7,0,0,0,5.7,5.7h0a5.63,5.63,0,0,0-5.7,5.7Z" fill="none" stroke="#527fff" stroke-linejoin="round" stroke-width="2"/><path d="M618.7,64h0a5.7,5.7,0,0,0-5.7-5.7h0a5.7,5.7,0,0,0,5.7-5.7h0a5.7,5.7,0,0,0,5.7,5.7h0a5.63,5.63,0,0,0-5.7,5.7Z" fill="none" stroke="#527fff" stroke-linejoin="round" stroke-width="2"/><path d="M624.4,194.24h0a5.7,5.7,0,0,0-5.7-5.7h0a5.7,5.7,0,0,0,5.7-5.7h0a5.7,5.7,0,0,0,5.7,5.7h0a5.63,5.63,0,0,0-5.7,5.7Z" fill="none" stroke="#527fff" stroke-linejoin="round" stroke-width="2"/></svg>