<?xml version="1.0" encoding="UTF-8" standalone="yes"?>
<!DOCTYPE svg PUBLIC "-//W3C//DTD SVG 1.1//EN" "http://www.w3.org/Graphics/SVG/1.1/DTD/svg11.dtd">
<svg xmlns="http://www.w3.org/2000/svg" xmlns:xlink="http://www.w3.org/1999/xlink" height="300" x="0" style="zoom: 1;" y="0" width="800" cursor="default" version="1.1"><defs><linearGradient y1="425.435" id="Gradient_1" x1="62.97" y2="425.435" x2="401.688" gradientUnits="userSpaceOnUse"><stop stop-color="#B3B3B3" offset="0"></stop><stop stop-color="#E2E2E2" offset="1"></stop></linearGradient></defs><g id="Layer_1"><path d="M-50.029999,288.934998 L245.903992,288.934998 L288.687988,328.404999 L245.903992,369.934998 L-50.029999,369.934998 L-50.029999,288.934998  z " display="none" fill="url(#Gradient_1)"></path><g><path d="M12.850006,51.806 L12.850006,237.378998 L141.161987,277.434998 L269.473999,237.378998 L269.473999,51.806 L269.473999,51.705002 L139.927002,11.320999 L12.850006,51.806  z " fill="#306EFF"></path><path d="M12.850006,51.806 L12.850006,237.378998 L141.161987,277.434998 L269.473999,237.378998 L269.473999,51.806 L269.473999,51.705002 L139.927002,11.320999 L12.850006,51.806  z " stroke="#818181" fill-opacity="0" stroke-width="17" stroke-linejoin="round"></path></g><g><path d="M12.850006,50.806 L12.850006,236.855011 L141.161987,276.910004 L269.473999,236.855011 L269.473999,51.281998 L269.473999,51.179993 L139.927002,10.796997 L12.850006,50.806  z " fill="#306EFF"></path><path d="M12.850006,50.806 L12.850006,236.855011 L141.161987,276.910004 L269.473999,236.855011 L269.473999,51.281998 L269.473999,51.179993 L139.927002,10.796997 L12.850006,50.806  z " stroke="#FFFFFF" fill-opacity="0" stroke-width="16" stroke-linejoin="round"></path></g><g><g><path d="M11.04599,51.281998 L139.359009,91.337006 L139.359009,276.910004 L11.04599,236.855011 L11.04599,51.281998  z " fill="#73A6F4"></path><path d="M11.04599,51.281998 L139.359009,91.337006 L139.359009,276.910004 L11.04599,236.855011 L11.04599,51.281998  z " stroke="#FFFFFF" fill-opacity="0" stroke-width="8" stroke-linejoin="round"></path></g><g><path d="M142.966003,91.337006 L271.278015,51.281998 L271.278015,236.855011 L142.966003,276.910004 L142.966003,91.337006  z " fill="#3972CC"></path><path d="M142.966003,91.337006 L271.278015,51.281998 L271.278015,236.855011 L142.966003,276.910004 L142.966003,91.337006  z " stroke="#FFFFFF" fill-opacity="0" stroke-width="8" stroke-linejoin="round"></path></g><g><path d="M11.04599,51.179993 L140.593994,10.796997 L270.140991,51.179993 L140.593994,91.563995 L11.04599,51.179993  z " fill="#4F94FF"></path><path d="M11.04599,51.179993 L140.593994,10.796997 L270.140991,51.179993 L140.593994,91.563995 L11.04599,51.179993  z " stroke="#FFFFFF" fill-opacity="0" stroke-width="8" stroke-linejoin="round"></path></g></g><g id="path3059" opacity="0.7"><path d="M82.112,109.994003 C80.516998,109.091995 78.990005,109.927994 78.703003,111.862 C78.699005,111.891006 78.699997,111.923004 78.695999,111.953003 C78.654999,112.214005 78.595993,112.524002 78.570007,112.757004 C78.442001,113.893997 78.537994,114.873001 78.520004,115.975998 C78.436005,118.313004 78.367996,120.251007 77.990997,121.873993 C77.774002,122.444 77.255997,122.783997 76.811005,122.973007 L76.544998,124.266998 C74.787994,123.444 73,122.744003 71.192001,122.190002 C63.414993,119.806 56.330994,120.369003 50.567993,123.278 C50.283997,122.860001 49.791,122.108002 49.645004,121.880005 C49.117996,121.664993 48.570999,121.544006 47.955994,120.727997 C46.804001,119.048004 45.822006,117.072006 44.630997,114.688004 C44.091003,113.563995 43.725006,112.578003 43.057007,111.412003 C42.906006,111.147003 42.669998,110.770996 42.498993,110.490005 C41.970993,109.619995 41.296005,108.940002 40.608994,108.524002 C39.725998,107.988998 38.815002,107.884003 38.141998,108.332993 C36.945007,109.130997 36.953995,111.391006 38.160995,113.380005 C38.173004,113.399994 38.186996,113.417999 38.199005,113.438004 C38.365005,113.714005 38.565994,114.061996 38.720001,114.302002 C39.445007,115.429993 40.145996,116.194 40.888,117.184006 C42.442993,119.324997 43.731995,121.100006 44.695007,122.906006 C45.061996,123.673004 45.003998,124.625 45.005005,125.052002 L45.796997,126.477005 C39.630997,131.811005 35.843002,140.562988 35.677002,151.570007 L34.410004,151.268982 C34.024002,151.537994 33.468002,151.98999 32.966003,151.934021 C31.403,151.604004 29.703003,150.846008 27.649002,149.934998 C26.688004,149.484985 25.876999,148.971008 24.841003,148.609985 C24.613007,148.531006 24.292007,148.444 24.041,148.369019 C24.031998,148.365997 24.024002,148.36499 24.014999,148.362 C24.001007,148.358002 23.983002,148.35498 23.970001,148.351013 C22.199997,147.837006 20.852997,148.924988 20.955002,150.806 C21.057007,152.687988 22.567993,154.651001 24.341003,155.21698 C24.354004,155.221008 24.371994,155.231018 24.384995,155.234985 C24.404999,155.240997 24.423996,155.23999 24.444,155.246002 C24.690994,155.324005 25,155.429993 25.218002,155.487 C26.248993,155.757019 27.028,155.738007 27.970993,155.869019 C29.994003,156.201996 31.669998,156.471985 33.248001,157.101013 C33.901001,157.410004 34.507004,158.281982 34.813995,158.679016 L36.108002,159.156006 C37.548996,170.592987 42.445007,181.947998 49.395996,191.265015 L48.667007,192.34201 C48.776993,192.981995 48.878006,193.821991 48.658997,194.269012 C47.862,195.537994 46.653,196.669006 45.281998,197.916992 C44.623993,198.479004 43.983002,198.84201 43.358002,199.55899 C43.209,199.730011 43.009995,200.01001 42.862,200.196991 C41.862,201.51001 42.110001,203.813995 43.425003,205.368988 C44.748001,206.93399 46.647995,207.147003 47.677002,205.846985 C47.677994,205.845001 47.682007,205.845001 47.684006,205.842987 C47.684998,205.84201 47.684006,205.838013 47.684998,205.837006 C47.830994,205.653015 48.035004,205.416992 48.162003,205.238007 C48.723007,204.446991 48.990005,203.647003 49.425003,202.821014 C50.5,201.158997 51.246994,199.199005 52.501999,198.424988 C52.845993,198.213013 53.337006,198.334015 53.845993,198.46701 L54.692001,197.545013 C60.979004,204.141998 68.369995,209.138 76.141998,211.519989 C77.914993,212.063995 79.647003,212.449005 81.341003,212.694 C81.472,213.153015 81.712006,214.029999 81.778,214.253998 C82.246994,214.709991 82.774002,215.105988 83.108002,216.065002 C83.677002,217.97699 83.957993,220.016998 84.302002,222.484009 C84.442993,223.635986 84.455002,224.592987 84.712006,225.846985 C84.770996,226.132996 84.876999,226.548004 84.949997,226.856995 C85.460999,229.033997 87.128998,230.84201 88.679001,230.899994 C90.216003,230.957001 91.057999,229.269989 90.572998,227.117004 C90.498993,226.804993 90.401001,226.356995 90.322006,226.056 C89.990997,224.799011 89.546997,223.829987 89.145996,222.667999 C88.330002,220.18399 87.653,218.121002 87.328003,216.217987 C87.214996,215.266998 87.565002,214.912994 87.826004,214.484985 C87.737,214.286011 87.617996,213.381989 87.533997,212.940002 C96.289993,212.312012 103.406006,207.429993 107.584,199.506989 C107.949005,199.782013 108.580002,200.274994 108.783997,200.440002 C109.264999,200.372986 109.725006,200.191986 110.498001,200.701996 C112.003998,201.816986 113.494995,203.337006 115.294998,205.165985 C116.128006,206.039001 116.779999,206.875 117.725006,207.721985 C117.925003,207.901001 118.216003,208.127991 118.445999,208.320007 C118.464996,208.335999 118.479996,208.355988 118.498993,208.371002 C118.511002,208.381989 118.529007,208.391998 118.541,208.403015 C120.194,209.77301 122.01001,209.691986 122.610992,208.208008 C123.213013,206.725006 122.373993,204.398987 120.738007,202.988007 C120.498993,202.786987 120.162994,202.484009 119.929993,202.298004 C118.955994,201.522003 118.130005,201.110992 117.195007,200.489014 C115.209,199.115997 113.563995,197.981995 112.154007,196.631012 C111.585999,196.032013 111.272003,195.002014 111.110001,194.55899 L109.998001,193.528992 C111.313004,189.097992 111.888,184.039001 111.580002,178.476013 C111.268997,172.862 110.084,167.218994 108.195007,161.768005 C108.539001,161.640991 109.184998,161.414001 109.369003,161.343994 C109.5,160.806 109.548004,160.190002 110.177002,159.867004 C111.485992,159.346008 113.061996,159.190979 114.962997,159.005005 C115.860992,158.942017 116.669998,159.031006 117.591003,158.833984 C117.800003,158.789001 118.089005,158.695984 118.309998,158.63501 C119.875,158.212006 120.503006,156.312988 119.710007,154.390015 C118.917999,152.468018 117.009003,151.248993 115.444,151.671021 C115.220993,151.72998 114.921005,151.800995 114.718994,151.867004 C113.835007,152.156006 113.248993,152.604004 112.483994,152.98999 C110.824997,153.763 109.451996,154.414001 108.018005,154.632019 C107.404999,154.671021 106.602997,154.083984 106.233994,153.850006 L105.007996,154.083008 C99.807999,143.375 91.957993,133.970001 82.906006,127.886002 C82.942001,127.451996 83.020996,126.673996 83.046997,126.440994 C82.729004,125.835999 82.324997,125.244003 82.337006,124.330994 C82.462997,122.565994 82.942993,120.862 83.513,118.800003 C83.800003,117.848999 84.149994,117.121002 84.354004,116.028 C84.399994,115.779007 84.440994,115.403 84.481003,115.128998 C84.768005,113.195007 83.707993,110.895996 82.112,109.994003  z M74.862,132.388 L71.548004,148.432007 L71.481003,148.431 C71.203003,149.877014 69.912003,150.427002 68.542007,149.651978 C67.981003,149.335022 67.492996,148.845001 67.121002,148.272003 L67.095001,148.270996 L56.097,131.638 C60.524994,129.701004 65.858994,129.436996 71.695999,131.225998 C72.761993,131.552002 73.817993,131.945007 74.862,132.388  z M82.102997,136.483002 C88.544006,141.080994 94.139999,147.763 98.057999,155.372009 L84.294006,157.937988 L84.253998,157.893982 C83.028,158.147003 81.516006,157.057007 80.835999,155.406006 C80.557007,154.72998 80.457001,154.063995 80.518997,153.483002 L80.507996,153.468994  z M50.673004,135.264008 L60.373993,152.747986 L60.350998,152.807983 C61.231003,154.358002 61.132004,156.127991 60.104004,156.813995 C59.682999,157.093994 59.167007,157.149994 58.641998,157.015991 L58.621002,157.062988 L43.397995,153.417999 C43.755005,145.617004 46.417007,139.343018 50.673004,135.264008  z M101.664993,164.104004 C102.908005,168.037994 103.690002,172.088013 103.912994,176.126007 C104.134003,180.115997 103.792999,183.781006 102.973007,187.04599 L89.037994,174.188995 L89.035995,174.11499 C87.785004,172.984009 87.195999,171.076996 87.718002,169.792999 C87.931,169.266998 88.296997,168.925995 88.744995,168.776001 L88.744003,168.739014 L101.664993,164.104004  z M72.110001,160.311005 L76.759003,162.938995 L79.061996,168.510986 L77.294006,172.839996 L72.796005,172.667999 L68.938004,168.106995 L68.630997,162.605988  z M85.007996,182.216003 C85.207001,182.31601 85.401001,182.446991 85.587006,182.593994 L85.617004,182.575012 L100.246994,193.854004 C97.042999,199.355988 91.962006,202.817993 85.751999,203.546997 L82.199005,184.860992 L82.222,184.843994 C81.886993,183.181 82.660995,181.890991 83.992004,181.940002 C84.332001,181.953003 84.675995,182.048004 85.007996,182.216003  z M59.733002,167.997009 C60.878006,168.664001 61.779007,170.11499 61.856003,171.540009 C61.891998,172.208008 61.744003,172.764008 61.460007,173.170013 L61.494003,173.255005 L53.453003,185.21701 C48.613007,178.381989 45.151993,170.287994 43.882996,162.040985 L59.205994,167.713989 L59.225998,167.760986 C59.397995,167.821991 59.569,167.902008 59.733002,167.997009  z M71.339996,181.792999 C71.742004,182.002991 72.134995,182.321991 72.490005,182.742004 C72.955994,183.294006 73.285004,183.933014 73.455994,184.572998 L73.511002,184.605011 L78.710007,203.25 C77.703995,203.059998 76.677994,202.803009 75.638,202.484009 C69.809006,200.696991 64.266998,197.105988 59.472,192.351013 L68.955002,182.035004 L68.966995,182.041992 C69.541,181.394012 70.455002,181.330994 71.339996,181.792999  z " fill="#FFFFFF"></path><path d="M82.112,109.994003 C80.516998,109.091995 78.990005,109.927994 78.703003,111.862 C78.699005,111.891006 78.699997,111.923004 78.695999,111.953003 C78.654999,112.214005 78.595993,112.524002 78.570007,112.757004 C78.442001,113.893997 78.537994,114.873001 78.520004,115.975998 C78.436005,118.313004 78.367996,120.251007 77.990997,121.873993 C77.774002,122.444 77.255997,122.783997 76.811005,122.973007 L76.544998,124.266998 C74.787994,123.444 73,122.744003 71.192001,122.190002 C63.414993,119.806 56.330994,120.369003 50.567993,123.278 C50.283997,122.860001 49.791,122.108002 49.645004,121.880005 C49.117996,121.664993 48.570999,121.544006 47.955994,120.727997 C46.804001,119.048004 45.822006,117.072006 44.630997,114.688004 C44.091003,113.563995 43.725006,112.578003 43.057007,111.412003 C42.906006,111.147003 42.669998,110.770996 42.498993,110.490005 C41.970993,109.619995 41.296005,108.940002 40.608994,108.524002 C39.725998,107.988998 38.815002,107.884003 38.141998,108.332993 C36.945007,109.130997 36.953995,111.391006 38.160995,113.380005 C38.173004,113.399994 38.186996,113.417999 38.199005,113.438004 C38.365005,113.714005 38.565994,114.061996 38.720001,114.302002 C39.445007,115.429993 40.145996,116.194 40.888,117.184006 C42.442993,119.324997 43.731995,121.100006 44.695007,122.906006 C45.061996,123.673004 45.003998,124.625 45.005005,125.052002 L45.796997,126.477005 C39.630997,131.811005 35.843002,140.562988 35.677002,151.570007 L34.410004,151.268982 C34.024002,151.537994 33.468002,151.98999 32.966003,151.934021 C31.403,151.604004 29.703003,150.846008 27.649002,149.934998 C26.688004,149.484985 25.876999,148.971008 24.841003,148.609985 C24.613007,148.531006 24.292007,148.444 24.041,148.369019 C24.031998,148.365997 24.024002,148.36499 24.014999,148.362 C24.001007,148.358002 23.983002,148.35498 23.970001,148.351013 C22.199997,147.837006 20.852997,148.924988 20.955002,150.806 C21.057007,152.687988 22.567993,154.651001 24.341003,155.21698 C24.354004,155.221008 24.371994,155.231018 24.384995,155.234985 C24.404999,155.240997 24.423996,155.23999 24.444,155.246002 C24.690994,155.324005 25,155.429993 25.218002,155.487 C26.248993,155.757019 27.028,155.738007 27.970993,155.869019 C29.994003,156.201996 31.669998,156.471985 33.248001,157.101013 C33.901001,157.410004 34.507004,158.281982 34.813995,158.679016 L36.108002,159.156006 C37.548996,170.592987 42.445007,181.947998 49.395996,191.265015 L48.667007,192.34201 C48.776993,192.981995 48.878006,193.821991 48.658997,194.269012 C47.862,195.537994 46.653,196.669006 45.281998,197.916992 C44.623993,198.479004 43.983002,198.84201 43.358002,199.55899 C43.209,199.730011 43.009995,200.01001 42.862,200.196991 C41.862,201.51001 42.110001,203.813995 43.425003,205.368988 C44.748001,206.93399 46.647995,207.147003 47.677002,205.846985 C47.677994,205.845001 47.682007,205.845001 47.684006,205.842987 C47.684998,205.84201 47.684006,205.838013 47.684998,205.837006 C47.830994,205.653015 48.035004,205.416992 48.162003,205.238007 C48.723007,204.446991 48.990005,203.647003 49.425003,202.821014 C50.5,201.158997 51.246994,199.199005 52.501999,198.424988 C52.845993,198.213013 53.337006,198.334015 53.845993,198.46701 L54.692001,197.545013 C60.979004,204.141998 68.369995,209.138 76.141998,211.519989 C77.914993,212.063995 79.647003,212.449005 81.341003,212.694 C81.472,213.153015 81.712006,214.029999 81.778,214.253998 C82.246994,214.709991 82.774002,215.105988 83.108002,216.065002 C83.677002,217.97699 83.957993,220.016998 84.302002,222.484009 C84.442993,223.635986 84.455002,224.592987 84.712006,225.846985 C84.770996,226.132996 84.876999,226.548004 84.949997,226.856995 C85.460999,229.033997 87.128998,230.84201 88.679001,230.899994 C90.216003,230.957001 91.057999,229.269989 90.572998,227.117004 C90.498993,226.804993 90.401001,226.356995 90.322006,226.056 C89.990997,224.799011 89.546997,223.829987 89.145996,222.667999 C88.330002,220.18399 87.653,218.121002 87.328003,216.217987 C87.214996,215.266998 87.565002,214.912994 87.826004,214.484985 C87.737,214.286011 87.617996,213.381989 87.533997,212.940002 C96.289993,212.312012 103.406006,207.429993 107.584,199.506989 C107.949005,199.782013 108.580002,200.274994 108.783997,200.440002 C109.264999,200.372986 109.725006,200.191986 110.498001,200.701996 C112.003998,201.816986 113.494995,203.337006 115.294998,205.165985 C116.128006,206.039001 116.779999,206.875 117.725006,207.721985 C117.925003,207.901001 118.216003,208.127991 118.445999,208.320007 C118.464996,208.335999 118.479996,208.355988 118.498993,208.371002 C118.511002,208.381989 118.529007,208.391998 118.541,208.403015 C120.194,209.77301 122.01001,209.691986 122.610992,208.208008 C123.213013,206.725006 122.373993,204.398987 120.738007,202.988007 C120.498993,202.786987 120.162994,202.484009 119.929993,202.298004 C118.955994,201.522003 118.130005,201.110992 117.195007,200.489014 C115.209,199.115997 113.563995,197.981995 112.154007,196.631012 C111.585999,196.032013 111.272003,195.002014 111.110001,194.55899 L109.998001,193.528992 C111.313004,189.097992 111.888,184.039001 111.580002,178.476013 C111.268997,172.862 110.084,167.218994 108.195007,161.768005 C108.539001,161.640991 109.184998,161.414001 109.369003,161.343994 C109.5,160.806 109.548004,160.190002 110.177002,159.867004 C111.485992,159.346008 113.061996,159.190979 114.962997,159.005005 C115.860992,158.942017 116.669998,159.031006 117.591003,158.833984 C117.800003,158.789001 118.089005,158.695984 118.309998,158.63501 C119.875,158.212006 120.503006,156.312988 119.710007,154.390015 C118.917999,152.468018 117.009003,151.248993 115.444,151.671021 C115.220993,151.72998 114.921005,151.800995 114.718994,151.867004 C113.835007,152.156006 113.248993,152.604004 112.483994,152.98999 C110.824997,153.763 109.451996,154.414001 108.018005,154.632019 C107.404999,154.671021 106.602997,154.083984 106.233994,153.850006 L105.007996,154.083008 C99.807999,143.375 91.957993,133.970001 82.906006,127.886002 C82.942001,127.451996 83.020996,126.673996 83.046997,126.440994 C82.729004,125.835999 82.324997,125.244003 82.337006,124.330994 C82.462997,122.565994 82.942993,120.862 83.513,118.800003 C83.800003,117.848999 84.149994,117.121002 84.354004,116.028 C84.399994,115.779007 84.440994,115.403 84.481003,115.128998 C84.768005,113.195007 83.707993,110.895996 82.112,109.994003  z M74.862,132.388 L71.548004,148.432007 L71.481003,148.431 C71.203003,149.877014 69.912003,150.427002 68.542007,149.651978 C67.981003,149.335022 67.492996,148.845001 67.121002,148.272003 L67.095001,148.270996 L56.097,131.638 C60.524994,129.701004 65.858994,129.436996 71.695999,131.225998 C72.761993,131.552002 73.817993,131.945007 74.862,132.388  z M82.102997,136.483002 C88.544006,141.080994 94.139999,147.763 98.057999,155.372009 L84.294006,157.937988 L84.253998,157.893982 C83.028,158.147003 81.516006,157.057007 80.835999,155.406006 C80.557007,154.72998 80.457001,154.063995 80.518997,153.483002 L80.507996,153.468994  z M50.673004,135.264008 L60.373993,152.747986 L60.350998,152.807983 C61.231003,154.358002 61.132004,156.127991 60.104004,156.813995 C59.682999,157.093994 59.167007,157.149994 58.641998,157.015991 L58.621002,157.062988 L43.397995,153.417999 C43.755005,145.617004 46.417007,139.343018 50.673004,135.264008  z M101.664993,164.104004 C102.908005,168.037994 103.690002,172.088013 103.912994,176.126007 C104.134003,180.115997 103.792999,183.781006 102.973007,187.04599 L89.037994,174.188995 L89.035995,174.11499 C87.785004,172.984009 87.195999,171.076996 87.718002,169.792999 C87.931,169.266998 88.296997,168.925995 88.744995,168.776001 L88.744003,168.739014 L101.664993,164.104004  z M72.110001,160.311005 L76.759003,162.938995 L79.061996,168.510986 L77.294006,172.839996 L72.796005,172.667999 L68.938004,168.106995 L68.630997,162.605988  z M85.007996,182.216003 C85.207001,182.31601 85.401001,182.446991 85.587006,182.593994 L85.617004,182.575012 L100.246994,193.854004 C97.042999,199.355988 91.962006,202.817993 85.751999,203.546997 L82.199005,184.860992 L82.222,184.843994 C81.886993,183.181 82.660995,181.890991 83.992004,181.940002 C84.332001,181.953003 84.675995,182.048004 85.007996,182.216003  z M59.733002,167.997009 C60.878006,168.664001 61.779007,170.11499 61.856003,171.540009 C61.891998,172.208008 61.744003,172.764008 61.460007,173.170013 L61.494003,173.255005 L53.453003,185.21701 C48.613007,178.381989 45.151993,170.287994 43.882996,162.040985 L59.205994,167.713989 L59.225998,167.760986 C59.397995,167.821991 59.569,167.902008 59.733002,167.997009  z M71.339996,181.792999 C71.742004,182.002991 72.134995,182.321991 72.490005,182.742004 C72.955994,183.294006 73.285004,183.933014 73.455994,184.572998 L73.511002,184.605011 L78.710007,203.25 C77.703995,203.059998 76.677994,202.803009 75.638,202.484009 C69.809006,200.696991 64.266998,197.105988 59.472,192.351013 L68.955002,182.035004 L68.966995,182.041992 C69.541,181.394012 70.455002,181.330994 71.339996,181.792999  z " stroke="#000000" fill-opacity="0" stroke-width="0.25"></path></g><g id="path3059" opacity="0.5"><path d="M199.907013,114.578995 C198.337006,115.197998 197.199005,117.166 197.367004,118.975006 C197.369995,119.001999 197.377991,119.026993 197.381012,119.054001 C197.401001,119.300995 197.416992,119.602005 197.445007,119.813004 C197.57901,120.841003 197.872986,121.552994 198.093994,122.462997 C198.523987,124.425995 198.882996,126.052994 198.906006,127.686996 C198.841003,128.332001 198.46701,129.046005 198.123993,129.574997 L198.171997,130.848999 C196.479004,131.667007 194.786011,132.612 193.108002,133.692001 C185.88501,138.338013 179.893005,144.785004 175.54599,152.015991 C175.212006,151.916992 174.623993,151.725006 174.449005,151.664001 C173.947998,151.934998 173.450012,152.299988 172.743988,152.158997 C171.389008,151.772003 170.117004,151.002991 168.576996,150.078003 C167.868988,149.625 167.341003,149.135986 166.515015,148.755005 C166.326996,148.669006 166.042999,148.563995 165.834015,148.481018 C165.19101,148.223022 164.463989,148.242981 163.781006,148.487 C162.903992,148.799988 162.096008,149.485992 161.610992,150.419006 C160.75,152.076996 161.243988,153.899994 162.713013,154.48999 C162.727997,154.496002 162.743988,154.498993 162.759003,154.505005 C162.960999,154.588989 163.209015,154.700012 163.394012,154.764008 C164.260986,155.065002 165.031006,155.091003 165.884003,155.265991 C167.686005,155.684998 169.178986,156.03302 170.398987,156.681 C170.880005,156.990997 171.035004,157.812012 171.127991,158.156982 L172.117004,158.641998 C167.944,168.175995 166.558014,178.468994 168.781006,187.524994 L167.622986,188.352997 C167.347992,188.897003 166.966003,189.733002 166.519989,190.113007 C165.10199,191.166992 163.471008,191.990997 161.502991,192.98999 C160.576996,193.437988 159.766998,193.707001 158.79599,194.290985 C158.582001,194.420013 158.286011,194.621002 158.053009,194.77301 C158.045013,194.778015 158.036987,194.783997 158.028992,194.789001 C158.016998,194.796997 158,194.809998 157.988007,194.817993 C156.351013,195.89801 155.421997,197.919006 155.915009,199.356995 C156.407013,200.794006 158.132996,201.106995 159.785004,200.06601 C159.796997,200.058014 159.813995,200.050995 159.826996,200.042999 C159.845001,200.031006 159.860992,200.015015 159.880005,200.002014 C160.109985,199.855988 160.398987,199.681 160.598999,199.542999 C161.546997,198.889008 162.214996,198.214996 163.057007,197.52301 C164.873993,196.083008 166.377991,194.884003 167.875,194.05899 C168.505005,193.757996 169.214996,193.951996 169.565002,194.014008 L170.783997,193.304993 C174.487,201.350006 181.153015,206.407013 189.153992,208.075989 L188.756012,209.565002 C188.989014,209.990997 189.256989,210.584991 189.164001,211.131989 C188.748993,212.834015 187.949005,214.772003 187.033997,216.942993 C186.588013,217.954987 186.113007,218.790985 185.727997,219.898987 C185.635986,220.165009 185.523987,220.559998 185.437012,220.837006 C184.855988,222.746002 185.56601,224.402008 187.033997,224.549988 C188.513,224.699005 190.196991,223.264008 190.806,221.341003 C190.807007,221.338013 190.809998,221.334991 190.811005,221.332001 C190.812012,221.329987 190.809998,221.328003 190.811005,221.325989 C190.897003,221.053009 191.022003,220.690002 191.092987,220.437012 C191.40799,219.321991 191.466003,218.449005 191.662994,217.411987 C192.234009,215.156006 192.457001,212.937012 193.373993,211.247986 C193.625,210.786011 194.075012,210.468994 194.541992,210.147003 L195.074005,208.683014 C201.915985,208.710999 209.368011,206.506012 216.585999,201.864014 C218.233002,200.803986 219.809998,199.652008 221.324005,198.416992 C221.536011,198.678986 221.932007,199.187012 222.036987,199.312012 C222.539001,199.285004 223.07901,199.160004 223.574005,199.653992 C224.476013,200.721008 225.157013,202.135986 225.984009,203.842987 C226.354004,204.657013 226.570007,205.421997 227.061005,206.221008 C227.173004,206.403015 227.354004,206.649994 227.484009,206.838013 C228.391998,208.169006 230.221008,208.222992 231.570007,206.959015 C232.908997,205.704987 233.27301,203.626007 232.390991,202.292999 C232.260986,202.102997 232.079987,201.821991 231.946991,201.645996 C231.390991,200.90799 230.799988,200.497986 230.20401,199.895996 C228.964996,198.574005 227.937012,197.475006 227.247986,196.209015 C226.946014,195.533997 227.171997,194.951996 227.304993,194.384003 C227.186005,194.298004 226.888,193.665985 226.721008,193.380005 C234.140991,185.466003 239.230988,175.493988 241.131989,165.541992 C241.506012,165.457001 242.156006,165.322998 242.368011,165.283997 C242.769012,164.822998 243.127014,164.286987 243.903015,164.04599 C245.442993,163.675995 247.054993,163.647003 249.002014,163.605011 C249.908997,163.608002 250.651001,163.734009 251.648987,163.621002 C251.859985,163.596985 252.158997,163.533997 252.398987,163.494995 C252.419006,163.493011 252.436005,163.496002 252.455994,163.493011 C252.468994,163.490997 252.485992,163.484009 252.498993,163.481995 C254.220001,163.194 255.769012,161.592987 255.968994,159.882019 C256.169006,158.171997 254.945007,156.997986 253.230011,157.239014 C252.980988,157.278015 252.626007,157.315979 252.38501,157.363007 C251.377014,157.557983 250.575989,157.923004 249.63501,158.210999 C247.627014,158.776978 245.963989,159.25 244.457001,159.348999 C243.838013,159.343994 243.345001,158.774994 243.110992,158.552979 L241.929993,158.658997 C242.110992,153.958984 241.519989,149.373993 240.058014,145.128998 C238.583008,140.843994 236.346985,137.274994 233.545013,134.457993 C233.813995,134.063995 234.322998,133.334 234.466003,133.121994 C234.463989,132.574997 234.372009,132.035995 234.846008,131.242004 C235.864014,129.712997 237.190002,128.255005 238.790009,126.496002 C239.552002,125.686005 240.268005,125.074005 241.020996,124.134995 C241.19101,123.921997 241.42099,123.602005 241.597992,123.365997 C242.858002,121.699997 242.992004,119.630997 241.894012,118.744003 C240.796997,117.856003 238.888,118.483994 237.627991,120.149002 C237.449005,120.384995 237.204987,120.697006 237.045013,120.921005 C236.343994,121.903 235.934998,122.761002 235.358002,123.720001 C234.092987,125.75 233.048004,127.438004 231.858002,128.828003 C231.337006,129.378006 230.519012,129.580002 230.149994,129.701996 L229.141998,130.927994 C222.352997,126.651993 213.558014,125.671997 204.438995,128.401001 C204.377014,128.018005 204.278015,127.320999 204.25,127.110001 C203.846008,126.889008 203.369995,126.751007 203.18399,126.001999 C202.912994,124.466003 202.960999,122.679001 203.01001,120.526993 C203.053009,119.514008 203.197998,118.628006 203.139008,117.570007 C203.125,117.330002 203.079987,116.990997 203.054993,116.735001 C202.886993,114.925995 201.477997,113.960007 199.907013,114.578995  z M198.46701,138.848999 L199.057007,154.64801 L198.998993,154.703003 C199.071014,156.109009 198.075012,157.645996 196.726013,158.177002 C196.174011,158.39502 195.647003,158.411987 195.203003,158.260986 L195.179993,158.28302 L182.11499,154.110992 C185.519012,148.798004 190.065002,144.072021 195.484985,140.585022 C196.475006,139.947998 197.471008,139.372986 198.46701,138.848999  z M205.595001,136.041992 C212.140991,134.319 218.406006,135 223.423004,137.850006 L212.098999,151.569 L212.053986,151.567017 C211.050995,152.807983 209.513,153.203979 208.571014,152.442017 C208.184998,152.130005 207.954987,151.674988 207.884003,151.151978 L207.871002,151.149994  z M178.214996,161.63501 L190.343994,167.592987 L190.337006,167.661011 C191.429993,168.171997 191.723999,169.690002 190.984985,171.11499 C190.682007,171.697998 190.248993,172.179993 189.766998,172.515015 L189.76001,172.570007 L175.841003,182.492004 C174.471985,175.871002 175.419006,168.537994 178.214996,161.63501  z M228.412994,141.872009 C230.330994,144.007996 231.876007,146.627014 232.937012,149.708984 C233.985992,152.753998 234.480011,156.010986 234.473999,159.348999 L219.686005,160.718994 L219.667999,160.661011 C218.346008,160.803986 217.428009,159.757019 217.60199,158.274994 C217.673004,157.669006 217.915009,157.083984 218.269989,156.582001 L218.260986,156.552979 L228.412994,141.872009  z M202.096985,163.794006 L206.671997,161.992004 L209.858002,164.557007 L209.263,169.558014 L205.346008,173.222992 L201.035004,172.791992 L199.588013,168.595001  z M217.934998,170.628998 C218.127991,170.542999 218.324005,170.484009 218.515991,170.446014 L218.537994,170.404999 L233.587006,167.169006 C232.005005,174.334991 228.36499,181.436005 223.162994,187.278015 L216.079987,175.147003 L216.096008,175.11499 C215.450012,174.050995 215.839996,172.351013 216.998993,171.265991 C217.295013,170.988007 217.612,170.773987 217.934998,170.628998  z M193.070007,180.487 C194.200989,180.058014 195.290009,180.471985 195.664001,181.561005 C195.838013,182.071014 195.829987,182.64801 195.671997,183.216003 L195.720001,183.256012 L191.354004,199.746002 C185.708008,198.303009 180.981995,194.674011 178.113007,189.066986 L192.553986,180.703003 L192.582001,180.725006 C192.743011,180.628998 192.90799,180.548004 193.070007,180.487  z M206.050995,181.846008 C206.442993,181.675995 206.850006,181.60199 207.247009,181.641998 C207.768005,181.695007 208.188995,181.93399 208.473999,182.308014 L208.528992,182.286987 L217.02301,192.993988 C216.114014,193.690002 215.174988,194.348999 214.209015,194.971008 C208.795013,198.453003 203.240997,200.230988 198.080994,200.43399 L204.045013,184.05899 L204.057007,184.053986 C204.412994,183.044006 205.187988,182.220001 206.050995,181.846008  z " fill="#FFFFFF"></path><path d="M199.907013,114.578995 C198.337006,115.197998 197.199005,117.166 197.367004,118.975006 C197.369995,119.001999 197.377991,119.026993 197.381012,119.054001 C197.401001,119.300995 197.416992,119.602005 197.445007,119.813004 C197.57901,120.841003 197.872986,121.552994 198.093994,122.462997 C198.523987,124.425995 198.882996,126.052994 198.906006,127.686996 C198.841003,128.332001 198.46701,129.046005 198.123993,129.574997 L198.171997,130.848999 C196.479004,131.667007 194.786011,132.612 193.108002,133.692001 C185.88501,138.338013 179.893005,144.785004 175.54599,152.015991 C175.212006,151.916992 174.623993,151.725006 174.449005,151.664001 C173.947998,151.934998 173.450012,152.299988 172.743988,152.158997 C171.389008,151.772003 170.117004,151.002991 168.576996,150.078003 C167.868988,149.625 167.341003,149.135986 166.515015,148.755005 C166.326996,148.669006 166.042999,148.563995 165.834015,148.481018 C165.19101,148.223022 164.463989,148.242981 163.781006,148.487 C162.903992,148.799988 162.096008,149.485992 161.610992,150.419006 C160.75,152.076996 161.243988,153.899994 162.713013,154.48999 C162.727997,154.496002 162.743988,154.498993 162.759003,154.505005 C162.960999,154.588989 163.209015,154.700012 163.394012,154.764008 C164.260986,155.065002 165.031006,155.091003 165.884003,155.265991 C167.686005,155.684998 169.178986,156.03302 170.398987,156.681 C170.880005,156.990997 171.035004,157.812012 171.127991,158.156982 L172.117004,158.641998 C167.944,168.175995 166.558014,178.468994 168.781006,187.524994 L167.622986,188.352997 C167.347992,188.897003 166.966003,189.733002 166.519989,190.113007 C165.10199,191.166992 163.471008,191.990997 161.502991,192.98999 C160.576996,193.437988 159.766998,193.707001 158.79599,194.290985 C158.582001,194.420013 158.286011,194.621002 158.053009,194.77301 C158.045013,194.778015 158.036987,194.783997 158.028992,194.789001 C158.016998,194.796997 158,194.809998 157.988007,194.817993 C156.351013,195.89801 155.421997,197.919006 155.915009,199.356995 C156.407013,200.794006 158.132996,201.106995 159.785004,200.06601 C159.796997,200.058014 159.813995,200.050995 159.826996,200.042999 C159.845001,200.031006 159.860992,200.015015 159.880005,200.002014 C160.109985,199.855988 160.398987,199.681 160.598999,199.542999 C161.546997,198.889008 162.214996,198.214996 163.057007,197.52301 C164.873993,196.083008 166.377991,194.884003 167.875,194.05899 C168.505005,193.757996 169.214996,193.951996 169.565002,194.014008 L170.783997,193.304993 C174.487,201.350006 181.153015,206.407013 189.153992,208.075989 L188.756012,209.565002 C188.989014,209.990997 189.256989,210.584991 189.164001,211.131989 C188.748993,212.834015 187.949005,214.772003 187.033997,216.942993 C186.588013,217.954987 186.113007,218.790985 185.727997,219.898987 C185.635986,220.165009 185.523987,220.559998 185.437012,220.837006 C184.855988,222.746002 185.56601,224.402008 187.033997,224.549988 C188.513,224.699005 190.196991,223.264008 190.806,221.341003 C190.807007,221.338013 190.809998,221.334991 190.811005,221.332001 C190.812012,221.329987 190.809998,221.328003 190.811005,221.325989 C190.897003,221.053009 191.022003,220.690002 191.092987,220.437012 C191.40799,219.321991 191.466003,218.449005 191.662994,217.411987 C192.234009,215.156006 192.457001,212.937012 193.373993,211.247986 C193.625,210.786011 194.075012,210.468994 194.541992,210.147003 L195.074005,208.683014 C201.915985,208.710999 209.368011,206.506012 216.585999,201.864014 C218.233002,200.803986 219.809998,199.652008 221.324005,198.416992 C221.536011,198.678986 221.932007,199.187012 222.036987,199.312012 C222.539001,199.285004 223.07901,199.160004 223.574005,199.653992 C224.476013,200.721008 225.157013,202.135986 225.984009,203.842987 C226.354004,204.657013 226.570007,205.421997 227.061005,206.221008 C227.173004,206.403015 227.354004,206.649994 227.484009,206.838013 C228.391998,208.169006 230.221008,208.222992 231.570007,206.959015 C232.908997,205.704987 233.27301,203.626007 232.390991,202.292999 C232.260986,202.102997 232.079987,201.821991 231.946991,201.645996 C231.390991,200.90799 230.799988,200.497986 230.20401,199.895996 C228.964996,198.574005 227.937012,197.475006 227.247986,196.209015 C226.946014,195.533997 227.171997,194.951996 227.304993,194.384003 C227.186005,194.298004 226.888,193.665985 226.721008,193.380005 C234.140991,185.466003 239.230988,175.493988 241.131989,165.541992 C241.506012,165.457001 242.156006,165.322998 242.368011,165.283997 C242.769012,164.822998 243.127014,164.286987 243.903015,164.04599 C245.442993,163.675995 247.054993,163.647003 249.002014,163.605011 C249.908997,163.608002 250.651001,163.734009 251.648987,163.621002 C251.859985,163.596985 252.158997,163.533997 252.398987,163.494995 C252.419006,163.493011 252.436005,163.496002 252.455994,163.493011 C252.468994,163.490997 252.485992,163.484009 252.498993,163.481995 C254.220001,163.194 255.769012,161.592987 255.968994,159.882019 C256.169006,158.171997 254.945007,156.997986 253.230011,157.239014 C252.980988,157.278015 252.626007,157.315979 252.38501,157.363007 C251.377014,157.557983 250.575989,157.923004 249.63501,158.210999 C247.627014,158.776978 245.963989,159.25 244.457001,159.348999 C243.838013,159.343994 243.345001,158.774994 243.110992,158.552979 L241.929993,158.658997 C242.110992,153.958984 241.519989,149.373993 240.058014,145.128998 C238.583008,140.843994 236.346985,137.274994 233.545013,134.457993 C233.813995,134.063995 234.322998,133.334 234.466003,133.121994 C234.463989,132.574997 234.372009,132.035995 234.846008,131.242004 C235.864014,129.712997 237.190002,128.255005 238.790009,126.496002 C239.552002,125.686005 240.268005,125.074005 241.020996,124.134995 C241.19101,123.921997 241.42099,123.602005 241.597992,123.365997 C242.858002,121.699997 242.992004,119.630997 241.894012,118.744003 C240.796997,117.856003 238.888,118.483994 237.627991,120.149002 C237.449005,120.384995 237.204987,120.697006 237.045013,120.921005 C236.343994,121.903 235.934998,122.761002 235.358002,123.720001 C234.092987,125.75 233.048004,127.438004 231.858002,128.828003 C231.337006,129.378006 230.519012,129.580002 230.149994,129.701996 L229.141998,130.927994 C222.352997,126.651993 213.558014,125.671997 204.438995,128.401001 C204.377014,128.018005 204.278015,127.320999 204.25,127.110001 C203.846008,126.889008 203.369995,126.751007 203.18399,126.001999 C202.912994,124.466003 202.960999,122.679001 203.01001,120.526993 C203.053009,119.514008 203.197998,118.628006 203.139008,117.570007 C203.125,117.330002 203.079987,116.990997 203.054993,116.735001 C202.886993,114.925995 201.477997,113.960007 199.907013,114.578995  z M198.46701,138.848999 L199.057007,154.64801 L198.998993,154.703003 C199.071014,156.109009 198.075012,157.645996 196.726013,158.177002 C196.174011,158.39502 195.647003,158.411987 195.203003,158.260986 L195.179993,158.28302 L182.11499,154.110992 C185.519012,148.798004 190.065002,144.072021 195.484985,140.585022 C196.475006,139.947998 197.471008,139.372986 198.46701,138.848999  z M205.595001,136.041992 C212.140991,134.319 218.406006,135 223.423004,137.850006 L212.098999,151.569 L212.053986,151.567017 C211.050995,152.807983 209.513,153.203979 208.571014,152.442017 C208.184998,152.130005 207.954987,151.674988 207.884003,151.151978 L207.871002,151.149994  z M178.214996,161.63501 L190.343994,167.592987 L190.337006,167.661011 C191.429993,168.171997 191.723999,169.690002 190.984985,171.11499 C190.682007,171.697998 190.248993,172.179993 189.766998,172.515015 L189.76001,172.570007 L175.841003,182.492004 C174.471985,175.871002 175.419006,168.537994 178.214996,161.63501  z M228.412994,141.872009 C230.330994,144.007996 231.876007,146.627014 232.937012,149.708984 C233.985992,152.753998 234.480011,156.010986 234.473999,159.348999 L219.686005,160.718994 L219.667999,160.661011 C218.346008,160.803986 217.428009,159.757019 217.60199,158.274994 C217.673004,157.669006 217.915009,157.083984 218.269989,156.582001 L218.260986,156.552979 L228.412994,141.872009  z M202.096985,163.794006 L206.671997,161.992004 L209.858002,164.557007 L209.263,169.558014 L205.346008,173.222992 L201.035004,172.791992 L199.588013,168.595001  z M217.934998,170.628998 C218.127991,170.542999 218.324005,170.484009 218.515991,170.446014 L218.537994,170.404999 L233.587006,167.169006 C232.005005,174.334991 228.36499,181.436005 223.162994,187.278015 L216.079987,175.147003 L216.096008,175.11499 C215.450012,174.050995 215.839996,172.351013 216.998993,171.265991 C217.295013,170.988007 217.612,170.773987 217.934998,170.628998  z M193.070007,180.487 C194.200989,180.058014 195.290009,180.471985 195.664001,181.561005 C195.838013,182.071014 195.829987,182.64801 195.671997,183.216003 L195.720001,183.256012 L191.354004,199.746002 C185.708008,198.303009 180.981995,194.674011 178.113007,189.066986 L192.553986,180.703003 L192.582001,180.725006 C192.743011,180.628998 192.90799,180.548004 193.070007,180.487  z M206.050995,181.846008 C206.442993,181.675995 206.850006,181.60199 207.247009,181.641998 C207.768005,181.695007 208.188995,181.93399 208.473999,182.308014 L208.528992,182.286987 L217.02301,192.993988 C216.114014,193.690002 215.174988,194.348999 214.209015,194.971008 C208.795013,198.453003 203.240997,200.230988 198.080994,200.43399 L204.045013,184.05899 L204.057007,184.053986 C204.412994,183.044006 205.187988,182.220001 206.050995,181.846008  z " stroke="#000000" fill-opacity="0" stroke-width="0.25"></path></g><g id="path3059" opacity="0.7"><path d="M171.990997,34.757004 C170.786987,34.389999 168.871002,34.587997 167.713013,35.199997 C167.695007,35.209 167.682007,35.218994 167.665009,35.229004 C167.506012,35.311005 167.307007,35.408997 167.175995,35.483002 C166.536011,35.843994 166.192993,36.164993 165.678009,36.520996 C164.544006,37.272003 163.605011,37.895996 162.494995,38.403 C162.019989,38.576996 161.343994,38.662003 160.809998,38.701996 L159.959991,39.108002 C158.558014,38.759003 157.069,38.449005 155.494995,38.184998 C148.721985,37.048004 141.322998,36.897003 134.203003,37.565994 C134.104004,37.417999 133.945007,37.151993 133.899994,37.070999 C133.464996,36.977005 132.968018,36.912003 132.713989,36.619003 C132.307007,36.022003 132.203979,35.337006 132.075012,34.511002 C132.035004,34.121994 132.109009,33.785995 131.960022,33.378006 C131.925995,33.285004 131.856995,33.151993 131.809998,33.052994 C131.669006,32.746994 131.294006,32.496002 130.787994,32.328995 C130.138,32.113998 129.265991,32.037994 128.38501,32.151001 C126.819,32.352997 125.812988,33.084 126.136993,33.783005 C126.140015,33.789993 126.14502,33.796997 126.148987,33.804001 C126.192017,33.901001 126.238007,34.022995 126.286011,34.108002 C126.51001,34.505997 126.873993,34.785995 127.177002,35.141006 C127.78302,35.906006 128.286011,36.541 128.445984,37.169998 C128.471008,37.434998 127.984985,37.740005 127.794006,37.878006 L127.951996,38.376007 C119.335999,39.809998 111.582001,42.460999 106.468002,46.009995 L105.324997,45.854004 C104.815002,45.921997 104.050995,46.042007 103.569,46.001007 C102.141998,45.820999 100.766998,45.494995 99.104996,45.104004 C98.337997,44.914001 97.751007,44.709 96.867996,44.544006 C96.673996,44.507996 96.389008,44.464005 96.169006,44.427994 C96.160995,44.427002 96.154007,44.425995 96.145996,44.425003 C96.134003,44.423004 96.117004,44.421005 96.106003,44.419006 C94.552002,44.169998 92.703003,44.457993 91.960999,45.070999 C91.218994,45.684006 91.860001,46.389999 93.393997,46.656006 C93.404999,46.658005 93.419006,46.662003 93.431,46.664001 C93.447998,46.667007 93.466995,46.667007 93.485001,46.669998 C93.699005,46.707001 93.962997,46.755997 94.156998,46.783997 C95.076004,46.919998 95.869995,46.951004 96.763,47.037003 C98.654007,47.240005 100.223007,47.406006 101.531998,47.684006 C102.050995,47.815002 102.270996,48.125 102.401993,48.268005 L103.492996,48.483002 C99.807007,52.246994 99.641998,56.147995 102.466003,59.485992 L101.246994,59.800003 C101.070007,60.011993 100.794998,60.287994 100.373001,60.421997 C98.998993,60.794998 97.270996,61.104004 95.328003,61.442993 C94.410995,61.593994 93.600998,61.681 92.649002,61.882996 C92.421997,61.931 92.093994,62.011993 91.860992,62.065994 C90.263,62.442993 89.477997,63.199005 90.104996,63.764008 C90.735992,64.332001 92.557007,64.490005 94.179001,64.117996 C94.181,64.117996 94.186005,64.117996 94.188004,64.117996 C94.190002,64.117004 94.190002,64.115997 94.192001,64.115997 C94.421997,64.063004 94.733994,63.996002 94.942001,63.944 C95.863998,63.714996 96.492004,63.468994 97.302002,63.223007 C99.134003,62.735992 100.768005,62.138 102.382004,61.945999 C102.824005,61.893997 103.264999,61.955994 103.718002,62.022995 L104.985992,61.764999 C108.363007,64.192993 113.572998,66.156006 120.341995,67.291 C121.885986,67.550003 123.460022,67.755997 125.057983,67.914993 C124.984009,68.070007 124.832001,68.365005 124.798004,68.440002 C125.065979,68.610001 125.419006,68.761993 125.325989,69.087997 C125.041016,69.733002 124.406982,70.404999 123.64502,71.218994 C123.27002,71.598007 122.85199,71.908005 122.548004,72.324997 C122.477997,72.419998 122.398987,72.559998 122.333984,72.662994 C121.869995,73.391006 122.740997,74.054001 124.278015,74.145004 C125.802979,74.235992 127.410004,73.729996 127.888,73.011002 C127.953979,72.906998 128.057007,72.757996 128.112,72.656998 C128.343018,72.235001 128.330994,71.901001 128.447998,71.507004 C128.742004,70.664993 128.985992,69.966003 129.514008,69.335999 C129.826996,69.022995 130.338989,68.925003 130.794983,68.798996 C130.794006,68.731003 131.080994,68.432999 131.194,68.285995 C140.309021,68.494995 149.679993,67.251999 157.455994,64.886993 C157.700012,64.994003 158.11499,65.182999 158.246002,65.246002 C158.760986,65.246994 159.307007,65.210007 159.858002,65.410995 C160.876007,65.841995 161.696014,66.404007 162.690002,67.078995 C163.138,67.401001 163.420013,67.701996 163.993011,68.020004 C164.114014,68.087006 164.304993,68.173996 164.450989,68.246994 C164.463013,68.253006 164.468994,68.259995 164.480988,68.266006 C164.489014,68.270004 164.502014,68.274002 164.51001,68.278 C165.561005,68.798996 167.428986,68.858002 168.703003,68.406998 C169.976013,67.955994 170.174988,67.164993 169.158997,66.632004 C169.009003,66.554993 168.806,66.442001 168.653992,66.371002 C168.019989,66.074005 167.372009,65.901993 166.708008,65.656998 C165.322998,65.119995 164.173004,64.675995 163.356995,64.173004 C163.053986,63.953003 163.200012,63.604996 163.235992,63.453995 L162.576996,63.069 C165.894012,61.699005 168.748993,60.089996 170.937988,58.278 C173.147003,56.449005 174.488007,54.569 175.032013,52.718002 C175.436005,52.692993 176.188995,52.649994 176.406006,52.636993 C176.781006,52.468002 177.105988,52.272003 177.885986,52.197006 C179.440002,52.089996 181.098999,52.113998 183.101013,52.143005 C184.035004,52.164993 184.809998,52.231995 185.828003,52.212006 C186.05899,52.207001 186.393005,52.190994 186.643005,52.181 C188.411011,52.117996 189.89801,51.533997 189.963013,50.875 C190.028015,50.216003 188.649994,49.733002 186.881012,49.796005 C186.630005,49.804001 186.295013,49.813004 186.062012,49.824997 C185.040985,49.876999 184.247986,49.994003 183.303009,50.082993 C181.282013,50.255005 179.605011,50.399994 178.059998,50.403 C177.424011,50.386993 176.878998,50.160004 176.612,50.067001 L175.270996,50.084 C174.838013,46.378998 171.147003,42.968994 164.75,40.576996 C164.981995,40.438004 165.411987,40.190994 165.541992,40.115997 C165.493988,39.906006 165.35199,39.695999 165.773987,39.401001 C166.694,38.837006 167.945007,38.307999 169.446014,37.669006 C170.162994,37.375 170.842987,37.156006 171.540009,36.811996 C171.699005,36.733994 171.908997,36.613998 172.071991,36.528 C173.230988,35.916 173.195007,35.123001 171.990997,34.757004  z M154.614014,41.654007 L144.059998,46.684006 L143.993011,46.679993 C143.063995,47.134003 141.514008,47.251007 140.47998,46.936996 C140.057007,46.807999 139.783997,46.626007 139.666992,46.423996 L139.640991,46.421997 L136.02301,40.529007 C141.359009,40.110992 146.859009,40.276001 151.941986,41.128998 C152.871002,41.285004 153.76001,41.460999 154.614014,41.654007  z M160.076996,43.317993 C164.507996,45.106995 167.148987,47.529999 167.682007,50.173996 L152.644012,50.356003 L152.623993,50.339996 C151.273987,50.363998 150.239014,49.940994 150.294006,49.375 C150.316986,49.143005 150.515991,48.923004 150.839996,48.738007 L150.834015,48.733002  z M128.923004,41.445007 L130.850006,47.552994 L130.799988,47.570999 C130.990997,48.113998 130.095001,48.681 128.75,48.854004 C128.199005,48.925003 127.653992,48.919006 127.184021,48.850998 L127.143005,48.865005 L113.425995,46.970993 C117.292007,44.466003 122.796021,42.563995 128.923004,41.445007  z M167.394989,53.166 C166.881012,54.496002 165.850006,55.841995 164.26001,57.158005 C162.690002,58.457993 160.699005,59.626007 158.403992,60.643005 L150.127014,55.832001 L150.15799,55.807999 C149.403992,55.382996 149.666992,54.738998 150.769989,54.348999 C151.221985,54.188995 151.743988,54.095993 152.264008,54.067993 L152.279999,54.056 L167.394989,53.166  z M139.289001,50.550003 L142.796021,51.617996 L142.615997,53.526993 L138.886993,54.843002 L134.427002,54.576004 L132.585022,52.919998 L134.747986,51.128006  z M142.453979,58.235992 C142.609985,58.278 142.747009,58.330002 142.869019,58.386002 L142.906982,58.380997 L152.596008,62.714996 C146.890991,64.343002 140.210022,65.223007 133.617981,65.166 L138.432983,58.959 L138.463013,58.955002 C138.872986,58.401993 140.233002,58.020996 141.552979,58.100006 C141.890991,58.119995 142.195007,58.167007 142.453979,58.235992  z M123.350006,52.451996 C124.205994,52.720993 124.462006,53.231995 123.898987,53.697006 C123.635986,53.914001 123.235992,54.087006 122.766998,54.205002 L122.764008,54.233994 L109.276993,57.722 C107.466995,55.285004 107.613007,52.505997 110.039001,49.781006 L122.945984,52.335007 L122.945007,52.352005 C123.091003,52.378998 123.227997,52.412994 123.350006,52.451996  z M128.858002,57.457001 C129.169006,57.544006 129.421997,57.664993 129.591003,57.817993 C129.812988,58.018005 129.858002,58.240005 129.742981,58.455002 L129.785004,58.468002 L126.64801,64.738998 C125.718994,64.630005 124.799988,64.498993 123.893982,64.347 C118.817001,63.494995 114.841003,62.074005 112.141998,60.311005 L126.343018,57.423004 L126.35199,57.425995 C127.221985,57.242996 128.173004,57.266006 128.858002,57.457001  z " fill="#FFFFFF"></path><path d="M171.990997,34.757004 C170.786987,34.389999 168.871002,34.587997 167.713013,35.199997 C167.695007,35.209 167.682007,35.218994 167.665009,35.229004 C167.506012,35.311005 167.307007,35.408997 167.175995,35.483002 C166.536011,35.843994 166.192993,36.164993 165.678009,36.520996 C164.544006,37.272003 163.605011,37.895996 162.494995,38.403 C162.019989,38.576996 161.343994,38.662003 160.809998,38.701996 L159.959991,39.108002 C158.558014,38.759003 157.069,38.449005 155.494995,38.184998 C148.721985,37.048004 141.322998,36.897003 134.203003,37.565994 C134.104004,37.417999 133.945007,37.151993 133.899994,37.070999 C133.464996,36.977005 132.968018,36.912003 132.713989,36.619003 C132.307007,36.022003 132.203979,35.337006 132.075012,34.511002 C132.035004,34.121994 132.109009,33.785995 131.960022,33.378006 C131.925995,33.285004 131.856995,33.151993 131.809998,33.052994 C131.669006,32.746994 131.294006,32.496002 130.787994,32.328995 C130.138,32.113998 129.265991,32.037994 128.38501,32.151001 C126.819,32.352997 125.812988,33.084 126.136993,33.783005 C126.140015,33.789993 126.14502,33.796997 126.148987,33.804001 C126.192017,33.901001 126.238007,34.022995 126.286011,34.108002 C126.51001,34.505997 126.873993,34.785995 127.177002,35.141006 C127.78302,35.906006 128.286011,36.541 128.445984,37.169998 C128.471008,37.434998 127.984985,37.740005 127.794006,37.878006 L127.951996,38.376007 C119.335999,39.809998 111.582001,42.460999 106.468002,46.009995 L105.324997,45.854004 C104.815002,45.921997 104.050995,46.042007 103.569,46.001007 C102.141998,45.820999 100.766998,45.494995 99.104996,45.104004 C98.337997,44.914001 97.751007,44.709 96.867996,44.544006 C96.673996,44.507996 96.389008,44.464005 96.169006,44.427994 C96.160995,44.427002 96.154007,44.425995 96.145996,44.425003 C96.134003,44.423004 96.117004,44.421005 96.106003,44.419006 C94.552002,44.169998 92.703003,44.457993 91.960999,45.070999 C91.218994,45.684006 91.860001,46.389999 93.393997,46.656006 C93.404999,46.658005 93.419006,46.662003 93.431,46.664001 C93.447998,46.667007 93.466995,46.667007 93.485001,46.669998 C93.699005,46.707001 93.962997,46.755997 94.156998,46.783997 C95.076004,46.919998 95.869995,46.951004 96.763,47.037003 C98.654007,47.240005 100.223007,47.406006 101.531998,47.684006 C102.050995,47.815002 102.270996,48.125 102.401993,48.268005 L103.492996,48.483002 C99.807007,52.246994 99.641998,56.147995 102.466003,59.485992 L101.246994,59.800003 C101.070007,60.011993 100.794998,60.287994 100.373001,60.421997 C98.998993,60.794998 97.270996,61.104004 95.328003,61.442993 C94.410995,61.593994 93.600998,61.681 92.649002,61.882996 C92.421997,61.931 92.093994,62.011993 91.860992,62.065994 C90.263,62.442993 89.477997,63.199005 90.104996,63.764008 C90.735992,64.332001 92.557007,64.490005 94.179001,64.117996 C94.181,64.117996 94.186005,64.117996 94.188004,64.117996 C94.190002,64.117004 94.190002,64.115997 94.192001,64.115997 C94.421997,64.063004 94.733994,63.996002 94.942001,63.944 C95.863998,63.714996 96.492004,63.468994 97.302002,63.223007 C99.134003,62.735992 100.768005,62.138 102.382004,61.945999 C102.824005,61.893997 103.264999,61.955994 103.718002,62.022995 L104.985992,61.764999 C108.363007,64.192993 113.572998,66.156006 120.341995,67.291 C121.885986,67.550003 123.460022,67.755997 125.057983,67.914993 C124.984009,68.070007 124.832001,68.365005 124.798004,68.440002 C125.065979,68.610001 125.419006,68.761993 125.325989,69.087997 C125.041016,69.733002 124.406982,70.404999 123.64502,71.218994 C123.27002,71.598007 122.85199,71.908005 122.548004,72.324997 C122.477997,72.419998 122.398987,72.559998 122.333984,72.662994 C121.869995,73.391006 122.740997,74.054001 124.278015,74.145004 C125.802979,74.235992 127.410004,73.729996 127.888,73.011002 C127.953979,72.906998 128.057007,72.757996 128.112,72.656998 C128.343018,72.235001 128.330994,71.901001 128.447998,71.507004 C128.742004,70.664993 128.985992,69.966003 129.514008,69.335999 C129.826996,69.022995 130.338989,68.925003 130.794983,68.798996 C130.794006,68.731003 131.080994,68.432999 131.194,68.285995 C140.309021,68.494995 149.679993,67.251999 157.455994,64.886993 C157.700012,64.994003 158.11499,65.182999 158.246002,65.246002 C158.760986,65.246994 159.307007,65.210007 159.858002,65.410995 C160.876007,65.841995 161.696014,66.404007 162.690002,67.078995 C163.138,67.401001 163.420013,67.701996 163.993011,68.020004 C164.114014,68.087006 164.304993,68.173996 164.450989,68.246994 C164.463013,68.253006 164.468994,68.259995 164.480988,68.266006 C164.489014,68.270004 164.502014,68.274002 164.51001,68.278 C165.561005,68.798996 167.428986,68.858002 168.703003,68.406998 C169.976013,67.955994 170.174988,67.164993 169.158997,66.632004 C169.009003,66.554993 168.806,66.442001 168.653992,66.371002 C168.019989,66.074005 167.372009,65.901993 166.708008,65.656998 C165.322998,65.119995 164.173004,64.675995 163.356995,64.173004 C163.053986,63.953003 163.200012,63.604996 163.235992,63.453995 L162.576996,63.069 C165.894012,61.699005 168.748993,60.089996 170.937988,58.278 C173.147003,56.449005 174.488007,54.569 175.032013,52.718002 C175.436005,52.692993 176.188995,52.649994 176.406006,52.636993 C176.781006,52.468002 177.105988,52.272003 177.885986,52.197006 C179.440002,52.089996 181.098999,52.113998 183.101013,52.143005 C184.035004,52.164993 184.809998,52.231995 185.828003,52.212006 C186.05899,52.207001 186.393005,52.190994 186.643005,52.181 C188.411011,52.117996 189.89801,51.533997 189.963013,50.875 C190.028015,50.216003 188.649994,49.733002 186.881012,49.796005 C186.630005,49.804001 186.295013,49.813004 186.062012,49.824997 C185.040985,49.876999 184.247986,49.994003 183.303009,50.082993 C181.282013,50.255005 179.605011,50.399994 178.059998,50.403 C177.424011,50.386993 176.878998,50.160004 176.612,50.067001 L175.270996,50.084 C174.838013,46.378998 171.147003,42.968994 164.75,40.576996 C164.981995,40.438004 165.411987,40.190994 165.541992,40.115997 C165.493988,39.906006 165.35199,39.695999 165.773987,39.401001 C166.694,38.837006 167.945007,38.307999 169.446014,37.669006 C170.162994,37.375 170.842987,37.156006 171.540009,36.811996 C171.699005,36.733994 171.908997,36.613998 172.071991,36.528 C173.230988,35.916 173.195007,35.123001 171.990997,34.757004  z M154.614014,41.654007 L144.059998,46.684006 L143.993011,46.679993 C143.063995,47.134003 141.514008,47.251007 140.47998,46.936996 C140.057007,46.807999 139.783997,46.626007 139.666992,46.423996 L139.640991,46.421997 L136.02301,40.529007 C141.359009,40.110992 146.859009,40.276001 151.941986,41.128998 C152.871002,41.285004 153.76001,41.460999 154.614014,41.654007  z M160.076996,43.317993 C164.507996,45.106995 167.148987,47.529999 167.682007,50.173996 L152.644012,50.356003 L152.623993,50.339996 C151.273987,50.363998 150.239014,49.940994 150.294006,49.375 C150.316986,49.143005 150.515991,48.923004 150.839996,48.738007 L150.834015,48.733002  z M128.923004,41.445007 L130.850006,47.552994 L130.799988,47.570999 C130.990997,48.113998 130.095001,48.681 128.75,48.854004 C128.199005,48.925003 127.653992,48.919006 127.184021,48.850998 L127.143005,48.865005 L113.425995,46.970993 C117.292007,44.466003 122.796021,42.563995 128.923004,41.445007  z M167.394989,53.166 C166.881012,54.496002 165.850006,55.841995 164.26001,57.158005 C162.690002,58.457993 160.699005,59.626007 158.403992,60.643005 L150.127014,55.832001 L150.15799,55.807999 C149.403992,55.382996 149.666992,54.738998 150.769989,54.348999 C151.221985,54.188995 151.743988,54.095993 152.264008,54.067993 L152.279999,54.056 L167.394989,53.166  z M139.289001,50.550003 L142.796021,51.617996 L142.615997,53.526993 L138.886993,54.843002 L134.427002,54.576004 L132.585022,52.919998 L134.747986,51.128006  z M142.453979,58.235992 C142.609985,58.278 142.747009,58.330002 142.869019,58.386002 L142.906982,58.380997 L152.596008,62.714996 C146.890991,64.343002 140.210022,65.223007 133.617981,65.166 L138.432983,58.959 L138.463013,58.955002 C138.872986,58.401993 140.233002,58.020996 141.552979,58.100006 C141.890991,58.119995 142.195007,58.167007 142.453979,58.235992  z M123.350006,52.451996 C124.205994,52.720993 124.462006,53.231995 123.898987,53.697006 C123.635986,53.914001 123.235992,54.087006 122.766998,54.205002 L122.764008,54.233994 L109.276993,57.722 C107.466995,55.285004 107.613007,52.505997 110.039001,49.781006 L122.945984,52.335007 L122.945007,52.352005 C123.091003,52.378998 123.227997,52.412994 123.350006,52.451996  z M128.858002,57.457001 C129.169006,57.544006 129.421997,57.664993 129.591003,57.817993 C129.812988,58.018005 129.858002,58.240005 129.742981,58.455002 L129.785004,58.468002 L126.64801,64.738998 C125.718994,64.630005 124.799988,64.498993 123.893982,64.347 C118.817001,63.494995 114.841003,62.074005 112.141998,60.311005 L126.343018,57.423004 L126.35199,57.425995 C127.221985,57.242996 128.173004,57.266006 128.858002,57.457001  z " stroke="#000000" fill-opacity="0" stroke-width="0.25"></path></g></g></svg>