<?xml version="1.0" encoding="UTF-8"?>
<svg width="200px" height="200px" viewBox="0 0 200 200" version="1.1" xmlns="http://www.w3.org/2000/svg" xmlns:xlink="http://www.w3.org/1999/xlink">
    <!-- Generator: Sketch 64 (93537) - https://sketch.com -->
    <title>gke</title>
    <desc>Created with Sketch.</desc>
    <defs>
        <linearGradient x1="50%" y1="-3.89783073e-15%" x2="50%" y2="99.8449958%" id="linearGradient-1">
            <stop stop-color="#4387FD" offset="0%"></stop>
            <stop stop-color="#4683EA" offset="100%"></stop>
        </linearGradient>
    </defs>
    <g id="gke" stroke="none" stroke-width="1" fill="none" fill-rule="evenodd">
        <g transform="translate(6.000000, 15.000000)" fill-rule="nonzero">
            <g id="BASE" fill="url(#linearGradient-1)">
                <path d="M41.0345578,159.477095 L2.27390625,92.4726526 C-0.759100781,87.2295789 -0.759100781,80.7698316 2.27390625,75.5267579 L41.0345578,8.52246316 C44.0675648,3.27938947 49.6728914,0.0495157895 55.7389055,0.0495157895 L133.260209,0.0495157895 C139.326223,0.0495157895 144.931549,3.27938947 147.964556,8.52246316 L186.725208,75.5267579 C189.758215,80.7698316 189.758215,87.2295789 186.725208,92.4726526 L147.964556,159.476947 C144.931549,164.720021 139.326223,167.949895 133.260209,167.949895 L55.7389055,167.949895 C49.6728914,167.949895 44.0677125,164.720168 41.0345578,159.477095 Z" id="Path"></path>
            </g>
            <g id="shadow" transform="translate(56.000000, 44.000000)" fill="#000000" opacity="0.07">
                <polygon id="Path" points="126.605389 67.7301337 75.959908 16.8958733 38.2528736 -0.000295348837 2.20689655 19.6590093 0.696496552 62.9759035 63.2873195 125.799998 87.7860782 125.584541"></polygon>
            </g>
            <g id="art" transform="translate(55.000000, 40.000000)" fill="#FFFFFF">
                <path d="M77.0751111,21.0062952 L41.998963,0.94285 C40.7620741,0.235251613 39.2380741,0.235251613 38.001037,0.94285 L2.92488889,21.0062952 C1.688,21.7138935 0.925925926,23.0213581 0.925925926,24.4364081 L0.925925926,64.5632984 C0.925925926,65.9783484 1.68785185,67.2859597 2.92488889,67.9934113 L38.001037,88.0568565 C39.2379259,88.7644548 40.7619259,88.7644548 41.998963,88.0568565 L77.0751111,67.9934113 C78.312,67.2858129 79.0740741,65.9783484 79.0740741,64.5632984 L79.0740741,24.4364081 C79.0740741,23.0213581 78.3121481,21.7137468 77.0751111,21.0062952 Z M72.2628148,60.7189887 L60.0251852,53.7191806 L60.0251852,35.2805258 L41.9537778,45.6173919 L41.9537778,66.2909774 L58.0715556,57.07165 L70.3091852,64.0714581 L40,81.4081323 L9.69096296,64.0714581 L21.9285926,57.07165 L38.0463704,66.2909774 L38.0463704,45.6173919 L19.9748148,35.2805258 L19.9748148,53.7191806 L7.73718519,60.7189887 L7.73718519,26.0456403 L38.0462222,8.70881935 L38.0462222,22.708729 L21.9284444,31.9280565 L40,42.2647758 L58.0714074,31.9279097 L41.9536296,22.7085823 L41.9536296,8.70881935 L72.2628148,26.0454935 L72.2628148,60.7189887 L72.2628148,60.7189887 Z" id="Shape"></path>
            </g>
        </g>
        <rect id="Rectangle-Copy" fill="#FFFFFF" style="mix-blend-mode: color;" x="0" y="0" width="200" height="200"></rect>
    </g>
</svg>