<?xml version="1.0" encoding="utf-8"?>
<!-- Generator: Adobe Illustrator 23.0.1, SVG Export Plug-In . SVG Version: 6.00 Build 0)  -->
<svg version="1.1" xmlns="http://www.w3.org/2000/svg" xmlns:xlink="http://www.w3.org/1999/xlink" x="0px" y="0px"
	 viewBox="0 0 1087.6 311.4" style="enable-background:new 0 0 1087.6 311.4;" xml:space="preserve">
<style type="text/css">
	.st0{fill:#FFE57F;}
	.st1{fill:#A7E0F8;}
	.st2{fill:#EAF7FD;}
	.st3{fill:#FDFEFE;}
	.st4{fill:#FFFFFF;}
	.st5{fill:#FFE1F1;}
	.st6{fill:#6B6851;}
	.st7{fill:#776F00;}
	.st8{fill:#0F6FFF;}
	.st9{fill:url(#Path_6_);}
	.st10{filter:url(#Adobe_OpacityMaskFilter);}
	.st11{fill-rule:evenodd;clip-rule:evenodd;fill:#FFFFFF;}
	.st12{mask:url(#mask-11_1_);fill:url(#SVGID_3_);stroke:#000000;stroke-width:0.5527;stroke-linecap:round;stroke-linejoin:round;}
	.st13{filter:url(#Adobe_OpacityMaskFilter_1_);}
	.st14{mask:url(#mask-13_1_);fill:url(#SVGID_4_);stroke:#000000;stroke-width:0.5527;stroke-linecap:round;stroke-linejoin:round;}
	.st15{filter:url(#Adobe_OpacityMaskFilter_2_);}
	.st16{mask:url(#mask-15_1_);fill:url(#SVGID_5_);stroke:#000000;stroke-width:0.5527;stroke-linecap:round;stroke-linejoin:round;}
	.st17{fill:#3D322E;}
	.st18{fill:#FFCFB8;}
	.st19{fill:#8A2C00;}
	.st20{fill:#BDAFAD;}
	.st21{fill:#CE83B6;}
	.st22{fill:#CE83F6;}
	.st23{fill:#E6E1E0;}
	.st24{fill:#BDB9AD;}
	.st25{fill:#8583F6;}
	.st26{fill:#BD97AD;}
	.st27{fill:#E0B80E;}
	.st28{fill:#A5FFAF;}
	.st29{fill:#FFD925;}
	.st30{fill:#FFFC43;}
	.st31{fill:#9FDDC8;}
	.st32{fill:#215276;}
	.st33{opacity:0.5;fill:#E0B80E;}
	.st34{fill:#FFF8F4;}
	.st35{fill:none;stroke:#FFB71C;stroke-width:2;stroke-miterlimit:10;}
	.st36{fill:#FFB71C;}
	.st37{fill:#FFB7B6;}
	.st38{fill:#F4CC22;}
	.st39{fill:none;stroke:#FFE57F;stroke-miterlimit:10;}
	.st40{fill:none;stroke:#FFE57F;stroke-width:4;stroke-miterlimit:10;}
	.st41{fill-rule:evenodd;clip-rule:evenodd;fill:#804998;}
	.st42{opacity:0.2;}
	.st43{filter:url(#Adobe_OpacityMaskFilter_3_);}
	.st44{mask:url(#mask-11_2_);fill:#215276;}
	.st45{filter:url(#Adobe_OpacityMaskFilter_4_);}
	.st46{mask:url(#mask-13_2_);fill:#215276;}
	.st47{filter:url(#Adobe_OpacityMaskFilter_5_);}
	.st48{mask:url(#mask-15_2_);fill:#215276;}
	.st49{fill:#2884B2;}
	.st50{fill:#7FBAA5;}
	.st51{fill:#B9EFDB;}
	.st52{fill:#FFB397;}
	.st53{fill:#FF8C89;}
	.st54{fill-rule:evenodd;clip-rule:evenodd;fill:#2884B2;}
	.st55{fill-rule:evenodd;clip-rule:evenodd;fill:#215276;}
	.st56{fill-rule:evenodd;clip-rule:evenodd;fill:#3D322E;}
	.st57{fill:none;stroke:#3D322E;stroke-linecap:round;stroke-linejoin:round;stroke-miterlimit:10;}
	.st58{fill:none;stroke:#3D322E;stroke-miterlimit:10;}
	.st59{fill:none;stroke:#3D322E;stroke-width:3;stroke-linecap:round;stroke-linejoin:round;stroke-miterlimit:10;}
	.st60{fill:none;stroke:#FFE57F;stroke-linecap:round;stroke-miterlimit:10;}
	.st61{fill:none;stroke:#FFFFFF;stroke-linecap:round;stroke-miterlimit:10;}
	.st62{filter:url(#Adobe_OpacityMaskFilter_6_);}
	.st63{mask:url(#mask-11_4_);fill:#215276;}
	.st64{filter:url(#Adobe_OpacityMaskFilter_7_);}
	.st65{mask:url(#mask-13_4_);fill:#215276;}
	.st66{filter:url(#Adobe_OpacityMaskFilter_8_);}
	.st67{mask:url(#mask-15_4_);fill:#215276;}
	.st68{fill:#EFB7A8;}
	.st69{filter:url(#Adobe_OpacityMaskFilter_9_);}
	.st70{mask:url(#mask-11_3_);fill:#3D322E;}
	.st71{filter:url(#Adobe_OpacityMaskFilter_10_);}
	.st72{mask:url(#mask-13_3_);fill:#3D322E;}
	.st73{filter:url(#Adobe_OpacityMaskFilter_11_);}
	.st74{mask:url(#mask-15_3_);fill:#3D322E;}
	.st75{fill-rule:evenodd;clip-rule:evenodd;fill:#6B6851;}
	.st76{opacity:0.5;fill:#FFD925;}
	.st77{fill:none;stroke:#FFD925;stroke-miterlimit:10;}
	.st78{fill:none;stroke:#E0B80E;stroke-miterlimit:10;}
	.st79{fill:none;stroke:#3D322E;stroke-width:3;stroke-miterlimit:10;}
	.st80{fill:none;stroke:#FFB397;stroke-miterlimit:10;}
	.st81{fill:none;stroke:#EFB7A8;stroke-miterlimit:10;stroke-dasharray:6;}
	.st82{fill:none;stroke:#2884B2;stroke-miterlimit:10;}
	.st83{fill:none;stroke:#2884B2;stroke-miterlimit:10;stroke-dasharray:6.1592,6.1592;}
	.st84{fill:none;stroke:#FFFFFF;stroke-miterlimit:10;stroke-dasharray:5.9886,5.9886;}
	.st85{fill:none;stroke:#FFFFFF;stroke-width:3;stroke-linecap:round;stroke-linejoin:round;stroke-miterlimit:10;}
	.st86{fill:none;stroke:#FFFFFF;stroke-width:3;stroke-miterlimit:10;}
	.st87{fill:none;stroke:#FFFFFF;stroke-miterlimit:10;}
	.st88{fill:none;stroke:#FFCFB8;stroke-miterlimit:10;}
	.st89{fill:none;stroke:#E0B80E;stroke-miterlimit:10;stroke-dasharray:6;}
	.st90{fill:none;stroke:#FFE57F;stroke-miterlimit:10;stroke-dasharray:6;}
	.st91{fill:#9E9E9E;}
	.st92{fill:#A179DC;}
	.st93{fill:#280068;}
	.st94{fill:#390091;}
	.st95{fill:#CECECE;}
	.st96{fill:#0277BD;}
	.st97{fill:#FFC107;}
	.st98{fill:#B2B2B2;}
	.st99{fill:#0074BD;}
	.st100{fill:#EA2D2E;}
	.st101{fill:#007ACC;}
	.st102{opacity:0.986;fill:#CECECE;fill-opacity:0;enable-background:new    ;}
	.st103{opacity:0.986;fill:#FFFFFF;fill-opacity:0.9216;enable-background:new    ;}
	.st104{fill:#8F8F8F;}
	.st105{fill:#D4B830;}
	.st106{opacity:0.986;fill:#EBEBEB;fill-opacity:0;enable-background:new    ;}
	.st107{opacity:0.986;fill:#EBEBEB;fill-opacity:0.9216;enable-background:new    ;}
	.st108{fill:#FDD83C;}
	.st109{fill:none;stroke:#215276;stroke-width:4;stroke-miterlimit:10;}
	.st110{fill:none;stroke:#FFCFB8;stroke-width:9;stroke-miterlimit:10;}
	.st111{fill:#215276;stroke:#FFCFB8;stroke-width:4;stroke-miterlimit:10;}
	.st112{fill:#FFCFB8;stroke:#215276;stroke-width:4;stroke-miterlimit:10;}
	.st113{opacity:0;}
	.st114{fill:none;stroke:#215276;stroke-miterlimit:10;}
	.st115{opacity:0.69;fill:#FFFFFF;}
	.st116{opacity:0.9;fill:#FFFFFF;}
	.st117{opacity:0.8;fill:#FFFFFF;}
	.st118{opacity:0.5;}
	.st119{fill:#FFFFFF;fill-opacity:0;stroke:#000000;stroke-width:0.25;}
	.st120{opacity:0.75;}
	.st121{opacity:0.9;}
</style>
<g id="Layer_1">
</g>
<g id="Layer_2">
</g>
<g id="Layer_3">
	<g>
		<g>
			<g>
				<path id="path-1_1_" class="st4" d="M453.5,246.6c9,0,16.4-0.7,22.3-2.1s11.7-3.9,17.5-7.6l0,0v-30.6
					c-5.9,3.9-11.7,6.8-17.6,8.6s-12.2,2.8-19.1,2.8c-18.6,0-27.9-12.8-27.9-38.4c0-26.4,9.3-39.6,27.9-39.6c4.8,0,9.7,0.7,14.5,2.2
					s10.1,3.3,15.7,5.6l0,0l10.5-27.7c-12-5.9-25.6-8.9-40.8-8.9c-20.7,0-36.6,5.9-47.7,17.6s-16.6,28.8-16.6,51
					C392.4,224.3,412.8,246.6,453.5,246.6z M566.2,246.6c16.6,0,29-6.4,37.1-19.3l0,0h1.5l6.9,17h27.4V62h-35.9v42
					c0,7.7,0.9,16.4,2.7,26.1l0,0h-1.2c-8.7-12.8-21.2-19.2-37.7-19.2c-15.7,0-28,6-37,18s-13.4,28.7-13.4,50.2
					c0,21.2,4.4,37.7,13.2,49.7S550.8,246.6,566.2,246.6z M578.8,218.2c-8.3,0-14.6-3.2-19.1-9.7s-6.7-16.1-6.7-29
					s2.2-22.7,6.6-29.5s10.6-10.1,18.6-10.1c9.8,0,16.8,3,21.2,9.1s6.5,16.2,6.5,30.2l0,0v3.9c-0.4,12.7-2.7,21.8-7,27.1
					S587.9,218.2,578.8,218.2z M713.3,244.3v-40.8l15.4-12.3l37.7,53.1h41.2l-55.2-74.2l52-56.8h-40.3l-36.7,39.8L711.9,173h-0.5
					l1.9-29.8V62h-35.7v182.3H713.3z M876.4,246.6c16.6,0,29.9-4.2,39.8-12.7s14.8-19.7,14.8-33.9c0-10.5-3-19.4-9.1-26.7
					s-16.6-14.1-31.6-20.3c12.3-5.7,21.3-11.9,26.8-18.6s8.3-14.5,8.3-23.2c0-12.7-4.4-22.7-13.3-30.1S891.4,70,876.9,70
					c-9.1,0-17.4,1.7-24.9,5s-13.3,8.1-17.4,14.4s-6.2,13.4-6.2,21.6c0,9.2,2.6,17.1,7.7,23.7s14,12.9,26.6,18.8
					c-13.6,5.5-23.6,12.1-30.1,19.8s-9.7,16.7-9.7,27c0,15.1,4.6,26.6,13.8,34.5S859.1,246.6,876.4,246.6z M877.8,148.8
					c-10.9-4.5-18.7-8.5-23.4-11.9s-8.2-7.2-10.7-11.4s-3.7-9-3.7-14.5c0-9.5,3.3-16.9,10-22.3s15.5-8.1,26.5-8.1
					c11.4,0,20.4,2.7,27,8.2s9.9,12.9,9.9,22.3c0,8.4-2.8,15.5-8.3,21.4S890.6,143.9,877.8,148.8z M876.4,236.1
					c-13.1,0-23.3-3-30.6-8.9s-11-14.3-11-25.1c0-10.2,3-18.6,9-25.3s16.2-12.9,30.6-18.4c17.5,6.6,29.3,13,35.4,19
					s9.2,13.9,9.2,23.6c0,10.8-3.9,19.3-11.7,25.6S889.2,236.1,876.4,236.1z M997.1,246.6c15.9,0,28.2-3.1,36.9-9.2s13-14.9,13-26.3
					c0-5.7-1.3-10.7-3.9-14.9s-6.5-8-11.8-11.3s-13.6-7.1-25.1-11.2c-13.8-4.9-23-9.4-27.7-13.4s-7.1-9.3-7.1-15.9
					c0-6.1,3-10.9,9.1-14.3s14.3-5.2,24.7-5.2c10.7,0,22.3,2.6,34.8,7.7l0,0l4.3-10.5c-12.3-5.2-25.4-7.7-39.1-7.7
					c-14.4,0-25.6,2.8-33.6,8.3s-12,13.1-12,22.6c0,6,1.3,11.1,3.9,15.3s6.5,7.9,11.7,11.2s14.1,7.3,26.8,11.9
					c11.9,4.2,20.4,8.5,25.6,12.9s7.8,9.8,7.8,16.2c0,7-3.3,12.5-9.8,16.7s-16.1,6.3-28.7,6.3c-14.2,0-27.7-3.2-40.5-9.6l0,0v12.5
					C966.5,244,980,246.6,997.1,246.6z"/>
			</g>
			<g>
				<path d="M453.5,246.6c9,0,16.4-0.7,22.3-2.1s11.7-3.9,17.5-7.6l0,0v-30.6c-5.9,3.9-11.7,6.8-17.6,8.6s-12.2,2.8-19.1,2.8
					c-18.6,0-27.9-12.8-27.9-38.4c0-26.4,9.3-39.6,27.9-39.6c4.8,0,9.7,0.7,14.5,2.2s10.1,3.3,15.7,5.6l0,0l10.5-27.7
					c-12-5.9-25.6-8.9-40.8-8.9c-20.7,0-36.6,5.9-47.7,17.6s-16.6,28.8-16.6,51C392.4,224.3,412.8,246.6,453.5,246.6z M566.2,246.6
					c16.6,0,29-6.4,37.1-19.3l0,0h1.5l6.9,17h27.4V62h-35.9v42c0,7.7,0.9,16.4,2.7,26.1l0,0h-1.2c-8.7-12.8-21.2-19.2-37.7-19.2
					c-15.7,0-28,6-37,18s-13.4,28.7-13.4,50.2c0,21.2,4.4,37.7,13.2,49.7S550.8,246.6,566.2,246.6z M578.8,218.2
					c-8.3,0-14.6-3.2-19.1-9.7s-6.7-16.1-6.7-29s2.2-22.7,6.6-29.5s10.6-10.1,18.6-10.1c9.8,0,16.8,3,21.2,9.1s6.5,16.2,6.5,30.2
					l0,0v3.9c-0.4,12.7-2.7,21.8-7,27.1S587.9,218.2,578.8,218.2z M713.3,244.3v-40.8l15.4-12.3l37.7,53.1h41.2l-55.2-74.2l52-56.8
					h-40.3l-36.7,39.8L711.9,173h-0.5l1.9-29.8V62h-35.7v182.3H713.3z M876.4,246.6c16.6,0,29.9-4.2,39.8-12.7s14.8-19.7,14.8-33.9
					c0-10.5-3-19.4-9.1-26.7s-16.6-14.1-31.6-20.3c12.3-5.7,21.3-11.9,26.8-18.6s8.3-14.5,8.3-23.2c0-12.7-4.4-22.7-13.3-30.1
					S891.4,70,876.9,70c-9.1,0-17.4,1.7-24.9,5s-13.3,8.1-17.4,14.4s-6.2,13.4-6.2,21.6c0,9.2,2.6,17.1,7.7,23.7s14,12.9,26.6,18.8
					c-13.6,5.5-23.6,12.1-30.1,19.8s-9.7,16.7-9.7,27c0,15.1,4.6,26.6,13.8,34.5S859.1,246.6,876.4,246.6z M877.8,148.8
					c-10.9-4.5-18.7-8.5-23.4-11.9s-8.2-7.2-10.7-11.4s-3.7-9-3.7-14.5c0-9.5,3.3-16.9,10-22.3s15.5-8.1,26.5-8.1
					c11.4,0,20.4,2.7,27,8.2s9.9,12.9,9.9,22.3c0,8.4-2.8,15.5-8.3,21.4S890.6,143.9,877.8,148.8z M876.4,236.1
					c-13.1,0-23.3-3-30.6-8.9s-11-14.3-11-25.1c0-10.2,3-18.6,9-25.3s16.2-12.9,30.6-18.4c17.5,6.6,29.3,13,35.4,19
					s9.2,13.9,9.2,23.6c0,10.8-3.9,19.3-11.7,25.6S889.2,236.1,876.4,236.1z M997.1,246.6c15.9,0,28.2-3.1,36.9-9.2s13-14.9,13-26.3
					c0-5.7-1.3-10.7-3.9-14.9s-6.5-8-11.8-11.3s-13.6-7.1-25.1-11.2c-13.8-4.9-23-9.4-27.7-13.4s-7.1-9.3-7.1-15.9
					c0-6.1,3-10.9,9.1-14.3s14.3-5.2,24.7-5.2c10.7,0,22.3,2.6,34.8,7.7l0,0l4.3-10.5c-12.3-5.2-25.4-7.7-39.1-7.7
					c-14.4,0-25.6,2.8-33.6,8.3s-12,13.1-12,22.6c0,6,1.3,11.1,3.9,15.3s6.5,7.9,11.7,11.2s14.1,7.3,26.8,11.9
					c11.9,4.2,20.4,8.5,25.6,12.9s7.8,9.8,7.8,16.2c0,7-3.3,12.5-9.8,16.7s-16.1,6.3-28.7,6.3c-14.2,0-27.7-3.2-40.5-9.6l0,0v12.5
					C966.5,244,980,246.6,997.1,246.6z"/>
			</g>
		</g>
		<polygon class="st32" points="177.1,299.8 177.1,100.5 40.6,58.2 40.6,257.5 		"/>
		<polygon class="st32" points="189.2,299.8 325.7,257.5 325.7,58.2 189.2,100.5 		"/>
		<polygon class="st32" points="314.9,52.6 182.5,11.6 50.1,52.6 182.5,93.6 		"/>
		<g id="path3059" transform="translate(12.000000, 108.000000)" class="st118">
			<path id="Shape_9_" class="st4" d="M106.7,5.6c-1.8-1-3.5-0.1-3.8,2.1c0,0,0,0.1,0,0.1c0,0.3-0.1,0.6-0.1,0.9
				c-0.1,1.3,0,2.4-0.1,3.7c-0.1,2.7-0.2,4.9-0.6,6.7c-0.2,0.6-0.8,1-1.3,1.3l-0.3,1.5c-2-0.9-4-1.7-6-2.4c-8.7-2.7-16.6-2.1-23,1.2
				c-0.3-0.5-0.9-1.3-1-1.6c-0.6-0.2-1.2-0.4-1.9-1.3c-1.3-1.9-2.4-4.2-3.7-6.9c-0.6-1.3-1-2.4-1.8-3.7c-0.2-0.3-0.4-0.7-0.6-1
				c-0.6-1-1.3-1.8-2.1-2.2c-1-0.6-2-0.7-2.8-0.2c-1.3,0.9-1.3,3.5,0,5.7c0,0,0,0,0,0.1c0.2,0.3,0.4,0.7,0.6,1
				c0.8,1.3,1.6,2.2,2.4,3.3c1.7,2.4,3.2,4.5,4.2,6.5c0.4,0.9,0.3,2,0.3,2.4l0.9,1.6c-6.9,6.1-11.1,16-11.3,28.6l-1.4-0.3
				c-0.4,0.3-1.1,0.8-1.6,0.8c-1.7-0.4-3.6-1.2-5.9-2.3c-1.1-0.5-2-1.1-3.1-1.5c-0.3-0.1-0.6-0.2-0.9-0.3c0,0,0,0,0,0c0,0,0,0-0.1,0
				c-2-0.6-3.5,0.7-3.4,2.8c0.1,2.1,1.8,4.4,3.8,5c0,0,0,0,0,0c0,0,0,0,0.1,0c0.3,0.1,0.6,0.2,0.9,0.3c1.2,0.3,2,0.3,3.1,0.4
				c2.3,0.4,4.1,0.7,5.9,1.4c0.7,0.4,1.4,1.3,1.7,1.8l1.4,0.5c1.6,13,7.1,25.9,14.8,36.5l-0.8,1.2c0.1,0.7,0.2,1.7,0,2.2
				c-0.9,1.4-2.2,2.7-3.8,4.2c-0.7,0.6-1.4,1.1-2.1,1.9c-0.2,0.2-0.4,0.5-0.6,0.7c-1.1,1.5-0.8,4.1,0.6,5.9c1.5,1.8,3.6,2,4.7,0.5
				c0,0,0,0,0,0c0,0,0,0,0,0c0.2-0.2,0.4-0.5,0.5-0.7c0.6-0.9,0.9-1.8,1.4-2.8c1.2-1.9,2-4.1,3.4-5c0.4-0.2,0.9-0.1,1.5,0l0.9-1
				c7,7.5,15.3,13.2,23.9,15.9c2,0.6,3.9,1.1,5.8,1.3c0.1,0.5,0.4,1.5,0.5,1.8c0.5,0.5,1.1,1,1.5,2.1c0.6,2.2,0.9,4.5,1.3,7.3
				c0.2,1.3,0.2,2.4,0.5,3.8c0.1,0.3,0.2,0.8,0.3,1.1c0.6,2.5,2.4,4.5,4.2,4.6c1.7,0.1,2.7-1.9,2.1-4.3c-0.1-0.4-0.2-0.9-0.3-1.2
				c-0.4-1.4-0.9-2.5-1.3-3.9c-0.9-2.8-1.7-5.2-2-7.3c-0.1-1.1,0.3-1.5,0.6-2c-0.1-0.2-0.2-1.3-0.3-1.8c9.8-0.7,17.7-6.3,22.4-15.3
				c0.4,0.3,1.1,0.9,1.3,1.1c0.5-0.1,1-0.3,1.9,0.3c1.7,1.3,3.3,3,5.4,5.1c0.9,1,1.7,1.9,2.7,2.9c0.2,0.2,0.5,0.5,0.8,0.7
				c0,0,0,0,0.1,0.1c0,0,0,0,0,0c1.8,1.6,3.9,1.5,4.5-0.2c0.7-1.7-0.3-4.3-2.1-5.9c-0.3-0.2-0.6-0.6-0.9-0.8c-1.1-0.9-2-1.4-3.1-2.1
				c-2.2-1.6-4.1-2.9-5.6-4.4c-0.6-0.7-1-1.9-1.2-2.4l-1.2-1.2c1.5-5,2.1-10.8,1.8-17.1c-0.3-6.4-1.7-12.8-3.8-19
				c0.4-0.1,1.1-0.4,1.3-0.5c0.1-0.6,0.2-1.3,0.9-1.7c1.5-0.6,3.2-0.8,5.3-1c1-0.1,1.9,0,2.9-0.2c0.2-0.1,0.6-0.2,0.8-0.2
				c1.7-0.5,2.4-2.6,1.6-4.8c-0.9-2.2-3-3.6-4.8-3.1c-0.2,0.1-0.6,0.1-0.8,0.2c-1,0.3-1.6,0.8-2.5,1.3c-1.9,0.9-3.4,1.6-5,1.9
				c-0.7,0-1.6-0.6-2-0.9l-1.4,0.3c-5.8-12.2-14.6-22.9-24.7-29.8c0-0.5,0.1-1.4,0.2-1.6c-0.4-0.7-0.8-1.4-0.8-2.4
				c0.1-2,0.7-3.9,1.3-6.3c0.3-1.1,0.7-1.9,0.9-3.2c0.1-0.3,0.1-0.7,0.1-1C109.7,9.3,108.5,6.7,106.7,5.6z M98.6,31.1l-3.7,18.3
				l-0.1,0c-0.3,1.6-1.8,2.3-3.3,1.4c-0.6-0.4-1.2-0.9-1.6-1.6l0,0L77.7,30.3c4.9-2.2,10.9-2.5,17.4-0.5
				C96.3,30.2,97.4,30.6,98.6,31.1z M106.7,35.8c7.2,5.2,13.4,12.8,17.8,21.5l-15.4,2.9l0-0.1c-1.4,0.3-3.1-1-3.8-2.8
				c-0.3-0.8-0.4-1.5-0.4-2.2l0,0L106.7,35.8z M71.6,34.4l10.8,19.9l0,0.1c1,1.8,0.9,3.8-0.3,4.6c-0.5,0.3-1,0.4-1.6,0.2l0,0.1
				l-17-4.1C63.9,46.2,66.9,39,71.6,34.4z M128.5,67.2c1.4,4.5,2.3,9.1,2.5,13.7c0.2,4.5-0.1,8.7-1,12.4l-15.5-14.6l0-0.1
				c-1.4-1.3-2.1-3.5-1.5-4.9c0.2-0.6,0.6-1,1.1-1.2l0,0L128.5,67.2z M95.5,62.9l5.2,3l2.6,6.3l-2,4.9l-5-0.2L92,71.8l-0.3-6.3
				L95.5,62.9z M109.9,87.8c0.2,0.1,0.4,0.3,0.6,0.4l0,0l16.3,12.8c-3.6,6.3-9.2,10.2-16.2,11l-4-21.3l0,0c-0.4-1.9,0.5-3.4,2-3.3
				C109.2,87.5,109.6,87.6,109.9,87.8z M81.7,71.6c1.3,0.8,2.3,2.4,2.4,4c0,0.8-0.1,1.4-0.4,1.9l0,0.1l-9,13.6
				c-5.4-7.8-9.3-17-10.7-26.4l17.1,6.5l0,0.1C81.4,71.4,81.6,71.5,81.7,71.6z M94.7,87.3c0.4,0.2,0.9,0.6,1.3,1.1
				c0.5,0.6,0.9,1.4,1.1,2.1l0.1,0l5.8,21.2c-1.1-0.2-2.3-0.5-3.4-0.9c-6.5-2-12.7-6.1-18-11.5L92,87.6l0,0
				C92.7,86.9,93.7,86.8,94.7,87.3z"/>
			<path class="st119" d="M106.7,5.6c-1.8-1-3.5-0.1-3.8,2.1c0,0,0,0.1,0,0.1c0,0.3-0.1,0.6-0.1,0.9c-0.1,1.3,0,2.4-0.1,3.7
				c-0.1,2.7-0.2,4.9-0.6,6.7c-0.2,0.6-0.8,1-1.3,1.3l-0.3,1.5c-2-0.9-4-1.7-6-2.4c-8.7-2.7-16.6-2.1-23,1.2c-0.3-0.5-0.9-1.3-1-1.6
				c-0.6-0.2-1.2-0.4-1.9-1.3c-1.3-1.9-2.4-4.2-3.7-6.9c-0.6-1.3-1-2.4-1.8-3.7c-0.2-0.3-0.4-0.7-0.6-1c-0.6-1-1.3-1.8-2.1-2.2
				c-1-0.6-2-0.7-2.8-0.2c-1.3,0.9-1.3,3.5,0,5.7c0,0,0,0,0,0.1c0.2,0.3,0.4,0.7,0.6,1c0.8,1.3,1.6,2.2,2.4,3.3
				c1.7,2.4,3.2,4.5,4.2,6.5c0.4,0.9,0.3,2,0.3,2.4l0.9,1.6c-6.9,6.1-11.1,16-11.3,28.6l-1.4-0.3c-0.4,0.3-1.1,0.8-1.6,0.8
				c-1.7-0.4-3.6-1.2-5.9-2.3c-1.1-0.5-2-1.1-3.1-1.5c-0.3-0.1-0.6-0.2-0.9-0.3c0,0,0,0,0,0c0,0,0,0-0.1,0c-2-0.6-3.5,0.7-3.4,2.8
				c0.1,2.1,1.8,4.4,3.8,5c0,0,0,0,0,0c0,0,0,0,0.1,0c0.3,0.1,0.6,0.2,0.9,0.3c1.2,0.3,2,0.3,3.1,0.4c2.3,0.4,4.1,0.7,5.9,1.4
				c0.7,0.4,1.4,1.3,1.7,1.8l1.4,0.5c1.6,13,7.1,25.9,14.8,36.5l-0.8,1.2c0.1,0.7,0.2,1.7,0,2.2c-0.9,1.4-2.2,2.7-3.8,4.2
				c-0.7,0.6-1.4,1.1-2.1,1.9c-0.2,0.2-0.4,0.5-0.6,0.7c-1.1,1.5-0.8,4.1,0.6,5.9c1.5,1.8,3.6,2,4.7,0.5c0,0,0,0,0,0c0,0,0,0,0,0
				c0.2-0.2,0.4-0.5,0.5-0.7c0.6-0.9,0.9-1.8,1.4-2.8c1.2-1.9,2-4.1,3.4-5c0.4-0.2,0.9-0.1,1.5,0l0.9-1c7,7.5,15.3,13.2,23.9,15.9
				c2,0.6,3.9,1.1,5.8,1.3c0.1,0.5,0.4,1.5,0.5,1.8c0.5,0.5,1.1,1,1.5,2.1c0.6,2.2,0.9,4.5,1.3,7.3c0.2,1.3,0.2,2.4,0.5,3.8
				c0.1,0.3,0.2,0.8,0.3,1.1c0.6,2.5,2.4,4.5,4.2,4.6c1.7,0.1,2.7-1.9,2.1-4.3c-0.1-0.4-0.2-0.9-0.3-1.2c-0.4-1.4-0.9-2.5-1.3-3.9
				c-0.9-2.8-1.7-5.2-2-7.3c-0.1-1.1,0.3-1.5,0.6-2c-0.1-0.2-0.2-1.3-0.3-1.8c9.8-0.7,17.7-6.3,22.4-15.3c0.4,0.3,1.1,0.9,1.3,1.1
				c0.5-0.1,1-0.3,1.9,0.3c1.7,1.3,3.3,3,5.4,5.1c0.9,1,1.7,1.9,2.7,2.9c0.2,0.2,0.5,0.5,0.8,0.7c0,0,0,0,0.1,0.1c0,0,0,0,0,0
				c1.8,1.6,3.9,1.5,4.5-0.2c0.7-1.7-0.3-4.3-2.1-5.9c-0.3-0.2-0.6-0.6-0.9-0.8c-1.1-0.9-2-1.4-3.1-2.1c-2.2-1.6-4.1-2.9-5.6-4.4
				c-0.6-0.7-1-1.9-1.2-2.4l-1.2-1.2c1.5-5,2.1-10.8,1.8-17.1c-0.3-6.4-1.7-12.8-3.8-19c0.4-0.1,1.1-0.4,1.3-0.5
				c0.1-0.6,0.2-1.3,0.9-1.7c1.5-0.6,3.2-0.8,5.3-1c1-0.1,1.9,0,2.9-0.2c0.2-0.1,0.6-0.2,0.8-0.2c1.7-0.5,2.4-2.6,1.6-4.8
				c-0.9-2.2-3-3.6-4.8-3.1c-0.2,0.1-0.6,0.1-0.8,0.2c-1,0.3-1.6,0.8-2.5,1.3c-1.9,0.9-3.4,1.6-5,1.9c-0.7,0-1.6-0.6-2-0.9l-1.4,0.3
				c-5.8-12.2-14.6-22.9-24.7-29.8c0-0.5,0.1-1.4,0.2-1.6c-0.4-0.7-0.8-1.4-0.8-2.4c0.1-2,0.7-3.9,1.3-6.3c0.3-1.1,0.7-1.9,0.9-3.2
				c0.1-0.3,0.1-0.7,0.1-1C109.7,9.3,108.5,6.7,106.7,5.6z M98.6,31.1l-3.7,18.3l-0.1,0c-0.3,1.6-1.8,2.3-3.3,1.4
				c-0.6-0.4-1.2-0.9-1.6-1.6l0,0L77.7,30.3c4.9-2.2,10.9-2.5,17.4-0.5C96.3,30.2,97.4,30.6,98.6,31.1z M106.7,35.8
				c7.2,5.2,13.4,12.8,17.8,21.5l-15.4,2.9l0-0.1c-1.4,0.3-3.1-1-3.8-2.8c-0.3-0.8-0.4-1.5-0.4-2.2l0,0L106.7,35.8z M71.6,34.4
				l10.8,19.9l0,0.1c1,1.8,0.9,3.8-0.3,4.6c-0.5,0.3-1,0.4-1.6,0.2l0,0.1l-17-4.1C63.9,46.2,66.9,39,71.6,34.4z M128.5,67.2
				c1.4,4.5,2.3,9.1,2.5,13.7c0.2,4.5-0.1,8.7-1,12.4l-15.5-14.6l0-0.1c-1.4-1.3-2.1-3.5-1.5-4.9c0.2-0.6,0.6-1,1.1-1.2l0,0
				L128.5,67.2z M95.5,62.9l5.2,3l2.6,6.3l-2,4.9l-5-0.2L92,71.8l-0.3-6.3L95.5,62.9z M109.9,87.8c0.2,0.1,0.4,0.3,0.6,0.4l0,0
				l16.3,12.8c-3.6,6.3-9.2,10.2-16.2,11l-4-21.3l0,0c-0.4-1.9,0.5-3.4,2-3.3C109.2,87.5,109.6,87.6,109.9,87.8z M81.7,71.6
				c1.3,0.8,2.3,2.4,2.4,4c0,0.8-0.1,1.4-0.4,1.9l0,0.1l-9,13.6c-5.4-7.8-9.3-17-10.7-26.4l17.1,6.5l0,0.1
				C81.4,71.4,81.6,71.5,81.7,71.6z M94.7,87.3c0.4,0.2,0.9,0.6,1.3,1.1c0.5,0.6,0.9,1.4,1.1,2.1l0.1,0l5.8,21.2
				c-1.1-0.2-2.3-0.5-3.4-0.9c-6.5-2-12.7-6.1-18-11.5L92,87.6l0,0C92.7,86.9,93.7,86.8,94.7,87.3z"/>
		</g>
		<g transform="translate(162.000000, 117.000000)" class="st120">
			<path class="st4" d="M88.2-1.3c-1.8,0.7-3,2.9-2.8,4.9c0,0,0,0.1,0,0.1c0,0.3,0,0.6,0.1,0.8c0.1,1.1,0.5,1.9,0.7,3
				c0.5,2.2,0.9,4,0.9,5.8c-0.1,0.7-0.5,1.5-0.9,2.1l0.1,1.4c-1.9,0.9-3.8,2-5.7,3.2c-8.1,5.2-14.8,12.4-19.6,20.5
				c-0.4-0.1-1-0.3-1.2-0.4c-0.6,0.3-1.1,0.7-1.9,0.6c-1.5-0.4-2.9-1.3-4.7-2.3c-0.8-0.5-1.4-1.1-2.3-1.5c-0.2-0.1-0.5-0.2-0.8-0.3
				c-0.7-0.3-1.5-0.3-2.3,0c-1,0.3-1.9,1.1-2.4,2.2c-1,1.9-0.4,3.9,1.2,4.5c0,0,0,0,0.1,0c0.2,0.1,0.5,0.2,0.7,0.3
				c1,0.3,1.8,0.4,2.8,0.6c2,0.5,3.7,0.9,5.1,1.6c0.5,0.3,0.7,1.3,0.8,1.6l1.1,0.5c-4.7,10.7-6.2,22.1-3.7,32.3l-1.3,0.9
				c-0.3,0.6-0.7,1.5-1.2,2c-1.6,1.2-3.4,2.1-5.6,3.2c-1,0.5-1.9,0.8-3,1.5c-0.2,0.1-0.6,0.4-0.8,0.5c0,0,0,0,0,0c0,0,0,0,0,0
				c-1.8,1.2-2.9,3.5-2.3,5.1c0.6,1.6,2.5,2,4.3,0.8c0,0,0,0,0,0c0,0,0,0,0.1,0c0.3-0.2,0.6-0.4,0.8-0.5c1.1-0.7,1.8-1.5,2.8-2.3
				c2-1.6,3.7-2.9,5.4-3.9c0.7-0.3,1.5-0.1,1.9-0.1l1.4-0.8c4.1,9,11.6,14.6,20.6,16.5l-0.4,1.7c0.3,0.5,0.6,1.1,0.5,1.8
				c-0.5,1.9-1.4,4.1-2.4,6.5c-0.5,1.1-1,2.1-1.5,3.3c-0.1,0.3-0.2,0.7-0.3,1c-0.7,2.1,0.1,4,1.8,4.1c1.7,0.2,3.5-1.4,4.2-3.6
				c0,0,0,0,0,0c0,0,0,0,0,0c0.1-0.3,0.2-0.7,0.3-1c0.4-1.2,0.4-2.2,0.6-3.4c0.6-2.5,0.9-5,1.9-6.9c0.3-0.5,0.8-0.9,1.3-1.2l0.6-1.6
				c7.7,0,16-2.4,24.1-7.6c1.8-1.2,3.6-2.5,5.3-3.9c0.2,0.3,0.7,0.9,0.8,1c0.6,0,1.2-0.2,1.7,0.4c1,1.2,1.8,2.8,2.7,4.7
				c0.4,0.9,0.7,1.8,1.2,2.7c0.1,0.2,0.3,0.5,0.5,0.7c1,1.5,3.1,1.5,4.6,0.1c1.5-1.4,1.9-3.7,0.9-5.2c-0.1-0.2-0.3-0.5-0.5-0.7
				c-0.6-0.8-1.3-1.3-2-2c-1.4-1.5-2.5-2.7-3.3-4.1c-0.3-0.8-0.1-1.4,0.1-2c-0.1-0.1-0.5-0.8-0.7-1.1c8.3-8.8,14-20,16.1-31.1
				c0.4-0.1,1.1-0.2,1.4-0.3c0.4-0.5,0.8-1.1,1.7-1.4c1.7-0.4,3.5-0.4,5.7-0.5c1,0,1.8,0.1,3,0c0.2,0,0.6-0.1,0.8-0.1c0,0,0,0,0.1,0
				c0,0,0,0,0,0c1.9-0.3,3.7-2.1,3.9-4c0.2-1.9-1.1-3.2-3.1-3c-0.3,0-0.7,0.1-0.9,0.1c-1.1,0.2-2,0.6-3.1,0.9
				c-2.2,0.6-4.1,1.2-5.8,1.3c-0.7,0-1.2-0.6-1.5-0.9l-1.3,0.1c0.2-5.3-0.5-10.4-2.1-15.1c-1.7-4.8-4.2-8.8-7.3-11.9
				c0.3-0.4,0.9-1.3,1-1.5c0-0.6-0.1-1.2,0.4-2.1c1.1-1.7,2.6-3.3,4.4-5.3c0.9-0.9,1.7-1.6,2.5-2.6c0.2-0.2,0.4-0.6,0.6-0.9
				c1.4-1.9,1.6-4.2,0.3-5.2c-1.2-1-3.4-0.3-4.8,1.6c-0.2,0.3-0.5,0.6-0.7,0.9c-0.8,1.1-1.2,2.1-1.9,3.1c-1.4,2.3-2.6,4.2-3.9,5.7
				c-0.6,0.6-1.5,0.8-1.9,1l-1.1,1.4c-7.6-4.8-17.4-5.9-27.6-2.8c-0.1-0.4-0.2-1.2-0.2-1.4c-0.5-0.2-1-0.4-1.2-1.2
				c-0.3-1.7-0.2-3.7-0.2-6.1c0-1.1,0.2-2.1,0.1-3.3c0-0.3-0.1-0.6-0.1-0.9C91.5-0.9,89.9-2,88.2-1.3z M86.6,25.8l0.7,17.6l-0.1,0.1
				c0.1,1.6-1,3.3-2.5,3.9c-0.6,0.2-1.2,0.3-1.7,0.1l0,0l-14.6-4.7c3.8-5.9,8.9-11.2,15-15.1C84.3,27,85.5,26.4,86.6,25.8z
				 M94.5,22.7c7.3-1.9,14.3-1.2,19.9,2L101.8,40l-0.1,0c-1.1,1.4-2.8,1.8-3.9,1c-0.4-0.3-0.7-0.9-0.8-1.4l0,0L94.5,22.7z
				 M63.9,51.3l13.6,6.7l0,0.1c1.2,0.6,1.6,2.3,0.7,3.9c-0.3,0.7-0.8,1.2-1.4,1.6l0,0.1L61.3,74.6C59.7,67.2,60.8,59,63.9,51.3z
				 M120.1,29.2c2.1,2.4,3.9,5.3,5.1,8.8c1.2,3.4,1.7,7,1.7,10.8l-16.5,1.5l0-0.1c-1.5,0.2-2.5-1-2.3-2.7c0.1-0.7,0.4-1.3,0.7-1.9
				l0,0L120.1,29.2z M90.6,53.7l5.1-2l3.6,2.9l-0.7,5.6l-4.4,4.1l-4.8-0.5L87.8,59L90.6,53.7z M108.4,61.3c0.2-0.1,0.4-0.2,0.7-0.2
				l0,0l16.8-3.6c-1.8,8-5.8,15.9-11.7,22.5l-7.9-13.6l0,0c-0.7-1.2-0.3-3.1,1-4.3C107.6,61.7,108,61.5,108.4,61.3z M80.5,72.3
				c1.3-0.5,2.5,0,2.9,1.2c0.2,0.6,0.2,1.2,0,1.8l0.1,0l-4.9,18.4c-6.3-1.6-11.6-5.7-14.8-11.9L80,72.6l0,0
				C80.2,72.5,80.4,72.4,80.5,72.3z M95.1,73.8c0.4-0.2,0.9-0.3,1.3-0.2c0.6,0.1,1.1,0.3,1.4,0.7l0.1,0l9.5,12
				c-1,0.8-2.1,1.5-3.1,2.2c-6.1,3.9-12.3,5.9-18,6.1l6.7-18.3l0,0C93.2,75.2,94.1,74.3,95.1,73.8z"/>
			<path class="st119" d="M88.2-1.3c-1.8,0.7-3,2.9-2.8,4.9c0,0,0,0.1,0,0.1c0,0.3,0,0.6,0.1,0.8c0.1,1.1,0.5,1.9,0.7,3
				c0.5,2.2,0.9,4,0.9,5.8c-0.1,0.7-0.5,1.5-0.9,2.1l0.1,1.4c-1.9,0.9-3.8,2-5.7,3.2c-8.1,5.2-14.8,12.4-19.6,20.5
				c-0.4-0.1-1-0.3-1.2-0.4c-0.6,0.3-1.1,0.7-1.9,0.6c-1.5-0.4-2.9-1.3-4.7-2.3c-0.8-0.5-1.4-1.1-2.3-1.5c-0.2-0.1-0.5-0.2-0.8-0.3
				c-0.7-0.3-1.5-0.3-2.3,0c-1,0.3-1.9,1.1-2.4,2.2c-1,1.9-0.4,3.9,1.2,4.5c0,0,0,0,0.1,0c0.2,0.1,0.5,0.2,0.7,0.3
				c1,0.3,1.8,0.4,2.8,0.6c2,0.5,3.7,0.9,5.1,1.6c0.5,0.3,0.7,1.3,0.8,1.6l1.1,0.5c-4.7,10.7-6.2,22.1-3.7,32.3l-1.3,0.9
				c-0.3,0.6-0.7,1.5-1.2,2c-1.6,1.2-3.4,2.1-5.6,3.2c-1,0.5-1.9,0.8-3,1.5c-0.2,0.1-0.6,0.4-0.8,0.5c0,0,0,0,0,0c0,0,0,0,0,0
				c-1.8,1.2-2.9,3.5-2.3,5.1c0.6,1.6,2.5,2,4.3,0.8c0,0,0,0,0,0c0,0,0,0,0.1,0c0.3-0.2,0.6-0.4,0.8-0.5c1.1-0.7,1.8-1.5,2.8-2.3
				c2-1.6,3.7-2.9,5.4-3.9c0.7-0.3,1.5-0.1,1.9-0.1l1.4-0.8c4.1,9,11.6,14.6,20.6,16.5l-0.4,1.7c0.3,0.5,0.6,1.1,0.5,1.8
				c-0.5,1.9-1.4,4.1-2.4,6.5c-0.5,1.1-1,2.1-1.5,3.3c-0.1,0.3-0.2,0.7-0.3,1c-0.7,2.1,0.1,4,1.8,4.1c1.7,0.2,3.5-1.4,4.2-3.6
				c0,0,0,0,0,0c0,0,0,0,0,0c0.1-0.3,0.2-0.7,0.3-1c0.4-1.2,0.4-2.2,0.6-3.4c0.6-2.5,0.9-5,1.9-6.9c0.3-0.5,0.8-0.9,1.3-1.2l0.6-1.6
				c7.7,0,16-2.4,24.1-7.6c1.8-1.2,3.6-2.5,5.3-3.9c0.2,0.3,0.7,0.9,0.8,1c0.6,0,1.2-0.2,1.7,0.4c1,1.2,1.8,2.8,2.7,4.7
				c0.4,0.9,0.7,1.8,1.2,2.7c0.1,0.2,0.3,0.5,0.5,0.7c1,1.5,3.1,1.5,4.6,0.1c1.5-1.4,1.9-3.7,0.9-5.2c-0.1-0.2-0.3-0.5-0.5-0.7
				c-0.6-0.8-1.3-1.3-2-2c-1.4-1.5-2.5-2.7-3.3-4.1c-0.3-0.8-0.1-1.4,0.1-2c-0.1-0.1-0.5-0.8-0.7-1.1c8.3-8.8,14-20,16.1-31.1
				c0.4-0.1,1.1-0.2,1.4-0.3c0.4-0.5,0.8-1.1,1.7-1.4c1.7-0.4,3.5-0.4,5.7-0.5c1,0,1.8,0.1,3,0c0.2,0,0.6-0.1,0.8-0.1c0,0,0,0,0.1,0
				c0,0,0,0,0,0c1.9-0.3,3.7-2.1,3.9-4c0.2-1.9-1.1-3.2-3.1-3c-0.3,0-0.7,0.1-0.9,0.1c-1.1,0.2-2,0.6-3.1,0.9
				c-2.2,0.6-4.1,1.2-5.8,1.3c-0.7,0-1.2-0.6-1.5-0.9l-1.3,0.1c0.2-5.3-0.5-10.4-2.1-15.1c-1.7-4.8-4.2-8.8-7.3-11.9
				c0.3-0.4,0.9-1.3,1-1.5c0-0.6-0.1-1.2,0.4-2.1c1.1-1.7,2.6-3.3,4.4-5.3c0.9-0.9,1.7-1.6,2.5-2.6c0.2-0.2,0.4-0.6,0.6-0.9
				c1.4-1.9,1.6-4.2,0.3-5.2c-1.2-1-3.4-0.3-4.8,1.6c-0.2,0.3-0.5,0.6-0.7,0.9c-0.8,1.1-1.2,2.1-1.9,3.1c-1.4,2.3-2.6,4.2-3.9,5.7
				c-0.6,0.6-1.5,0.8-1.9,1l-1.1,1.4c-7.6-4.8-17.4-5.9-27.6-2.8c-0.1-0.4-0.2-1.2-0.2-1.4c-0.5-0.2-1-0.4-1.2-1.2
				c-0.3-1.7-0.2-3.7-0.2-6.1c0-1.1,0.2-2.1,0.1-3.3c0-0.3-0.1-0.6-0.1-0.9C91.5-0.9,89.9-2,88.2-1.3z M86.6,25.8l0.7,17.6l-0.1,0.1
				c0.1,1.6-1,3.3-2.5,3.9c-0.6,0.2-1.2,0.3-1.7,0.1l0,0l-14.6-4.7c3.8-5.9,8.9-11.2,15-15.1C84.3,27,85.5,26.4,86.6,25.8z
				 M94.5,22.7c7.3-1.9,14.3-1.2,19.9,2L101.8,40l-0.1,0c-1.1,1.4-2.8,1.8-3.9,1c-0.4-0.3-0.7-0.9-0.8-1.4l0,0L94.5,22.7z
				 M63.9,51.3l13.6,6.7l0,0.1c1.2,0.6,1.6,2.3,0.7,3.9c-0.3,0.7-0.8,1.2-1.4,1.6l0,0.1L61.3,74.6C59.7,67.2,60.8,59,63.9,51.3z
				 M120.1,29.2c2.1,2.4,3.9,5.3,5.1,8.8c1.2,3.4,1.7,7,1.7,10.8l-16.5,1.5l0-0.1c-1.5,0.2-2.5-1-2.3-2.7c0.1-0.7,0.4-1.3,0.7-1.9
				l0,0L120.1,29.2z M90.6,53.7l5.1-2l3.6,2.9l-0.7,5.6l-4.4,4.1l-4.8-0.5L87.8,59L90.6,53.7z M108.4,61.3c0.2-0.1,0.4-0.2,0.7-0.2
				l0,0l16.8-3.6c-1.8,8-5.8,15.9-11.7,22.5l-7.9-13.6l0,0c-0.7-1.2-0.3-3.1,1-4.3C107.6,61.7,108,61.5,108.4,61.3z M80.5,72.3
				c1.3-0.5,2.5,0,2.9,1.2c0.2,0.6,0.2,1.2,0,1.8l0.1,0l-4.9,18.4c-6.3-1.6-11.6-5.7-14.8-11.9L80,72.6l0,0
				C80.2,72.5,80.4,72.4,80.5,72.3z M95.1,73.8c0.4-0.2,0.9-0.3,1.3-0.2c0.6,0.1,1.1,0.3,1.4,0.7l0.1,0l9.5,12
				c-1,0.8-2.1,1.5-3.1,2.2c-6.1,3.9-12.3,5.9-18,6.1l6.7-18.3l0,0C93.2,75.2,94.1,74.3,95.1,73.8z"/>
		</g>
		<g transform="translate(88.000000, 25.000000)" class="st121">
			<path class="st4" d="M130.4,6.7c-1.3-0.4-3.5-0.2-4.8,0.5c0,0,0,0-0.1,0c-0.2,0.1-0.4,0.2-0.5,0.3c-0.7,0.4-1.1,0.8-1.7,1.2
				c-1.3,0.9-2.3,1.6-3.6,2.1c-0.5,0.2-1.3,0.3-1.9,0.3l-1,0.5c-1.6-0.4-3.2-0.7-5-1c-7.6-1.3-15.8-1.5-23.8-0.7
				c-0.1-0.2-0.3-0.5-0.3-0.6c-0.5-0.1-1-0.2-1.3-0.5c-0.5-0.7-0.6-1.5-0.7-2.4c0-0.4,0-0.8-0.1-1.3c0-0.1-0.1-0.3-0.2-0.4
				c-0.2-0.3-0.6-0.6-1.1-0.8c-0.7-0.2-1.7-0.3-2.7-0.2c-1.8,0.2-2.9,1.1-2.5,1.9c0,0,0,0,0,0c0,0.1,0.1,0.2,0.2,0.3
				c0.3,0.5,0.7,0.8,1,1.2c0.7,0.9,1.2,1.6,1.4,2.3c0,0.3-0.5,0.6-0.7,0.8l0.2,0.6c-9.6,1.6-18.3,4.6-24,8.7l-1.3-0.2
				c-0.6,0.1-1.4,0.2-2,0.2c-1.6-0.2-3.1-0.6-5-1c-0.9-0.2-1.5-0.4-2.5-0.6c-0.2,0-0.5-0.1-0.8-0.1c0,0,0,0,0,0c0,0,0,0,0,0
				c-1.7-0.3-3.8,0-4.6,0.7c-0.8,0.7-0.1,1.5,1.6,1.8c0,0,0,0,0,0c0,0,0,0,0.1,0c0.2,0,0.5,0.1,0.8,0.1c1,0.2,1.9,0.2,2.9,0.3
				c2.1,0.2,3.9,0.4,5.3,0.7c0.6,0.1,0.8,0.5,1,0.7l1.2,0.2c-4.1,4.3-4.3,8.7-1.1,12.5l-1.4,0.4c-0.2,0.2-0.5,0.6-1,0.7
				c-1.5,0.4-3.5,0.8-5.6,1.2c-1,0.2-1.9,0.3-3,0.5c-0.3,0.1-0.6,0.1-0.9,0.2c-1.8,0.4-2.7,1.3-2,1.9c0.7,0.6,2.7,0.8,4.6,0.4
				c0,0,0,0,0,0c0,0,0,0,0,0c0.3-0.1,0.6-0.1,0.8-0.2c1-0.3,1.7-0.5,2.6-0.8c2-0.6,3.9-1.2,5.7-1.5c0.5-0.1,1,0,1.5,0.1l1.4-0.3
				c3.8,2.8,9.6,5,17.2,6.3c1.7,0.3,3.5,0.5,5.3,0.7c-0.1,0.2-0.3,0.5-0.3,0.6c0.3,0.2,0.7,0.4,0.6,0.7c-0.3,0.7-1,1.5-1.9,2.4
				c-0.4,0.4-0.9,0.8-1.2,1.3c-0.1,0.1-0.2,0.3-0.2,0.4c-0.5,0.8,0.5,1.6,2.2,1.7c1.7,0.1,3.5-0.5,4-1.3c0.1-0.1,0.2-0.3,0.3-0.4
				c0.3-0.5,0.2-0.9,0.4-1.3c0.3-1,0.6-1.8,1.2-2.5c0.3-0.4,0.9-0.5,1.4-0.6c0-0.1,0.3-0.4,0.4-0.6c10.2,0.2,20.7-1.2,29.4-3.9
				c0.3,0.1,0.7,0.3,0.9,0.4c0.6,0,1.2,0,1.8,0.2c1.1,0.5,2.1,1.1,3.2,1.9c0.5,0.4,0.8,0.7,1.5,1.1c0.1,0.1,0.3,0.2,0.5,0.3
				c0,0,0,0,0,0c0,0,0,0,0,0c1.2,0.6,3.3,0.7,4.7,0.1c1.4-0.5,1.6-1.4,0.5-2c-0.2-0.1-0.4-0.2-0.6-0.3c-0.7-0.3-1.4-0.5-2.2-0.8
				c-1.5-0.6-2.8-1.1-3.7-1.7c-0.3-0.3-0.2-0.6-0.1-0.8l-0.7-0.4c3.7-1.6,6.9-3.4,9.3-5.4c2.5-2.1,4-4.2,4.6-6.3
				c0.5,0,1.3-0.1,1.5-0.1c0.4-0.2,0.8-0.4,1.7-0.5c1.7-0.1,3.6-0.1,5.8-0.1c1,0,1.9,0.1,3,0.1c0.3,0,0.6,0,0.9,0
				c2-0.1,3.6-0.7,3.7-1.5c0.1-0.7-1.5-1.3-3.4-1.2c-0.3,0-0.7,0-0.9,0c-1.1,0.1-2,0.2-3.1,0.3c-2.3,0.2-4.1,0.4-5.9,0.4
				c-0.7,0-1.3-0.3-1.6-0.4l-1.5,0c-0.5-4.2-4.6-8.1-11.8-10.8c0.3-0.2,0.7-0.4,0.9-0.5c-0.1-0.2-0.2-0.5,0.3-0.8
				c1-0.6,2.4-1.2,4.1-2c0.8-0.3,1.6-0.6,2.3-1c0.2-0.1,0.4-0.2,0.6-0.3C131.7,8.1,131.7,7.2,130.4,6.7z M110.9,14.6l-11.8,5.7
				l-0.1,0c-1,0.5-2.8,0.6-3.9,0.3c-0.5-0.1-0.8-0.4-0.9-0.6l0,0l-4-6.7c6-0.5,12.1-0.3,17.8,0.7C109,14.2,110,14.4,110.9,14.6z
				 M117,16.5c5,2,7.9,4.8,8.5,7.8l-16.8,0.2l0,0c-1.5,0-2.7-0.5-2.6-1.1c0-0.3,0.2-0.5,0.6-0.7l0,0L117,16.5z M82.2,14.3l2.2,6.9
				l-0.1,0c0.2,0.6-0.8,1.3-2.3,1.5c-0.6,0.1-1.2,0.1-1.8,0l0,0l-15.3-2.2C69.2,17.8,75.4,15.6,82.2,14.3z M125.2,27.7
				c-0.6,1.5-1.7,3-3.5,4.5c-1.8,1.5-4,2.8-6.5,4l-9.3-5.5l0,0c-0.8-0.5-0.5-1.2,0.7-1.7c0.5-0.2,1.1-0.3,1.7-0.3l0,0L125.2,27.7z
				 M93.8,24.7l3.9,1.2l-0.2,2.2l-4.2,1.5l-5-0.3l-2.1-1.9l2.4-2L93.8,24.7z M97.3,33.4c0.2,0,0.3,0.1,0.5,0.2l0,0l10.8,4.9
				c-6.4,1.9-13.8,2.9-21.2,2.8l5.4-7.1l0,0c0.5-0.6,2-1.1,3.5-1C96.7,33.3,97,33.4,97.3,33.4z M76,26.9c1,0.3,1.2,0.9,0.6,1.4
				c-0.3,0.2-0.7,0.4-1.3,0.6l0,0l-15.1,4c-2-2.8-1.9-5.9,0.9-9l14.4,2.9l0,0C75.7,26.8,75.8,26.8,76,26.9z M82.1,32.6
				c0.3,0.1,0.6,0.2,0.8,0.4c0.2,0.2,0.3,0.5,0.2,0.7l0,0l-3.5,7.1c-1-0.1-2.1-0.3-3.1-0.4c-5.7-1-10.1-2.6-13.1-4.6l15.9-3.3l0,0
				C80.3,32.3,81.4,32.3,82.1,32.6z"/>
			<path class="st119" d="M130.4,6.7c-1.3-0.4-3.5-0.2-4.8,0.5c0,0,0,0-0.1,0c-0.2,0.1-0.4,0.2-0.5,0.3c-0.7,0.4-1.1,0.8-1.7,1.2
				c-1.3,0.9-2.3,1.6-3.6,2.1c-0.5,0.2-1.3,0.3-1.9,0.3l-1,0.5c-1.6-0.4-3.2-0.7-5-1c-7.6-1.3-15.8-1.5-23.8-0.7
				c-0.1-0.2-0.3-0.5-0.3-0.6c-0.5-0.1-1-0.2-1.3-0.5c-0.5-0.7-0.6-1.5-0.7-2.4c0-0.4,0-0.8-0.1-1.3c0-0.1-0.1-0.3-0.2-0.4
				c-0.2-0.3-0.6-0.6-1.1-0.8c-0.7-0.2-1.7-0.3-2.7-0.2c-1.8,0.2-2.9,1.1-2.5,1.9c0,0,0,0,0,0c0,0.1,0.1,0.2,0.2,0.3
				c0.3,0.5,0.7,0.8,1,1.2c0.7,0.9,1.2,1.6,1.4,2.3c0,0.3-0.5,0.6-0.7,0.8l0.2,0.6c-9.6,1.6-18.3,4.6-24,8.7l-1.3-0.2
				c-0.6,0.1-1.4,0.2-2,0.2c-1.6-0.2-3.1-0.6-5-1c-0.9-0.2-1.5-0.4-2.5-0.6c-0.2,0-0.5-0.1-0.8-0.1c0,0,0,0,0,0c0,0,0,0,0,0
				c-1.7-0.3-3.8,0-4.6,0.7c-0.8,0.7-0.1,1.5,1.6,1.8c0,0,0,0,0,0c0,0,0,0,0.1,0c0.2,0,0.5,0.1,0.8,0.1c1,0.2,1.9,0.2,2.9,0.3
				c2.1,0.2,3.9,0.4,5.3,0.7c0.6,0.1,0.8,0.5,1,0.7l1.2,0.2c-4.1,4.3-4.3,8.7-1.1,12.5l-1.4,0.4c-0.2,0.2-0.5,0.6-1,0.7
				c-1.5,0.4-3.5,0.8-5.6,1.2c-1,0.2-1.9,0.3-3,0.5c-0.3,0.1-0.6,0.1-0.9,0.2c-1.8,0.4-2.7,1.3-2,1.9c0.7,0.6,2.7,0.8,4.6,0.4
				c0,0,0,0,0,0c0,0,0,0,0,0c0.3-0.1,0.6-0.1,0.8-0.2c1-0.3,1.7-0.5,2.6-0.8c2-0.6,3.9-1.2,5.7-1.5c0.5-0.1,1,0,1.5,0.1l1.4-0.3
				c3.8,2.8,9.6,5,17.2,6.3c1.7,0.3,3.5,0.5,5.3,0.7c-0.1,0.2-0.3,0.5-0.3,0.6c0.3,0.2,0.7,0.4,0.6,0.7c-0.3,0.7-1,1.5-1.9,2.4
				c-0.4,0.4-0.9,0.8-1.2,1.3c-0.1,0.1-0.2,0.3-0.2,0.4c-0.5,0.8,0.5,1.6,2.2,1.7c1.7,0.1,3.5-0.5,4-1.3c0.1-0.1,0.2-0.3,0.3-0.4
				c0.3-0.5,0.2-0.9,0.4-1.3c0.3-1,0.6-1.8,1.2-2.5c0.3-0.4,0.9-0.5,1.4-0.6c0-0.1,0.3-0.4,0.4-0.6c10.2,0.2,20.7-1.2,29.4-3.9
				c0.3,0.1,0.7,0.3,0.9,0.4c0.6,0,1.2,0,1.8,0.2c1.1,0.5,2.1,1.1,3.2,1.9c0.5,0.4,0.8,0.7,1.5,1.1c0.1,0.1,0.3,0.2,0.5,0.3
				c0,0,0,0,0,0c0,0,0,0,0,0c1.2,0.6,3.3,0.7,4.7,0.1c1.4-0.5,1.6-1.4,0.5-2c-0.2-0.1-0.4-0.2-0.6-0.3c-0.7-0.3-1.4-0.5-2.2-0.8
				c-1.5-0.6-2.8-1.1-3.7-1.7c-0.3-0.3-0.2-0.6-0.1-0.8l-0.7-0.4c3.7-1.6,6.9-3.4,9.3-5.4c2.5-2.1,4-4.2,4.6-6.3
				c0.5,0,1.3-0.1,1.5-0.1c0.4-0.2,0.8-0.4,1.7-0.5c1.7-0.1,3.6-0.1,5.8-0.1c1,0,1.9,0.1,3,0.1c0.3,0,0.6,0,0.9,0
				c2-0.1,3.6-0.7,3.7-1.5c0.1-0.7-1.5-1.3-3.4-1.2c-0.3,0-0.7,0-0.9,0c-1.1,0.1-2,0.2-3.1,0.3c-2.3,0.2-4.1,0.4-5.9,0.4
				c-0.7,0-1.3-0.3-1.6-0.4l-1.5,0c-0.5-4.2-4.6-8.1-11.8-10.8c0.3-0.2,0.7-0.4,0.9-0.5c-0.1-0.2-0.2-0.5,0.3-0.8
				c1-0.6,2.4-1.2,4.1-2c0.8-0.3,1.6-0.6,2.3-1c0.2-0.1,0.4-0.2,0.6-0.3C131.7,8.1,131.7,7.2,130.4,6.7z M110.9,14.6l-11.8,5.7
				l-0.1,0c-1,0.5-2.8,0.6-3.9,0.3c-0.5-0.1-0.8-0.4-0.9-0.6l0,0l-4-6.7c6-0.5,12.1-0.3,17.8,0.7C109,14.2,110,14.4,110.9,14.6z
				 M117,16.5c5,2,7.9,4.8,8.5,7.8l-16.8,0.2l0,0c-1.5,0-2.7-0.5-2.6-1.1c0-0.3,0.2-0.5,0.6-0.7l0,0L117,16.5z M82.2,14.3l2.2,6.9
				l-0.1,0c0.2,0.6-0.8,1.3-2.3,1.5c-0.6,0.1-1.2,0.1-1.8,0l0,0l-15.3-2.2C69.2,17.8,75.4,15.6,82.2,14.3z M125.2,27.7
				c-0.6,1.5-1.7,3-3.5,4.5c-1.8,1.5-4,2.8-6.5,4l-9.3-5.5l0,0c-0.8-0.5-0.5-1.2,0.7-1.7c0.5-0.2,1.1-0.3,1.7-0.3l0,0L125.2,27.7z
				 M93.8,24.7l3.9,1.2l-0.2,2.2l-4.2,1.5l-5-0.3l-2.1-1.9l2.4-2L93.8,24.7z M97.3,33.4c0.2,0,0.3,0.1,0.5,0.2l0,0l10.8,4.9
				c-6.4,1.9-13.8,2.9-21.2,2.8l5.4-7.1l0,0c0.5-0.6,2-1.1,3.5-1C96.7,33.3,97,33.4,97.3,33.4z M76,26.9c1,0.3,1.2,0.9,0.6,1.4
				c-0.3,0.2-0.7,0.4-1.3,0.6l0,0l-15.1,4c-2-2.8-1.9-5.9,0.9-9l14.4,2.9l0,0C75.7,26.8,75.8,26.8,76,26.9z M82.1,32.6
				c0.3,0.1,0.6,0.2,0.8,0.4c0.2,0.2,0.3,0.5,0.2,0.7l0,0l-3.5,7.1c-1-0.1-2.1-0.3-3.1-0.4c-5.7-1-10.1-2.6-13.1-4.6l15.9-3.3l0,0
				C80.3,32.3,81.4,32.3,82.1,32.6z"/>
		</g>
	</g>
</g>
<g id="Layer_4">
</g>
</svg>
