<?xml version="1.0" encoding="UTF-8"?>
<svg width="200px" height="200px" viewBox="0 0 200 200" version="1.1" xmlns="http://www.w3.org/2000/svg" xmlns:xlink="http://www.w3.org/1999/xlink">
    <!-- Generator: Sketch 64 (93537) - https://sketch.com -->
    <title>aks</title>
    <desc>Created with Sketch.</desc>
    <g id="aks" stroke="none" stroke-width="1" fill="none" fill-rule="evenodd">
        <g transform="translate(0.000000, 27.000000)" stroke-linecap="round" stroke-linejoin="round">
            <g id="Container-Service" transform="translate(1.000000, 1.000000)">
                <g id="nlZzhrsMJJk2iYv_ha8mMQ.sym">
                    <g id="j4rmrkxifl">
                        <g id="j4rmrkptef" transform="translate(59.849048, 0.000000)" fill="#804998">
                            <polygon id="Path" points="30.3181795 36.4512442 0 48.0847727 0 0 30.3181795 10.4699066"></polygon>
                        </g>
                        <g id="j4rmrkqfeg" transform="translate(32.681186, 0.388113)" fill="#804998">
                            <path d="M0,7.75562586 L0,39.165525 L22.4432812,47.6966596 L22.4432812,0 L0,7.75562586 Z M2.36193257,36.8393573 L1.1815927,36.4512442 L1.1815927,10.4699066 L2.36193257,10.0817935 L3.54316731,9.69457716 L4.72476001,9.30646407 L4.72476001,37.6148661 L3.54316731,37.2265737 L2.36193257,36.8393573 Z M8.2681063,38.3901955 L6.69348459,38.0020825 L6.69348459,8.91835098 L8.2681063,8.53113464 L9.84362289,8.1428422 L11.4182446,7.75562586 L11.4182446,39.5536381 L9.84362289,39.165525 L8.2681063,38.3901955 Z M15.3556938,40.7172599 L13.3867902,39.9408544 L13.3867902,6.97939968 L15.3556938,6.59218334 L17.3244183,5.81667455 L19.6872458,5.04044837 L19.6872458,41.8798057 L17.3244183,41.1044763 L15.3556938,40.7172599 Z" id="Shape"></path>
                        </g>
                        <g id="j4rmrkr6eh" transform="translate(130.329925, 0.000000)" fill="#804998">
                            <polygon id="Path" points="30.3181795 36.4512442 0 48.0847727 0 0 30.3181795 10.4699066"></polygon>
                        </g>
                        <g id="j4rmrkrnei" transform="translate(103.160989, 0.388113)" fill="#804998">
                            <path d="M0,7.75562586 L0,39.165525 L22.4432812,47.6966596 L22.4432812,0 L0,7.75562586 Z M2.36282744,36.8393573 L1.1815927,36.4512442 L1.1815927,10.4699066 L2.36282744,10.0817935 L3.54442014,9.69457716 L4.72476001,9.30646407 L4.72476001,37.6148661 L3.54442014,37.2265737 L2.36282744,36.8393573 Z M8.26918015,38.3901955 L6.69348459,38.0020825 L6.69348459,8.91835098 L8.26918015,8.53113464 L9.84362289,8.1428422 L11.4191395,7.75562586 L11.4191395,39.5536381 L9.84362289,39.165525 L8.26918015,38.3901955 Z M15.3565886,40.7172599 L13.388043,39.9408544 L13.388043,6.97939968 L15.3565886,6.59218334 L17.3253132,5.81667455 L19.6872458,5.04044837 L19.6872458,41.8798057 L17.3253132,41.1044763 L15.3565886,40.7172599 Z" id="Shape"></path>
                        </g>
                        <g id="j4rmrkrvej" transform="translate(59.849048, 95.395113)" fill="#804998">
                            <polygon id="Path" points="30.3181795 36.4512442 0 48.0847727 0 0 30.3181795 10.4699066"></polygon>
                        </g>
                        <g id="j4rmrks6ek" transform="translate(32.681186, 95.782329)" fill="#804998">
                            <path d="M0,7.75562586 L0,39.1664217 L22.4432812,47.6975564 L22.4432812,0 L0,7.75562586 Z M2.36193257,36.8393573 L1.1815927,36.452141 L1.1815927,10.4699066 L2.36193257,10.0826902 L3.54316731,9.69457716 L4.72476001,9.30736082 L4.72476001,37.6148661 L3.54316731,37.2276498 L2.36193257,36.8393573 Z M8.2681063,38.3910923 L6.69348459,38.0029792 L6.69348459,8.91924773 L8.2681063,8.53113464 L9.84362289,8.1439183 L11.4182446,7.75562586 L11.4182446,39.5536381 L9.84362289,39.1664217 L8.2681063,38.3910923 Z M15.3556938,40.7172599 L13.3867902,39.9419305 L13.3867902,6.98029643 L15.3556938,6.59218334 L17.3244183,5.81667455 L19.6872458,5.04134512 L19.6872458,41.8808818 L17.3244183,41.105373 L15.3556938,40.7172599 Z" id="Shape"></path>
                        </g>
                        <g id="j4rmrkseel" transform="translate(130.329925, 95.395113)" fill="#804998">
                            <polygon id="Path" points="30.3181795 36.4512442 0 48.0847727 0 0 30.3181795 10.4699066"></polygon>
                        </g>
                        <g id="j4rmrkspem" transform="translate(103.160989, 95.782329)" fill="#804998">
                            <path d="M0,7.75562586 L0,39.1664217 L22.4432812,47.6975564 L22.4432812,0 L0,7.75562586 Z M2.36282744,36.8393573 L1.1815927,36.452141 L1.1815927,10.4699066 L2.36282744,10.0826902 L3.54442014,9.69457716 L4.72476001,9.30736082 L4.72476001,37.6148661 L3.54442014,37.2276498 L2.36282744,36.8393573 Z M8.26918015,38.3910923 L6.69348459,38.0029792 L6.69348459,8.91924773 L8.26918015,8.53113464 L9.84362289,8.1439183 L11.4191395,7.75562586 L11.4191395,39.5536381 L9.84362289,39.1664217 L8.26918015,38.3910923 Z M15.3565886,40.7172599 L13.388043,39.9419305 L13.388043,6.98029643 L15.3565886,6.59218334 L17.3253132,5.81667455 L19.6872458,5.04134512 L19.6872458,41.8808818 L17.3253132,41.105373 L15.3565886,40.7172599 Z" id="Shape"></path>
                        </g>
                        <g id="j4rmrkt5en" transform="translate(97.648918, 47.697556)" fill="#804998">
                            <polygon id="Path" points="29.9240767 36.4512442 0 47.6975564 0 0 29.9240767 10.4699066"></polygon>
                        </g>
                        <g id="j4rmrktheo" transform="translate(70.086774, 47.697556)" fill="#804998">
                            <path d="M0,7.75562586 L0,39.165525 L22.4432812,47.6975564 L22.4432812,0 L0,7.75562586 Z M2.36193257,36.8393573 L1.1815927,36.4512442 L1.1815927,10.4699066 L2.36193257,10.0817935 L3.54316731,9.69457716 L4.72476001,9.30646407 L4.72476001,37.6148661 L3.54316731,37.2265737 L2.36193257,36.8393573 Z M8.2681063,38.7783086 L6.69348459,38.3901955 L6.69348459,9.30646407 L8.2681063,8.91924773 L9.84362289,8.53113464 L11.4182446,8.1428422 L11.4182446,39.9419305 L9.84362289,39.5536381 L8.2681063,38.7783086 Z M15.3556938,41.1044763 L13.3867902,40.3291468 L13.3867902,7.36751277 L15.3556938,6.98029643 L17.3244183,6.2038909 L19.6872458,5.42856146 L19.6872458,42.2680981 L17.3244183,41.4925894 L15.3556938,41.1044763 Z" id="Shape"></path>
                        </g>
                        <g id="j4rmrktrep" transform="translate(27.562144, 47.697556)" fill="#804998">
                            <polygon id="Path" points="29.9249715 36.4512442 0 47.6975564 0 0 29.9249715 10.4699066"></polygon>
                        </g>
                        <g id="j4rmrku6eq" transform="translate(0.000000, 47.697556)" fill="#804998">
                            <path d="M0,7.75562586 L0,39.165525 L22.4432812,47.6975564 L22.4432812,0 L0,7.75562586 Z M2.36282744,36.8393573 L1.1815927,36.4512442 L1.1815927,10.4699066 L2.36282744,10.0817935 L3.54316731,9.69457716 L4.72476001,9.30646407 L4.72476001,37.6148661 L3.54316731,37.2265737 L2.36282744,36.8393573 Z M8.26918015,38.7783086 L6.69348459,38.3901955 L6.69348459,9.30646407 L8.26918015,8.91924773 L9.84362289,8.53113464 L11.4182446,8.1428422 L11.4182446,39.9419305 L9.84362289,39.5536381 L8.26918015,38.7783086 Z M15.3556938,41.1044763 L13.3867902,40.3291468 L13.3867902,7.36751277 L15.3556938,6.98029643 L17.3244183,6.2038909 L19.6872458,5.42856146 L19.6872458,42.2680981 L17.3244183,41.4925894 L15.3556938,41.1044763 Z" id="Shape"></path>
                        </g>
                        <g id="j4rmrkuder" transform="translate(166.947486, 47.697556)" fill="#804998">
                            <polygon id="Path" points="29.9249715 36.4512442 0 47.6975564 0 0 29.9249715 10.4699066"></polygon>
                        </g>
                        <g id="j4rmrkukes" transform="translate(59.849048, 0.000000)" fill="#FFFFFF" opacity="0.2">
                            <polygon id="Path" points="30.3181795 36.4512442 0 48.0847727 0 0 30.3181795 10.4699066"></polygon>
                        </g>
                        <g id="j4rmrkutet" transform="translate(130.329925, 0.000000)" fill="#FFFFFF" opacity="0.2">
                            <polygon id="Path" points="30.3181795 36.4512442 0 48.0847727 0 0 30.3181795 10.4699066"></polygon>
                        </g>
                        <g id="j4rmrkv0eu" transform="translate(59.849048, 95.395113)" fill="#FFFFFF" opacity="0.2">
                            <polygon id="Path" points="30.3181795 36.4512442 0 48.0847727 0 0 30.3181795 10.4699066"></polygon>
                        </g>
                        <g id="j4rmrkv6ev" transform="translate(130.329925, 95.395113)" fill="#FFFFFF" opacity="0.2">
                            <polygon id="Path" points="30.3181795 36.4512442 0 48.0847727 0 0 30.3181795 10.4699066"></polygon>
                        </g>
                        <g id="j4rmrkvfew" transform="translate(97.648918, 47.697556)" fill="#FFFFFF" opacity="0.2">
                            <polygon id="Path" points="29.9240767 36.4512442 0 47.6975564 0 0 29.9240767 10.4699066"></polygon>
                        </g>
                        <g id="j4rmrkvmex" transform="translate(27.562144, 47.697556)" fill="#FFFFFF" opacity="0.2">
                            <polygon id="Path" points="29.9249715 36.4512442 0 47.6975564 0 0 29.9249715 10.4699066"></polygon>
                        </g>
                        <g id="j4rmrkvsey" transform="translate(166.947486, 47.697556)" fill="#FFFFFF" opacity="0.2">
                            <polygon id="Path" points="29.9249715 36.4512442 0 47.6975564 0 0 29.9249715 10.4699066"></polygon>
                        </g>
                        <g id="j4rmrkw4ez" transform="translate(139.385342, 47.697556)" fill="#804998">
                            <path d="M0,7.75562586 L0,39.165525 L22.4441761,47.6975564 L22.4441761,0 L0,7.75562586 Z M2.36282744,36.8393573 L1.1815927,36.4512442 L1.1815927,10.4699066 L2.36282744,10.0817935 L3.54442014,9.69457716 L4.72565489,9.30646407 L4.72565489,37.6148661 L3.54442014,37.2265737 L2.36282744,36.8393573 Z M8.26918015,38.7783086 L6.69437946,38.3901955 L6.69437946,9.30646407 L8.26918015,8.91924773 L9.84362289,8.53113464 L11.4191395,8.1428422 L11.4191395,39.9419305 L9.84362289,39.5536381 L8.26918015,38.7783086 Z M15.3565886,41.1044763 L13.388043,40.3291468 L13.388043,7.36751277 L15.3565886,6.98029643 L17.3253132,6.2038909 L19.6872458,5.42856146 L19.6872458,42.2680981 L17.3253132,41.4925894 L15.3565886,41.1044763 Z" id="Shape"></path>
                        </g>
                    </g>
                </g>
            </g>
            <g id="nlZzhrsMJJk2iYv_ha8mMQ.sym">
                <g id="j4rmrkxifl">
                    <g id="j4rmrkptef" transform="translate(59.654981, 0.000000)" fill="#804998">
                        <polygon id="Path" points="30.2198693 36.2887258 0 47.870386 0 0 30.2198693 10.4232263"></polygon>
                    </g>
                    <g id="j4rmrkqfeg" transform="translate(32.575213, 0.386383)" fill="#804998">
                        <path d="M0,7.72104727 L0,38.9909048 L22.3705063,47.4840033 L22.3705063,0 L0,7.72104727 Z M2.35427373,36.6751085 L1.17776125,36.2887258 L1.17776125,10.4232263 L2.35427373,10.0368437 L3.53167818,9.65135373 L4.70943943,9.26497104 L4.70943943,37.4471596 L3.53167818,37.0605984 L2.35427373,36.6751085 Z M8.24129601,38.2190322 L6.67178019,37.8326495 L6.67178019,8.87858836 L8.24129601,8.49309843 L9.8117038,8.1065372 L11.3812196,7.72104727 L11.3812196,39.3772875 L9.8117038,38.9909048 L8.24129601,38.2190322 Z M15.3059011,40.5357214 L13.343382,39.7627774 L13.343382,6.94828191 L15.3059011,6.56279198 L17.2682419,5.79074082 L19.6234076,5.01797545 L19.6234076,41.6930839 L17.2682419,40.9212113 L15.3059011,40.5357214 Z" id="Shape"></path>
                    </g>
                    <g id="j4rmrkr6eh" transform="translate(129.907315, 0.000000)" fill="#804998">
                        <polygon id="Path" points="30.2198693 36.2887258 0 47.870386 0 0 30.2198693 10.4232263"></polygon>
                    </g>
                    <g id="j4rmrkrnei" transform="translate(102.826477, 0.386383)" fill="#804998">
                        <path d="M0,7.72104727 L0,38.9909048 L22.3705063,47.4840033 L22.3705063,0 L0,7.72104727 Z M2.3551657,36.6751085 L1.17776125,36.2887258 L1.17776125,10.4232263 L2.3551657,10.0368437 L3.53292695,9.65135373 L4.70943943,9.26497104 L4.70943943,37.4471596 L3.53292695,37.0605984 L2.3551657,36.6751085 Z M8.24236637,38.2190322 L6.67178019,37.8326495 L6.67178019,8.87858836 L8.24236637,8.49309843 L9.8117038,8.1065372 L11.3821116,7.72104727 L11.3821116,39.3772875 L9.8117038,38.9909048 L8.24236637,38.2190322 Z M15.3067931,40.5357214 L13.3446307,39.7627774 L13.3446307,6.94828191 L15.3067931,6.56279198 L17.2691339,5.79074082 L19.6234076,5.01797545 L19.6234076,41.6930839 L17.2691339,40.9212113 L15.3067931,40.5357214 Z" id="Shape"></path>
                    </g>
                    <g id="j4rmrkrvej" transform="translate(59.654981, 94.969792)" fill="#804998">
                        <polygon id="Path" points="30.2198693 36.2887258 0 47.870386 0 0 30.2198693 10.4232263"></polygon>
                    </g>
                    <g id="j4rmrks6ek" transform="translate(32.575213, 95.355282)" fill="#804998">
                        <path d="M0,7.72104727 L0,38.9917976 L22.3705063,47.484896 L22.3705063,0 L0,7.72104727 Z M2.35427373,36.6751085 L1.17776125,36.2896185 L1.17776125,10.4232263 L2.35427373,10.0377364 L3.53167818,9.65135373 L4.70943943,9.2658638 L4.70943943,37.4471596 L3.53167818,37.0616697 L2.35427373,36.6751085 Z M8.24129601,38.219925 L6.67178019,37.8335423 L6.67178019,8.87948111 L8.24129601,8.49309843 L9.8117038,8.1076085 L11.3812196,7.72104727 L11.3812196,39.3772875 L9.8117038,38.9917976 L8.24129601,38.219925 Z M15.3059011,40.5357214 L13.343382,39.7638487 L13.343382,6.94917466 L15.3059011,6.56279198 L17.2682419,5.79074082 L19.6234076,5.0188682 L19.6234076,41.6941552 L17.2682419,40.922104 L15.3059011,40.5357214 Z" id="Shape"></path>
                    </g>
                    <g id="j4rmrkseel" transform="translate(129.907315, 94.969792)" fill="#804998">
                        <polygon id="Path" points="30.2198693 36.2887258 0 47.870386 0 0 30.2198693 10.4232263"></polygon>
                    </g>
                    <g id="j4rmrkspem" transform="translate(102.826477, 95.355282)" fill="#804998">
                        <path d="M0,7.72104727 L0,38.9917976 L22.3705063,47.484896 L22.3705063,0 L0,7.72104727 Z M2.3551657,36.6751085 L1.17776125,36.2896185 L1.17776125,10.4232263 L2.3551657,10.0377364 L3.53292695,9.65135373 L4.70943943,9.2658638 L4.70943943,37.4471596 L3.53292695,37.0616697 L2.3551657,36.6751085 Z M8.24236637,38.219925 L6.67178019,37.8335423 L6.67178019,8.87948111 L8.24236637,8.49309843 L9.8117038,8.1076085 L11.3821116,7.72104727 L11.3821116,39.3772875 L9.8117038,38.9917976 L8.24236637,38.219925 Z M15.3067931,40.5357214 L13.3446307,39.7638487 L13.3446307,6.94917466 L15.3067931,6.56279198 L17.2691339,5.79074082 L19.6234076,5.0188682 L19.6234076,41.6941552 L17.2691339,40.922104 L15.3067931,40.5357214 Z" id="Shape"></path>
                    </g>
                    <g id="j4rmrkt5en" transform="translate(97.332280, 47.484896)" fill="#804998">
                        <polygon id="Path" points="29.8270444 36.2887258 0 47.484896 0 0 29.8270444 10.4232263"></polygon>
                    </g>
                    <g id="j4rmrktheo" transform="translate(69.859509, 47.484896)" fill="#804998">
                        <path d="M0,7.72104727 L0,38.9909048 L22.3705063,47.484896 L22.3705063,0 L0,7.72104727 Z M2.35427373,36.6751085 L1.17776125,36.2887258 L1.17776125,10.4232263 L2.35427373,10.0368437 L3.53167818,9.65135373 L4.70943943,9.26497104 L4.70943943,37.4471596 L3.53167818,37.0605984 L2.35427373,36.6751085 Z M8.24129601,38.6054149 L6.67178019,38.2190322 L6.67178019,9.26497104 L8.24129601,8.87948111 L9.8117038,8.49309843 L11.3812196,8.1065372 L11.3812196,39.7638487 L9.8117038,39.3772875 L8.24129601,38.6054149 Z M15.3059011,40.9212113 L13.343382,40.1493387 L13.343382,7.33466459 L15.3059011,6.94917466 L17.2682419,6.17623075 L19.6234076,5.40435813 L19.6234076,42.0796451 L17.2682419,41.307594 L15.3059011,40.9212113 Z" id="Shape"></path>
                    </g>
                    <g id="j4rmrktrep" transform="translate(27.472771, 47.484896)" fill="#804998">
                        <polygon id="Path" points="29.8279363 36.2887258 0 47.484896 0 0 29.8279363 10.4232263"></polygon>
                    </g>
                    <g id="j4rmrku6eq" transform="translate(0.000000, 47.484896)" fill="#804998">
                        <path d="M0,7.72104727 L0,38.9909048 L22.3705063,47.484896 L22.3705063,0 L0,7.72104727 Z M2.3551657,36.6751085 L1.17776125,36.2887258 L1.17776125,10.4232263 L2.3551657,10.0368437 L3.53167818,9.65135373 L4.70943943,9.26497104 L4.70943943,37.4471596 L3.53167818,37.0605984 L2.3551657,36.6751085 Z M8.24236637,38.6054149 L6.67178019,38.2190322 L6.67178019,9.26497104 L8.24236637,8.87948111 L9.8117038,8.49309843 L11.3812196,8.1065372 L11.3812196,39.7638487 L9.8117038,39.3772875 L8.24236637,38.6054149 Z M15.3059011,40.9212113 L13.343382,40.1493387 L13.343382,7.33466459 L15.3059011,6.94917466 L17.2682419,6.17623075 L19.6234076,5.40435813 L19.6234076,42.0796451 L17.2682419,41.307594 L15.3059011,40.9212113 Z" id="Shape"></path>
                    </g>
                    <g id="j4rmrkuder" transform="translate(166.406140, 47.484896)" fill="#804998">
                        <polygon id="Path" points="29.8279363 36.2887258 0 47.484896 0 0 29.8279363 10.4232263"></polygon>
                    </g>
                    <g id="j4rmrkukes" transform="translate(59.654981, 0.000000)" fill="#FFFFFF" opacity="0.2">
                        <polygon id="Path" points="30.2198693 36.2887258 0 47.870386 0 0 30.2198693 10.4232263"></polygon>
                    </g>
                    <g id="j4rmrkutet" transform="translate(129.907315, 0.000000)" fill="#FFFFFF" opacity="0.2">
                        <polygon id="Path" points="30.2198693 36.2887258 0 47.870386 0 0 30.2198693 10.4232263"></polygon>
                    </g>
                    <g id="j4rmrkv0eu" transform="translate(59.654981, 94.969792)" fill="#FFFFFF" opacity="0.2">
                        <polygon id="Path" points="30.2198693 36.2887258 0 47.870386 0 0 30.2198693 10.4232263"></polygon>
                    </g>
                    <g id="j4rmrkv6ev" transform="translate(129.907315, 94.969792)" fill="#FFFFFF" opacity="0.2">
                        <polygon id="Path" points="30.2198693 36.2887258 0 47.870386 0 0 30.2198693 10.4232263"></polygon>
                    </g>
                    <g id="j4rmrkvfew" transform="translate(97.332280, 47.484896)" fill="#FFFFFF" opacity="0.2">
                        <polygon id="Path" points="29.8270444 36.2887258 0 47.484896 0 0 29.8270444 10.4232263"></polygon>
                    </g>
                    <g id="j4rmrkvmex" transform="translate(27.472771, 47.484896)" fill="#FFFFFF" opacity="0.2">
                        <polygon id="Path" points="29.8279363 36.2887258 0 47.484896 0 0 29.8279363 10.4232263"></polygon>
                    </g>
                    <g id="j4rmrkvsey" transform="translate(166.406140, 47.484896)" fill="#FFFFFF" opacity="0.2">
                        <polygon id="Path" points="29.8279363 36.2887258 0 47.484896 0 0 29.8279363 10.4232263"></polygon>
                    </g>
                    <g id="j4rmrkw4ez" transform="translate(138.933369, 47.484896)" fill="#804998">
                        <path d="M0,7.72104727 L0,38.9909048 L22.3713982,47.484896 L22.3713982,0 L0,7.72104727 Z M2.3551657,36.6751085 L1.17776125,36.2887258 L1.17776125,10.4232263 L2.3551657,10.0368437 L3.53292695,9.65135373 L4.7103314,9.26497104 L4.7103314,37.4471596 L3.53292695,37.0605984 L2.3551657,36.6751085 Z M8.24236637,38.6054149 L6.67267216,38.2190322 L6.67267216,9.26497104 L8.24236637,8.87948111 L9.8117038,8.49309843 L11.3821116,8.1065372 L11.3821116,39.7638487 L9.8117038,39.3772875 L8.24236637,38.6054149 Z M15.3067931,40.9212113 L13.3446307,40.1493387 L13.3446307,7.33466459 L15.3067931,6.94917466 L17.2691339,6.17623075 L19.6234076,5.40435813 L19.6234076,42.0796451 L17.2691339,41.307594 L15.3067931,40.9212113 Z" id="Shape"></path>
                    </g>
                </g>
            </g>
        </g>
        <rect id="Rectangle-Copy" fill="#FFFFFF" style="mix-blend-mode: color;" x="0" y="0" width="200" height="200"></rect>
        <rect id="Lighten" fill="#FFFFFF" style="mix-blend-mode: lighten;" opacity="0.698962984" x="0" y="0" width="200" height="200"></rect>
    </g>
</svg>