<?xml version="1.0" encoding="UTF-8"?>
<svg width="200px" height="200px" viewBox="0 0 200 200" version="1.1" xmlns="http://www.w3.org/2000/svg" xmlns:xlink="http://www.w3.org/1999/xlink">
    <!-- Generator: Sketch 64 (93537) - https://sketch.com -->
    <title>eks</title>
    <desc>Created with Sketch.</desc>
    <defs>
        <polygon id="path-1" points="0.103401411 56.1118654 8.12149621 56.1118654 8.12149621 32.5054008 31.2097565 56.1118654 41.7944726 56.1118654 16.4606548 30.102926 43.3962502 0.091433075 33.1356668 0.091433075 8.12173229 28.1010601 8.12173229 0.091433075 0.103873564 0.091433075"></polygon>
        <linearGradient x1="71.181131%" y1="2.5706065%" x2="23.6645588%" y2="103.700899%" id="linearGradient-3">
            <stop stop-color="#4F66B9" offset="0%"></stop>
            <stop stop-color="#484FAB" offset="1%"></stop>
        </linearGradient>
        <path d="M1.13883198,92.7190294 L40.6263672,69.9620911 C41.2993242,69.5730246 41.7138776,68.85575 41.7144428,68.0794652 L41.7144428,22.564646 C41.7144428,21.7886432 42.1322978,21.0706107 42.8051152,20.6822558 L78.0432773,0.372801868 C79.4956186,-0.4649419 81.310573,0.584888897 81.310573,2.25519208 L81.310573,90.9009722 C81.310573,91.6769751 80.8955509,92.3940649 80.2246221,92.7833625 L3.32041289,137.104839 C1.86783553,137.941404 0.0502842478,136.892752 0.0502842478,135.219621 L0.0502842478,94.6014196 C0.0502842478,93.8237672 0.466250655,93.1083269 1.14095667,92.7190294 L1.13883198,92.7190294 Z" id="path-4"></path>
        <linearGradient x1="71.2123373%" y1="5.72050669%" x2="37.5654447%" y2="103.445431%" id="linearGradient-6">
            <stop stop-color="#4F66B9" offset="0%"></stop>
            <stop stop-color="#484FAB" offset="1%"></stop>
        </linearGradient>
        <path d="M127.422173,68.8915229 L87.9346374,46.1345846 C87.26182,45.7452871 86.4296511,45.7452871 85.7565976,46.1345846 L40.759042,72.0671727 C40.0849939,72.4567543 39.6695152,73.1749058 39.6683696,73.9523907 L39.6683696,125.818745 C39.6700046,126.595482 40.0855857,127.312668 40.7592781,127.701371 L80.2470494,150.456895 C80.92108,150.844562 81.3366092,151.56183 81.3370136,152.338343 L81.3370136,192.957015 C81.3370136,194.630146 79.5204066,195.676442 78.0680653,194.842233 L1.16291176,150.518165 C0.489622207,150.128867 0.0769608676,149.411778 0.0769608676,148.635775 L0.0769608676,51.1299411 C0.0769608676,50.3522887 0.491982969,49.6368484 1.16291176,49.2447231 L85.7565976,0.494869736 C86.429415,0.105336558 87.2615839,0.105336558 87.9346374,0.494869736 L164.839319,44.814932 C166.29166,45.6524401 166.29166,47.7447965 164.839319,48.5815976 L129.601157,68.8915229 C128.92527,69.2808204 128.095462,69.2808204 127.422173,68.8915229 Z" id="path-7"></path>
        <linearGradient x1="59.4281072%" y1="5.46053214%" x2="22.2701336%" y2="82.4281076%" id="linearGradient-9">
            <stop stop-color="#4C68BB" offset="0%"></stop>
            <stop stop-color="#5180C9" offset="1%"></stop>
        </linearGradient>
        <polygon id="path-10" points="0.103401411 56.1118654 8.12149621 56.1118654 8.12149621 32.5054008 31.2097565 56.1118654 41.7944726 56.1118654 16.4606548 30.102926 43.3962502 0.091433075 33.1356668 0.091433075 8.12173229 28.1010601 8.12173229 0.091433075 0.103873564 0.091433075"></polygon>
        <path d="M1.13883198,92.7190294 L40.6263672,69.9620911 C41.2993242,69.5730246 41.7138776,68.85575 41.7144428,68.0794652 L41.7144428,22.564646 C41.7144428,21.7886432 42.1322978,21.0706107 42.8051152,20.6822558 L78.0432773,0.372801868 C79.4956186,-0.4649419 81.310573,0.584888897 81.310573,2.25519208 L81.310573,90.9009722 C81.310573,91.6769751 80.8955509,92.3940649 80.2246221,92.7833625 L3.32041289,137.104839 C1.86783553,137.941404 0.0502842478,136.892752 0.0502842478,135.219621 L0.0502842478,94.6014196 C0.0502842478,93.8237672 0.466250655,93.1083269 1.14095667,92.7190294 L1.13883198,92.7190294 Z" id="path-12"></path>
        <path d="M127.422173,68.8915229 L87.9346374,46.1345846 C87.26182,45.7452871 86.4296511,45.7452871 85.7565976,46.1345846 L40.759042,72.0671727 C40.0849939,72.4567543 39.6695152,73.1749058 39.6683696,73.9523907 L39.6683696,125.818745 C39.6700046,126.595482 40.0855857,127.312668 40.7592781,127.701371 L80.2470494,150.456895 C80.92108,150.844562 81.3366092,151.56183 81.3370136,152.338343 L81.3370136,192.957015 C81.3370136,194.630146 79.5204066,195.676442 78.0680653,194.842233 L1.16291176,150.518165 C0.489622207,150.128867 0.0769608676,149.411778 0.0769608676,148.635775 L0.0769608676,51.1299411 C0.0769608676,50.3522887 0.491982969,49.6368484 1.16291176,49.2447231 L85.7565976,0.494869736 C86.429415,0.105336558 87.2615839,0.105336558 87.9346374,0.494869736 L164.839319,44.814932 C166.29166,45.6524401 166.29166,47.7447965 164.839319,48.5815976 L129.601157,68.8915229 C128.92527,69.2808204 128.095462,69.2808204 127.422173,68.8915229 Z" id="path-14"></path>
    </defs>
    <g id="eks" stroke="none" stroke-width="1" fill="none" fill-rule="evenodd">
        <g transform="translate(11.000000, 0.000000)" stroke-linecap="round" stroke-linejoin="round">
            <g id="A-link" transform="translate(2.000000, 2.000000)">
                <g id="A">
                    <g id="Group">
                        <g transform="translate(87.643482, 98.508336) scale(-1, 1) rotate(-180.000000) translate(-87.643482, -98.508336) translate(0.143482, 0.508336)" id="Clipped">
                            <g transform="translate(68.226045, 72.109590)">
                                <mask id="mask-2" fill="white">
                                    <use xlink:href="#path-1"></use>
                                </mask>
                                <g id="Path"></g>
                                <polyline id="Path" stroke="#000000" stroke-width="0.552734308" fill="url(#linearGradient-3)" fill-rule="nonzero" mask="url(#mask-2)" points="0.103401411 56.1118654 8.12149621 56.1118654 8.12149621 32.5054008 31.2097565 56.1118654 41.7944726 56.1118654 16.4606548 30.102926 43.3962502 0.091433075 33.1356668 0.091433075 8.12173229 28.1010601 8.12173229 0.091433075 0.103873564 0.091433075 0.103873564 56.1121011"></polyline>
                            </g>
                            <g transform="translate(92.305826, 57.734803)">
                                <mask id="mask-5" fill="white">
                                    <use xlink:href="#path-4"></use>
                                </mask>
                                <g id="Path"></g>
                                <path d="M1.13883198,92.7190294 L40.6263672,69.9620911 C41.2993242,69.5730246 41.7138776,68.85575 41.7144428,68.0794652 L41.7144428,22.564646 C41.7144428,21.7886432 42.1322978,21.0706107 42.8051152,20.6822558 L78.0432773,0.372801868 C79.4956186,-0.4649419 81.310573,0.584888897 81.310573,2.25519208 L81.310573,90.9009722 C81.310573,91.6769751 80.8955509,92.3940649 80.2246221,92.7833625 L3.32041289,137.104839 C1.86783553,137.941404 0.0502842478,136.892752 0.0502842478,135.219621 L0.0502842478,94.6014196 C0.0502842478,93.8237672 0.466250655,93.1083269 1.14095667,92.7190294" id="Path" stroke="#000000" stroke-width="0.552734308" fill="url(#linearGradient-6)" fill-rule="nonzero" mask="url(#mask-5)"></path>
                            </g>
                            <g>
                                <mask id="mask-8" fill="white">
                                    <use xlink:href="#path-7"></use>
                                </mask>
                                <g id="Path"></g>
                                <path d="M127.422173,68.8915229 L87.9346374,46.1345846 C87.26182,45.7452871 86.4296511,45.7452871 85.7565976,46.1345846 L40.759042,72.0671727 C40.0849939,72.4567543 39.6695152,73.1749058 39.6683696,73.9523907 L39.6683696,125.818745 C39.6700046,126.595482 40.0855857,127.312668 40.7592781,127.701371 L80.2470494,150.456895 C80.92108,150.844562 81.3366092,151.56183 81.3370136,152.338343 L81.3370136,192.957015 C81.3370136,194.630146 79.5204066,195.676442 78.0680653,194.842233 L1.16291176,150.518165 C0.489622207,150.128867 0.0769608676,149.411778 0.0769608676,148.635775 L0.0769608676,51.1299411 C0.0769608676,50.3522887 0.491982969,49.6368484 1.16291176,49.2447231 L85.7565976,0.494869736 C86.429415,0.105336558 87.2615839,0.105336558 87.9346374,0.494869736 L164.839319,44.814932 C166.29166,45.6524401 166.29166,47.7447965 164.839319,48.5815976 L129.601157,68.8915229 C128.92527,69.2808204 128.095462,69.2808204 127.422173,68.8915229" id="Path" stroke="#000000" stroke-width="0.552734308" fill="url(#linearGradient-9)" fill-rule="nonzero" mask="url(#mask-8)"></path>
                            </g>
                        </g>
                    </g>
                </g>
            </g>
            <g id="A">
                <g id="Group">
                    <g transform="translate(87.643482, 98.508336) scale(-1, 1) rotate(-180.000000) translate(-87.643482, -98.508336) translate(0.143482, 0.508336)" id="Clipped">
                        <g transform="translate(68.226045, 72.109590)">
                            <mask id="mask-11" fill="white">
                                <use xlink:href="#path-10"></use>
                            </mask>
                            <g id="Path"></g>
                            <polyline id="Path" stroke="#000000" stroke-width="0.552734308" fill="url(#linearGradient-3)" fill-rule="nonzero" mask="url(#mask-11)" points="0.103401411 56.1118654 8.12149621 56.1118654 8.12149621 32.5054008 31.2097565 56.1118654 41.7944726 56.1118654 16.4606548 30.102926 43.3962502 0.091433075 33.1356668 0.091433075 8.12173229 28.1010601 8.12173229 0.091433075 0.103873564 0.091433075 0.103873564 56.1121011"></polyline>
                        </g>
                        <g transform="translate(92.305826, 57.734803)">
                            <mask id="mask-13" fill="white">
                                <use xlink:href="#path-12"></use>
                            </mask>
                            <g id="Path"></g>
                            <path d="M1.13883198,92.7190294 L40.6263672,69.9620911 C41.2993242,69.5730246 41.7138776,68.85575 41.7144428,68.0794652 L41.7144428,22.564646 C41.7144428,21.7886432 42.1322978,21.0706107 42.8051152,20.6822558 L78.0432773,0.372801868 C79.4956186,-0.4649419 81.310573,0.584888897 81.310573,2.25519208 L81.310573,90.9009722 C81.310573,91.6769751 80.8955509,92.3940649 80.2246221,92.7833625 L3.32041289,137.104839 C1.86783553,137.941404 0.0502842478,136.892752 0.0502842478,135.219621 L0.0502842478,94.6014196 C0.0502842478,93.8237672 0.466250655,93.1083269 1.14095667,92.7190294" id="Path" stroke="#000000" stroke-width="0.552734308" fill="url(#linearGradient-6)" fill-rule="nonzero" mask="url(#mask-13)"></path>
                        </g>
                        <g>
                            <mask id="mask-15" fill="white">
                                <use xlink:href="#path-14"></use>
                            </mask>
                            <g id="Path"></g>
                            <path d="M127.422173,68.8915229 L87.9346374,46.1345846 C87.26182,45.7452871 86.4296511,45.7452871 85.7565976,46.1345846 L40.759042,72.0671727 C40.0849939,72.4567543 39.6695152,73.1749058 39.6683696,73.9523907 L39.6683696,125.818745 C39.6700046,126.595482 40.0855857,127.312668 40.7592781,127.701371 L80.2470494,150.456895 C80.92108,150.844562 81.3366092,151.56183 81.3370136,152.338343 L81.3370136,192.957015 C81.3370136,194.630146 79.5204066,195.676442 78.0680653,194.842233 L1.16291176,150.518165 C0.489622207,150.128867 0.0769608676,149.411778 0.0769608676,148.635775 L0.0769608676,51.1299411 C0.0769608676,50.3522887 0.491982969,49.6368484 1.16291176,49.2447231 L85.7565976,0.494869736 C86.429415,0.105336558 87.2615839,0.105336558 87.9346374,0.494869736 L164.839319,44.814932 C166.29166,45.6524401 166.29166,47.7447965 164.839319,48.5815976 L129.601157,68.8915229 C128.92527,69.2808204 128.095462,69.2808204 127.422173,68.8915229" id="Path" stroke="#000000" stroke-width="0.552734308" fill="url(#linearGradient-9)" fill-rule="nonzero" mask="url(#mask-15)"></path>
                        </g>
                    </g>
                </g>
            </g>
        </g>
        <rect id="Rectangle-Copy" fill="#FFFFFF" style="mix-blend-mode: color;" x="0" y="0" width="200" height="200"></rect>
    </g>
</svg>