<?xml version="1.0" encoding="UTF-8"?>
<svg width="600px" height="600px" viewBox="0 0 600 600" version="1.1" xmlns="http://www.w3.org/2000/svg" xmlns:xlink="http://www.w3.org/1999/xlink">
    <!-- Generator: Sketch 64 (93537) - https://sketch.com -->
    <title>footer-logo</title>
    <desc>Created with Sketch.</desc>
    <g id="footer-logo" stroke="none" stroke-width="1" fill="none" fill-rule="evenodd">
        <g id="cdk8s" transform="translate(29.000000, 25.000000)" fill-rule="nonzero">
            <g id="Group">
                <g transform="translate(0.000000, 83.701033)" id="Path">
                    <polygon fill="#73A6F4" points="0.0956822189 0.582577833 266.992912 83.3313548 266.992912 466.702689 0.0956822189 383.953912"></polygon>
                    <polygon stroke="#FFFFFF" stroke-width="8" fill-opacity="0" fill="#000000" stroke-linejoin="round" points="0.0956822189 0.582577833 266.992912 83.3313548 266.992912 466.702689 0.0956822189 383.953912"></polygon>
                </g>
                <g transform="translate(274.172655, 83.701033)" id="Path">
                    <polygon fill="#3972CC" points="0.322991194 83.3313548 267.218141 0.582577833 267.218141 383.953912 0.322991194 466.702689"></polygon>
                    <polygon stroke="#FFFFFF" stroke-width="8" fill-opacity="0" fill="#000000" stroke-linejoin="round" points="0.322991194 83.3313548 267.218141 0.582577833 267.218141 383.953912 0.322991194 466.702689"></polygon>
                </g>
                <g id="Path">
                    <polygon fill="#4F94FF" points="0.0956822189 84.0728907 269.561771 0.646505437 539.02578 84.0728907 269.561771 167.501342"></polygon>
                    <polygon stroke="#FFFFFF" stroke-width="8" fill-opacity="0" fill="#000000" stroke-linejoin="round" points="0.0956822189 84.0728907 269.561771 0.646505437 539.02578 84.0728907 269.561771 167.501342"></polygon>
                </g>
            </g>
            <g id="path3059" opacity="0.7" transform="translate(22.000000, 199.000000)">
                <path d="M126.569059,4.18253659 C123.275492,2.29053659 120.122341,4.04409756 119.529705,8.10078049 C119.521446,8.16160976 119.523511,8.22873171 119.515251,8.29165854 C119.430589,8.83912195 119.308758,9.48936585 119.25507,9.97809756 C118.990758,12.3630244 119.188992,14.4165366 119.151823,16.7301463 C118.978369,21.6321463 118.837953,25.6972195 118.059474,29.101561 C117.611384,30.2971707 116.541749,31.0103415 115.622854,31.4067805 L115.073582,34.1210244 C111.445497,32.3947317 107.753398,30.926439 104.020001,29.7643902 C87.9610245,24.7638049 73.3330459,25.9447317 61.4328426,32.0465366 C60.8464019,31.1697561 59.8283904,29.5923902 59.5269103,29.1141463 C58.4386911,28.6631707 57.3091733,28.4093659 56.0392401,26.6977561 C53.6604384,23.1738537 51.6326751,19.0290732 49.173341,14.0284878 C48.0582777,11.6708293 47.3025126,9.60263415 45.923138,7.15687805 C45.6113333,6.60102439 45.1240093,5.81234146 44.7709059,5.22292683 C43.6806218,3.39804878 42.2867927,1.97170732 40.8681844,1.09912195 C39.0448494,-0.0230731707 37.1636963,-0.243317073 35.773997,0.698487805 C33.3022734,2.37234146 33.3208578,7.11282927 35.8132308,11.284878 C35.8380099,11.3268293 35.866919,11.3645854 35.8916982,11.4065366 C36.2344769,11.9854634 36.6495282,12.7154146 36.9675278,13.2188293 C38.4646035,15.584878 39.9121209,17.1874146 41.4443004,19.264 C44.6552697,23.754878 47.3169671,27.4780488 49.3054967,31.2662439 C50.0633268,32.8750732 49.9435607,34.8719512 49.9456256,35.7676098 L51.5810518,38.7566341 C38.8486809,49.9450244 31.0267183,68.302878 30.6839396,91.3907317 L28.0676707,90.7593659 C27.2706069,91.3236098 26.1225047,92.2717073 25.0859088,92.1542439 C21.85842,91.4620488 18.3480356,89.8720976 14.1066652,87.9612195 C12.1222655,87.0173171 10.4476056,85.9391707 8.308336,85.1819512 C7.8375315,85.0162439 7.17468831,84.8337561 6.65639037,84.676439 C6.63780598,84.6701463 6.62128652,84.6680488 6.60270214,84.6617561 C6.57379309,84.6533659 6.53662431,84.6470732 6.50978019,84.6386829 C2.85485049,83.5605366 0.0733870291,85.8426829 0.284010097,89.7881951 C0.494633165,93.7358049 3.61474548,97.8533171 7.27586998,99.0405366 C7.3027141,99.0489268 7.33988287,99.0699024 7.36672699,99.0782927 C7.40802563,99.090878 7.44725934,99.0887805 7.48855798,99.1013659 C7.99859619,99.2649756 8.63666019,99.4873171 9.08681538,99.606878 C11.2157603,100.17322 12.8243424,100.133366 14.7715733,100.408146 C18.9489308,101.106634 22.4097569,101.672976 25.6682197,102.992341 C27.0166203,103.640488 28.2679691,105.469561 28.9019032,106.302293 L31.5739253,107.302829 C34.5494923,131.292634 44.6593996,155.110439 59.0127422,174.653415 L57.5074068,176.912488 C57.7345493,178.254927 57.9431074,180.016878 57.4908873,180.954488 C55.8451365,183.616293 53.3486336,185.988634 50.5176118,188.60639 C49.1588865,189.78522 47.8352651,190.546634 46.5446826,192.050585 C46.2370077,192.409268 45.8260862,192.996585 45.5204763,193.388829 C43.4555442,196.142927 43.9676474,200.975707 46.683033,204.237415 C49.4149381,207.520098 53.338309,207.966878 55.463124,205.240049 C55.465189,205.235854 55.4734487,205.235854 55.4775786,205.231659 C55.4796435,205.229561 55.4775786,205.221171 55.4796435,205.219073 C55.7811236,204.833122 56.2023697,204.338098 56.4646161,203.962634 C57.623043,202.303463 58.1743798,200.625415 59.0726252,198.892829 C61.2924272,195.406683 62.8349314,191.295463 65.4264211,189.671951 C66.1367577,189.227268 67.1506394,189.481073 68.2016898,189.760049 L69.9486223,187.826098 C82.93085,201.663707 98.1927627,212.143122 114.241415,217.139512 C117.902539,218.280585 121.479001,219.088146 124.976996,219.602049 C125.247502,220.564829 125.743086,222.40439 125.879371,222.874244 C126.847825,223.830732 127.936044,224.661366 128.625731,226.672927 C129.800677,230.683463 130.380923,234.962488 131.09126,240.137171 C131.382415,242.553561 131.407195,244.560927 131.937882,247.191268 C132.059713,247.791171 132.278596,248.661659 132.429336,249.309805 C133.484516,253.876195 136.928823,257.668585 140.129467,257.790244 C143.303268,257.909805 145.041941,254.37122 144.040449,249.855171 C143.887644,249.200732 143.68528,248.261024 143.522151,247.629659 C142.838658,244.993024 141.921829,242.960488 141.093791,240.523122 C139.408806,235.31278 138.010847,230.985512 137.339744,226.993854 C137.106407,224.999073 137.829133,224.256537 138.36808,223.35878 C138.184302,222.941366 137.938575,221.045171 137.76512,220.118049 C155.845665,218.80078 170.539722,208.560488 179.167008,191.941512 C179.920708,192.518341 181.22368,193.552439 181.644926,193.898537 C182.638158,193.758 183.588027,193.378341 185.18422,194.448098 C188.294007,196.786878 191.372821,199.975171 195.089699,203.81161 C196.809787,205.64278 198.156123,207.396341 200.107483,209.172976 C200.52047,209.548439 201.121365,210.024585 201.596299,210.427317 C201.635533,210.460878 201.666507,210.502829 201.705741,210.534293 C201.73052,210.557366 201.767689,210.578341 201.792468,210.601415 C205.205801,213.475073 208.955717,213.305171 210.196741,210.19239 C211.439831,207.081707 209.707353,202.20278 206.329124,199.243122 C205.835605,198.821512 205.141788,198.185951 204.660659,197.795805 C202.649415,196.168098 200.943781,195.306 199.01307,194.001317 C194.912114,191.121366 191.515301,188.742732 188.603747,185.908927 C187.430866,184.652488 186.782477,182.492 186.447958,181.56278 L184.151754,179.402293 C186.867139,170.108 188.054475,159.496439 187.418476,147.827707 C186.776282,136.052 184.329338,124.215463 180.428681,112.781659 C181.139018,112.515268 182.472964,112.039122 182.852911,111.892293 C183.123417,110.763805 183.222534,109.471707 184.521376,108.794195 C187.224373,107.701366 190.478705,107.376244 194.404141,106.986098 C196.25845,106.853951 197.92898,107.040634 199.830783,106.627415 C200.262353,106.533024 200.859119,106.337951 201.315469,106.21 C204.547087,105.322732 205.843865,101.339463 204.206374,97.3058537 C202.570947,93.2743415 198.628992,90.7174146 195.397374,91.6025854 C194.936894,91.7263415 194.317414,91.8752683 193.900298,92.0137073 C192.074898,92.6199024 190.864848,93.5596098 189.285175,94.3692683 C185.859452,95.9906829 183.024301,97.3561951 180.063188,97.8134634 C178.797385,97.8952683 177.141309,96.664 176.379349,96.1731707 L173.847743,96.6619024 C163.110096,74.2012195 146.90038,54.4736585 128.208615,41.7120976 C128.282952,40.8017561 128.446082,39.1698537 128.49977,38.681122 C127.843122,37.4120976 127.008889,36.1703415 127.033669,34.2552683 C127.29385,30.5530732 128.285017,26.9788293 129.462029,22.6536585 C130.054664,20.658878 130.77739,19.1318537 131.198636,16.8392195 C131.293623,16.3169268 131.378286,15.5282439 131.460883,14.9535122 C132.053518,10.8968293 129.86469,6.07453659 126.569059,4.18253659 Z M111.598302,51.1553171 L104.755117,84.8085854 L104.616766,84.8064878 C104.042715,87.839561 101.376888,88.9932195 98.547931,87.3676098 C97.3895042,86.7026829 96.3818173,85.674878 95.6136626,84.4729756 L95.5599744,84.470878 L72.8498518,49.5821463 C81.9933709,45.5191707 93.0077184,44.9654146 105.060727,48.7179512 C107.261944,49.4017561 109.442512,50.2260976 111.598302,51.1553171 Z M126.550474,59.7448293 C139.850702,69.3894146 151.406061,83.4053171 159.496465,99.3656585 L131.074741,104.748 L130.992143,104.655707 C128.460537,105.18639 125.338359,102.900049 123.934206,99.4369756 C123.358089,98.0190244 123.151596,96.6220488 123.279622,95.4033659 L123.256908,95.374 L126.550474,59.7448293 Z M61.6496604,57.1879024 L81.6815661,93.8616585 L81.6340727,93.9875122 C83.4512129,97.2387317 83.2467846,100.951415 81.1240345,102.390341 C80.2546981,102.977659 79.1891932,103.095122 78.1051038,102.814049 L78.0617403,102.912634 L46.6272798,95.2670244 C47.3644606,78.9039512 52.8613097,65.7438537 61.6496604,57.1879024 Z M166.944675,117.681561 C169.511385,125.933366 171.126162,134.428488 171.586642,142.898439 C172.042992,151.267707 171.33885,158.955268 169.645606,165.803805 L140.870778,138.835463 L140.866648,138.680244 C138.283418,136.307902 137.067173,132.307854 138.145068,129.614585 C138.584898,128.511268 139.340663,127.796 140.265753,127.481366 L140.263688,127.403756 L166.944675,117.681561 Z M105.915609,109.725512 L115.515478,115.237902 L120.271016,126.925512 L116.620216,136.005854 L107.332152,135.645073 L99.3656441,126.078098 L98.73171,114.539415 L105.915609,109.725512 Z M132.549102,155.672585 C132.960023,155.882341 133.36062,156.157122 133.744698,156.465463 L133.806646,156.42561 L164.016601,180.084 C157.400559,191.62478 146.908639,198.886537 134.085411,200.415659 L126.748708,161.220634 L126.796201,161.184976 C126.104449,157.696732 127.702706,154.990878 130.451131,155.093659 C131.153208,155.120927 131.863545,155.320195 132.549102,155.672585 Z M80.3579447,125.847366 C82.7222919,127.246439 84.5827957,130.29 84.7417954,133.279024 C84.816133,134.680195 84.510523,135.846439 83.9240823,136.698049 L83.99429,136.876341 L67.3901715,161.967366 C57.3959004,147.630537 50.2491706,130.652878 47.6287719,113.354293 L79.2697255,125.253756 L79.3110242,125.352341 C79.6661925,125.480293 80.0192958,125.648098 80.3579447,125.847366 Z M104.325611,154.785317 C105.155714,155.225805 105.967232,155.894927 106.700283,156.775902 C107.662541,157.933756 108.341904,159.274098 108.695007,160.616537 L108.808578,160.683659 L119.54416,199.792683 C117.466838,199.394146 115.348218,198.855073 113.200689,198.185951 C101.1642,194.43761 89.7203466,186.905268 79.8189974,176.931366 L99.400748,155.292927 L99.4255271,155.30761 C100.610798,153.94839 102.498146,153.816244 104.325611,154.785317 Z" id="Shape" fill="#FFFFFF"></path>
                <path d="M126.569059,4.18253659 C123.275492,2.29053659 120.122341,4.04409756 119.529705,8.10078049 C119.521446,8.16160976 119.523511,8.22873171 119.515251,8.29165854 C119.430589,8.83912195 119.308758,9.48936585 119.25507,9.97809756 C118.990758,12.3630244 119.188992,14.4165366 119.151823,16.7301463 C118.978369,21.6321463 118.837953,25.6972195 118.059474,29.101561 C117.611384,30.2971707 116.541749,31.0103415 115.622854,31.4067805 L115.073582,34.1210244 C111.445497,32.3947317 107.753398,30.926439 104.020001,29.7643902 C87.9610245,24.7638049 73.3330459,25.9447317 61.4328426,32.0465366 C60.8464019,31.1697561 59.8283904,29.5923902 59.5269103,29.1141463 C58.4386911,28.6631707 57.3091733,28.4093659 56.0392401,26.6977561 C53.6604384,23.1738537 51.6326751,19.0290732 49.173341,14.0284878 C48.0582777,11.6708293 47.3025126,9.60263415 45.923138,7.15687805 C45.6113333,6.60102439 45.1240093,5.81234146 44.7709059,5.22292683 C43.6806218,3.39804878 42.2867927,1.97170732 40.8681844,1.09912195 C39.0448494,-0.0230731707 37.1636963,-0.243317073 35.773997,0.698487805 C33.3022734,2.37234146 33.3208578,7.11282927 35.8132308,11.284878 C35.8380099,11.3268293 35.866919,11.3645854 35.8916982,11.4065366 C36.2344769,11.9854634 36.6495282,12.7154146 36.9675278,13.2188293 C38.4646035,15.584878 39.9121209,17.1874146 41.4443004,19.264 C44.6552697,23.754878 47.3169671,27.4780488 49.3054967,31.2662439 C50.0633268,32.8750732 49.9435607,34.8719512 49.9456256,35.7676098 L51.5810518,38.7566341 C38.8486809,49.9450244 31.0267183,68.302878 30.6839396,91.3907317 L28.0676707,90.7593659 C27.2706069,91.3236098 26.1225047,92.2717073 25.0859088,92.1542439 C21.85842,91.4620488 18.3480356,89.8720976 14.1066652,87.9612195 C12.1222655,87.0173171 10.4476056,85.9391707 8.308336,85.1819512 C7.8375315,85.0162439 7.17468831,84.8337561 6.65639037,84.676439 C6.63780598,84.6701463 6.62128652,84.6680488 6.60270214,84.6617561 C6.57379309,84.6533659 6.53662431,84.6470732 6.50978019,84.6386829 C2.85485049,83.5605366 0.0733870291,85.8426829 0.284010097,89.7881951 C0.494633165,93.7358049 3.61474548,97.8533171 7.27586998,99.0405366 C7.3027141,99.0489268 7.33988287,99.0699024 7.36672699,99.0782927 C7.40802563,99.090878 7.44725934,99.0887805 7.48855798,99.1013659 C7.99859619,99.2649756 8.63666019,99.4873171 9.08681538,99.606878 C11.2157603,100.17322 12.8243424,100.133366 14.7715733,100.408146 C18.9489308,101.106634 22.4097569,101.672976 25.6682197,102.992341 C27.0166203,103.640488 28.2679691,105.469561 28.9019032,106.302293 L31.5739253,107.302829 C34.5494923,131.292634 44.6593996,155.110439 59.0127422,174.653415 L57.5074068,176.912488 C57.7345493,178.254927 57.9431074,180.016878 57.4908873,180.954488 C55.8451365,183.616293 53.3486336,185.988634 50.5176118,188.60639 C49.1588865,189.78522 47.8352651,190.546634 46.5446826,192.050585 C46.2370077,192.409268 45.8260862,192.996585 45.5204763,193.388829 C43.4555442,196.142927 43.9676474,200.975707 46.683033,204.237415 C49.4149381,207.520098 53.338309,207.966878 55.463124,205.240049 C55.465189,205.235854 55.4734487,205.235854 55.4775786,205.231659 C55.4796435,205.229561 55.4775786,205.221171 55.4796435,205.219073 C55.7811236,204.833122 56.2023697,204.338098 56.4646161,203.962634 C57.623043,202.303463 58.1743798,200.625415 59.0726252,198.892829 C61.2924272,195.406683 62.8349314,191.295463 65.4264211,189.671951 C66.1367577,189.227268 67.1506394,189.481073 68.2016898,189.760049 L69.9486223,187.826098 C82.93085,201.663707 98.1927627,212.143122 114.241415,217.139512 C117.902539,218.280585 121.479001,219.088146 124.976996,219.602049 C125.247502,220.564829 125.743086,222.40439 125.879371,222.874244 C126.847825,223.830732 127.936044,224.661366 128.625731,226.672927 C129.800677,230.683463 130.380923,234.962488 131.09126,240.137171 C131.382415,242.553561 131.407195,244.560927 131.937882,247.191268 C132.059713,247.791171 132.278596,248.661659 132.429336,249.309805 C133.484516,253.876195 136.928823,257.668585 140.129467,257.790244 C143.303268,257.909805 145.041941,254.37122 144.040449,249.855171 C143.887644,249.200732 143.68528,248.261024 143.522151,247.629659 C142.838658,244.993024 141.921829,242.960488 141.093791,240.523122 C139.408806,235.31278 138.010847,230.985512 137.339744,226.993854 C137.106407,224.999073 137.829133,224.256537 138.36808,223.35878 C138.184302,222.941366 137.938575,221.045171 137.76512,220.118049 C155.845665,218.80078 170.539722,208.560488 179.167008,191.941512 C179.920708,192.518341 181.22368,193.552439 181.644926,193.898537 C182.638158,193.758 183.588027,193.378341 185.18422,194.448098 C188.294007,196.786878 191.372821,199.975171 195.089699,203.81161 C196.809787,205.64278 198.156123,207.396341 200.107483,209.172976 C200.52047,209.548439 201.121365,210.024585 201.596299,210.427317 C201.635533,210.460878 201.666507,210.502829 201.705741,210.534293 C201.73052,210.557366 201.767689,210.578341 201.792468,210.601415 C205.205801,213.475073 208.955717,213.305171 210.196741,210.19239 C211.439831,207.081707 209.707353,202.20278 206.329124,199.243122 C205.835605,198.821512 205.141788,198.185951 204.660659,197.795805 C202.649415,196.168098 200.943781,195.306 199.01307,194.001317 C194.912114,191.121366 191.515301,188.742732 188.603747,185.908927 C187.430866,184.652488 186.782477,182.492 186.447958,181.56278 L184.151754,179.402293 C186.867139,170.108 188.054475,159.496439 187.418476,147.827707 C186.776282,136.052 184.329338,124.215463 180.428681,112.781659 C181.139018,112.515268 182.472964,112.039122 182.852911,111.892293 C183.123417,110.763805 183.222534,109.471707 184.521376,108.794195 C187.224373,107.701366 190.478705,107.376244 194.404141,106.986098 C196.25845,106.853951 197.92898,107.040634 199.830783,106.627415 C200.262353,106.533024 200.859119,106.337951 201.315469,106.21 C204.547087,105.322732 205.843865,101.339463 204.206374,97.3058537 C202.570947,93.2743415 198.628992,90.7174146 195.397374,91.6025854 C194.936894,91.7263415 194.317414,91.8752683 193.900298,92.0137073 C192.074898,92.6199024 190.864848,93.5596098 189.285175,94.3692683 C185.859452,95.9906829 183.024301,97.3561951 180.063188,97.8134634 C178.797385,97.8952683 177.141309,96.664 176.379349,96.1731707 L173.847743,96.6619024 C163.110096,74.2012195 146.90038,54.4736585 128.208615,41.7120976 C128.282952,40.8017561 128.446082,39.1698537 128.49977,38.681122 C127.843122,37.4120976 127.008889,36.1703415 127.033669,34.2552683 C127.29385,30.5530732 128.285017,26.9788293 129.462029,22.6536585 C130.054664,20.658878 130.77739,19.1318537 131.198636,16.8392195 C131.293623,16.3169268 131.378286,15.5282439 131.460883,14.9535122 C132.053518,10.8968293 129.86469,6.07453659 126.569059,4.18253659 Z M111.598302,51.1553171 L104.755117,84.8085854 L104.616766,84.8064878 C104.042715,87.839561 101.376888,88.9932195 98.547931,87.3676098 C97.3895042,86.7026829 96.3818173,85.674878 95.6136626,84.4729756 L95.5599744,84.470878 L72.8498518,49.5821463 C81.9933709,45.5191707 93.0077184,44.9654146 105.060727,48.7179512 C107.261944,49.4017561 109.442512,50.2260976 111.598302,51.1553171 Z M126.550474,59.7448293 C139.850702,69.3894146 151.406061,83.4053171 159.496465,99.3656585 L131.074741,104.748 L130.992143,104.655707 C128.460537,105.18639 125.338359,102.900049 123.934206,99.4369756 C123.358089,98.0190244 123.151596,96.6220488 123.279622,95.4033659 L123.256908,95.374 L126.550474,59.7448293 Z M61.6496604,57.1879024 L81.6815661,93.8616585 L81.6340727,93.9875122 C83.4512129,97.2387317 83.2467846,100.951415 81.1240345,102.390341 C80.2546981,102.977659 79.1891932,103.095122 78.1051038,102.814049 L78.0617403,102.912634 L46.6272798,95.2670244 C47.3644606,78.9039512 52.8613097,65.7438537 61.6496604,57.1879024 Z M166.944675,117.681561 C169.511385,125.933366 171.126162,134.428488 171.586642,142.898439 C172.042992,151.267707 171.33885,158.955268 169.645606,165.803805 L140.870778,138.835463 L140.866648,138.680244 C138.283418,136.307902 137.067173,132.307854 138.145068,129.614585 C138.584898,128.511268 139.340663,127.796 140.265753,127.481366 L140.263688,127.403756 L166.944675,117.681561 Z M105.915609,109.725512 L115.515478,115.237902 L120.271016,126.925512 L116.620216,136.005854 L107.332152,135.645073 L99.3656441,126.078098 L98.73171,114.539415 L105.915609,109.725512 Z M132.549102,155.672585 C132.960023,155.882341 133.36062,156.157122 133.744698,156.465463 L133.806646,156.42561 L164.016601,180.084 C157.400559,191.62478 146.908639,198.886537 134.085411,200.415659 L126.748708,161.220634 L126.796201,161.184976 C126.104449,157.696732 127.702706,154.990878 130.451131,155.093659 C131.153208,155.120927 131.863545,155.320195 132.549102,155.672585 Z M80.3579447,125.847366 C82.7222919,127.246439 84.5827957,130.29 84.7417954,133.279024 C84.816133,134.680195 84.510523,135.846439 83.9240823,136.698049 L83.99429,136.876341 L67.3901715,161.967366 C57.3959004,147.630537 50.2491706,130.652878 47.6287719,113.354293 L79.2697255,125.253756 L79.3110242,125.352341 C79.6661925,125.480293 80.0192958,125.648098 80.3579447,125.847366 Z M104.325611,154.785317 C105.155714,155.225805 105.967232,155.894927 106.700283,156.775902 C107.662541,157.933756 108.341904,159.274098 108.695007,160.616537 L108.808578,160.683659 L119.54416,199.792683 C117.466838,199.394146 115.348218,198.855073 113.200689,198.185951 C101.1642,194.43761 89.7203466,186.905268 79.8189974,176.931366 L99.400748,155.292927 L99.4255271,155.30761 C100.610798,153.94839 102.498146,153.816244 104.325611,154.785317 Z" id="Shape" stroke="#000000" stroke-width="0.25" fill-opacity="0" fill="#000000"></path>
            </g>
            <g id="path3059" opacity="0.5" transform="translate(300.000000, 215.000000)">
                <path d="M91.9263663,1.19451351 C88.6775545,2.47154955 86.3226832,6.53165766 86.6703267,10.2637387 C86.6765347,10.3194414 86.6930891,10.371018 86.699297,10.4267207 C86.7406832,10.9362973 86.7737921,11.5572793 86.8317327,11.9925856 C87.1090198,14.1134144 87.717396,15.5823153 88.1747129,17.4597027 C89.0645149,21.5094955 89.807396,24.8660991 89.8549901,28.2371441 C89.7204851,29.5678198 88.9465644,31.0408468 88.2367921,32.1322072 L88.3361188,34.7605495 C84.8327822,36.4481351 81.3294455,38.3977297 77.8571485,40.6258378 C62.9105446,50.2108288 50.5112574,63.5113964 41.5159802,78.4294054 C40.8248317,78.2251622 39.6080792,77.8290541 39.2459505,77.7032072 C38.2092277,78.2622973 37.1787129,79.0153153 35.7177822,78.7244234 C32.9138713,77.926018 30.2817129,76.3395225 27.0949802,74.4311892 C25.6299109,73.4966216 24.5373168,72.4877838 22.8280693,71.7017568 C22.4390396,71.5243333 21.8513564,71.3077117 21.4188713,71.1364775 C20.0883069,70.6042072 18.5839208,70.6454685 17.1705842,71.1488559 C15.355802,71.7945946 13.683802,73.2098559 12.6801881,75.1346937 C10.8985149,78.5552523 11.9207525,82.3162162 14.9605644,83.5334234 C14.991604,83.5458018 15.0247129,83.551991 15.0557525,83.5643694 C15.4737525,83.7376667 15.9869406,83.9666667 16.3697624,84.0987027 C18.1638515,84.7196847 19.7572178,84.7733243 21.5223366,85.1343604 C25.2512277,85.9987838 28.340703,86.7167297 30.8652574,88.0535946 C31.8605941,88.6931441 32.1813366,90.3869189 32.3737822,91.0986757 L34.4203267,92.0992613 C25.7851089,111.768505 22.9170495,133.003613 27.5171188,151.686712 L25.1208614,153.394928 C24.551802,154.517234 23.7613267,156.241955 22.8384158,157.025919 C19.9041386,159.200387 16.529099,160.900351 12.456703,162.961351 C10.5405248,163.885604 8.86438614,164.440568 6.85508911,165.645396 C6.41225743,165.911532 5.79974257,166.326207 5.31759406,166.639793 C5.3010396,166.650108 5.28448515,166.662486 5.26793069,166.672802 C5.24309901,166.689306 5.20792079,166.716126 5.18308911,166.732631 C1.79563366,168.960739 -0.126752475,173.130189 0.893415842,176.096874 C1.91151485,179.061495 5.48313861,179.707234 8.90163366,177.559586 C8.92646535,177.543081 8.96164356,177.52864 8.98854455,177.512135 C9.02579208,177.487378 9.05890099,177.454369 9.09821782,177.42755 C9.57415842,177.126342 10.1721881,176.765306 10.5860495,176.480604 C12.5477525,175.13136 13.9300495,173.740856 15.6724059,172.313216 C19.4323366,169.342405 22.5445743,166.868793 25.6423267,165.166766 C26.9459901,164.545784 28.415198,164.946018 29.1394554,165.073928 L31.6619406,163.611216 C39.3245842,180.208559 53.1185842,190.641468 69.6751089,194.084721 L68.8515248,197.156622 C69.3336733,198.035486 69.8882475,199.260946 69.695802,200.389441 C68.8370396,203.900775 67.1815941,207.898991 65.2881782,212.377901 C64.3652673,214.465721 63.3823465,216.190441 62.5856634,218.476315 C62.3952871,219.02509 62.1635248,219.84 61.983495,220.411468 C60.7812277,224.349856 62.2504356,227.766288 65.2881782,228.071622 C68.3486832,228.379018 71.833396,225.418523 73.093604,221.451252 C73.0956733,221.445063 73.1018812,221.438874 73.1039505,221.432685 C73.1060198,221.428559 73.1018812,221.424432 73.1039505,221.420306 C73.2819109,220.85709 73.5405743,220.108198 73.687495,219.586243 C74.3393267,217.285928 74.4593465,215.484874 74.867,213.345477 C76.0485743,208.691207 76.5100297,204.11327 78.4075842,200.628757 C78.9269802,199.675622 79.8581683,199.021631 80.8245347,198.357324 L81.9254059,195.337 C96.083604,195.394766 111.504079,190.845712 126.440337,181.268973 C129.848485,179.082126 133.111782,176.705477 136.244713,174.157595 C136.683406,174.698117 137.502851,175.746153 137.720129,176.004036 C138.758921,175.948333 139.876347,175.69045 140.900653,176.709604 C142.767168,178.910892 144.176366,181.830126 145.887683,185.351775 C146.653327,187.031108 147.100297,188.609351 148.116327,190.257739 C148.348089,190.633216 148.722634,191.142793 148.991644,191.530649 C150.870574,194.276586 154.655337,194.387991 157.446832,191.780279 C160.217634,189.193198 160.970861,184.90409 159.145733,182.154027 C158.876723,181.762045 158.502178,181.182324 158.22696,180.819225 C157.076426,179.296685 155.853465,178.450829 154.620158,177.208865 C152.056287,174.481495 149.92904,172.214189 148.503287,169.602351 C147.878356,168.209784 148.34602,167.009081 148.621238,165.837261 C148.37499,165.659838 147.758337,164.355982 147.412762,163.765946 C162.76702,147.438865 173.299792,126.866 177.233545,106.334396 C178.007465,106.159036 179.352515,105.882586 179.791208,105.802126 C180.621,104.851054 181.361812,103.745252 182.967594,103.248054 C186.154327,102.484721 189.49005,102.424892 193.51899,102.338243 C195.395851,102.344432 196.931277,102.604378 198.996446,102.371252 C199.433069,102.321739 200.051792,102.191766 200.548426,102.111306 C200.589812,102.10718 200.62499,102.113369 200.666376,102.10718 C200.693277,102.103054 200.728455,102.088613 200.755356,102.084486 C204.316634,101.490324 207.52199,98.1873604 207.935851,94.6574595 C208.349713,91.1296216 205.816881,88.7075856 202.26802,89.2047838 C201.752762,89.2852432 201.018158,89.3636396 200.519455,89.4606036 C198.433594,89.8629009 196.776079,90.6159189 194.828861,91.2100811 C190.673693,92.3777748 187.232436,93.3536036 184.11399,93.5578468 C182.833089,93.5475315 181.812921,92.3736486 181.328703,91.9156486 L178.884851,92.1343333 C179.259396,82.4379369 178.036436,72.9787928 175.011109,64.2210901 C171.958881,55.3808649 167.331911,48.0177928 161.533713,42.2061441 C162.090356,41.3932973 163.143634,39.8872613 163.439545,39.4498919 C163.435406,38.3213964 163.24503,37.2094054 164.225881,35.5713333 C166.332436,32.4169099 169.076337,29.408964 172.387228,25.780036 C173.96404,24.108955 175.445663,22.8463604 177.003851,20.9091441 C177.355634,20.4697117 177.831574,19.8095315 178.197842,19.3226486 C180.805168,15.8855856 181.082455,11.6171081 178.810356,9.78717117 C176.540327,7.95517117 172.59002,9.25077477 169.982693,12.6857748 C169.612287,13.1726577 169.107376,13.8163333 168.776287,14.2784595 C167.325703,16.3043874 166.479356,18.0744955 165.285366,20.052973 C162.667693,24.240991 160.505267,27.7234414 158.042792,30.5910991 C156.964683,31.7257838 155.27199,32.1425225 154.508416,32.3942162 L152.422554,34.9235315 C138.37403,26.1018739 120.174475,24.0800721 101.304465,29.7101712 C101.176168,28.920018 100.971307,27.4820631 100.913366,27.0467568 C100.077366,26.5908198 99.0923762,26.3061171 98.7074851,24.7608829 C98.146703,21.592018 98.2460297,17.9053243 98.3474257,13.4656126 C98.4364059,11.3757297 98.7364554,9.54785586 98.6143663,7.36513514 C98.585396,6.87 98.4922772,6.17062162 98.4405446,5.64247748 C98.092901,1.9103964 95.1772475,-0.0825225225 91.9263663,1.19451351 Z M88.9465644,51.2650541 L90.1674554,83.8593874 L90.0474356,83.9728559 C90.1964257,86.8735225 88.135396,90.0444505 85.343901,91.1399369 C84.2016436,91.5896847 83.1111188,91.6247568 82.1923465,91.3132342 L82.1447525,91.3586216 L55.1092574,82.7515225 C62.1531782,71.7904685 71.5602475,62.0404324 82.7758911,54.8465315 C84.824505,53.5323604 86.8855347,52.3460991 88.9465644,51.2650541 Z M103.696584,45.474036 C117.242267,41.9193784 130.206475,43.3243243 140.588188,49.2040541 L117.155356,77.5072162 L117.062238,77.5030901 C114.986723,80.0633514 111.804129,80.8803243 109.854842,79.3082703 C109.056089,78.6645946 108.580149,77.7259009 108.433228,76.6469189 L108.406327,76.6427928 L103.696584,45.474036 Z M47.0389604,98.274009 L72.1375842,110.565739 L72.123099,110.706027 C74.3848515,111.760252 74.9932277,114.891982 73.4640099,117.831847 C72.8370099,119.034613 71.941,120.029009 70.9435941,120.720135 L70.9291089,120.833604 L42.1264257,141.303315 C39.2935446,127.643775 41.2531782,112.515333 47.0389604,98.274009 Z M150.91403,57.5016937 C154.88296,61.9083964 158.08004,67.3115586 160.275574,73.6699189 C162.446277,79.9519459 163.468515,86.6713423 163.456211,93.5578468 L132.855188,96.3842432 L132.817941,96.2645856 C130.082317,96.5596036 128.182693,94.3995766 128.542752,91.3421171 C128.689673,90.0919009 129.190446,88.885009 129.92505,87.8493514 L129.906426,87.7895225 L150.91403,57.5016937 Z M96.4581485,102.728162 L105.925228,99.0105225 L112.51804,104.302279 L111.286802,114.619658 L103.181327,122.180784 L94.2605446,121.291604 L91.2662574,112.632928 L96.4581485,102.728162 Z M129.231832,116.829198 C129.631208,116.651775 130.036792,116.530054 130.434099,116.451658 L130.479624,116.367072 L161.620624,109.691 C158.34698,124.47491 150.814703,139.124721 140.050168,151.177135 L125.393267,126.150117 L125.426376,126.084099 C124.089604,123.889 124.896634,120.381793 127.29496,118.143369 C127.907475,117.569838 128.563446,117.128342 129.231832,116.829198 Z M77.7785149,137.166874 C80.118901,136.28182 82.3723762,137.135928 83.146297,139.382604 C83.5063564,140.434766 83.489802,141.625153 83.1628515,142.796973 L83.2621782,142.879495 L74.2275842,176.899405 C62.5442772,173.922405 52.7647327,166.43555 46.8278911,154.867955 L76.7107525,137.612495 L76.7686931,137.657883 C77.1018515,137.459829 77.4432871,137.292721 77.7785149,137.166874 Z M104.640188,139.970577 C105.451356,139.619856 106.293564,139.467189 107.115079,139.549712 C108.193188,139.659054 109.064366,140.152126 109.654119,140.923712 L109.767931,140.880387 L127.344624,162.969604 C125.463624,164.405495 123.520545,165.765054 121.521594,167.048279 C110.318366,174.231865 98.8254356,177.899991 88.1478119,178.318793 L100.489158,144.536135 L100.51399,144.52582 C101.250663,142.442126 102.854376,140.742162 104.640188,139.970577 Z" id="Shape" fill="#FFFFFF"></path>
                <path d="M91.9263663,1.19451351 C88.6775545,2.47154955 86.3226832,6.53165766 86.6703267,10.2637387 C86.6765347,10.3194414 86.6930891,10.371018 86.699297,10.4267207 C86.7406832,10.9362973 86.7737921,11.5572793 86.8317327,11.9925856 C87.1090198,14.1134144 87.717396,15.5823153 88.1747129,17.4597027 C89.0645149,21.5094955 89.807396,24.8660991 89.8549901,28.2371441 C89.7204851,29.5678198 88.9465644,31.0408468 88.2367921,32.1322072 L88.3361188,34.7605495 C84.8327822,36.4481351 81.3294455,38.3977297 77.8571485,40.6258378 C62.9105446,50.2108288 50.5112574,63.5113964 41.5159802,78.4294054 C40.8248317,78.2251622 39.6080792,77.8290541 39.2459505,77.7032072 C38.2092277,78.2622973 37.1787129,79.0153153 35.7177822,78.7244234 C32.9138713,77.926018 30.2817129,76.3395225 27.0949802,74.4311892 C25.6299109,73.4966216 24.5373168,72.4877838 22.8280693,71.7017568 C22.4390396,71.5243333 21.8513564,71.3077117 21.4188713,71.1364775 C20.0883069,70.6042072 18.5839208,70.6454685 17.1705842,71.1488559 C15.355802,71.7945946 13.683802,73.2098559 12.6801881,75.1346937 C10.8985149,78.5552523 11.9207525,82.3162162 14.9605644,83.5334234 C14.991604,83.5458018 15.0247129,83.551991 15.0557525,83.5643694 C15.4737525,83.7376667 15.9869406,83.9666667 16.3697624,84.0987027 C18.1638515,84.7196847 19.7572178,84.7733243 21.5223366,85.1343604 C25.2512277,85.9987838 28.340703,86.7167297 30.8652574,88.0535946 C31.8605941,88.6931441 32.1813366,90.3869189 32.3737822,91.0986757 L34.4203267,92.0992613 C25.7851089,111.768505 22.9170495,133.003613 27.5171188,151.686712 L25.1208614,153.394928 C24.551802,154.517234 23.7613267,156.241955 22.8384158,157.025919 C19.9041386,159.200387 16.529099,160.900351 12.456703,162.961351 C10.5405248,163.885604 8.86438614,164.440568 6.85508911,165.645396 C6.41225743,165.911532 5.79974257,166.326207 5.31759406,166.639793 C5.3010396,166.650108 5.28448515,166.662486 5.26793069,166.672802 C5.24309901,166.689306 5.20792079,166.716126 5.18308911,166.732631 C1.79563366,168.960739 -0.126752475,173.130189 0.893415842,176.096874 C1.91151485,179.061495 5.48313861,179.707234 8.90163366,177.559586 C8.92646535,177.543081 8.96164356,177.52864 8.98854455,177.512135 C9.02579208,177.487378 9.05890099,177.454369 9.09821782,177.42755 C9.57415842,177.126342 10.1721881,176.765306 10.5860495,176.480604 C12.5477525,175.13136 13.9300495,173.740856 15.6724059,172.313216 C19.4323366,169.342405 22.5445743,166.868793 25.6423267,165.166766 C26.9459901,164.545784 28.415198,164.946018 29.1394554,165.073928 L31.6619406,163.611216 C39.3245842,180.208559 53.1185842,190.641468 69.6751089,194.084721 L68.8515248,197.156622 C69.3336733,198.035486 69.8882475,199.260946 69.695802,200.389441 C68.8370396,203.900775 67.1815941,207.898991 65.2881782,212.377901 C64.3652673,214.465721 63.3823465,216.190441 62.5856634,218.476315 C62.3952871,219.02509 62.1635248,219.84 61.983495,220.411468 C60.7812277,224.349856 62.2504356,227.766288 65.2881782,228.071622 C68.3486832,228.379018 71.833396,225.418523 73.093604,221.451252 C73.0956733,221.445063 73.1018812,221.438874 73.1039505,221.432685 C73.1060198,221.428559 73.1018812,221.424432 73.1039505,221.420306 C73.2819109,220.85709 73.5405743,220.108198 73.687495,219.586243 C74.3393267,217.285928 74.4593465,215.484874 74.867,213.345477 C76.0485743,208.691207 76.5100297,204.11327 78.4075842,200.628757 C78.9269802,199.675622 79.8581683,199.021631 80.8245347,198.357324 L81.9254059,195.337 C96.083604,195.394766 111.504079,190.845712 126.440337,181.268973 C129.848485,179.082126 133.111782,176.705477 136.244713,174.157595 C136.683406,174.698117 137.502851,175.746153 137.720129,176.004036 C138.758921,175.948333 139.876347,175.69045 140.900653,176.709604 C142.767168,178.910892 144.176366,181.830126 145.887683,185.351775 C146.653327,187.031108 147.100297,188.609351 148.116327,190.257739 C148.348089,190.633216 148.722634,191.142793 148.991644,191.530649 C150.870574,194.276586 154.655337,194.387991 157.446832,191.780279 C160.217634,189.193198 160.970861,184.90409 159.145733,182.154027 C158.876723,181.762045 158.502178,181.182324 158.22696,180.819225 C157.076426,179.296685 155.853465,178.450829 154.620158,177.208865 C152.056287,174.481495 149.92904,172.214189 148.503287,169.602351 C147.878356,168.209784 148.34602,167.009081 148.621238,165.837261 C148.37499,165.659838 147.758337,164.355982 147.412762,163.765946 C162.76702,147.438865 173.299792,126.866 177.233545,106.334396 C178.007465,106.159036 179.352515,105.882586 179.791208,105.802126 C180.621,104.851054 181.361812,103.745252 182.967594,103.248054 C186.154327,102.484721 189.49005,102.424892 193.51899,102.338243 C195.395851,102.344432 196.931277,102.604378 198.996446,102.371252 C199.433069,102.321739 200.051792,102.191766 200.548426,102.111306 C200.589812,102.10718 200.62499,102.113369 200.666376,102.10718 C200.693277,102.103054 200.728455,102.088613 200.755356,102.084486 C204.316634,101.490324 207.52199,98.1873604 207.935851,94.6574595 C208.349713,91.1296216 205.816881,88.7075856 202.26802,89.2047838 C201.752762,89.2852432 201.018158,89.3636396 200.519455,89.4606036 C198.433594,89.8629009 196.776079,90.6159189 194.828861,91.2100811 C190.673693,92.3777748 187.232436,93.3536036 184.11399,93.5578468 C182.833089,93.5475315 181.812921,92.3736486 181.328703,91.9156486 L178.884851,92.1343333 C179.259396,82.4379369 178.036436,72.9787928 175.011109,64.2210901 C171.958881,55.3808649 167.331911,48.0177928 161.533713,42.2061441 C162.090356,41.3932973 163.143634,39.8872613 163.439545,39.4498919 C163.435406,38.3213964 163.24503,37.2094054 164.225881,35.5713333 C166.332436,32.4169099 169.076337,29.408964 172.387228,25.780036 C173.96404,24.108955 175.445663,22.8463604 177.003851,20.9091441 C177.355634,20.4697117 177.831574,19.8095315 178.197842,19.3226486 C180.805168,15.8855856 181.082455,11.6171081 178.810356,9.78717117 C176.540327,7.95517117 172.59002,9.25077477 169.982693,12.6857748 C169.612287,13.1726577 169.107376,13.8163333 168.776287,14.2784595 C167.325703,16.3043874 166.479356,18.0744955 165.285366,20.052973 C162.667693,24.240991 160.505267,27.7234414 158.042792,30.5910991 C156.964683,31.7257838 155.27199,32.1425225 154.508416,32.3942162 L152.422554,34.9235315 C138.37403,26.1018739 120.174475,24.0800721 101.304465,29.7101712 C101.176168,28.920018 100.971307,27.4820631 100.913366,27.0467568 C100.077366,26.5908198 99.0923762,26.3061171 98.7074851,24.7608829 C98.146703,21.592018 98.2460297,17.9053243 98.3474257,13.4656126 C98.4364059,11.3757297 98.7364554,9.54785586 98.6143663,7.36513514 C98.585396,6.87 98.4922772,6.17062162 98.4405446,5.64247748 C98.092901,1.9103964 95.1772475,-0.0825225225 91.9263663,1.19451351 Z M88.9465644,51.2650541 L90.1674554,83.8593874 L90.0474356,83.9728559 C90.1964257,86.8735225 88.135396,90.0444505 85.343901,91.1399369 C84.2016436,91.5896847 83.1111188,91.6247568 82.1923465,91.3132342 L82.1447525,91.3586216 L55.1092574,82.7515225 C62.1531782,71.7904685 71.5602475,62.0404324 82.7758911,54.8465315 C84.824505,53.5323604 86.8855347,52.3460991 88.9465644,51.2650541 Z M103.696584,45.474036 C117.242267,41.9193784 130.206475,43.3243243 140.588188,49.2040541 L117.155356,77.5072162 L117.062238,77.5030901 C114.986723,80.0633514 111.804129,80.8803243 109.854842,79.3082703 C109.056089,78.6645946 108.580149,77.7259009 108.433228,76.6469189 L108.406327,76.6427928 L103.696584,45.474036 Z M47.0389604,98.274009 L72.1375842,110.565739 L72.123099,110.706027 C74.3848515,111.760252 74.9932277,114.891982 73.4640099,117.831847 C72.8370099,119.034613 71.941,120.029009 70.9435941,120.720135 L70.9291089,120.833604 L42.1264257,141.303315 C39.2935446,127.643775 41.2531782,112.515333 47.0389604,98.274009 Z M150.91403,57.5016937 C154.88296,61.9083964 158.08004,67.3115586 160.275574,73.6699189 C162.446277,79.9519459 163.468515,86.6713423 163.456211,93.5578468 L132.855188,96.3842432 L132.817941,96.2645856 C130.082317,96.5596036 128.182693,94.3995766 128.542752,91.3421171 C128.689673,90.0919009 129.190446,88.885009 129.92505,87.8493514 L129.906426,87.7895225 L150.91403,57.5016937 Z M96.4581485,102.728162 L105.925228,99.0105225 L112.51804,104.302279 L111.286802,114.619658 L103.181327,122.180784 L94.2605446,121.291604 L91.2662574,112.632928 L96.4581485,102.728162 Z M129.231832,116.829198 C129.631208,116.651775 130.036792,116.530054 130.434099,116.451658 L130.479624,116.367072 L161.620624,109.691 C158.34698,124.47491 150.814703,139.124721 140.050168,151.177135 L125.393267,126.150117 L125.426376,126.084099 C124.089604,123.889 124.896634,120.381793 127.29496,118.143369 C127.907475,117.569838 128.563446,117.128342 129.231832,116.829198 Z M77.7785149,137.166874 C80.118901,136.28182 82.3723762,137.135928 83.146297,139.382604 C83.5063564,140.434766 83.489802,141.625153 83.1628515,142.796973 L83.2621782,142.879495 L74.2275842,176.899405 C62.5442772,173.922405 52.7647327,166.43555 46.8278911,154.867955 L76.7107525,137.612495 L76.7686931,137.657883 C77.1018515,137.459829 77.4432871,137.292721 77.7785149,137.166874 Z M104.640188,139.970577 C105.451356,139.619856 106.293564,139.467189 107.115079,139.549712 C108.193188,139.659054 109.064366,140.152126 109.654119,140.923712 L109.767931,140.880387 L127.344624,162.969604 C125.463624,164.405495 123.520545,165.765054 121.521594,167.048279 C110.318366,174.231865 98.8254356,177.899991 88.1478119,178.318793 L100.489158,144.536135 L100.51399,144.52582 C101.250663,142.442126 102.854376,140.742162 104.640188,139.970577 Z" id="Shape" stroke="#000000" stroke-width="0.25" fill-opacity="0" fill="#000000"></path>
            </g>
            <g id="path3059" opacity="0.7" transform="translate(162.000000, 45.000000)">
                <path d="M169.790388,5.8140158 C167.302722,5.04007898 163.343945,5.45762527 160.951323,6.7482229 C160.914132,6.76720228 160.887272,6.78829048 160.852147,6.80937867 C160.523626,6.98230189 160.112459,7.18896621 159.841791,7.34501887 C158.519444,8.10630276 157.810748,8.78323387 156.746672,9.53397367 C154.403638,11.1176972 152.463506,12.4336007 150.17006,13.5027723 C149.188631,13.8697069 147.791901,14.0489566 146.688568,14.1333093 L144.932326,14.9894901 C142.035559,14.2535121 138.959035,13.599778 135.706887,13.0430496 C121.712734,10.6453216 106.42516,10.3268899 91.7140468,11.7376902 C91.5094963,11.4255849 91.1809756,10.8646389 91.0879981,10.6938245 C90.1892152,10.4955954 89.1623299,10.3585222 88.6375233,9.740638 C87.7965931,8.48167266 87.5837778,7.0371312 87.3172422,5.29524616 C87.2345955,4.47491531 87.3874919,3.76635191 87.0796329,2.90595349 C87.0093832,2.70983326 86.8668177,2.42936025 86.7697078,2.2205871 C86.4783782,1.57528828 85.7035653,1.04597455 84.6580845,0.693801667 C83.3150756,0.240405441 81.5133774,0.080135147 79.6930838,0.318431768 C76.4574653,0.744413339 74.3789007,2.28596051 75.048339,3.76002545 C75.0545376,3.77478719 75.0648684,3.78954892 75.0731331,3.80431066 C75.1619783,4.00886617 75.257022,4.26614217 75.356198,4.44539184 C75.8190196,5.28470206 76.5711046,5.87517157 77.1971533,6.62380254 C78.4492509,8.23704958 79.4885332,9.57615007 79.81912,10.9025976 C79.8707742,11.4614348 78.8666168,12.1046248 78.4719787,12.3956419 L78.7984332,13.4458341 C60.9963333,16.4698815 44.9752697,22.0603624 34.4088887,29.5445634 L32.0472591,29.2155875 C30.9935136,29.3589873 29.4149616,29.6120456 28.4190688,29.525584 C25.4706477,29.1459965 22.6296672,28.4585213 19.1956967,27.6339728 C17.6109461,27.2332971 16.3981058,26.800989 14.5736798,26.4530338 C14.1728433,26.3771163 13.5839855,26.2843282 13.1294286,26.2084107 C13.1128993,26.2063019 13.0984361,26.2041931 13.0819068,26.2020842 C13.0571128,26.1978666 13.0219879,26.193649 12.9992601,26.1894313 C9.78843564,25.6643352 5.96809177,26.2716753 4.43499541,27.5643817 C2.90189906,28.8570882 4.22631248,30.3459149 7.39581357,30.9068609 C7.41854142,30.9110785 7.44746776,30.9195138 7.47226177,30.9237315 C7.50738662,30.9300579 7.54664381,30.9300579 7.58383482,30.9363844 C8.02599469,31.0144107 8.57146293,31.1177429 8.97229944,31.1767898 C10.8711075,31.4635893 12.5116445,31.5289627 14.3567322,31.7103212 C18.2638551,32.1384116 21.5056721,32.4884756 24.2102854,33.0747275 C25.2826264,33.3509829 25.7371833,34.004717 26.0078512,34.3062782 L28.2620401,34.7596744 C20.6461463,42.6972716 20.3052287,50.9237771 26.140086,57.9630171 L23.6214277,58.6251865 C23.255716,59.0722563 22.6875199,59.6542905 21.8155972,59.9368723 C18.9766829,60.723462 15.4063453,61.3750873 11.3917817,62.0899772 C9.49710601,62.408409 7.82351026,62.5918763 5.85651872,63.0178578 C5.38749867,63.1190812 4.7097957,63.2898956 4.22837865,63.4037718 C0.92664284,64.1987968 -0.69529872,65.7930645 0.60018836,66.9845476 C1.90394011,68.1823572 5.6664313,68.5155507 9.01775513,67.7310698 C9.02188747,67.7310698 9.0322183,67.7310698 9.03635064,67.7310698 C9.04048298,67.7289609 9.04048298,67.7268521 9.04461531,67.7268521 C9.51983386,67.6150847 10.1644781,67.4737938 10.594241,67.3641351 C12.4992475,66.8812154 13.7968008,66.3624458 15.4703965,65.8436762 C19.2556156,64.816681 22.6317334,63.5556068 25.9665279,63.1507135 C26.879774,63.0410548 27.7909539,63.1718017 28.7269278,63.3130926 L31.3468283,62.7690171 C38.3242763,67.8892312 49.0890094,72.0288442 63.0748979,74.4223545 C66.2650606,74.9685388 69.5172084,75.4029557 72.8189442,75.738258 C72.6660478,76.0651251 72.3519903,76.6872269 72.2817406,76.8453883 C72.8354736,77.2038877 73.5648307,77.5244283 73.3726771,78.2119035 C72.7838194,79.5720921 71.4738691,80.989219 69.8994494,82.7057982 C69.1246366,83.5050408 68.2609785,84.1587749 67.6328636,85.0381527 C67.4882318,85.2384906 67.3250046,85.5337253 67.1907037,85.7509337 C66.2320019,87.2861545 68.0316339,88.6843019 71.2073335,88.8762045 C74.3582391,89.0681071 77.6785704,88.0010443 78.6661985,86.484803 C78.8025656,86.2654857 79.0153808,85.9512716 79.12902,85.7382808 C79.6063048,84.8483589 79.5815107,84.1440132 79.8232524,83.3131382 C80.4307056,81.5375121 80.9348505,80.0634471 82.025787,78.7348907 C82.6724975,78.0748302 83.7303753,77.8681659 84.6725477,77.6024546 C84.6704815,77.4590548 85.2634716,76.8306266 85.4969486,76.5206301 C104.330066,76.9613734 123.692123,74.3401106 139.758642,69.3527521 C140.262787,69.5783958 141.120246,69.9769627 141.390914,70.1098183 C142.454991,70.1119272 143.583118,70.0339008 144.721576,70.4577736 C146.824935,71.3666749 148.519192,72.5518315 150.572963,73.9752848 C151.498606,74.6543247 152.081265,75.2890794 153.265179,75.9596841 C153.515186,76.100975 153.909824,76.2844423 154.211484,76.4383861 C154.236278,76.4510391 154.248675,76.4658008 154.273469,76.4784537 C154.289999,76.486889 154.316859,76.4953243 154.333388,76.5037595 C156.50493,77.6024546 160.364531,77.7268749 162.996829,76.7757973 C165.62706,75.8247196 166.038227,74.1566433 163.939001,73.0326424 C163.629076,72.8702633 163.209644,72.6319667 162.895587,72.4822405 C161.585636,71.855921 160.24676,71.493204 158.874824,70.9765432 C156.013182,69.8441071 153.63709,68.9077911 151.951097,67.8470548 C151.325048,67.3831145 151.626709,66.6492453 151.701091,66.3308135 L150.339486,65.5189179 C157.192964,62.629835 163.091872,59.2367442 167.614713,55.415563 C172.178878,51.5585318 174.949608,47.5939509 176.073603,43.6905257 C176.908335,43.6378052 178.464159,43.5471259 178.912518,43.5197113 C179.687331,43.1633208 180.358835,42.7499921 181.970446,42.5918306 C185.18127,42.3661869 188.609042,42.4167986 192.74551,42.4779544 C194.67531,42.5243484 196.27659,42.6656393 198.379949,42.6234629 C198.857234,42.6129188 199.547333,42.5791777 200.063875,42.5580895 C203.71686,42.4252339 206.789251,41.1936832 206.923552,39.803971 C207.057853,38.4142589 204.210674,37.395699 200.555623,37.5285546 C200.037015,37.5454252 199.344849,37.5644046 198.863432,37.5897104 C196.753875,37.699369 195.115404,37.9461009 193.162876,38.1337859 C188.987151,38.4965029 185.522188,38.8022817 182.329959,38.8086082 C181.015876,38.774867 179.889815,38.296165 179.338148,38.1000448 L176.567418,38.1358947 C175.672767,30.3227179 168.046542,23.1316428 154.829268,18.0873462 C155.308619,17.7942203 156.197071,17.2733418 156.465673,17.1151803 C156.366497,16.6723282 156.073101,16.2294761 156.945024,15.6073743 C158.845898,14.418 161.430674,13.3024344 164.531991,11.9548986 C166.013433,11.3349057 167.418427,10.8730742 168.858546,10.1476402 C169.187067,9.98315226 169.620962,9.7300939 169.957747,9.54873541 C172.352436,8.25813778 172.278054,6.58584379 169.790388,5.8140158 Z M133.886594,20.358545 L112.080261,30.9659079 L111.941828,30.9574726 C110.022358,31.9148767 106.819798,32.1616086 104.683381,31.4994392 C103.809392,31.2274015 103.245328,30.8435963 103.003587,30.4176147 L102.949866,30.4133971 L95.4744719,17.9861229 C106.499542,17.1046362 117.863464,17.4525915 128.365794,19.2514147 C130.285263,19.5803905 132.122086,19.9515428 133.886594,20.358545 Z M145.174067,23.8676209 C154.329256,27.6402993 159.786004,32.7499693 160.887272,38.3256885 L129.816243,38.7094936 L129.77492,38.6757525 C126.985594,38.7263642 124.84711,37.8343335 124.96075,36.6407416 C125.008271,36.1514954 125.419439,35.6875551 126.088877,35.2974234 L126.07648,35.2868793 L145.174067,23.8676209 Z M80.804682,19.9178017 L84.7861869,32.7984721 L84.6828785,32.8364309 C85.0775165,33.98152 83.2262304,35.1772207 80.447235,35.5420465 C79.3087766,35.6917727 78.1827153,35.6791198 77.2116165,35.5357201 L77.1269036,35.5652435 L48.7852828,31.5711391 C56.7730867,26.2885459 68.1452731,22.2775709 80.804682,19.9178017 Z M160.294282,44.6352769 C159.232271,47.440007 157.102053,50.2784783 153.816846,53.0536849 C150.572963,55.7951505 146.459223,58.2582519 141.717369,60.4029215 L124.6157,50.2573901 L124.679751,50.2067784 C123.12186,49.3105301 123.665262,47.9524502 125.944245,47.1300105 C126.878153,46.7925994 127.956693,46.5964792 129.0311,46.5374322 L129.064158,46.5121264 L160.294282,44.6352769 Z M102.222575,39.1186047 L109.468625,41.370824 L109.096715,45.3965608 L101.391976,48.1717674 L92.1768684,47.6087126 L88.3709877,44.1165072 L92.8401082,40.3375024 L102.222575,39.1186047 Z M108.761996,55.3269925 C109.084318,55.415563 109.367383,55.5252216 109.619455,55.6433155 L109.69797,55.6327714 L129.717067,64.7723958 C117.929581,68.2055542 104.125516,70.0613155 90.5053388,69.9411128 L100.453936,56.8516692 L100.515921,56.8432339 C101.36305,55.6770566 104.173037,54.8735963 106.900379,55.0401931 C107.598743,55.0823695 108.226858,55.181484 108.761996,55.3269925 Z M69.28993,43.1295796 C71.0585694,43.6968521 71.5875083,44.774459 70.424256,45.7550601 C69.8808539,46.212674 69.0543869,46.5774998 68.0853543,46.8263405 L68.0791558,46.8874963 L40.2127534,54.2430592 C36.4729901,49.1038657 36.7746506,43.2434559 41.7871731,37.4969223 L68.4551983,42.8828477 L68.4531321,42.9186977 C68.7547926,42.9756358 69.0378575,43.0473357 69.28993,43.1295796 Z M80.6703811,53.684222 C81.3129592,53.8676893 81.8356996,54.1228565 82.1848819,54.4455059 C82.6435711,54.8672699 82.7365487,55.3354278 82.4989394,55.788824 L82.5857184,55.8162387 L76.1041507,69.0406468 C74.184681,68.8107854 72.285873,68.5345301 70.4139251,68.2139895 C59.9239923,66.4172751 51.7089099,63.4206424 46.1323236,59.7027933 L75.4739696,53.6125222 L75.4925651,53.6188486 C77.2901309,53.2329346 79.2550563,53.2814375 80.6703811,53.684222 Z" id="Shape" fill="#FFFFFF"></path>
                <path d="M169.790388,5.8140158 C167.302722,5.04007898 163.343945,5.45762527 160.951323,6.7482229 C160.914132,6.76720228 160.887272,6.78829048 160.852147,6.80937867 C160.523626,6.98230189 160.112459,7.18896621 159.841791,7.34501887 C158.519444,8.10630276 157.810748,8.78323387 156.746672,9.53397367 C154.403638,11.1176972 152.463506,12.4336007 150.17006,13.5027723 C149.188631,13.8697069 147.791901,14.0489566 146.688568,14.1333093 L144.932326,14.9894901 C142.035559,14.2535121 138.959035,13.599778 135.706887,13.0430496 C121.712734,10.6453216 106.42516,10.3268899 91.7140468,11.7376902 C91.5094963,11.4255849 91.1809756,10.8646389 91.0879981,10.6938245 C90.1892152,10.4955954 89.1623299,10.3585222 88.6375233,9.740638 C87.7965931,8.48167266 87.5837778,7.0371312 87.3172422,5.29524616 C87.2345955,4.47491531 87.3874919,3.76635191 87.0796329,2.90595349 C87.0093832,2.70983326 86.8668177,2.42936025 86.7697078,2.2205871 C86.4783782,1.57528828 85.7035653,1.04597455 84.6580845,0.693801667 C83.3150756,0.240405441 81.5133774,0.080135147 79.6930838,0.318431768 C76.4574653,0.744413339 74.3789007,2.28596051 75.048339,3.76002545 C75.0545376,3.77478719 75.0648684,3.78954892 75.0731331,3.80431066 C75.1619783,4.00886617 75.257022,4.26614217 75.356198,4.44539184 C75.8190196,5.28470206 76.5711046,5.87517157 77.1971533,6.62380254 C78.4492509,8.23704958 79.4885332,9.57615007 79.81912,10.9025976 C79.8707742,11.4614348 78.8666168,12.1046248 78.4719787,12.3956419 L78.7984332,13.4458341 C60.9963333,16.4698815 44.9752697,22.0603624 34.4088887,29.5445634 L32.0472591,29.2155875 C30.9935136,29.3589873 29.4149616,29.6120456 28.4190688,29.525584 C25.4706477,29.1459965 22.6296672,28.4585213 19.1956967,27.6339728 C17.6109461,27.2332971 16.3981058,26.800989 14.5736798,26.4530338 C14.1728433,26.3771163 13.5839855,26.2843282 13.1294286,26.2084107 C13.1128993,26.2063019 13.0984361,26.2041931 13.0819068,26.2020842 C13.0571128,26.1978666 13.0219879,26.193649 12.9992601,26.1894313 C9.78843564,25.6643352 5.96809177,26.2716753 4.43499541,27.5643817 C2.90189906,28.8570882 4.22631248,30.3459149 7.39581357,30.9068609 C7.41854142,30.9110785 7.44746776,30.9195138 7.47226177,30.9237315 C7.50738662,30.9300579 7.54664381,30.9300579 7.58383482,30.9363844 C8.02599469,31.0144107 8.57146293,31.1177429 8.97229944,31.1767898 C10.8711075,31.4635893 12.5116445,31.5289627 14.3567322,31.7103212 C18.2638551,32.1384116 21.5056721,32.4884756 24.2102854,33.0747275 C25.2826264,33.3509829 25.7371833,34.004717 26.0078512,34.3062782 L28.2620401,34.7596744 C20.6461463,42.6972716 20.3052287,50.9237771 26.140086,57.9630171 L23.6214277,58.6251865 C23.255716,59.0722563 22.6875199,59.6542905 21.8155972,59.9368723 C18.9766829,60.723462 15.4063453,61.3750873 11.3917817,62.0899772 C9.49710601,62.408409 7.82351026,62.5918763 5.85651872,63.0178578 C5.38749867,63.1190812 4.7097957,63.2898956 4.22837865,63.4037718 C0.92664284,64.1987968 -0.69529872,65.7930645 0.60018836,66.9845476 C1.90394011,68.1823572 5.6664313,68.5155507 9.01775513,67.7310698 C9.02188747,67.7310698 9.0322183,67.7310698 9.03635064,67.7310698 C9.04048298,67.7289609 9.04048298,67.7268521 9.04461531,67.7268521 C9.51983386,67.6150847 10.1644781,67.4737938 10.594241,67.3641351 C12.4992475,66.8812154 13.7968008,66.3624458 15.4703965,65.8436762 C19.2556156,64.816681 22.6317334,63.5556068 25.9665279,63.1507135 C26.879774,63.0410548 27.7909539,63.1718017 28.7269278,63.3130926 L31.3468283,62.7690171 C38.3242763,67.8892312 49.0890094,72.0288442 63.0748979,74.4223545 C66.2650606,74.9685388 69.5172084,75.4029557 72.8189442,75.738258 C72.6660478,76.0651251 72.3519903,76.6872269 72.2817406,76.8453883 C72.8354736,77.2038877 73.5648307,77.5244283 73.3726771,78.2119035 C72.7838194,79.5720921 71.4738691,80.989219 69.8994494,82.7057982 C69.1246366,83.5050408 68.2609785,84.1587749 67.6328636,85.0381527 C67.4882318,85.2384906 67.3250046,85.5337253 67.1907037,85.7509337 C66.2320019,87.2861545 68.0316339,88.6843019 71.2073335,88.8762045 C74.3582391,89.0681071 77.6785704,88.0010443 78.6661985,86.484803 C78.8025656,86.2654857 79.0153808,85.9512716 79.12902,85.7382808 C79.6063048,84.8483589 79.5815107,84.1440132 79.8232524,83.3131382 C80.4307056,81.5375121 80.9348505,80.0634471 82.025787,78.7348907 C82.6724975,78.0748302 83.7303753,77.8681659 84.6725477,77.6024546 C84.6704815,77.4590548 85.2634716,76.8306266 85.4969486,76.5206301 C104.330066,76.9613734 123.692123,74.3401106 139.758642,69.3527521 C140.262787,69.5783958 141.120246,69.9769627 141.390914,70.1098183 C142.454991,70.1119272 143.583118,70.0339008 144.721576,70.4577736 C146.824935,71.3666749 148.519192,72.5518315 150.572963,73.9752848 C151.498606,74.6543247 152.081265,75.2890794 153.265179,75.9596841 C153.515186,76.100975 153.909824,76.2844423 154.211484,76.4383861 C154.236278,76.4510391 154.248675,76.4658008 154.273469,76.4784537 C154.289999,76.486889 154.316859,76.4953243 154.333388,76.5037595 C156.50493,77.6024546 160.364531,77.7268749 162.996829,76.7757973 C165.62706,75.8247196 166.038227,74.1566433 163.939001,73.0326424 C163.629076,72.8702633 163.209644,72.6319667 162.895587,72.4822405 C161.585636,71.855921 160.24676,71.493204 158.874824,70.9765432 C156.013182,69.8441071 153.63709,68.9077911 151.951097,67.8470548 C151.325048,67.3831145 151.626709,66.6492453 151.701091,66.3308135 L150.339486,65.5189179 C157.192964,62.629835 163.091872,59.2367442 167.614713,55.415563 C172.178878,51.5585318 174.949608,47.5939509 176.073603,43.6905257 C176.908335,43.6378052 178.464159,43.5471259 178.912518,43.5197113 C179.687331,43.1633208 180.358835,42.7499921 181.970446,42.5918306 C185.18127,42.3661869 188.609042,42.4167986 192.74551,42.4779544 C194.67531,42.5243484 196.27659,42.6656393 198.379949,42.6234629 C198.857234,42.6129188 199.547333,42.5791777 200.063875,42.5580895 C203.71686,42.4252339 206.789251,41.1936832 206.923552,39.803971 C207.057853,38.4142589 204.210674,37.395699 200.555623,37.5285546 C200.037015,37.5454252 199.344849,37.5644046 198.863432,37.5897104 C196.753875,37.699369 195.115404,37.9461009 193.162876,38.1337859 C188.987151,38.4965029 185.522188,38.8022817 182.329959,38.8086082 C181.015876,38.774867 179.889815,38.296165 179.338148,38.1000448 L176.567418,38.1358947 C175.672767,30.3227179 168.046542,23.1316428 154.829268,18.0873462 C155.308619,17.7942203 156.197071,17.2733418 156.465673,17.1151803 C156.366497,16.6723282 156.073101,16.2294761 156.945024,15.6073743 C158.845898,14.418 161.430674,13.3024344 164.531991,11.9548986 C166.013433,11.3349057 167.418427,10.8730742 168.858546,10.1476402 C169.187067,9.98315226 169.620962,9.7300939 169.957747,9.54873541 C172.352436,8.25813778 172.278054,6.58584379 169.790388,5.8140158 Z M133.886594,20.358545 L112.080261,30.9659079 L111.941828,30.9574726 C110.022358,31.9148767 106.819798,32.1616086 104.683381,31.4994392 C103.809392,31.2274015 103.245328,30.8435963 103.003587,30.4176147 L102.949866,30.4133971 L95.4744719,17.9861229 C106.499542,17.1046362 117.863464,17.4525915 128.365794,19.2514147 C130.285263,19.5803905 132.122086,19.9515428 133.886594,20.358545 Z M145.174067,23.8676209 C154.329256,27.6402993 159.786004,32.7499693 160.887272,38.3256885 L129.816243,38.7094936 L129.77492,38.6757525 C126.985594,38.7263642 124.84711,37.8343335 124.96075,36.6407416 C125.008271,36.1514954 125.419439,35.6875551 126.088877,35.2974234 L126.07648,35.2868793 L145.174067,23.8676209 Z M80.804682,19.9178017 L84.7861869,32.7984721 L84.6828785,32.8364309 C85.0775165,33.98152 83.2262304,35.1772207 80.447235,35.5420465 C79.3087766,35.6917727 78.1827153,35.6791198 77.2116165,35.5357201 L77.1269036,35.5652435 L48.7852828,31.5711391 C56.7730867,26.2885459 68.1452731,22.2775709 80.804682,19.9178017 Z M160.294282,44.6352769 C159.232271,47.440007 157.102053,50.2784783 153.816846,53.0536849 C150.572963,55.7951505 146.459223,58.2582519 141.717369,60.4029215 L124.6157,50.2573901 L124.679751,50.2067784 C123.12186,49.3105301 123.665262,47.9524502 125.944245,47.1300105 C126.878153,46.7925994 127.956693,46.5964792 129.0311,46.5374322 L129.064158,46.5121264 L160.294282,44.6352769 Z M102.222575,39.1186047 L109.468625,41.370824 L109.096715,45.3965608 L101.391976,48.1717674 L92.1768684,47.6087126 L88.3709877,44.1165072 L92.8401082,40.3375024 L102.222575,39.1186047 Z M108.761996,55.3269925 C109.084318,55.415563 109.367383,55.5252216 109.619455,55.6433155 L109.69797,55.6327714 L129.717067,64.7723958 C117.929581,68.2055542 104.125516,70.0613155 90.5053388,69.9411128 L100.453936,56.8516692 L100.515921,56.8432339 C101.36305,55.6770566 104.173037,54.8735963 106.900379,55.0401931 C107.598743,55.0823695 108.226858,55.181484 108.761996,55.3269925 Z M69.28993,43.1295796 C71.0585694,43.6968521 71.5875083,44.774459 70.424256,45.7550601 C69.8808539,46.212674 69.0543869,46.5774998 68.0853543,46.8263405 L68.0791558,46.8874963 L40.2127534,54.2430592 C36.4729901,49.1038657 36.7746506,43.2434559 41.7871731,37.4969223 L68.4551983,42.8828477 L68.4531321,42.9186977 C68.7547926,42.9756358 69.0378575,43.0473357 69.28993,43.1295796 Z M80.6703811,53.684222 C81.3129592,53.8676893 81.8356996,54.1228565 82.1848819,54.4455059 C82.6435711,54.8672699 82.7365487,55.3354278 82.4989394,55.788824 L82.5857184,55.8162387 L76.1041507,69.0406468 C74.184681,68.8107854 72.285873,68.5345301 70.4139251,68.2139895 C59.9239923,66.4172751 51.7089099,63.4206424 46.1323236,59.7027933 L75.4739696,53.6125222 L75.4925651,53.6188486 C77.2901309,53.2329346 79.2550563,53.2814375 80.6703811,53.684222 Z" id="Shape" stroke="#000000" stroke-width="0.25" fill-opacity="0" fill="#000000"></path>
            </g>
        </g>
    </g>
</svg>