<?xml version="1.0" encoding="UTF-8"?>
<svg width="200px" height="200px" viewBox="0 0 200 200" version="1.1" xmlns="http://www.w3.org/2000/svg" xmlns:xlink="http://www.w3.org/1999/xlink">
    <!-- Generator: Sketch 64 (93537) - https://sketch.com -->
    <title>ibm</title>
    <desc>Created with Sketch.</desc>
    <g id="ibm" stroke="none" stroke-width="1" fill="none" fill-rule="evenodd">
        <g transform="translate(16.000000, 0.000000)" fill-rule="nonzero" id="Path">
            <path d="M169,58.3193717 L169,141 C169,138.323953 167.524017,135.647906 164.572052,133.617801 L95.2008734,85.7257853 C89.2969432,81.6655759 79.6108079,81.6655759 73.7991266,85.7257853 L4.4279476,133.617801 C1.47598253,135.647906 0,138.323953 0,141 L0,58.3193717 C0,55.6433246 1.47598253,52.9672775 4.4279476,50.9371728 L73.7991266,3.04515707 C79.7030568,-1.01505236 89.3891921,-1.01505236 95.2008734,3.04515707 L164.572052,50.9371728 C167.524017,52.9672775 169,55.6433246 169,58.3193717 L169,58.3193717 Z" fill="#0F6FFF"></path>
            <path d="M0,59 C0,61.6760471 1.47598253,64.3520942 4.4279476,66.382199 L73.7991266,114.274215 C79.7030568,118.334424 89.3891921,118.334424 95.2008734,114.274215 L164.572052,66.382199 C167.524017,64.3520942 169,61.6760471 169,59 L169,141.680628 C169,144.356675 167.524017,147.032723 164.572052,149.062827 L95.2008734,196.954843 C89.2969432,201.015052 79.6108079,201.015052 73.7991266,196.954843 L4.4279476,149.062827 C1.47598253,147.032723 0,144.356675 0,141.680628 L0,59 Z" fill="#000000"></path>
        </g>
        <rect id="Rectangle-Copy-2" fill="#FFFFFF" style="mix-blend-mode: color;" x="0" y="0" width="200" height="200"></rect>
    </g>
</svg>