<?xml version="1.0" encoding="UTF-8"?>
<svg width="1133px" height="326px" viewBox="0 0 1133 326" version="1.1" xmlns="http://www.w3.org/2000/svg" xmlns:xlink="http://www.w3.org/1999/xlink">
    <!-- Generator: Sketch 64 (93537) - https://sketch.com -->
    <title>logo</title>
    <desc>Created with Sketch.</desc>
    <g id="logo" stroke="none" stroke-width="1" fill="none" fill-rule="evenodd">
        <g id="cdk8s" transform="translate(16.000000, 14.000000)" fill-rule="nonzero">
            <g id="Group">
                <g transform="translate(0.000000, 45.879726)" id="Path">
                    <polygon fill="#73A6F4" points="0.0518058423 0.315562993 144.559698 45.1378172 144.559698 252.79729 0.0518058423 207.975036"></polygon>
                    <polygon stroke="#FFFFFF" stroke-width="8" fill-opacity="0" fill="#000000" stroke-linejoin="round" points="0.0518058423 0.315562993 144.559698 45.1378172 144.559698 252.79729 0.0518058423 207.975036"></polygon>
                </g>
                <g transform="translate(148.447073, 45.879726)" id="Path">
                    <polygon fill="#3972CC" points="0.17487921 45.1378172 144.681645 0.315562993 144.681645 207.975036 0.17487921 252.79729"></polygon>
                    <polygon stroke="#FFFFFF" stroke-width="8" fill-opacity="0" fill="#000000" stroke-linejoin="round" points="0.17487921 45.1378172 144.681645 0.315562993 144.681645 207.975036 0.17487921 252.79729"></polygon>
                </g>
                <g id="Path">
                    <polygon fill="#4F94FF" points="0.0518058423 46.0811491 145.950572 0.891857112 291.848213 46.0811491 145.950572 91.2715602"></polygon>
                    <polygon stroke="#FFFFFF" stroke-width="8" fill-opacity="0" fill="#000000" stroke-linejoin="round" points="0.0518058423 46.0811491 145.950572 0.891857112 291.848213 46.0811491 145.950572 91.2715602"></polygon>
                </g>
            </g>
            <g id="path3059" opacity="0.7" transform="translate(12.000000, 108.000000)">
                <path d="M68.383283,2.2695935 C66.6038204,1.24292683 64.9002221,2.19447154 64.5800304,4.39577236 C64.5755678,4.42878049 64.5766835,4.46520325 64.5722209,4.49934959 C64.5264792,4.79642276 64.4606558,5.14926829 64.4316489,5.41447154 C64.2888457,6.70861789 64.3959481,7.82292683 64.3758664,9.07837398 C64.2821518,11.738374 64.2062875,13.9442276 63.7856873,15.7915447 C63.5435911,16.4403252 62.9656842,16.8273171 62.4692197,17.042439 L62.1724567,18.5152846 C60.2122588,17.5785366 58.2174757,16.7817886 56.2003797,16.1512195 C47.5239658,13.4377236 39.6206978,14.0785366 33.191204,17.3895935 C32.8743593,16.9138211 32.3243436,16.0578862 32.1614586,15.798374 C31.5735108,15.5536585 30.96325,15.415935 30.277125,14.4871545 C28.9918956,12.5749593 27.8963268,10.3258537 26.5675871,7.61235772 C25.9651358,6.33300813 25.5568078,5.21073171 24.8115532,3.88357724 C24.64309,3.58195122 24.3797965,3.15398374 24.1890203,2.83414634 C23.5999568,1.84390244 22.8468927,1.0699187 22.0804409,0.596422764 C21.0953215,-0.0125203252 20.0789639,-0.13203252 19.3281311,0.37902439 C17.9926975,1.28731707 18.0027383,3.8596748 19.3493285,6.12357724 C19.3627163,6.14634146 19.3783354,6.16682927 19.3917232,6.1895935 C19.5769212,6.50373984 19.8011669,6.8998374 19.9729771,7.17300813 C20.7818237,8.45691057 21.5638947,9.32650407 22.3917073,10.4533333 C24.1265438,12.8902439 25.5646173,14.9105691 26.6389887,16.9661789 C27.0484325,17.839187 26.9837247,18.9227642 26.9848404,19.4087805 L27.8684356,21.0307317 C20.9893347,27.1019512 16.7632506,37.0635772 16.5780527,49.5918699 L15.1645235,49.2492683 C14.7338824,49.5554472 14.1135807,50.0699187 13.5535242,50.0061789 C11.8097625,49.6305691 9.91315666,48.7678049 7.62161056,47.7308943 C6.54947045,47.2186992 5.6446779,46.6336585 4.488864,46.2227642 C4.23449569,46.1328455 3.87637188,46.0338211 3.59634361,45.9484553 C3.58630276,45.9450407 3.57737755,45.9439024 3.5673367,45.9404878 C3.55171759,45.935935 3.53163588,45.9325203 3.51713243,45.9279675 C1.54243107,45.3429268 0.0396498641,46.5813008 0.153446214,48.7222764 C0.267242563,50.8643902 1.95299045,53.0986992 3.93103876,53.7429268 C3.94554221,53.7474797 3.96562392,53.7588618 3.98012738,53.7634146 C4.00244039,53.7702439 4.02363775,53.7691057 4.04595076,53.775935 C4.32151643,53.8647154 4.66625243,53.9853659 4.90946423,54.0502439 C6.05969988,54.357561 6.92879161,54.335935 7.98085002,54.4850407 C10.237811,54.864065 12.1076412,55.1713821 13.8681376,55.8873171 C14.5966574,56.2390244 15.2727416,57.2315447 15.6152463,57.6834146 L17.058898,58.2263415 C18.6665504,71.244065 24.1287751,84.1684553 31.8836617,94.7731707 L31.0703525,95.9990244 C31.193074,96.7274797 31.3057547,97.6835772 31.0614273,98.1923577 C30.1722538,99.636748 28.8234324,100.924065 27.2938756,102.344553 C26.5597776,102.984228 25.8446456,103.397398 25.147364,104.213496 C24.9811321,104.40813 24.7591177,104.726829 24.5940014,104.939675 C23.4783509,106.434146 23.7550322,109.056585 25.2221126,110.826504 C26.6981182,112.607805 28.8178541,112.850244 29.9658585,111.370569 C29.9669741,111.368293 29.9714367,111.368293 29.973668,111.366016 C29.9747837,111.364878 29.973668,111.360325 29.9747837,111.359187 C30.1376687,111.149756 30.3652614,110.881138 30.506949,110.677398 C31.1328289,109.777073 31.4307076,108.866504 31.9160155,107.926341 C33.1153398,106.034634 33.9487307,103.80374 35.3488721,102.922764 C35.7326558,102.681463 36.2804402,102.819187 36.8483063,102.970569 L37.7921466,101.921138 C44.8062412,109.429919 53.052014,115.116423 61.7228496,117.827642 C63.7008979,118.446829 65.6332045,118.885041 67.5231164,119.163902 C67.6692666,119.686341 67.9370228,120.684553 68.0106557,120.939512 C68.5338958,121.458537 69.1218436,121.909268 69.4944708,123.000813 C70.129276,125.177073 70.4427737,127.499024 70.8265575,130.306992 C70.9838642,131.618211 70.997252,132.70748 71.2839742,134.134797 C71.3497976,134.460325 71.4680565,134.932683 71.549499,135.28439 C72.1195964,137.762276 73.9805014,139.820163 75.7097597,139.886179 C77.4245145,139.951057 78.3638922,138.030894 77.8228017,135.580325 C77.7402436,135.225203 77.6309098,134.715285 77.5427734,134.372683 C77.1734931,132.941951 76.6781443,131.839024 76.2307685,130.516423 C75.3203977,127.689106 74.5651023,125.340976 74.2025159,123.174959 C74.0764474,122.09252 74.466925,121.689593 74.7581098,121.202439 C74.6588169,120.975935 74.5260545,119.946992 74.4323399,119.443902 C84.2009755,118.729106 92.1399444,113.172358 96.8011321,104.154309 C97.2083445,104.467317 97.91232,105.028455 98.1399127,105.21626 C98.6765406,105.14 99.1897398,104.933984 100.052138,105.514472 C101.732307,106.783577 103.395742,108.513659 105.403913,110.595447 C106.33325,111.589106 107.060654,112.54065 108.114944,113.504715 C108.338074,113.708455 108.662728,113.966829 108.919328,114.185366 C108.940525,114.203577 108.95726,114.226341 108.978457,114.243415 C108.991845,114.255935 109.011927,114.267317 109.025314,114.279837 C110.869485,115.839187 112.895506,115.746992 113.566012,114.057886 C114.237634,112.369919 113.301603,109.722439 111.476399,108.116423 C111.209758,107.887642 110.8349,107.542764 110.574953,107.331057 C109.488309,106.447805 108.566782,105.98 107.523649,105.272033 C105.307967,103.709268 103.472722,102.418537 101.899655,100.880813 C101.265965,100.199024 100.915651,99.0266667 100.734916,98.522439 L99.4943124,97.3500813 C100.961393,92.3066667 101.602892,86.5484553 101.259271,80.2165854 C100.912304,73.8266667 99.5902583,67.4037398 97.4827946,61.1993496 C97.8665783,61.0547967 98.5872885,60.7964228 98.7925682,60.716748 C98.9387184,60.1043902 98.9922697,59.403252 99.6940138,59.0356098 C101.1544,58.4426016 102.912665,58.2661789 105.033517,58.0544715 C106.035371,57.9827642 106.937932,58.084065 107.965447,57.8598374 C108.198617,57.8086179 108.52104,57.7027642 108.767599,57.6333333 C110.513592,57.1518699 111.214221,54.9904065 110.32951,52.801626 C109.445915,50.6139837 107.316138,49.2265041 105.570145,49.7068293 C105.321355,49.7739837 104.98666,49.8547967 104.761298,49.9299187 C103.775063,50.2588618 103.121292,50.7687805 102.267819,51.2081301 C100.416955,52.0879675 98.8851672,52.8289431 97.2853244,53.0770732 C96.6014307,53.1214634 95.706679,52.4533333 95.295004,52.1869919 L93.9272165,52.4521951 C88.1258339,40.2642276 79.3679776,29.5593496 69.2691094,22.6344715 C69.3092729,22.1404878 69.3974092,21.2549593 69.4264162,20.9897561 C69.0716393,20.3011382 68.6209165,19.6273171 68.6343043,18.5881301 C68.7748763,16.579187 69.3103885,14.6396748 69.9463093,12.2926829 C70.266501,11.2102439 70.6569786,10.381626 70.8845713,9.13756098 C70.9358913,8.85414634 70.9816329,8.42617886 71.026259,8.11430894 C71.3464506,5.91300813 70.1638611,3.29626016 68.383283,2.2695935 Z M60.2948169,27.7586992 L56.5975512,46.0201626 L56.5228026,46.0190244 C56.2126518,47.664878 54.772347,48.2908943 53.2439059,47.4087805 C52.6180259,47.0479675 52.0735885,46.4902439 51.6585665,45.8380488 L51.6295596,45.8369106 L39.3596356,26.9050407 C44.2997359,24.7003252 50.2506156,24.3998374 56.7626675,26.4360976 C57.9519509,26.8071545 59.1300778,27.2544715 60.2948169,27.7586992 Z M68.3732421,32.4196748 C75.5591469,37.6531707 81.802327,45.2586992 86.1734456,53.9193496 L70.8176323,56.84 L70.7730063,56.7899187 C69.4052188,57.0778862 67.7183553,55.8372358 66.9597129,53.9580488 C66.6484464,53.1886179 66.5368814,52.4305691 66.6060517,51.7692683 L66.5937796,51.7533333 L68.3732421,32.4196748 Z M33.3083473,31.0321951 L44.1312727,50.9326829 L44.1056127,51.0009756 C45.0873852,52.7652033 44.9769358,54.7798374 43.8300471,55.5606504 C43.3603582,55.8793496 42.7846826,55.9430894 42.1989661,55.7905691 L42.1755374,55.844065 L25.1919901,51.6952846 C25.5902773,42.8160976 28.5601389,35.6749593 33.3083473,31.0321951 Z M90.1975969,63.8582114 C91.5843504,68.335935 92.4567891,72.9456911 92.7055792,77.5417886 C92.9521379,82.083252 92.5717011,86.2547967 91.6568677,89.9710569 L76.1102782,75.3370732 L76.1080469,75.2528455 C74.7123682,73.9655285 74.05525,71.7949593 74.6376196,70.3334959 C74.8752531,69.7347967 75.2835812,69.3466667 75.7833926,69.175935 L75.782277,69.1338211 L90.1975969,63.8582114 Z M57.2245468,59.5409756 L62.4112059,62.5321951 L64.980549,68.8743089 L63.0080789,73.801626 L57.989883,73.6058537 L53.6857035,68.4144715 L53.3431988,62.1531707 L57.2245468,59.5409756 Z M71.6142068,84.4734959 C71.8362212,84.5873171 72.0526574,84.7364228 72.2601684,84.9037398 L72.2936379,84.8821138 L88.6156045,97.72 C85.0410603,103.982439 79.3724402,107.922927 72.4442507,108.752683 L68.4803445,87.484065 L68.5060045,87.4647154 C68.1322616,85.5718699 68.9957751,84.1035772 70.4807059,84.1593496 C70.860027,84.1741463 71.2438108,84.2822764 71.6142068,84.4734959 Z M43.4161407,68.2892683 C44.6935605,69.0484553 45.6987616,70.7 45.7846667,72.3219512 C45.8248301,73.0822764 45.6597139,73.715122 45.3428691,74.1772358 L45.3808012,74.2739837 L36.4098557,87.8892683 C31.0101073,80.1095935 27.148841,70.8969106 25.7330805,61.5100813 L42.8281929,67.9671545 L42.8505059,68.0206504 C43.0423978,68.0900813 43.2331741,68.1811382 43.4161407,68.2892683 Z M56.3654959,83.9920325 C56.8139874,84.2310569 57.2524381,84.5941463 57.648494,85.0721951 C58.1683871,85.7004878 58.5354361,86.4278049 58.7262123,87.1562602 L58.7875731,87.1926829 L64.58784,108.414634 C63.4654956,108.198374 62.3208382,107.905854 61.1605617,107.542764 C54.657435,105.50878 48.4745,101.421463 43.124956,96.0092683 L53.7046695,84.2674797 L53.7180573,84.2754472 C54.3584407,83.5378862 55.3781452,83.4661789 56.3654959,83.9920325 Z" id="Shape" fill="#FFFFFF"></path>
                <path d="M68.383283,2.2695935 C66.6038204,1.24292683 64.9002221,2.19447154 64.5800304,4.39577236 C64.5755678,4.42878049 64.5766835,4.46520325 64.5722209,4.49934959 C64.5264792,4.79642276 64.4606558,5.14926829 64.4316489,5.41447154 C64.2888457,6.70861789 64.3959481,7.82292683 64.3758664,9.07837398 C64.2821518,11.738374 64.2062875,13.9442276 63.7856873,15.7915447 C63.5435911,16.4403252 62.9656842,16.8273171 62.4692197,17.042439 L62.1724567,18.5152846 C60.2122588,17.5785366 58.2174757,16.7817886 56.2003797,16.1512195 C47.5239658,13.4377236 39.6206978,14.0785366 33.191204,17.3895935 C32.8743593,16.9138211 32.3243436,16.0578862 32.1614586,15.798374 C31.5735108,15.5536585 30.96325,15.415935 30.277125,14.4871545 C28.9918956,12.5749593 27.8963268,10.3258537 26.5675871,7.61235772 C25.9651358,6.33300813 25.5568078,5.21073171 24.8115532,3.88357724 C24.64309,3.58195122 24.3797965,3.15398374 24.1890203,2.83414634 C23.5999568,1.84390244 22.8468927,1.0699187 22.0804409,0.596422764 C21.0953215,-0.0125203252 20.0789639,-0.13203252 19.3281311,0.37902439 C17.9926975,1.28731707 18.0027383,3.8596748 19.3493285,6.12357724 C19.3627163,6.14634146 19.3783354,6.16682927 19.3917232,6.1895935 C19.5769212,6.50373984 19.8011669,6.8998374 19.9729771,7.17300813 C20.7818237,8.45691057 21.5638947,9.32650407 22.3917073,10.4533333 C24.1265438,12.8902439 25.5646173,14.9105691 26.6389887,16.9661789 C27.0484325,17.839187 26.9837247,18.9227642 26.9848404,19.4087805 L27.8684356,21.0307317 C20.9893347,27.1019512 16.7632506,37.0635772 16.5780527,49.5918699 L15.1645235,49.2492683 C14.7338824,49.5554472 14.1135807,50.0699187 13.5535242,50.0061789 C11.8097625,49.6305691 9.91315666,48.7678049 7.62161056,47.7308943 C6.54947045,47.2186992 5.6446779,46.6336585 4.488864,46.2227642 C4.23449569,46.1328455 3.87637188,46.0338211 3.59634361,45.9484553 C3.58630276,45.9450407 3.57737755,45.9439024 3.5673367,45.9404878 C3.55171759,45.935935 3.53163588,45.9325203 3.51713243,45.9279675 C1.54243107,45.3429268 0.0396498641,46.5813008 0.153446214,48.7222764 C0.267242563,50.8643902 1.95299045,53.0986992 3.93103876,53.7429268 C3.94554221,53.7474797 3.96562392,53.7588618 3.98012738,53.7634146 C4.00244039,53.7702439 4.02363775,53.7691057 4.04595076,53.775935 C4.32151643,53.8647154 4.66625243,53.9853659 4.90946423,54.0502439 C6.05969988,54.357561 6.92879161,54.335935 7.98085002,54.4850407 C10.237811,54.864065 12.1076412,55.1713821 13.8681376,55.8873171 C14.5966574,56.2390244 15.2727416,57.2315447 15.6152463,57.6834146 L17.058898,58.2263415 C18.6665504,71.244065 24.1287751,84.1684553 31.8836617,94.7731707 L31.0703525,95.9990244 C31.193074,96.7274797 31.3057547,97.6835772 31.0614273,98.1923577 C30.1722538,99.636748 28.8234324,100.924065 27.2938756,102.344553 C26.5597776,102.984228 25.8446456,103.397398 25.147364,104.213496 C24.9811321,104.40813 24.7591177,104.726829 24.5940014,104.939675 C23.4783509,106.434146 23.7550322,109.056585 25.2221126,110.826504 C26.6981182,112.607805 28.8178541,112.850244 29.9658585,111.370569 C29.9669741,111.368293 29.9714367,111.368293 29.973668,111.366016 C29.9747837,111.364878 29.973668,111.360325 29.9747837,111.359187 C30.1376687,111.149756 30.3652614,110.881138 30.506949,110.677398 C31.1328289,109.777073 31.4307076,108.866504 31.9160155,107.926341 C33.1153398,106.034634 33.9487307,103.80374 35.3488721,102.922764 C35.7326558,102.681463 36.2804402,102.819187 36.8483063,102.970569 L37.7921466,101.921138 C44.8062412,109.429919 53.052014,115.116423 61.7228496,117.827642 C63.7008979,118.446829 65.6332045,118.885041 67.5231164,119.163902 C67.6692666,119.686341 67.9370228,120.684553 68.0106557,120.939512 C68.5338958,121.458537 69.1218436,121.909268 69.4944708,123.000813 C70.129276,125.177073 70.4427737,127.499024 70.8265575,130.306992 C70.9838642,131.618211 70.997252,132.70748 71.2839742,134.134797 C71.3497976,134.460325 71.4680565,134.932683 71.549499,135.28439 C72.1195964,137.762276 73.9805014,139.820163 75.7097597,139.886179 C77.4245145,139.951057 78.3638922,138.030894 77.8228017,135.580325 C77.7402436,135.225203 77.6309098,134.715285 77.5427734,134.372683 C77.1734931,132.941951 76.6781443,131.839024 76.2307685,130.516423 C75.3203977,127.689106 74.5651023,125.340976 74.2025159,123.174959 C74.0764474,122.09252 74.466925,121.689593 74.7581098,121.202439 C74.6588169,120.975935 74.5260545,119.946992 74.4323399,119.443902 C84.2009755,118.729106 92.1399444,113.172358 96.8011321,104.154309 C97.2083445,104.467317 97.91232,105.028455 98.1399127,105.21626 C98.6765406,105.14 99.1897398,104.933984 100.052138,105.514472 C101.732307,106.783577 103.395742,108.513659 105.403913,110.595447 C106.33325,111.589106 107.060654,112.54065 108.114944,113.504715 C108.338074,113.708455 108.662728,113.966829 108.919328,114.185366 C108.940525,114.203577 108.95726,114.226341 108.978457,114.243415 C108.991845,114.255935 109.011927,114.267317 109.025314,114.279837 C110.869485,115.839187 112.895506,115.746992 113.566012,114.057886 C114.237634,112.369919 113.301603,109.722439 111.476399,108.116423 C111.209758,107.887642 110.8349,107.542764 110.574953,107.331057 C109.488309,106.447805 108.566782,105.98 107.523649,105.272033 C105.307967,103.709268 103.472722,102.418537 101.899655,100.880813 C101.265965,100.199024 100.915651,99.0266667 100.734916,98.522439 L99.4943124,97.3500813 C100.961393,92.3066667 101.602892,86.5484553 101.259271,80.2165854 C100.912304,73.8266667 99.5902583,67.4037398 97.4827946,61.1993496 C97.8665783,61.0547967 98.5872885,60.7964228 98.7925682,60.716748 C98.9387184,60.1043902 98.9922697,59.403252 99.6940138,59.0356098 C101.1544,58.4426016 102.912665,58.2661789 105.033517,58.0544715 C106.035371,57.9827642 106.937932,58.084065 107.965447,57.8598374 C108.198617,57.8086179 108.52104,57.7027642 108.767599,57.6333333 C110.513592,57.1518699 111.214221,54.9904065 110.32951,52.801626 C109.445915,50.6139837 107.316138,49.2265041 105.570145,49.7068293 C105.321355,49.7739837 104.98666,49.8547967 104.761298,49.9299187 C103.775063,50.2588618 103.121292,50.7687805 102.267819,51.2081301 C100.416955,52.0879675 98.8851672,52.8289431 97.2853244,53.0770732 C96.6014307,53.1214634 95.706679,52.4533333 95.295004,52.1869919 L93.9272165,52.4521951 C88.1258339,40.2642276 79.3679776,29.5593496 69.2691094,22.6344715 C69.3092729,22.1404878 69.3974092,21.2549593 69.4264162,20.9897561 C69.0716393,20.3011382 68.6209165,19.6273171 68.6343043,18.5881301 C68.7748763,16.579187 69.3103885,14.6396748 69.9463093,12.2926829 C70.266501,11.2102439 70.6569786,10.381626 70.8845713,9.13756098 C70.9358913,8.85414634 70.9816329,8.42617886 71.026259,8.11430894 C71.3464506,5.91300813 70.1638611,3.29626016 68.383283,2.2695935 Z M60.2948169,27.7586992 L56.5975512,46.0201626 L56.5228026,46.0190244 C56.2126518,47.664878 54.772347,48.2908943 53.2439059,47.4087805 C52.6180259,47.0479675 52.0735885,46.4902439 51.6585665,45.8380488 L51.6295596,45.8369106 L39.3596356,26.9050407 C44.2997359,24.7003252 50.2506156,24.3998374 56.7626675,26.4360976 C57.9519509,26.8071545 59.1300778,27.2544715 60.2948169,27.7586992 Z M68.3732421,32.4196748 C75.5591469,37.6531707 81.802327,45.2586992 86.1734456,53.9193496 L70.8176323,56.84 L70.7730063,56.7899187 C69.4052188,57.0778862 67.7183553,55.8372358 66.9597129,53.9580488 C66.6484464,53.1886179 66.5368814,52.4305691 66.6060517,51.7692683 L66.5937796,51.7533333 L68.3732421,32.4196748 Z M33.3083473,31.0321951 L44.1312727,50.9326829 L44.1056127,51.0009756 C45.0873852,52.7652033 44.9769358,54.7798374 43.8300471,55.5606504 C43.3603582,55.8793496 42.7846826,55.9430894 42.1989661,55.7905691 L42.1755374,55.844065 L25.1919901,51.6952846 C25.5902773,42.8160976 28.5601389,35.6749593 33.3083473,31.0321951 Z M90.1975969,63.8582114 C91.5843504,68.335935 92.4567891,72.9456911 92.7055792,77.5417886 C92.9521379,82.083252 92.5717011,86.2547967 91.6568677,89.9710569 L76.1102782,75.3370732 L76.1080469,75.2528455 C74.7123682,73.9655285 74.05525,71.7949593 74.6376196,70.3334959 C74.8752531,69.7347967 75.2835812,69.3466667 75.7833926,69.175935 L75.782277,69.1338211 L90.1975969,63.8582114 Z M57.2245468,59.5409756 L62.4112059,62.5321951 L64.980549,68.8743089 L63.0080789,73.801626 L57.989883,73.6058537 L53.6857035,68.4144715 L53.3431988,62.1531707 L57.2245468,59.5409756 Z M71.6142068,84.4734959 C71.8362212,84.5873171 72.0526574,84.7364228 72.2601684,84.9037398 L72.2936379,84.8821138 L88.6156045,97.72 C85.0410603,103.982439 79.3724402,107.922927 72.4442507,108.752683 L68.4803445,87.484065 L68.5060045,87.4647154 C68.1322616,85.5718699 68.9957751,84.1035772 70.4807059,84.1593496 C70.860027,84.1741463 71.2438108,84.2822764 71.6142068,84.4734959 Z M43.4161407,68.2892683 C44.6935605,69.0484553 45.6987616,70.7 45.7846667,72.3219512 C45.8248301,73.0822764 45.6597139,73.715122 45.3428691,74.1772358 L45.3808012,74.2739837 L36.4098557,87.8892683 C31.0101073,80.1095935 27.148841,70.8969106 25.7330805,61.5100813 L42.8281929,67.9671545 L42.8505059,68.0206504 C43.0423978,68.0900813 43.2331741,68.1811382 43.4161407,68.2892683 Z M56.3654959,83.9920325 C56.8139874,84.2310569 57.2524381,84.5941463 57.648494,85.0721951 C58.1683871,85.7004878 58.5354361,86.4278049 58.7262123,87.1562602 L58.7875731,87.1926829 L64.58784,108.414634 C63.4654956,108.198374 62.3208382,107.905854 61.1605617,107.542764 C54.657435,105.50878 48.4745,101.421463 43.124956,96.0092683 L53.7046695,84.2674797 L53.7180573,84.2754472 C54.3584407,83.5378862 55.3781452,83.4661789 56.3654959,83.9920325 Z" id="Shape" stroke="#000000" stroke-width="0.25" fill-opacity="0" fill="#000000"></path>
            </g>
            <g id="path3059" opacity="0.5" transform="translate(162.000000, 117.000000)">
                <path d="M50.2424851,0.646810811 C48.4859505,1.33830631 47.2127426,3.53679279 47.400703,5.55765766 C47.4040594,5.58781982 47.4130099,5.61574775 47.4163663,5.64590991 C47.4387426,5.92183784 47.4566436,6.25809009 47.4879703,6.4938018 C47.6378911,7.6421982 47.9668218,8.43758559 48.2140792,9.45416216 C48.6951683,11.6470631 49.0968218,13.4646126 49.1225545,15.289982 C49.0498317,16.0105225 48.631396,16.8081441 48.2476436,17.3990991 L48.3013465,18.8223063 C46.407198,19.7361081 44.5130495,20.7917838 42.6356832,21.9982703 C34.554505,27.1883964 27.8505842,34.3904505 22.9871089,42.4683243 C22.6134257,42.3577297 21.9555644,42.1432432 21.7597723,42.0750991 C21.1992475,42.3778378 20.6420792,42.7855856 19.852198,42.6280721 C18.3362079,42.1957477 16.9130792,41.3366847 15.1901089,40.3033514 C14.3979901,39.7972973 13.8072574,39.251027 12.8831188,38.8254054 C12.6727822,38.7293333 12.3550396,38.612036 12.1212079,38.5193153 C11.4018119,38.2310991 10.5884356,38.2534414 9.82428713,38.526018 C8.84308911,38.8756757 7.93908911,39.642018 7.39646535,40.6842883 C6.43316832,42.5364685 6.98586139,44.572973 8.62939604,45.2320721 C8.64617822,45.2387748 8.66407921,45.2421261 8.68086139,45.2488288 C8.90686139,45.3426667 9.18432673,45.4666667 9.39130693,45.5381622 C10.3613168,45.8744144 11.222802,45.9034595 12.1771485,46.098955 C14.1932475,46.567027 15.8636337,46.9557838 17.2285842,47.6796757 C17.7667327,48.025982 17.9401485,48.9431351 18.044198,49.3285405 L19.150703,49.8703423 C14.481901,60.5209369 12.9312277,72.0194234 15.4183465,82.136036 L14.1227624,83.061009 C13.8150891,83.6687207 13.387703,84.6026306 12.8887129,85.0271351 C11.3022376,86.2045766 9.47745545,87.1250811 7.27563366,88.2410811 C6.23961386,88.7415495 5.33337624,89.0420541 4.2470099,89.6944505 C4.00758416,89.8385586 3.67641584,90.0630991 3.41573267,90.2329009 C3.40678218,90.2384865 3.39783168,90.2451892 3.38888119,90.2507748 C3.37545545,90.2597117 3.35643564,90.2742342 3.3430099,90.2831712 C1.51151485,91.4896577 0.472138614,93.7473514 1.02371287,95.3537658 C1.57416832,96.9590631 3.50523762,97.3087207 5.35351485,96.1458018 C5.36694059,96.1368649 5.3859604,96.129045 5.40050495,96.1201081 C5.42064356,96.1067027 5.43854455,96.0888288 5.45980198,96.0743063 C5.71712871,95.9112072 6.04046535,95.7157117 6.26422772,95.5615495 C7.32486139,94.830955 8.07222772,94.078018 9.01426733,93.304973 C11.0471485,91.6963243 12.7298416,90.3569009 14.404703,89.4352793 C15.1095545,89.099027 15.9039109,89.3157477 16.295495,89.385009 L17.6593267,88.592973 C21.8022871,97.5801802 29.2602871,103.229441 38.211901,105.09391 L37.7666139,106.757297 C38.027297,107.233189 38.3271386,107.896757 38.2230891,108.50782 C37.7587822,110.409153 36.8637327,112.574126 35.8400198,114.999387 C35.3410297,116.12991 34.8095941,117.06382 34.3788515,118.301586 C34.2759208,118.598739 34.1506139,119.04 34.0532772,119.349441 C33.4032475,121.482018 34.197604,123.331964 35.8400198,123.497297 C37.4947426,123.663748 39.3788218,122.060685 40.0601782,119.912468 C40.061297,119.909117 40.0646535,119.905766 40.0657723,119.902414 C40.0668911,119.90018 40.0646535,119.897946 40.0657723,119.895712 C40.1619901,119.590739 40.3018416,119.185225 40.3812772,118.902595 C40.733703,117.657009 40.7985941,116.681766 41.019,115.523315 C41.6578416,113.003099 41.9073366,110.524216 42.9332871,108.637405 C43.2141089,108.121297 43.7175743,107.767171 44.2400594,107.407459 L44.8352673,105.772 C52.4901782,105.803279 60.8275644,103.340036 68.9031485,98.1543784 C70.7458317,96.9702342 72.510198,95.6833153 74.2040792,94.3036757 C74.4412673,94.5963604 74.8843168,95.1638559 75.0017921,95.3034955 C75.5634356,95.2733333 76.1675941,95.1336937 76.7214059,95.6855495 C77.7305743,96.8775135 78.4924851,98.4582342 79.4177426,100.365153 C79.831703,101.274486 80.0733663,102.129081 80.622703,103.021658 C80.7480099,103.224973 80.9505149,103.500901 81.0959604,103.710919 C82.1118416,105.197802 84.1581485,105.258126 85.6674257,103.84609 C87.1655149,102.445225 87.5727624,100.122739 86.5859703,98.6336216 C86.4405248,98.4213694 86.2380198,98.1074595 86.0892178,97.9108468 C85.4671584,97.0864144 84.8059406,96.6283964 84.1391287,95.9558919 C82.7529208,94.4790631 81.6027822,93.2513514 80.8319208,91.8370811 C80.4940396,91.083027 80.7468911,90.4328649 80.8956931,89.7983423 C80.7625545,89.7022703 80.4291485,88.9962523 80.2423069,88.6767568 C88.5438911,79.8358919 94.2386436,68.696 96.365505,57.5784505 C96.7839406,57.4834955 97.5111683,57.3338018 97.7483564,57.2902342 C98.197,56.7752432 98.5975347,56.1764685 99.4657327,55.9072432 C101.188703,55.4939099 102.992228,55.4615135 105.170554,55.4145946 C106.185317,55.4179459 107.015475,55.5587027 108.13205,55.4324685 C108.368119,55.4056577 108.702644,55.3352793 108.971158,55.2917117 C108.993535,55.2894775 109.012554,55.2928288 109.034931,55.2894775 C109.049475,55.2872432 109.068495,55.2794234 109.08304,55.2771892 C111.008515,54.9554595 112.741554,53.166955 112.965317,51.2555676 C113.189079,49.3452973 111.819653,48.0338018 109.900891,48.303027 C109.622307,48.3465946 109.225129,48.389045 108.955495,48.4415495 C107.827733,48.6593874 106.931564,49.0671351 105.878762,49.3888649 C103.632188,50.0211532 101.771604,50.5495495 100.085554,50.6601441 C99.3930099,50.6545586 98.8414356,50.0189189 98.5796337,49.7709189 L97.2583168,49.8893333 C97.4608218,44.6388829 96.799604,39.5169009 95.163901,34.7747387 C93.5136535,29.9878919 91.0119901,26.0009009 87.8770792,22.853982 C88.1780396,22.4138378 88.7475149,21.5983423 88.907505,21.3615135 C88.9052673,20.7504505 88.8023366,20.1483243 89.3326535,19.2613333 C90.471604,17.5532613 91.9551485,15.9245045 93.7452475,13.9594955 C94.5977822,13.0546306 95.3988515,12.370955 96.2413168,11.321982 C96.4315149,11.084036 96.6888416,10.7265586 96.8868713,10.4629189 C98.2965743,8.6018018 98.446495,6.29048649 97.2180396,5.2996036 C95.990703,4.3076036 93.8548911,5.00915315 92.4451881,6.86915315 C92.2449208,7.13279279 91.9719307,7.48133333 91.7929208,7.73156757 C91.0086337,8.82857658 90.5510396,9.78706306 89.9054851,10.8583784 C88.4901881,13.1261261 87.3210297,15.0118198 85.9896436,16.5646126 C85.4067426,17.179027 84.4915545,17.4046847 84.0787129,17.540973 L82.9509505,18.9105586 C75.3553366,14.1337658 65.5153861,13.038991 55.3129406,16.0876036 C55.2435743,15.6597477 55.1328119,14.8811171 55.1014851,14.6454054 C54.6494851,14.3985225 54.1169307,14.2443604 53.9088317,13.4076396 C53.6056337,11.6917477 53.6593366,9.69545946 53.7141584,7.29142342 C53.7622673,6.15978378 53.924495,5.17001802 53.8584851,3.98810811 C53.8428218,3.72 53.7924752,3.3412973 53.764505,3.05531532 C53.5765446,1.03445045 52.0001386,-0.0446846847 50.2424851,0.646810811 Z M48.631396,27.7592432 L49.291495,45.4085766 L49.226604,45.470018 C49.3071584,47.0406847 48.1928218,48.7576937 46.6835446,49.3508829 C46.0659604,49.5944144 45.4763465,49.6134054 44.9795941,49.4447207 L44.9538614,49.4692973 L30.3365842,44.8086847 C34.1450198,38.8734414 39.2311386,33.5939459 45.295099,29.6985586 C46.4027228,28.986955 47.5170594,28.3446126 48.631396,27.7592432 Z M56.6062871,24.6234955 C63.9300297,22.6987027 70.9393861,23.4594595 76.5524653,26.6432432 L63.8830396,41.968973 L63.8326931,41.9667387 C62.7105248,43.3530811 60.9897921,43.7954595 59.9358713,42.9442162 C59.5040099,42.5956757 59.2466832,42.0873874 59.1672475,41.5031351 L59.152703,41.5009009 L56.6062871,24.6234955 Z M25.9732178,53.2138739 L39.5432871,59.8696577 L39.5354554,59.9456216 C40.7583168,60.5164685 41.0872475,62.2122523 40.2604455,63.8041441 C39.9214455,64.4554234 39.437,64.9938739 38.8977327,65.3681081 L38.889901,65.4295495 L23.3171584,76.5135856 C21.785505,69.1171532 22.8450198,60.9253333 25.9732178,53.2138739 Z M82.1353366,31.1362883 C84.2812178,33.5224505 86.0097822,36.4481802 87.1968416,39.8911351 C88.3704752,43.2927568 88.9231683,46.9312072 88.9165158,50.6601441 L72.3714653,52.1905946 L72.3513267,52.1258018 C70.8722574,52.2855495 69.8451881,51.1159279 70.0398614,49.4603604 C70.119297,48.7833874 70.3900495,48.1298739 70.7872277,47.5690811 L70.7771584,47.5366847 L82.1353366,31.1362883 Z M52.6926832,55.6257297 L57.8112475,53.6126847 L61.3757822,56.4780901 L60.7100891,62.0647928 L56.327703,66.159027 L51.504505,65.6775495 L49.8855842,60.989009 L52.6926832,55.6257297 Z M70.4124257,63.2612252 C70.6283564,63.1651532 70.8476436,63.0992432 71.0624554,63.0567928 L71.0870693,63.010991 L87.9240693,59.396 C86.1541089,67.4012613 82.0816337,75.3339099 76.2615743,81.8601081 L68.3370297,68.3083604 L68.3549307,68.2726126 C67.6321782,67.084 68.0685149,65.1849009 69.3652178,63.9728288 C69.6963861,63.6622703 70.0510495,63.4232072 70.4124257,63.2612252 Z M42.5931683,74.2737658 C43.8585446,73.7945225 45.0769307,74.257009 45.4953663,75.4735495 C45.6900396,76.0432793 45.6810891,76.6878559 45.5043168,77.3223784 L45.5580198,77.3670631 L40.6732871,95.7883243 C34.3564752,94.1763243 29.0689703,90.1223063 25.859099,83.8586306 L42.0158614,74.5150631 L42.0471881,74.5396396 C42.2273168,74.4323964 42.4119208,74.3419099 42.5931683,74.2737658 Z M57.1164653,75.7919279 C57.5550396,75.602018 58.010396,75.5193514 58.4545644,75.564036 C59.0374653,75.6232432 59.5084851,75.8902342 59.8273465,76.308036 L59.8888812,76.2845766 L69.3920693,88.2455495 C68.3750693,89.0230631 67.324505,89.7592432 66.2437327,90.4540901 C60.1864851,94.3438919 53.972604,96.3301261 48.1995347,96.5569009 L54.8721287,78.2641081 L54.8855545,78.2585225 C55.2838515,77.1302342 56.1509307,76.2097297 57.1164653,75.7919279 Z" id="Shape" fill="#FFFFFF"></path>
                <path d="M50.2424851,0.646810811 C48.4859505,1.33830631 47.2127426,3.53679279 47.400703,5.55765766 C47.4040594,5.58781982 47.4130099,5.61574775 47.4163663,5.64590991 C47.4387426,5.92183784 47.4566436,6.25809009 47.4879703,6.4938018 C47.6378911,7.6421982 47.9668218,8.43758559 48.2140792,9.45416216 C48.6951683,11.6470631 49.0968218,13.4646126 49.1225545,15.289982 C49.0498317,16.0105225 48.631396,16.8081441 48.2476436,17.3990991 L48.3013465,18.8223063 C46.407198,19.7361081 44.5130495,20.7917838 42.6356832,21.9982703 C34.554505,27.1883964 27.8505842,34.3904505 22.9871089,42.4683243 C22.6134257,42.3577297 21.9555644,42.1432432 21.7597723,42.0750991 C21.1992475,42.3778378 20.6420792,42.7855856 19.852198,42.6280721 C18.3362079,42.1957477 16.9130792,41.3366847 15.1901089,40.3033514 C14.3979901,39.7972973 13.8072574,39.251027 12.8831188,38.8254054 C12.6727822,38.7293333 12.3550396,38.612036 12.1212079,38.5193153 C11.4018119,38.2310991 10.5884356,38.2534414 9.82428713,38.526018 C8.84308911,38.8756757 7.93908911,39.642018 7.39646535,40.6842883 C6.43316832,42.5364685 6.98586139,44.572973 8.62939604,45.2320721 C8.64617822,45.2387748 8.66407921,45.2421261 8.68086139,45.2488288 C8.90686139,45.3426667 9.18432673,45.4666667 9.39130693,45.5381622 C10.3613168,45.8744144 11.222802,45.9034595 12.1771485,46.098955 C14.1932475,46.567027 15.8636337,46.9557838 17.2285842,47.6796757 C17.7667327,48.025982 17.9401485,48.9431351 18.044198,49.3285405 L19.150703,49.8703423 C14.481901,60.5209369 12.9312277,72.0194234 15.4183465,82.136036 L14.1227624,83.061009 C13.8150891,83.6687207 13.387703,84.6026306 12.8887129,85.0271351 C11.3022376,86.2045766 9.47745545,87.1250811 7.27563366,88.2410811 C6.23961386,88.7415495 5.33337624,89.0420541 4.2470099,89.6944505 C4.00758416,89.8385586 3.67641584,90.0630991 3.41573267,90.2329009 C3.40678218,90.2384865 3.39783168,90.2451892 3.38888119,90.2507748 C3.37545545,90.2597117 3.35643564,90.2742342 3.3430099,90.2831712 C1.51151485,91.4896577 0.472138614,93.7473514 1.02371287,95.3537658 C1.57416832,96.9590631 3.50523762,97.3087207 5.35351485,96.1458018 C5.36694059,96.1368649 5.3859604,96.129045 5.40050495,96.1201081 C5.42064356,96.1067027 5.43854455,96.0888288 5.45980198,96.0743063 C5.71712871,95.9112072 6.04046535,95.7157117 6.26422772,95.5615495 C7.32486139,94.830955 8.07222772,94.078018 9.01426733,93.304973 C11.0471485,91.6963243 12.7298416,90.3569009 14.404703,89.4352793 C15.1095545,89.099027 15.9039109,89.3157477 16.295495,89.385009 L17.6593267,88.592973 C21.8022871,97.5801802 29.2602871,103.229441 38.211901,105.09391 L37.7666139,106.757297 C38.027297,107.233189 38.3271386,107.896757 38.2230891,108.50782 C37.7587822,110.409153 36.8637327,112.574126 35.8400198,114.999387 C35.3410297,116.12991 34.8095941,117.06382 34.3788515,118.301586 C34.2759208,118.598739 34.1506139,119.04 34.0532772,119.349441 C33.4032475,121.482018 34.197604,123.331964 35.8400198,123.497297 C37.4947426,123.663748 39.3788218,122.060685 40.0601782,119.912468 C40.061297,119.909117 40.0646535,119.905766 40.0657723,119.902414 C40.0668911,119.90018 40.0646535,119.897946 40.0657723,119.895712 C40.1619901,119.590739 40.3018416,119.185225 40.3812772,118.902595 C40.733703,117.657009 40.7985941,116.681766 41.019,115.523315 C41.6578416,113.003099 41.9073366,110.524216 42.9332871,108.637405 C43.2141089,108.121297 43.7175743,107.767171 44.2400594,107.407459 L44.8352673,105.772 C52.4901782,105.803279 60.8275644,103.340036 68.9031485,98.1543784 C70.7458317,96.9702342 72.510198,95.6833153 74.2040792,94.3036757 C74.4412673,94.5963604 74.8843168,95.1638559 75.0017921,95.3034955 C75.5634356,95.2733333 76.1675941,95.1336937 76.7214059,95.6855495 C77.7305743,96.8775135 78.4924851,98.4582342 79.4177426,100.365153 C79.831703,101.274486 80.0733663,102.129081 80.622703,103.021658 C80.7480099,103.224973 80.9505149,103.500901 81.0959604,103.710919 C82.1118416,105.197802 84.1581485,105.258126 85.6674257,103.84609 C87.1655149,102.445225 87.5727624,100.122739 86.5859703,98.6336216 C86.4405248,98.4213694 86.2380198,98.1074595 86.0892178,97.9108468 C85.4671584,97.0864144 84.8059406,96.6283964 84.1391287,95.9558919 C82.7529208,94.4790631 81.6027822,93.2513514 80.8319208,91.8370811 C80.4940396,91.083027 80.7468911,90.4328649 80.8956931,89.7983423 C80.7625545,89.7022703 80.4291485,88.9962523 80.2423069,88.6767568 C88.5438911,79.8358919 94.2386436,68.696 96.365505,57.5784505 C96.7839406,57.4834955 97.5111683,57.3338018 97.7483564,57.2902342 C98.197,56.7752432 98.5975347,56.1764685 99.4657327,55.9072432 C101.188703,55.4939099 102.992228,55.4615135 105.170554,55.4145946 C106.185317,55.4179459 107.015475,55.5587027 108.13205,55.4324685 C108.368119,55.4056577 108.702644,55.3352793 108.971158,55.2917117 C108.993535,55.2894775 109.012554,55.2928288 109.034931,55.2894775 C109.049475,55.2872432 109.068495,55.2794234 109.08304,55.2771892 C111.008515,54.9554595 112.741554,53.166955 112.965317,51.2555676 C113.189079,49.3452973 111.819653,48.0338018 109.900891,48.303027 C109.622307,48.3465946 109.225129,48.389045 108.955495,48.4415495 C107.827733,48.6593874 106.931564,49.0671351 105.878762,49.3888649 C103.632188,50.0211532 101.771604,50.5495495 100.085554,50.6601441 C99.3930099,50.6545586 98.8414356,50.0189189 98.5796337,49.7709189 L97.2583168,49.8893333 C97.4608218,44.6388829 96.799604,39.5169009 95.163901,34.7747387 C93.5136535,29.9878919 91.0119901,26.0009009 87.8770792,22.853982 C88.1780396,22.4138378 88.7475149,21.5983423 88.907505,21.3615135 C88.9052673,20.7504505 88.8023366,20.1483243 89.3326535,19.2613333 C90.471604,17.5532613 91.9551485,15.9245045 93.7452475,13.9594955 C94.5977822,13.0546306 95.3988515,12.370955 96.2413168,11.321982 C96.4315149,11.084036 96.6888416,10.7265586 96.8868713,10.4629189 C98.2965743,8.6018018 98.446495,6.29048649 97.2180396,5.2996036 C95.990703,4.3076036 93.8548911,5.00915315 92.4451881,6.86915315 C92.2449208,7.13279279 91.9719307,7.48133333 91.7929208,7.73156757 C91.0086337,8.82857658 90.5510396,9.78706306 89.9054851,10.8583784 C88.4901881,13.1261261 87.3210297,15.0118198 85.9896436,16.5646126 C85.4067426,17.179027 84.4915545,17.4046847 84.0787129,17.540973 L82.9509505,18.9105586 C75.3553366,14.1337658 65.5153861,13.038991 55.3129406,16.0876036 C55.2435743,15.6597477 55.1328119,14.8811171 55.1014851,14.6454054 C54.6494851,14.3985225 54.1169307,14.2443604 53.9088317,13.4076396 C53.6056337,11.6917477 53.6593366,9.69545946 53.7141584,7.29142342 C53.7622673,6.15978378 53.924495,5.17001802 53.8584851,3.98810811 C53.8428218,3.72 53.7924752,3.3412973 53.764505,3.05531532 C53.5765446,1.03445045 52.0001386,-0.0446846847 50.2424851,0.646810811 Z M48.631396,27.7592432 L49.291495,45.4085766 L49.226604,45.470018 C49.3071584,47.0406847 48.1928218,48.7576937 46.6835446,49.3508829 C46.0659604,49.5944144 45.4763465,49.6134054 44.9795941,49.4447207 L44.9538614,49.4692973 L30.3365842,44.8086847 C34.1450198,38.8734414 39.2311386,33.5939459 45.295099,29.6985586 C46.4027228,28.986955 47.5170594,28.3446126 48.631396,27.7592432 Z M56.6062871,24.6234955 C63.9300297,22.6987027 70.9393861,23.4594595 76.5524653,26.6432432 L63.8830396,41.968973 L63.8326931,41.9667387 C62.7105248,43.3530811 60.9897921,43.7954595 59.9358713,42.9442162 C59.5040099,42.5956757 59.2466832,42.0873874 59.1672475,41.5031351 L59.152703,41.5009009 L56.6062871,24.6234955 Z M25.9732178,53.2138739 L39.5432871,59.8696577 L39.5354554,59.9456216 C40.7583168,60.5164685 41.0872475,62.2122523 40.2604455,63.8041441 C39.9214455,64.4554234 39.437,64.9938739 38.8977327,65.3681081 L38.889901,65.4295495 L23.3171584,76.5135856 C21.785505,69.1171532 22.8450198,60.9253333 25.9732178,53.2138739 Z M82.1353366,31.1362883 C84.2812178,33.5224505 86.0097822,36.4481802 87.1968416,39.8911351 C88.3704752,43.2927568 88.9231683,46.9312072 88.9165158,50.6601441 L72.3714653,52.1905946 L72.3513267,52.1258018 C70.8722574,52.2855495 69.8451881,51.1159279 70.0398614,49.4603604 C70.119297,48.7833874 70.3900495,48.1298739 70.7872277,47.5690811 L70.7771584,47.5366847 L82.1353366,31.1362883 Z M52.6926832,55.6257297 L57.8112475,53.6126847 L61.3757822,56.4780901 L60.7100891,62.0647928 L56.327703,66.159027 L51.504505,65.6775495 L49.8855842,60.989009 L52.6926832,55.6257297 Z M70.4124257,63.2612252 C70.6283564,63.1651532 70.8476436,63.0992432 71.0624554,63.0567928 L71.0870693,63.010991 L87.9240693,59.396 C86.1541089,67.4012613 82.0816337,75.3339099 76.2615743,81.8601081 L68.3370297,68.3083604 L68.3549307,68.2726126 C67.6321782,67.084 68.0685149,65.1849009 69.3652178,63.9728288 C69.6963861,63.6622703 70.0510495,63.4232072 70.4124257,63.2612252 Z M42.5931683,74.2737658 C43.8585446,73.7945225 45.0769307,74.257009 45.4953663,75.4735495 C45.6900396,76.0432793 45.6810891,76.6878559 45.5043168,77.3223784 L45.5580198,77.3670631 L40.6732871,95.7883243 C34.3564752,94.1763243 29.0689703,90.1223063 25.859099,83.8586306 L42.0158614,74.5150631 L42.0471881,74.5396396 C42.2273168,74.4323964 42.4119208,74.3419099 42.5931683,74.2737658 Z M57.1164653,75.7919279 C57.5550396,75.602018 58.010396,75.5193514 58.4545644,75.564036 C59.0374653,75.6232432 59.5084851,75.8902342 59.8273465,76.308036 L59.8888812,76.2845766 L69.3920693,88.2455495 C68.3750693,89.0230631 67.324505,89.7592432 66.2437327,90.4540901 C60.1864851,94.3438919 53.972604,96.3301261 48.1995347,96.5569009 L54.8721287,78.2641081 L54.8855545,78.2585225 C55.2838515,77.1302342 56.1509307,76.2097297 57.1164653,75.7919279 Z" id="Shape" stroke="#000000" stroke-width="0.25" fill-opacity="0" fill="#000000"></path>
            </g>
            <g id="path3059" opacity="0.7" transform="translate(88.000000, 25.000000)">
                <path d="M91.867263,3.13564897 C90.5212796,2.71824484 88.3793325,2.94343835 87.0847737,3.639491 C87.0646511,3.64972707 87.050118,3.66110048 87.0311133,3.67247389 C86.853363,3.76573585 86.6308956,3.87719526 86.4844472,3.96135849 C85.7689743,4.37193857 85.3855256,4.73702501 84.8097934,5.14191839 C83.5420649,5.99606143 82.492332,6.70576218 81.2514336,7.28239403 C80.7204186,7.48029136 79.9647003,7.57696534 79.3677276,7.62245897 L78.4174901,8.08421939 C76.8501573,7.68728741 75.1855648,7.33471172 73.4259486,7.03445371 C65.854233,5.74129706 57.5826953,5.56955858 49.6230592,6.33043967 C49.5123844,6.16211321 49.3346341,5.85958052 49.2843275,5.7674559 C48.7980295,5.66054585 48.24242,5.58661869 47.9584667,5.2533778 C47.5034707,4.57438526 47.3883242,3.79530671 47.2441117,2.8558631 C47.1993947,2.41343747 47.2821212,2.03129092 47.1155502,1.56725581 C47.0775407,1.46148311 47.0004038,1.31021676 46.9478612,1.19762001 C46.7902336,0.849593681 46.3710112,0.564121106 45.8053404,0.374185169 C45.0786882,0.129656867 44.1038564,0.0432189557 43.1189632,0.171738482 C41.3682904,0.401481351 40.2436564,1.23287758 40.6058646,2.02787889 C40.6092184,2.03584028 40.614808,2.04380167 40.6192797,2.05176305 C40.6673506,2.16208513 40.7187752,2.30084072 40.7724356,2.3975147 C41.0228512,2.85017639 41.4297764,3.16863186 41.7685081,3.57238789 C42.4459715,4.44245371 43.0082885,5.1646652 43.1871567,5.88005265 C43.2151049,6.181448 42.6717926,6.52833699 42.4582687,6.68529004 L42.6349011,7.25168583 C33.002847,8.88263273 24.3344455,11.8977236 18.6173697,15.9341466 L17.3395798,15.7567214 C16.7694373,15.8340606 15.9153415,15.9705415 15.376501,15.9239105 C13.78122,15.7191891 12.2440712,15.348416 10.3860774,14.9037157 C9.52862787,14.6876209 8.87240506,14.454466 7.88527602,14.2668047 C7.66839829,14.2258605 7.34978926,14.1758175 7.10384545,14.1348732 C7.09490204,14.1337358 7.08707655,14.1325985 7.07813314,14.1314612 C7.06471802,14.1291865 7.04571327,14.1269118 7.03341608,14.1246371 C5.29615842,13.8414392 3.22911245,14.1689934 2.39961104,14.8661834 C1.57010964,15.5633734 2.28670047,16.3663361 4.00159961,16.6688688 C4.0138968,16.6711435 4.02954777,16.6756928 4.04296289,16.6779675 C4.06196764,16.6813796 4.08320824,16.6813796 4.10333092,16.6847916 C4.34256717,16.7268732 4.63769975,16.7826029 4.85457748,16.8144484 C5.88195186,16.9691268 6.76958545,17.0043844 7.76789375,17.1021957 C9.88189262,17.3330759 11.6359192,17.5218745 13.0992849,17.8380553 C13.6794887,17.987047 13.9254325,18.3396226 14.0718809,18.5022624 L15.2915386,18.7467907 C11.1708618,23.027742 10.9864039,27.464509 14.1434282,31.260953 L12.7806758,31.6180781 C12.5828029,31.8591944 12.2753731,32.1731005 11.8036081,32.3255042 C10.2675772,32.7497323 8.33580037,33.1011707 6.16366932,33.4867293 C5.13853079,33.6584677 4.23301038,33.7574164 3.16874443,33.9871593 C2.91497513,34.0417516 2.54829526,34.1338763 2.2878184,34.1952927 C0.501371971,34.6240702 -0.376200274,35.4839 0.324739596,36.1264976 C1.03015117,36.7725072 3.06589519,36.9522071 4.87917186,36.5291163 C4.88140771,36.5291163 4.88699734,36.5291163 4.8892332,36.5291163 C4.89146905,36.5279789 4.89146905,36.5268416 4.8937049,36.5268416 C5.15082798,36.4665625 5.49962103,36.3903607 5.73214972,36.331219 C6.76287789,36.0707679 7.46493568,35.790982 8.37045609,35.5111961 C10.4184973,34.9573111 12.2451891,34.2771812 14.0495223,34.0588118 C14.5436458,33.99967 15.0366514,34.0701852 15.543072,34.146387 L16.9606028,33.852953 C20.7358403,36.6144168 26.560237,38.8470171 34.127481,40.1378991 C35.8535594,40.4324704 37.6131756,40.6667626 39.399622,40.8475998 C39.3168954,41.0238877 39.1469706,41.3594032 39.1089611,41.4447038 C39.4085654,41.6380518 39.8031934,41.8109276 39.6992263,42.1817007 C39.3806172,42.9152857 38.6718519,43.6795788 37.819992,44.6053743 C37.4007695,45.0364265 36.9334763,45.3890022 36.5936267,45.8632734 C36.5153718,45.9713208 36.4270556,46.1305485 36.3543904,46.2476946 C35.8356725,47.0756788 36.8093865,47.8297358 38.5276394,47.9332339 C40.2324772,48.0367319 42.0289849,47.4612374 42.5633538,46.6434892 C42.6371369,46.5252058 42.7522833,46.355742 42.8137693,46.2408706 C43.0720103,45.7609127 43.0585952,45.3810408 43.1893926,44.9329285 C43.5180629,43.9752874 43.790837,43.1802861 44.3811021,42.4637613 C44.7310131,42.1077736 45.3033915,41.9963142 45.8131659,41.8530092 C45.812048,41.77567 46.1328929,41.4367424 46.2592185,41.2695533 C56.4491179,41.5072576 66.9252065,40.0935428 75.6182024,37.4037315 C75.8909764,37.5254269 76.3549159,37.7403844 76.5013642,37.8120369 C77.0770964,37.8131742 77.6874842,37.7710926 78.3034616,37.9996981 C79.4415107,38.4898921 80.3582104,39.1290777 81.4694293,39.8967828 C81.9702603,40.2630066 82.2855156,40.6053462 82.9260874,40.9670206 C83.0613565,41.0432225 83.2748805,41.1421711 83.4380977,41.225197 C83.4515128,41.2320211 83.4582204,41.2399824 83.4716355,41.2468065 C83.4805789,41.2513559 83.495112,41.2559052 83.5040554,41.2604546 C84.6789961,41.8530092 86.7672826,41.9201123 88.1915209,41.4071716 C89.6146412,40.8942308 89.8371086,39.9945941 88.7012953,39.3883914 C88.5336064,39.3008161 88.3066673,39.1722966 88.1367425,39.0915454 C87.4279771,38.7537552 86.7035608,38.5581325 85.9612577,38.279484 C84.4129296,37.6687319 83.1273142,37.1637525 82.2150862,36.59167 C81.8763545,36.341455 82.0395718,35.9456604 82.0798171,35.7739219 L81.3431036,35.3360456 C85.0512656,33.7778885 88.2429455,31.947907 90.6900865,29.8870452 C93.1595859,27.8068486 94.6587253,25.6686477 95.2668772,23.5634296 C95.7185195,23.5349961 96.5603181,23.4860904 96.8029082,23.471305 C97.2221306,23.2790943 97.5854567,23.0561755 98.4574393,22.9708749 C100.194697,22.8491795 102.049337,22.8764756 104.287426,22.9094585 C105.331569,22.93448 106.197962,23.0106819 107.336011,22.9879351 C107.594252,22.9822484 107.967639,22.9640509 108.247121,22.9526775 C110.223615,22.881025 111.885972,22.2168179 111.958637,21.4673102 C112.031302,20.7178025 110.490799,20.1684669 108.513187,20.2401194 C108.232588,20.2492181 107.858083,20.2594541 107.597606,20.2731022 C106.456203,20.332244 105.569687,20.4653129 104.513247,20.5665362 C102.253917,20.7621588 100.379155,20.9270733 98.6519585,20.9304853 C97.9409573,20.9122878 97.3316874,20.6541115 97.033201,20.5483387 L95.5340617,20.5676735 C95.0499995,16.3538254 90.9237331,12.4754928 83.7723577,9.75497323 C84.0317167,9.59688284 84.512425,9.31595963 84.6577555,9.23065906 C84.604095,8.99181746 84.4453494,8.75297587 84.9171144,8.41746029 C85.9456067,7.776 87.3441327,7.17434664 89.0221402,6.44758578 C89.8236935,6.11320755 90.5838834,5.86412988 91.3630782,5.4728846 C91.5408285,5.38417201 91.775593,5.24769109 91.957815,5.14987977 C93.2534917,4.45382712 93.2132464,3.55191575 91.867263,3.13564897 Z M72.4410555,10.9798894 L60.64246,16.7007143 L60.5675589,16.696165 C59.5290052,17.2125178 57.7962193,17.3455867 56.6402833,16.9884616 C56.1674005,16.8417446 55.8622066,16.6347486 55.7314092,16.4050057 L55.7023431,16.402731 L51.6576853,9.70038087 C57.6229407,9.22497236 63.771536,9.41263361 69.453956,10.3827854 C70.4925097,10.5602106 71.4863463,10.7603826 72.4410555,10.9798894 Z M78.5482875,12.8724247 C83.5018195,14.9071277 86.4542632,17.6629048 87.050118,20.6700342 L70.2387404,20.8770303 L70.2163819,20.8588328 C68.7071812,20.886129 67.5501273,20.4050338 67.6116133,19.7612988 C67.6373256,19.4974357 67.859793,19.2472207 68.2220011,19.0368126 L68.2152936,19.0311259 L78.5482875,12.8724247 Z M43.7204076,10.7421852 L45.8746519,17.6890636 L45.8187555,17.7095358 C46.0322795,18.3271119 45.0306174,18.9719842 43.5270064,19.1687442 C42.9110289,19.2494954 42.301759,19.2426713 41.7763336,19.1653322 L41.7304986,19.1812549 L26.3959018,17.0271312 C30.7178054,14.1780921 36.8708724,12.0148697 43.7204076,10.7421852 Z M86.7292731,24.0729583 C86.1546589,25.5856218 85.0020768,27.1164827 83.2245738,28.6132233 C81.4694293,30.0917666 79.2436378,31.4201808 76.6779966,32.5768565 L67.4249196,27.1051093 L67.4595753,27.0778131 C66.6166588,26.5944432 66.9106734,25.8619956 68.1437463,25.4184326 C68.649049,25.2364581 69.2326066,25.1306854 69.8139284,25.0988398 L69.8318152,25.0851918 L86.7292731,24.0729583 Z M55.308833,21.0976744 L59.2294009,22.3123545 L59.0281742,24.4835384 L54.8594265,25.9802791 L49.8734747,25.676609 L47.8142542,23.7931724 L50.2323291,21.7550575 L55.308833,21.0976744 Z M58.8470701,29.8392769 C59.0214666,29.8870452 59.1746226,29.9461869 59.3110096,30.009878 L59.3534908,30.0041913 L70.1850799,34.9334269 C63.8073097,36.785018 56.3384432,37.785878 48.9690722,37.7210496 L54.3518879,30.6615744 L54.3854257,30.657025 C54.8437756,30.0280755 56.3641555,29.5947486 57.8398184,29.6845985 C58.2176775,29.7073453 58.5575272,29.7608004 58.8470701,29.8392769 Z M37.4902037,23.2608969 C38.4471487,23.5668416 38.7333378,24.1480228 38.1039453,24.6768864 C37.8099306,24.9236893 37.36276,25.1204493 36.8384525,25.2546556 L36.8350988,25.2876384 L21.7576251,29.2546836 C19.7341782,26.4829838 19.8973955,23.3223133 22.609485,20.2230592 L37.0385614,23.127828 L37.0374435,23.1471628 C37.2006607,23.177871 37.3538166,23.2165406 37.4902037,23.2608969 Z M43.6477424,28.9532883 C43.9954175,29.0522369 44.2782529,29.1898552 44.4671825,29.3638684 C44.7153622,29.5913366 44.7656688,29.8438262 44.6371073,30.0883545 L44.6840602,30.10314 L41.177125,37.235405 C40.1385714,37.1114348 39.111197,36.9624432 38.0983556,36.7895674 C32.4226432,35.8205529 27.9777677,34.2043914 24.9604843,32.1992593 L40.8361574,28.9146187 L40.8462188,28.9180307 C41.8188148,28.7098973 42.8819628,28.7360562 43.6477424,28.9532883 Z" id="Shape" fill="#FFFFFF"></path>
                <path d="M91.867263,3.13564897 C90.5212796,2.71824484 88.3793325,2.94343835 87.0847737,3.639491 C87.0646511,3.64972707 87.050118,3.66110048 87.0311133,3.67247389 C86.853363,3.76573585 86.6308956,3.87719526 86.4844472,3.96135849 C85.7689743,4.37193857 85.3855256,4.73702501 84.8097934,5.14191839 C83.5420649,5.99606143 82.492332,6.70576218 81.2514336,7.28239403 C80.7204186,7.48029136 79.9647003,7.57696534 79.3677276,7.62245897 L78.4174901,8.08421939 C76.8501573,7.68728741 75.1855648,7.33471172 73.4259486,7.03445371 C65.854233,5.74129706 57.5826953,5.56955858 49.6230592,6.33043967 C49.5123844,6.16211321 49.3346341,5.85958052 49.2843275,5.7674559 C48.7980295,5.66054585 48.24242,5.58661869 47.9584667,5.2533778 C47.5034707,4.57438526 47.3883242,3.79530671 47.2441117,2.8558631 C47.1993947,2.41343747 47.2821212,2.03129092 47.1155502,1.56725581 C47.0775407,1.46148311 47.0004038,1.31021676 46.9478612,1.19762001 C46.7902336,0.849593681 46.3710112,0.564121106 45.8053404,0.374185169 C45.0786882,0.129656867 44.1038564,0.0432189557 43.1189632,0.171738482 C41.3682904,0.401481351 40.2436564,1.23287758 40.6058646,2.02787889 C40.6092184,2.03584028 40.614808,2.04380167 40.6192797,2.05176305 C40.6673506,2.16208513 40.7187752,2.30084072 40.7724356,2.3975147 C41.0228512,2.85017639 41.4297764,3.16863186 41.7685081,3.57238789 C42.4459715,4.44245371 43.0082885,5.1646652 43.1871567,5.88005265 C43.2151049,6.181448 42.6717926,6.52833699 42.4582687,6.68529004 L42.6349011,7.25168583 C33.002847,8.88263273 24.3344455,11.8977236 18.6173697,15.9341466 L17.3395798,15.7567214 C16.7694373,15.8340606 15.9153415,15.9705415 15.376501,15.9239105 C13.78122,15.7191891 12.2440712,15.348416 10.3860774,14.9037157 C9.52862787,14.6876209 8.87240506,14.454466 7.88527602,14.2668047 C7.66839829,14.2258605 7.34978926,14.1758175 7.10384545,14.1348732 C7.09490204,14.1337358 7.08707655,14.1325985 7.07813314,14.1314612 C7.06471802,14.1291865 7.04571327,14.1269118 7.03341608,14.1246371 C5.29615842,13.8414392 3.22911245,14.1689934 2.39961104,14.8661834 C1.57010964,15.5633734 2.28670047,16.3663361 4.00159961,16.6688688 C4.0138968,16.6711435 4.02954777,16.6756928 4.04296289,16.6779675 C4.06196764,16.6813796 4.08320824,16.6813796 4.10333092,16.6847916 C4.34256717,16.7268732 4.63769975,16.7826029 4.85457748,16.8144484 C5.88195186,16.9691268 6.76958545,17.0043844 7.76789375,17.1021957 C9.88189262,17.3330759 11.6359192,17.5218745 13.0992849,17.8380553 C13.6794887,17.987047 13.9254325,18.3396226 14.0718809,18.5022624 L15.2915386,18.7467907 C11.1708618,23.027742 10.9864039,27.464509 14.1434282,31.260953 L12.7806758,31.6180781 C12.5828029,31.8591944 12.2753731,32.1731005 11.8036081,32.3255042 C10.2675772,32.7497323 8.33580037,33.1011707 6.16366932,33.4867293 C5.13853079,33.6584677 4.23301038,33.7574164 3.16874443,33.9871593 C2.91497513,34.0417516 2.54829526,34.1338763 2.2878184,34.1952927 C0.501371971,34.6240702 -0.376200274,35.4839 0.324739596,36.1264976 C1.03015117,36.7725072 3.06589519,36.9522071 4.87917186,36.5291163 C4.88140771,36.5291163 4.88699734,36.5291163 4.8892332,36.5291163 C4.89146905,36.5279789 4.89146905,36.5268416 4.8937049,36.5268416 C5.15082798,36.4665625 5.49962103,36.3903607 5.73214972,36.331219 C6.76287789,36.0707679 7.46493568,35.790982 8.37045609,35.5111961 C10.4184973,34.9573111 12.2451891,34.2771812 14.0495223,34.0588118 C14.5436458,33.99967 15.0366514,34.0701852 15.543072,34.146387 L16.9606028,33.852953 C20.7358403,36.6144168 26.560237,38.8470171 34.127481,40.1378991 C35.8535594,40.4324704 37.6131756,40.6667626 39.399622,40.8475998 C39.3168954,41.0238877 39.1469706,41.3594032 39.1089611,41.4447038 C39.4085654,41.6380518 39.8031934,41.8109276 39.6992263,42.1817007 C39.3806172,42.9152857 38.6718519,43.6795788 37.819992,44.6053743 C37.4007695,45.0364265 36.9334763,45.3890022 36.5936267,45.8632734 C36.5153718,45.9713208 36.4270556,46.1305485 36.3543904,46.2476946 C35.8356725,47.0756788 36.8093865,47.8297358 38.5276394,47.9332339 C40.2324772,48.0367319 42.0289849,47.4612374 42.5633538,46.6434892 C42.6371369,46.5252058 42.7522833,46.355742 42.8137693,46.2408706 C43.0720103,45.7609127 43.0585952,45.3810408 43.1893926,44.9329285 C43.5180629,43.9752874 43.790837,43.1802861 44.3811021,42.4637613 C44.7310131,42.1077736 45.3033915,41.9963142 45.8131659,41.8530092 C45.812048,41.77567 46.1328929,41.4367424 46.2592185,41.2695533 C56.4491179,41.5072576 66.9252065,40.0935428 75.6182024,37.4037315 C75.8909764,37.5254269 76.3549159,37.7403844 76.5013642,37.8120369 C77.0770964,37.8131742 77.6874842,37.7710926 78.3034616,37.9996981 C79.4415107,38.4898921 80.3582104,39.1290777 81.4694293,39.8967828 C81.9702603,40.2630066 82.2855156,40.6053462 82.9260874,40.9670206 C83.0613565,41.0432225 83.2748805,41.1421711 83.4380977,41.225197 C83.4515128,41.2320211 83.4582204,41.2399824 83.4716355,41.2468065 C83.4805789,41.2513559 83.495112,41.2559052 83.5040554,41.2604546 C84.6789961,41.8530092 86.7672826,41.9201123 88.1915209,41.4071716 C89.6146412,40.8942308 89.8371086,39.9945941 88.7012953,39.3883914 C88.5336064,39.3008161 88.3066673,39.1722966 88.1367425,39.0915454 C87.4279771,38.7537552 86.7035608,38.5581325 85.9612577,38.279484 C84.4129296,37.6687319 83.1273142,37.1637525 82.2150862,36.59167 C81.8763545,36.341455 82.0395718,35.9456604 82.0798171,35.7739219 L81.3431036,35.3360456 C85.0512656,33.7778885 88.2429455,31.947907 90.6900865,29.8870452 C93.1595859,27.8068486 94.6587253,25.6686477 95.2668772,23.5634296 C95.7185195,23.5349961 96.5603181,23.4860904 96.8029082,23.471305 C97.2221306,23.2790943 97.5854567,23.0561755 98.4574393,22.9708749 C100.194697,22.8491795 102.049337,22.8764756 104.287426,22.9094585 C105.331569,22.93448 106.197962,23.0106819 107.336011,22.9879351 C107.594252,22.9822484 107.967639,22.9640509 108.247121,22.9526775 C110.223615,22.881025 111.885972,22.2168179 111.958637,21.4673102 C112.031302,20.7178025 110.490799,20.1684669 108.513187,20.2401194 C108.232588,20.2492181 107.858083,20.2594541 107.597606,20.2731022 C106.456203,20.332244 105.569687,20.4653129 104.513247,20.5665362 C102.253917,20.7621588 100.379155,20.9270733 98.6519585,20.9304853 C97.9409573,20.9122878 97.3316874,20.6541115 97.033201,20.5483387 L95.5340617,20.5676735 C95.0499995,16.3538254 90.9237331,12.4754928 83.7723577,9.75497323 C84.0317167,9.59688284 84.512425,9.31595963 84.6577555,9.23065906 C84.604095,8.99181746 84.4453494,8.75297587 84.9171144,8.41746029 C85.9456067,7.776 87.3441327,7.17434664 89.0221402,6.44758578 C89.8236935,6.11320755 90.5838834,5.86412988 91.3630782,5.4728846 C91.5408285,5.38417201 91.775593,5.24769109 91.957815,5.14987977 C93.2534917,4.45382712 93.2132464,3.55191575 91.867263,3.13564897 Z M72.4410555,10.9798894 L60.64246,16.7007143 L60.5675589,16.696165 C59.5290052,17.2125178 57.7962193,17.3455867 56.6402833,16.9884616 C56.1674005,16.8417446 55.8622066,16.6347486 55.7314092,16.4050057 L55.7023431,16.402731 L51.6576853,9.70038087 C57.6229407,9.22497236 63.771536,9.41263361 69.453956,10.3827854 C70.4925097,10.5602106 71.4863463,10.7603826 72.4410555,10.9798894 Z M78.5482875,12.8724247 C83.5018195,14.9071277 86.4542632,17.6629048 87.050118,20.6700342 L70.2387404,20.8770303 L70.2163819,20.8588328 C68.7071812,20.886129 67.5501273,20.4050338 67.6116133,19.7612988 C67.6373256,19.4974357 67.859793,19.2472207 68.2220011,19.0368126 L68.2152936,19.0311259 L78.5482875,12.8724247 Z M43.7204076,10.7421852 L45.8746519,17.6890636 L45.8187555,17.7095358 C46.0322795,18.3271119 45.0306174,18.9719842 43.5270064,19.1687442 C42.9110289,19.2494954 42.301759,19.2426713 41.7763336,19.1653322 L41.7304986,19.1812549 L26.3959018,17.0271312 C30.7178054,14.1780921 36.8708724,12.0148697 43.7204076,10.7421852 Z M86.7292731,24.0729583 C86.1546589,25.5856218 85.0020768,27.1164827 83.2245738,28.6132233 C81.4694293,30.0917666 79.2436378,31.4201808 76.6779966,32.5768565 L67.4249196,27.1051093 L67.4595753,27.0778131 C66.6166588,26.5944432 66.9106734,25.8619956 68.1437463,25.4184326 C68.649049,25.2364581 69.2326066,25.1306854 69.8139284,25.0988398 L69.8318152,25.0851918 L86.7292731,24.0729583 Z M55.308833,21.0976744 L59.2294009,22.3123545 L59.0281742,24.4835384 L54.8594265,25.9802791 L49.8734747,25.676609 L47.8142542,23.7931724 L50.2323291,21.7550575 L55.308833,21.0976744 Z M58.8470701,29.8392769 C59.0214666,29.8870452 59.1746226,29.9461869 59.3110096,30.009878 L59.3534908,30.0041913 L70.1850799,34.9334269 C63.8073097,36.785018 56.3384432,37.785878 48.9690722,37.7210496 L54.3518879,30.6615744 L54.3854257,30.657025 C54.8437756,30.0280755 56.3641555,29.5947486 57.8398184,29.6845985 C58.2176775,29.7073453 58.5575272,29.7608004 58.8470701,29.8392769 Z M37.4902037,23.2608969 C38.4471487,23.5668416 38.7333378,24.1480228 38.1039453,24.6768864 C37.8099306,24.9236893 37.36276,25.1204493 36.8384525,25.2546556 L36.8350988,25.2876384 L21.7576251,29.2546836 C19.7341782,26.4829838 19.8973955,23.3223133 22.609485,20.2230592 L37.0385614,23.127828 L37.0374435,23.1471628 C37.2006607,23.177871 37.3538166,23.2165406 37.4902037,23.2608969 Z M43.6477424,28.9532883 C43.9954175,29.0522369 44.2782529,29.1898552 44.4671825,29.3638684 C44.7153622,29.5913366 44.7656688,29.8438262 44.6371073,30.0883545 L44.6840602,30.10314 L41.177125,37.235405 C40.1385714,37.1114348 39.111197,36.9624432 38.0983556,36.7895674 C32.4226432,35.8205529 27.9777677,34.2043914 24.9604843,32.1992593 L40.8361574,28.9146187 L40.8462188,28.9180307 C41.8188148,28.7098973 42.8819628,28.7360562 43.6477424,28.9532883 Z" id="Shape" stroke="#000000" stroke-width="0.25" fill-opacity="0" fill="#000000"></path>
            </g>
        </g>
        <text id="cdk8s" fill="#000000" font-family="OpenSans-SemiBold, Open Sans" font-size="240" font-weight="500" letter-spacing="3.75">
            <tspan x="352.917969" y="256">cdk8s</tspan>
        </text>
    </g>
</svg>