<svg id="d56456de-e922-4d6e-a1ca-baf7b141c53c" data-name="Main" xmlns="http://www.w3.org/2000/svg" viewBox="0 0 1000 300"><title>cdk8s.horizontal.black</title><path d="M461.15,228.2q-17.63,6.66-40.85,6.67-37,0-56.22-19.56t-19.24-57.19q0-37,20.1-57.41t56-20.42A117.09,117.09,0,0,1,459,86.52v31.39Q440.94,114,428,114q-19.78,0-29.89,10.43t-10.1,30.85v4.73q0,20,9.78,30.53t28.92,10.54q14.62,0,34.4-4.3Z"/><path d="M477.7,232.08v-149H536q34.4,0,53.32,19.35t18.92,55q0,23.44-8.38,40.31a58,58,0,0,1-24,25.58q-15.59,8.71-37.3,8.71ZM519.2,114.9v85.35h14.19q32.46,0,32.46-40.85v-3.87q0-40.63-32-40.63Z"/><path d="M630.35,232.08v-149h41.5v61.49L720,83.08h46.22l-56.12,68.58,61.06,80.41H723l-51.17-70.52v70.52Z"/><path d="M875.85,117a39.62,39.62,0,0,1-7,23q-7,10.23-20,16.83,17.38,7.48,25.3,16.39A30.89,30.89,0,0,1,882,194.48q0,18.48-14.52,29.81t-38.06,11.33q-23.32,0-37.07-11.11T778.61,194.7q0-27.5,31.68-42.24-25.74-11.66-25.74-35,0-18.26,12.65-29.48t33.11-11.22a53.14,53.14,0,0,1,23.43,5,39.26,39.26,0,0,1,16.17,14.08A38.06,38.06,0,0,1,875.85,117Zm-55.22,39.82q-29.26,14.52-29.26,36.3,0,14.74,10.23,22.88t28.71,8.14q18.26,0,28.6-7.92t10.34-22a22,22,0,0,0-6.82-16.5q-6.82-6.6-25.08-14.08Zm-23.54-40a24.55,24.55,0,0,0,6.6,17.27q6.6,7.15,20.9,12.87l14.3,5.72q24.42-13.64,24.42-34.76,0-14.08-8.69-22.11t-24.31-8q-15.62,0-24.42,7.7T797.09,116.82Z"/><path d="M962.75,203.28a13.61,13.61,0,0,0-4.29-10.12q-4.29-4.18-14.41-7.92l-20-7.48q-23.54-8.8-23.54-28.82,0-13.64,10.23-22.11t26.73-8.47a78.08,78.08,0,0,1,16.06,1.76,79.18,79.18,0,0,1,15.4,4.84V135.3q-17.82-5.72-32.12-5.72-11.88,0-18,4.73t-6.16,14q0,7.48,4.29,11.55t16.83,8.91l17.6,6.6q12.32,4.62,17.93,11.33t5.61,16.61q0,15-10.89,23.65t-29.59,8.69q-20,0-35.86-7.92V217.36q19.58,7,36.74,7,13.42,0,20.46-5.39T962.75,203.28Z"/><polygon points="159.43 293.09 159.43 97.05 25.15 55.4 25.15 251.44 159.43 293.09"/><polygon points="172.3 293.09 306.58 251.44 306.58 55.4 172.3 97.05 172.3 293.09"/><polygon points="295.96 46.89 165.74 6.55 35.51 46.89 165.74 87.22 295.96 46.89"/><path id="e617f34a-2a92-469f-8589-55c63137b254" data-name="path3059" d="M92.94,109c-1.8-.55-3.26.78-3.26,3,0,0,0,.07,0,.1,0,.3,0,.65,0,.92,0,1.28.29,2.33.45,3.54a38.42,38.42,0,0,1,.36,6.6,2.66,2.66,0,0,1-1.06,1.53l-.08,1.49a38.49,38.49,0,0,0-5.9-.81,29.47,29.47,0,0,0-21.33,6.84c-.36-.38-1-1.07-1.18-1.28a2.89,2.89,0,0,1-1.94-.8,49.77,49.77,0,0,1-4.4-5.7c-.74-1.08-1.27-2.06-2.15-3.16-.2-.25-.5-.6-.73-.86a5.36,5.36,0,0,0-2.27-1.64,2.37,2.37,0,0,0-2.6.47c-1.12,1.2-.76,3.67.8,5.52l0,.05c.22.26.48.58.68.8.93,1,1.78,1.68,2.71,2.56a48.25,48.25,0,0,1,4.85,5.22,5.41,5.41,0,0,1,.66,2.27l1,1.34C52,144.5,49.45,155.12,51,167.22l-1.37,0c-.36.4-.87,1-1.4,1.12a27.29,27.29,0,0,1-5.85-.73,26.46,26.46,0,0,0-3.13-.68c-.25,0-.6,0-.87,0h-.08a2.71,2.71,0,0,0-2.76,3.51,5,5,0,0,0,4.21,3.9h.11c.27,0,.61,0,.84.05a20.66,20.66,0,0,0,2.93-.34,24.65,24.65,0,0,1,5.69-.1,5,5,0,0,1,1.88,1.3l1.42.17a69.2,69.2,0,0,0,18.82,31.52l-.59,1.38a4.35,4.35,0,0,1,.29,2.11,24.55,24.55,0,0,1-3,4.92,19.83,19.83,0,0,0-1.75,2.32c-.13.23-.29.59-.42.84A4.82,4.82,0,0,0,67.39,224c1.62,1.35,3.63,1.06,4.51-.64h0c.12-.24.3-.56.4-.79a24.86,24.86,0,0,0,.94-3c.86-2.11,1.34-4.46,2.53-5.66a1.91,1.91,0,0,1,1.41-.32l.74-1.24c7.57,5.5,16.05,9,24.52,9.43a34,34,0,0,0,5.6-.14l.7,1.59a3.91,3.91,0,0,1,1.67,1.62,47.06,47.06,0,0,1,2.24,6.7c.33,1.22.49,2.27.95,3.57.11.3.28.72.4,1,.87,2.24,2.89,3.77,4.51,3.41s2.23-2.44,1.39-4.66c-.12-.32-.3-.79-.43-1.09-.54-1.29-1.15-2.23-1.75-3.39a49.07,49.07,0,0,1-2.89-6.57,2.71,2.71,0,0,1,.25-2c-.12-.19-.39-1.15-.54-1.61,9-3.08,15.69-10.38,18.82-20.2l1.39.69a2,2,0,0,1,1.83-.18,40.37,40.37,0,0,1,5.69,3.58c1,.73,1.81,1.47,2.93,2.13.24.14.57.31.84.46l.06,0,0,0c1.94,1,3.82.46,4.21-1.33s-.84-4.11-2.76-5.2c-.28-.16-.68-.4-.95-.53a30.61,30.61,0,0,0-3.13-1.23,36.76,36.76,0,0,1-5.85-2.84,6,6,0,0,1-1.41-2l-1.32-.82a52.41,52.41,0,0,0-.68-16.92,65.63,65.63,0,0,0-6.12-17.37l1.16-.79a2.35,2.35,0,0,1,.61-1.84,20.44,20.44,0,0,1,4.85-2.26,18.81,18.81,0,0,0,2.71-.91c.21-.11.5-.29.72-.42,1.57-.89,1.93-3.14.8-5s-3.3-2.7-4.87-1.81c-.22.13-.53.29-.73.41a18.38,18.38,0,0,0-2.16,1.84,20.32,20.32,0,0,1-4.4,3,3.46,3.46,0,0,1-2-.37l-1.24.59c-7.08-10.3-16.72-18.45-27.1-22.64,0-.49-.07-1.36-.08-1.62a4.16,4.16,0,0,1-1.07-2.12,34.86,34.86,0,0,1,.37-6.38,28.85,28.85,0,0,0,.45-3.27c0-.28,0-.71,0-1a5.34,5.34,0,0,0-3.26-5Zm-4.09,26.51-1,18.48-.07,0a2.14,2.14,0,0,1-2.87,2.14A3.84,3.84,0,0,1,83.25,155h0l-14-15.2a23.77,23.77,0,0,1,16.2-4.72A30.65,30.65,0,0,1,88.85,135.49ZM97,138a49.42,49.42,0,0,1,19.56,16.32l-13.95,6.58,0,0c-1.24.61-3-.17-3.95-1.79a4.31,4.31,0,0,1-.63-2h0Zm-32.95,7.27,12.82,16.49v.07c1.16,1.46,1.33,3.42.36,4.45a2,2,0,0,1-1.49.62V167l-16.43.18c-.84-8.64,1-16.24,4.77-21.87Zm57.62,17.62a52.48,52.48,0,0,1,4.21,12.55,42.94,42.94,0,0,1,.71,12.22l-16.52-10.26v-.08a4.38,4.38,0,0,1-2-4.37,2.17,2.17,0,0,1,.91-1.4v0l12.75-8.61Zm-31.39,3.94,5.25,1.61,3.26,5.47-1.17,5.22-4.71,1-4.73-3.94L87,170.28Zm16.84,20.46a3.19,3.19,0,0,1,.66.26l0,0,17,8.35c-2.49,6.9-7.25,12.08-13.61,14.58l-6.6-19.49,0,0c-.61-1.73,0-3.35,1.39-3.66a2.38,2.38,0,0,1,1.1,0ZM78.6,178.62a4.43,4.43,0,0,1,2.76,3.3,3.15,3.15,0,0,1-.16,1.89l0,.08-6.53,15.3a55.21,55.21,0,0,1-13.57-22.76l16.85,2,0,0a2.81,2.81,0,0,1,.56.12Zm14.24,11.93a3.55,3.55,0,0,1,1.35.73A4.64,4.64,0,0,1,95.47,193l.06,0,8.31,19a28.06,28.06,0,0,1-3.32,0,36.85,36.85,0,0,1-18.42-6.67l8.29-13.89h0A2.06,2.06,0,0,1,92.84,190.55Z" fill="#fff"/><path id="91c1091d-2bdf-4c68-93f9-c7fc60260e2d" data-name="path3059" d="M240.83,108.4a5.65,5.65,0,0,0-3.26,5.12s0,.06,0,.1c0,.3,0,.66,0,.92a28.33,28.33,0,0,0,.45,3.25,34.57,34.57,0,0,1,.36,6.36,6.07,6.07,0,0,1-1.06,2.22l-.08,1.54a53.53,53.53,0,0,0-5.9,3.07A67.92,67.92,0,0,0,210,151.83c-.36-.14-1-.42-1.18-.5a2.56,2.56,0,0,1-1.94.47,19,19,0,0,1-4.4-2.81,17.13,17.13,0,0,0-2.15-1.75c-.2-.12-.5-.26-.73-.38a3,3,0,0,0-2.27-.14,4.74,4.74,0,0,0-2.6,2.18c-1.12,1.94-.76,4.18.8,5l0,0c.22.12.48.27.68.36a18,18,0,0,0,2.71.79,19.43,19.43,0,0,1,4.85,2c.5.41.59,1.41.66,1.83l1,.66c-5.6,11.21-8.19,23.53-6.66,34.62l-1.37.92a7.9,7.9,0,0,1-1.4,2,38.85,38.85,0,0,1-5.85,3.11,32.13,32.13,0,0,0-3.13,1.38c-.25.14-.6.36-.87.53l0,0,0,0c-1.92,1.19-3.16,3.56-2.76,5.33s2.28,2.27,4.21,1.14l0,0,.06,0c.27-.16.61-.35.84-.5,1.12-.72,1.93-1.49,2.93-2.26A43,43,0,0,1,197.2,202a2.77,2.77,0,0,1,1.88.07l1.42-.77c3.27,10,10.14,16.56,18.82,19.16l-.59,1.77a3.32,3.32,0,0,1,.29,1.92,53.92,53.92,0,0,1-3,6.86c-.6,1.19-1.21,2.16-1.75,3.47-.13.31-.29.78-.42,1.11-.84,2.26-.22,4.31,1.39,4.6s3.63-1.32,4.51-3.6h0c.12-.32.3-.75.4-1.05.46-1.32.62-2.37.94-3.61.86-2.68,1.34-5.34,2.53-7.32a4.14,4.14,0,0,1,1.41-1.25l.74-1.73c7.57.53,16.05-1.6,24.52-6.68a60.09,60.09,0,0,0,5.6-3.82l.7,1.13c.56,0,1.17-.11,1.67.52a24.54,24.54,0,0,1,2.24,5.23,23.91,23.91,0,0,0,.95,2.95c.11.23.28.54.4.78.87,1.67,2.89,1.87,4.51.44a5,5,0,0,0,1.39-5.57c-.12-.24-.3-.59-.43-.81a18.47,18.47,0,0,0-1.75-2.24,22.08,22.08,0,0,1-2.89-4.66,3.44,3.44,0,0,1,.25-2.2,9,9,0,0,1-.54-1.25,73.32,73.32,0,0,0,18.82-32.56l1.39-.22a3.8,3.8,0,0,1,1.83-1.38,24.68,24.68,0,0,1,5.69-.16,20.37,20.37,0,0,0,2.93.21c.24,0,.57-.07.84-.1h.11a5.27,5.27,0,0,0,4.21-4.1c.4-2-.84-3.56-2.76-3.39-.28,0-.68,0-.95.09a27.29,27.29,0,0,0-3.13.82,27.83,27.83,0,0,1-5.85,1c-.68-.05-1.17-.77-1.41-1.06l-1.32,0a48.44,48.44,0,0,0-.68-16.47A33.47,33.47,0,0,0,276,134.82l1.16-1.55a3.91,3.91,0,0,1,.61-2.24,51.65,51.65,0,0,1,4.85-5.44c.93-.92,1.78-1.61,2.71-2.69.21-.24.5-.61.72-.89,1.57-1.92,1.93-4.41.8-5.56s-3.3-.53-4.87,1.39c-.22.27-.53.63-.73.89-.88,1.13-1.42,2.14-2.16,3.26a53.31,53.31,0,0,1-4.4,5.91,4.34,4.34,0,0,1-2,.93l-1.24,1.41c-7.08-5.65-16.72-7.47-27.1-4.83,0-.47-.07-1.32-.08-1.57a1.8,1.8,0,0,1-1.07-1.41,38.81,38.81,0,0,1,.37-6.62c.15-1.22.4-2.28.45-3.56,0-.29,0-.7,0-1,0-2.2-1.46-3.46-3.26-2.83Zm-4.09,29.19-1,19.11-.07.06a4.7,4.7,0,0,1-2.87,4,2.26,2.26,0,0,1-1.69,0l0,0-14-6a53.94,53.94,0,0,1,16.2-15.36C234.43,138.78,235.59,138.15,236.75,137.59Zm8.18-2.87c7.43-1.61,14.29-.33,19.56,3.47l-13.95,15.74h0c-1.24,1.43-3,1.79-3.95.81a2.39,2.39,0,0,1-.63-1.61h0ZM212,163.64l12.82,8.07v.08c1.16.7,1.33,2.55.36,4.22a4.77,4.77,0,0,1-1.49,1.6v.07l-16.43,11c-.84-8.09,1-16.87,4.77-25ZM269.6,143.4a27.46,27.46,0,0,1,4.21,9.79,38.29,38.29,0,0,1,.71,11.75l-16.52.59v-.07c-1.48.08-2.39-1.25-2-3a4.82,4.82,0,0,1,.91-2v0l12.75-17ZM238.21,168l5.25-1.85,3.26,3.33-1.17,6-4.71,4.14-4.73-.83-1.17-5.17ZM255,177.36a2.88,2.88,0,0,1,.66-.18l0,0,17-2.82a58.27,58.27,0,0,1-13.61,23.52l-6.6-15.15,0,0a4.28,4.28,0,0,1,1.39-4.58,3.93,3.93,0,0,1,1.1-.7ZM226.5,187.47a2,2,0,0,1,2.76,1.48,3.7,3.7,0,0,1-.16,2l0,.05-6.53,19.59c-6.1-2.15-11-6.87-13.57-13.85l16.85-9.06,0,0a3.45,3.45,0,0,1,.56-.25ZM240.73,190a2.49,2.49,0,0,1,1.35-.16,1.83,1.83,0,0,1,1.29.89l.06,0,8.31,13.54q-1.62,1.16-3.32,2.18c-6.35,3.81-12.69,5.56-18.42,5.43l8.29-19.34h0A4.63,4.63,0,0,1,240.73,190Z" fill="#fff"/><path id="c2625939-07ec-458f-ada5-f2d86aca9004" data-name="path3059" d="M117.83,30.25c-1.49.5-1.35,1.34.3,1.89l.08,0,.68.23c1,.31,1.92.48,2.93.73A50.36,50.36,0,0,1,127,34.66a.79.79,0,0,1,.52.75l1.07.4a40.68,40.68,0,0,0-4.11,1.87c-5.4,2.86-7.81,6.06-7.53,9.2l-1.66.09a4.32,4.32,0,0,1-1.75.48c-2,.13-4.23.12-6.9.12-1.25,0-2.31-.07-3.65,0l-1.07,0a10.31,10.31,0,0,0-2.58.39c-.86.27-1.33.64-1.2,1,.24.7,2.31,1.19,4.63,1.1h.07l1,0c1.33-.07,2.32-.2,3.53-.31,2.6-.21,4.76-.38,6.81-.4a9.33,9.33,0,0,1,2.09.34l1.63,0c2.33,3.85,8.77,7.42,18.78,9.92l-.8.48c.09.23.27.57,0,.77a28,28,0,0,1-4,1.87c-.81.32-1.61.56-2.37.93l-.55.3h0l0,0c-1.2.66-.76,1.48,1,1.85a9.56,9.56,0,0,0,5.44-.5l0,0,0,0,.54-.28a12.51,12.51,0,0,0,1.49-1.11,18.94,18.94,0,0,1,3.31-2,9.52,9.52,0,0,1,2.09-.33l1-.46a141.93,141.93,0,0,0,34.88,1.29l.68.55a6.32,6.32,0,0,1,1.76.43A8.45,8.45,0,0,1,183,65.6a5.24,5.24,0,0,0,.71,1.2c.1.1.27.25.38.36.79.72,3,1.12,5,.89s3-1,2.2-1.74h0c-.11-.1-.24-.24-.35-.34a15.73,15.73,0,0,0-1.69-1.08c-1.08-.83-2.56-1.59-2.75-2.3-.05-.2.26-.38.59-.57l-.49-.57c8.64-1.28,16.27-3.4,21.66-6.25a25.5,25.5,0,0,0,3.22-2l1.61.15a8,8,0,0,1,2.21-.18c2,.17,4,.5,6.37.89,1.11.19,2,.4,3.25.56l1,.12c2.2.26,4.55-.07,5.24-.73s-.51-1.39-2.68-1.66l-1.07-.12c-1.29-.13-2.36-.15-3.59-.23-2.61-.19-4.78-.35-6.65-.63a2.41,2.41,0,0,1-1.38-.6c-.22,0-1.1-.15-1.53-.21,3-3.94,1.52-8.11-4-11.67l1.35-.32c.14-.22.16-.46.95-.69,1.64-.41,3.65-.72,6.07-1.1,1.14-.17,2.18-.27,3.34-.49l.84-.18h.11c1.94-.42,2.61-1.22,1.51-1.81a10,10,0,0,0-5.55-.33l-1,.2c-1.11.25-1.83.52-2.79.79-2.08.56-3.8,1-5.61,1.34a12.58,12.58,0,0,1-2.33,0l-1.4.26a66.87,66.87,0,0,0-13.12-4A120.94,120.94,0,0,0,176,30.3c0-.18.09-.51.1-.6-.44-.18-1-.33-1-.68a5.44,5.44,0,0,1,1.19-2.27,6.62,6.62,0,0,0,.93-1.18c0-.1.08-.25.11-.36.26-.77-1.22-1.46-3.3-1.54s-4,.48-4.25,1.26c0,.11-.1.26-.12.36a3.59,3.59,0,0,0,.1,1.22,4.16,4.16,0,0,1-.34,2.3,4,4,0,0,1-1.45.6l-.29.58c-11.95-.09-23.8,1.25-33.11,3.85l-1.26-.38a8.29,8.29,0,0,1-2.22-.16,37.89,37.89,0,0,1-4.57-1.73c-.75-.33-1.27-.65-2.19-1l-.77-.25a10.5,10.5,0,0,0-5.68-.1Zm17.49,8.08,13.31,5,0,0c1.21.44,1.18,1.12-.1,1.55a7.21,7.21,0,0,1-1.85.31h0l-19.77,1.12c.06-2.35,2-4.73,6.07-6.87C133.69,39.06,134.48,38.69,135.32,38.33Zm6.74-2.25a99.24,99.24,0,0,1,23.88-2.78l-3.34,6.55h-.06c-.28.59-1.9,1-3.69.94a7.6,7.6,0,0,1-1.89-.29h0ZM127.95,49.48l20-.37,0,0c1.78,0,3.36.39,3.56,1,.08.24-.08.48-.42.68l0,0-9.63,5.82c-7-1.87-11.63-4.41-13.6-7.15Zm47.48-15.82a95.54,95.54,0,0,1,11.93,1.67,56.48,56.48,0,0,1,9.6,2.81l-17.53,3.23-.07,0a8.09,8.09,0,0,1-4.5-.38c-.39-.21-.55-.44-.51-.67h0l1.1-6.64Zm-15.69,12,4.33-1.44,6.05.22,3.23,1.72-2,1.92-5.77.67-5.16-1.08Zm25.38-.79a4.88,4.88,0,0,1,.59-.17v0l16.37-3.88c3.71,2.6,4.78,5.57,2.87,8.43l-18.57-2.57h0c-1.66-.22-2.52-.84-1.93-1.41a2,2,0,0,1,.67-.38Zm-23.46,7.86a9,9,0,0,1,4.12-.14,3.14,3.14,0,0,1,1.33.53h.09l7.62,6.13a113.5,113.5,0,0,1-25.17-.94l11.53-5.41h.05a3.37,3.37,0,0,1,.43-.17Zm17.42-2a6.17,6.17,0,0,1,1.34-.29,9.76,9.76,0,0,1,2.07,0l.05,0,19.21,1.84a22.29,22.29,0,0,1-2,1.17c-4,2.14-9.62,3.76-16,4.8l-5.52-6.39h0C178,51.42,178.28,51,179.07,50.73Z" fill="#fff"/></svg>