<svg id="842a3272-2ff9-43c3-94ac-3d09537047fc" data-name="Main" xmlns="http://www.w3.org/2000/svg" viewBox="0 0 500 500"><title>cdk8s.stacked.white</title><path d="M98.85,466.52q-13.29,5-30.8,5-27.88,0-42.39-14.75T11.16,413.67q0-27.88,15.16-43.28T68.54,355a88.28,88.28,0,0,1,28.69,4.7v23.67a114.06,114.06,0,0,0-23.34-2.92q-14.92,0-22.53,7.86t-7.62,23.26v3.57q0,15.08,7.38,23t21.8,7.94a124.35,124.35,0,0,0,25.94-3.24Z" fill="#fff"/><path d="M111.33,469.43V357.1h43.93q25.93,0,40.2,14.59t14.26,41.5q0,17.67-6.32,30.39a43.75,43.75,0,0,1-18.07,19.29q-11.75,6.57-28.12,6.57Zm31.29-88.34v64.35h10.7q24.47,0,24.48-30.8v-2.92q0-30.64-24.15-30.64Z" fill="#fff"/><path d="M226.42,469.43V357.1H257.7v46.36L294,357.1h34.85l-42.31,51.71,46,60.63H296.28L257.7,416.27v53.17Z" fill="#fff"/><path d="M411.52,382.71A29.87,29.87,0,0,1,406.21,400a39.64,39.64,0,0,1-15.09,12.69q13.1,5.64,19.07,12.36a23.29,23.29,0,0,1,6,16,27.13,27.13,0,0,1-10.95,22.48q-10.95,8.54-28.69,8.54-17.58,0-27.95-8.38T338.2,441.26q0-20.73,23.89-31.85-19.41-8.79-19.41-26.37,0-13.77,9.54-22.23t25-8.46a40.06,40.06,0,0,1,17.66,3.73A29.6,29.6,0,0,1,407,366.7,28.7,28.7,0,0,1,411.52,382.71Zm-41.63,30q-22.06,10.95-22.06,27.37,0,11.11,7.71,17.25t21.65,6.14q13.77,0,21.56-6t7.8-16.59a16.61,16.61,0,0,0-5.14-12.44q-5.14-5-18.91-10.62Zm-17.75-30.19a18.51,18.51,0,0,0,5,13q5,5.39,15.76,9.7l10.78,4.31q18.41-10.28,18.41-26.21,0-10.61-6.55-16.67t-18.33-6.05q-11.78,0-18.41,5.81T352.13,382.54Z" fill="#fff"/><path d="M477,447.73a10.26,10.26,0,0,0-3.23-7.63q-3.23-3.15-10.86-6l-15.09-5.64q-17.75-6.63-17.75-21.73a20.61,20.61,0,0,1,7.71-16.67q7.71-6.38,20.15-6.39A58.87,58.87,0,0,1,470.07,385a59.69,59.69,0,0,1,11.61,3.65v7.8q-13.44-4.31-24.22-4.31-9,0-13.6,3.57t-4.64,10.53q0,5.64,3.23,8.71t12.69,6.72l13.27,5q9.29,3.48,13.52,8.54a18.87,18.87,0,0,1,4.23,12.52q0,11.28-8.21,17.83t-22.31,6.55a59.62,59.62,0,0,1-27-6v-7.8a82,82,0,0,0,27.7,5.31q10.12,0,15.43-4.06T477,447.73Z" fill="#fff"/><polygon points="381.68 67.95 242.87 24.96 104.05 67.95 242.87 110.95 381.68 67.95" fill="#fff" stroke="#fff"/><path id="aaa37288-a6c1-4db7-8589-e0bc8532b645" data-name="path3059" d="M191.8,50.22c-1.58.53-1.44,1.43.32,2l.09,0,.73.25c1.05.33,2.05.51,3.12.78a53.69,53.69,0,0,1,5.52,1.63.85.85,0,0,1,.55.8l1.15.43a43.36,43.36,0,0,0-4.39,2c-5.75,3-8.33,6.46-8,9.81l-1.77.1a4.61,4.61,0,0,1-1.87.51c-2.15.14-4.51.13-7.36.12-1.33,0-2.46-.07-3.89,0l-1.15,0a11,11,0,0,0-2.75.41c-.91.28-1.42.68-1.27,1.1.25.74,2.46,1.27,4.93,1.17h.07l1.07,0c1.42-.07,2.47-.22,3.77-.33,2.77-.22,5.07-.4,7.26-.42a9.94,9.94,0,0,1,2.23.36l1.74,0c2.48,4.11,9.35,7.91,20,10.57L211,82c.09.24.29.61,0,.82a29.86,29.86,0,0,1-4.29,2c-.86.34-1.72.59-2.53,1l-.59.31h0l0,0c-1.28.7-.81,1.58,1.07,2a10.19,10.19,0,0,0,5.8-.53l0,0,0,0,.58-.3a13.33,13.33,0,0,0,1.59-1.19,20.19,20.19,0,0,1,3.53-2.16,10.15,10.15,0,0,1,2.23-.36l1-.49a151.29,151.29,0,0,0,37.18,1.37l.73.59a6.74,6.74,0,0,1,1.88.46,9,9,0,0,1,2.07,2.42,5.59,5.59,0,0,0,.75,1.28c.1.11.29.27.4.38.84.77,3.2,1.2,5.29,1s3.15-1.08,2.34-1.86h0c-.11-.11-.25-.26-.37-.36a16.77,16.77,0,0,0-1.8-1.15c-1.15-.89-2.73-1.69-2.93-2.46-.06-.21.28-.41.63-.61l-.53-.61c9.21-1.37,17.34-3.62,23.09-6.66a27.18,27.18,0,0,0,3.44-2.13l1.72.16a8.54,8.54,0,0,1,2.35-.19c2.12.18,4.23.53,6.79,1,1.19.2,2.12.42,3.46.6l1.09.13c2.35.27,4.85-.08,5.59-.78s-.54-1.48-2.85-1.76l-1.15-.13c-1.37-.14-2.51-.16-3.82-.25-2.78-.2-5.09-.37-7.09-.67a2.57,2.57,0,0,1-1.47-.64c-.23,0-1.17-.16-1.64-.23,3.25-4.2,1.62-8.65-4.26-12.44l1.44-.34c.15-.24.17-.49,1-.73,1.75-.44,3.89-.77,6.47-1.18,1.22-.18,2.32-.29,3.57-.53l.9-.19h.12c2.07-.44,2.79-1.31,1.6-1.93a10.67,10.67,0,0,0-5.92-.36l-1,.21c-1.19.27-2,.56-3,.84-2.21.6-4,1.09-6,1.43a13.41,13.41,0,0,1-2.48,0l-1.49.27a71.28,71.28,0,0,0-14-4.26,128.92,128.92,0,0,0-17.79-2.35c0-.19.09-.54.1-.64-.47-.19-1-.35-1.08-.72a5.8,5.8,0,0,1,1.27-2.42,7.06,7.06,0,0,0,1-1.26c0-.11.08-.26.12-.38.28-.82-1.3-1.56-3.52-1.64s-4.26.52-4.53,1.34c0,.12-.1.27-.13.38a3.83,3.83,0,0,0,.11,1.3,4.43,4.43,0,0,1-.37,2.45,4.21,4.21,0,0,1-1.55.64l-.31.62c-12.74-.1-25.37,1.33-35.3,4.1l-1.35-.4a8.83,8.83,0,0,1-2.37-.17A40.39,40.39,0,0,1,201,51.63c-.8-.36-1.36-.69-2.33-1l-.82-.27a11.2,11.2,0,0,0-6.05-.11Zm18.65,8.61,14.19,5.3,0,0c1.29.47,1.26,1.19-.1,1.65a7.69,7.69,0,0,1-2,.33h0l-21.07,1.2c.06-2.51,2.16-5,6.48-7.32C208.7,59.61,209.55,59.21,210.44,58.83Zm7.19-2.4a105.79,105.79,0,0,1,25.46-3l-3.57,7h-.06c-.29.63-2,1.07-3.93,1a8.1,8.1,0,0,1-2-.3h0Zm-15,14.28,21.33-.4,0,0c1.9,0,3.58.42,3.8,1.05.09.26-.08.51-.45.72l0,0-10.27,6.2c-7.45-2-12.4-4.7-14.5-7.63ZM253.2,53.84a101.85,101.85,0,0,1,12.72,1.78,60.2,60.2,0,0,1,10.24,3l-18.68,3.44-.07,0a8.62,8.62,0,0,1-4.8-.4c-.42-.22-.59-.47-.54-.71h0l1.18-7.07ZM236.47,66.65l4.61-1.54,6.45.24L251,67.18l-2.15,2-6.15.72-5.5-1.15Zm27.05-.84a5.2,5.2,0,0,1,.62-.18v0l17.45-4.14c4,2.77,5.09,5.94,3.06,9l-19.79-2.73h0c-1.77-.23-2.69-.9-2.05-1.5a2.1,2.1,0,0,1,.72-.41Zm-25,8.38A9.56,9.56,0,0,1,242.9,74a3.35,3.35,0,0,1,1.42.57h.1l8.12,6.53a121,121,0,0,1-26.83-1L238,74.36h.06a3.59,3.59,0,0,1,.45-.18ZM257.08,72a6.58,6.58,0,0,1,1.43-.31,10.41,10.41,0,0,1,2.21,0l.06,0,20.48,2a23.76,23.76,0,0,1-2.1,1.24c-4.31,2.28-10.26,4-17,5.12l-5.88-6.81h0C255.9,72.78,256.24,72.34,257.08,72Z" fill="#ff0" opacity="0"/><polygon points="236.15 330.39 236.15 121.42 93 77.02 93 285.99 236.15 330.39" fill="#fff"/><path id="4482bbbb-ed96-4b00-94a3-139c176f4ed2" data-name="path3059" d="M165.27,134.14c-1.92-.59-3.48.83-3.48,3.17,0,0,0,.07,0,.11,0,.32,0,.7,0,1,0,1.36.31,2.48.48,3.77a41,41,0,0,1,.39,7,2.83,2.83,0,0,1-1.13,1.63l-.08,1.59a41,41,0,0,0-6.29-.86c-9-.51-16.81,2.21-22.74,7.29-.38-.4-1.06-1.14-1.26-1.36a3.08,3.08,0,0,1-2.07-.85,53.06,53.06,0,0,1-4.69-6.08c-.79-1.15-1.36-2.2-2.29-3.37-.21-.26-.54-.63-.77-.91a5.72,5.72,0,0,0-2.42-1.74,2.53,2.53,0,0,0-2.77.5c-1.2,1.28-.81,3.92.85,5.89l.05.06c.23.27.51.62.72.86,1,1.11,1.9,1.79,2.88,2.73a51.43,51.43,0,0,1,5.17,5.57,5.77,5.77,0,0,1,.7,2.41l1.12,1.43c-6,8-8.73,19.35-7.1,32.24l-1.46,0c-.38.43-.93,1.12-1.49,1.2a29.09,29.09,0,0,1-6.24-.78,28.2,28.2,0,0,0-3.34-.73c-.27,0-.64,0-.93,0H107c-2.05-.08-3.37,1.58-2.94,3.75a5.29,5.29,0,0,0,4.49,4.16h.12c.29,0,.65.05.9.05a22,22,0,0,0,3.12-.36,26.27,26.27,0,0,1,6.07-.1,5.28,5.28,0,0,1,2,1.39l1.52.18a73.76,73.76,0,0,0,20.07,33.6l-.63,1.47a4.63,4.63,0,0,1,.31,2.25,26.17,26.17,0,0,1-3.15,5.24A21.14,21.14,0,0,0,137,250c-.14.24-.31.63-.45.89a5.14,5.14,0,0,0,1.48,5.87c1.73,1.44,3.87,1.13,4.8-.68h0c.13-.26.32-.59.43-.84a26.5,26.5,0,0,0,1-3.19c.92-2.25,1.43-4.76,2.69-6a2,2,0,0,1,1.5-.34l.79-1.32c8.07,5.87,17.11,9.54,26.14,10.05a36.19,36.19,0,0,0,6-.15l.74,1.69a4.16,4.16,0,0,1,1.78,1.73,50.16,50.16,0,0,1,2.39,7.14c.35,1.3.52,2.42,1,3.81.11.32.3.77.43,1.11.93,2.39,3.08,4,4.81,3.63s2.37-2.6,1.48-5c-.13-.34-.32-.84-.45-1.17-.58-1.37-1.23-2.37-1.87-3.61a52.31,52.31,0,0,1-3.09-7,2.89,2.89,0,0,1,.27-2.17c-.13-.21-.41-1.23-.58-1.72,9.63-3.29,16.72-11.06,20.06-21.53l1.49.74a2.12,2.12,0,0,1,1.95-.2,43,43,0,0,1,6.07,3.81c1.07.78,1.93,1.56,3.12,2.28.25.15.61.33.9.49l.07,0,.05,0c2.06,1.12,4.07.49,4.49-1.41s-.89-4.38-2.94-5.55c-.3-.17-.72-.42-1-.57a32.63,32.63,0,0,0-3.34-1.31,39.18,39.18,0,0,1-6.24-3,6.38,6.38,0,0,1-1.5-2.11l-1.41-.88a55.86,55.86,0,0,0-.73-18A70,70,0,0,0,202.8,187l1.23-.84a2.51,2.51,0,0,1,.65-2,21.79,21.79,0,0,1,5.17-2.4,20.05,20.05,0,0,0,2.89-1c.22-.11.53-.31.77-.44,1.67-.95,2.05-3.35.85-5.36s-3.52-2.88-5.19-1.93c-.24.13-.56.3-.77.44a19.59,19.59,0,0,0-2.3,2,21.66,21.66,0,0,1-4.69,3.22,3.69,3.69,0,0,1-2.11-.39l-1.32.63c-7.55-11-17.82-19.67-28.88-24.13,0-.52-.07-1.45-.08-1.73a4.44,4.44,0,0,1-1.14-2.26,37.16,37.16,0,0,1,.39-6.8,30.76,30.76,0,0,0,.48-3.48c0-.3,0-.75,0-1.09,0-2.34-1.56-4.71-3.48-5.3Zm-4.36,28.26-1,19.69-.07,0a2.28,2.28,0,0,1-3.06,2.28,4.1,4.1,0,0,1-1.81-1.2h0l-15-16.21a25.33,25.33,0,0,1,17.26-5A32.67,32.67,0,0,1,160.91,162.39Zm8.72,2.67a52.68,52.68,0,0,1,20.85,17.39l-14.87,7-.05,0c-1.32.65-3.18-.18-4.21-1.91a4.6,4.6,0,0,1-.67-2.15h0Zm-35.12,7.75,13.66,17.58v.08c1.23,1.55,1.42,3.65.39,4.75a2.11,2.11,0,0,1-1.59.66v.06l-17.52.19c-.89-9.21,1-17.31,5.09-23.31Zm61.42,18.79A56,56,0,0,1,200.41,205a45.78,45.78,0,0,1,.76,13L183.57,207V207a4.67,4.67,0,0,1-2.18-4.66,2.31,2.31,0,0,1,1-1.49v0l13.59-9.18Zm-33.46,4.2,5.6,1.71,3.48,5.83-1.25,5.57-5,1.11-5-4.2L159,199.48Zm17.95,21.81a3.4,3.4,0,0,1,.71.27l0,0,18.12,8.9c-2.65,7.36-7.73,12.88-14.5,15.54l-7-20.78,0,0c-.65-1.84,0-3.58,1.49-3.91a2.54,2.54,0,0,1,1.17,0ZM150,208.37a4.72,4.72,0,0,1,2.94,3.52,3.36,3.36,0,0,1-.17,2l.05.09-7,16.31A58.85,58.85,0,0,1,131.39,206l18,2.15,0,0a3,3,0,0,1,.6.13Zm15.17,12.72a3.78,3.78,0,0,1,1.43.77,5,5,0,0,1,1.38,1.86l.07,0L176.89,244a29.91,29.91,0,0,1-3.54,0,39.28,39.28,0,0,1-19.63-7.11l8.83-14.81h0A2.2,2.2,0,0,1,165.16,221.09Z" fill="#fff" opacity="0"/><polygon points="249.86 330.39 393 285.99 393 77.02 249.86 121.42 249.86 330.39" fill="#fff"/><path id="3e8ee0ca-ade5-4438-84ab-8300a7d3ce90" data-name="path3059" d="M322.92,133.52a6,6,0,0,0-3.48,5.46s0,.07,0,.1c0,.32,0,.71,0,1a30.19,30.19,0,0,0,.48,3.46,36.85,36.85,0,0,1,.39,6.78,6.47,6.47,0,0,1-1.13,2.37l-.08,1.64a57.06,57.06,0,0,0-6.29,3.27,72.4,72.4,0,0,0-22.74,22.23c-.38-.15-1.06-.44-1.26-.54a2.73,2.73,0,0,1-2.07.51,20.29,20.29,0,0,1-4.69-3,18.25,18.25,0,0,0-2.29-1.86c-.21-.13-.54-.28-.77-.4a3.15,3.15,0,0,0-2.42-.15,5.06,5.06,0,0,0-2.77,2.32c-1.2,2.07-.81,4.45.85,5.32l.05,0c.23.12.51.29.72.38a19.22,19.22,0,0,0,2.88.84,20.72,20.72,0,0,1,5.17,2.17c.53.44.63,1.5.7,2l1.12.7c-6,11.95-8.73,25.08-7.1,36.91l-1.46,1a8.42,8.42,0,0,1-1.49,2.18,41.41,41.41,0,0,1-6.24,3.32,34.25,34.25,0,0,0-3.34,1.47c-.27.15-.64.39-.93.56l0,0-.05,0c-2.05,1.26-3.37,3.79-2.94,5.68s2.43,2.42,4.49,1.21l.05,0,.07,0c.29-.17.65-.37.9-.54,1.19-.77,2.05-1.58,3.12-2.41a45.8,45.8,0,0,1,6.07-4.09,3,3,0,0,1,2,.07l1.52-.82c3.49,10.64,10.8,17.66,20.07,20.42l-.63,1.88a3.54,3.54,0,0,1,.31,2,57.48,57.48,0,0,1-3.15,7.31c-.64,1.27-1.29,2.31-1.87,3.7-.14.33-.31.83-.45,1.18-.89,2.41-.24,4.6,1.48,4.9s3.87-1.41,4.8-3.84h0c.13-.34.32-.8.43-1.12.49-1.41.66-2.53,1-3.85.92-2.86,1.43-5.7,2.69-7.8a4.41,4.41,0,0,1,1.5-1.33l.79-1.84c8.07.56,17.11-1.7,26.14-7.12a64.06,64.06,0,0,0,6-4.07l.74,1.21c.6,0,1.25-.12,1.78.56a26.16,26.16,0,0,1,2.39,5.58,25.49,25.49,0,0,0,1,3.14c.11.24.3.57.43.83.93,1.78,3.08,2,4.81.47a5.28,5.28,0,0,0,1.48-5.94c-.13-.26-.32-.63-.45-.87a19.69,19.69,0,0,0-1.87-2.38,23.53,23.53,0,0,1-3.09-5,3.67,3.67,0,0,1,.27-2.34,9.59,9.59,0,0,1-.58-1.34A78.15,78.15,0,0,0,366,202.26l1.49-.24a4,4,0,0,1,1.95-1.47,26.3,26.3,0,0,1,6.07-.18,21.71,21.71,0,0,0,3.12.22c.25,0,.61-.07.9-.1h.12a5.62,5.62,0,0,0,4.49-4.37c.42-2.19-.89-3.79-2.94-3.61-.3,0-.72.05-1,.09a29.09,29.09,0,0,0-3.34.88,29.66,29.66,0,0,1-6.24,1.07c-.73-.05-1.25-.82-1.5-1.13l-1.41,0a51.64,51.64,0,0,0-.73-17.55,35.67,35.67,0,0,0-6.52-14.23l1.23-1.65a4.16,4.16,0,0,1,.65-2.39,55.05,55.05,0,0,1,5.17-5.8c1-1,1.9-1.72,2.89-2.87.22-.26.53-.66.77-.95,1.67-2,2.05-4.7.85-5.92s-3.52-.57-5.19,1.48c-.24.29-.56.67-.77.95-.93,1.21-1.51,2.28-2.3,3.47a56.83,56.83,0,0,1-4.69,6.3,4.63,4.63,0,0,1-2.11,1l-1.32,1.5c-7.55-6-17.82-8-28.88-5.15,0-.5-.07-1.4-.08-1.67a1.92,1.92,0,0,1-1.14-1.51,41.37,41.37,0,0,1,.39-7.06c.16-1.3.43-2.43.48-3.79,0-.31,0-.75,0-1.08,0-2.34-1.56-3.69-3.48-3Zm-4.36,31.12-1,20.37-.07.07a5,5,0,0,1-3.06,4.3,2.41,2.41,0,0,1-1.81,0l0,0-15-6.37a57.5,57.5,0,0,1,17.26-16.38C316.09,165.9,317.33,165.24,318.56,164.64Zm8.72-3.06c7.92-1.71,15.24-.36,20.85,3.7l-14.87,16.78h-.05c-1.32,1.52-3.18,1.91-4.21.86a2.55,2.55,0,0,1-.67-1.71h0ZM292.16,192.4l13.66,8.6v.09c1.23.74,1.42,2.72.39,4.49a5.08,5.08,0,0,1-1.59,1.71v.07l-17.52,11.7c-.89-8.62,1-18,5.09-26.66Zm61.42-21.57a29.27,29.27,0,0,1,4.48,10.43,40.82,40.82,0,0,1,.76,12.52l-17.61.63v-.08c-1.58.08-2.55-1.34-2.18-3.23a5.14,5.14,0,0,1,1-2.13v0l13.59-18.11ZM320.12,197l5.6-2,3.48,3.55L327.94,205l-5,4.41-5-.89L316.63,203Zm17.95,10a3.07,3.07,0,0,1,.71-.19l0-.05,18.12-3a62.11,62.11,0,0,1-14.5,25.07l-7-16.15,0,0c-.65-1.42,0-3.58,1.49-4.88a4.19,4.19,0,0,1,1.17-.75ZM307.63,217.8a2.12,2.12,0,0,1,2.94,1.58,3.94,3.94,0,0,1-.17,2.13l.05.06-7,20.88c-6.51-2.29-11.69-7.32-14.46-14.76L307,218l0,0a3.67,3.67,0,0,1,.6-.27Zm15.17,2.75a2.66,2.66,0,0,1,1.43-.17,2,2,0,0,1,1.38,1l.07,0,8.85,14.43q-1.72,1.24-3.54,2.33c-6.77,4.06-13.52,5.93-19.63,5.79l8.83-20.61h0A4.94,4.94,0,0,1,322.81,220.55Z" fill="#fff" opacity="0"/></svg>