<?xml version="1.0" encoding="utf-8"?>
<!-- Generator: Adobe Illustrator 22.0.0, SVG Export Plug-In . SVG Version: 6.00 Build 0)  -->
<svg version="1.1" xmlns="http://www.w3.org/2000/svg" xmlns:xlink="http://www.w3.org/1999/xlink" x="0px" y="0px"
	 viewBox="0 0 200 200" style="enable-background:new 0 0 200 200;" xml:space="preserve">
<style type="text/css">
	.st0{fill:none;stroke:#232F3E;stroke-width:2;stroke-linejoin:round;stroke-miterlimit:10;}
	.st1{fill:#232F3E;}
	.st2{fill:none;stroke:#527FFF;stroke-width:2;stroke-linejoin:round;stroke-miterlimit:10;}
	.st3{fill:none;stroke:#527FFF;stroke-width:2;stroke-miterlimit:10;}
	.st4{fill:none;stroke:#232F3E;stroke-width:2;stroke-linejoin:round;}
	.st5{fill:none;stroke:#527FFF;stroke-width:2;stroke-linejoin:round;}
	.st6{fill:#527FFF;}
	.st7{fill:#879196;stroke:#232F3E;stroke-width:2;stroke-miterlimit:10;}
	.st8{fill:none;stroke:#232F3E;stroke-width:2;stroke-miterlimit:10;}
	.st9{fill:none;stroke:#232F3E;stroke-width:2;stroke-linecap:round;stroke-linejoin:round;stroke-miterlimit:10;}
	.st10{fill:none;stroke:#527FFF;stroke-width:2;stroke-linejoin:round;stroke-miterlimit:10;stroke-dasharray:2,2;}
	.st11{fill:none;stroke:#232F3E;stroke-width:2;stroke-linecap:square;stroke-linejoin:round;stroke-miterlimit:10;}
	.st12{fill:none;stroke:#527FFF;stroke-width:2;stroke-linecap:square;stroke-linejoin:round;stroke-miterlimit:10;}
	.st13{fill:none;stroke:#232F3E;stroke-width:2;stroke-linecap:square;stroke-miterlimit:10;}
	.st14{fill-rule:evenodd;clip-rule:evenodd;fill:none;stroke:#232F3E;stroke-width:2;stroke-linejoin:round;stroke-miterlimit:10;}
	.st15{fill-rule:evenodd;clip-rule:evenodd;fill:none;stroke:#527FFF;stroke-width:2;stroke-linejoin:round;stroke-miterlimit:10;}
	.st16{fill:none;stroke:#232F3E;stroke-width:2;stroke-linejoin:round;stroke-dasharray:5.7138,5.7138;}
	.st17{fill:#FFFFFF;stroke:#527FFF;stroke-width:2;stroke-linejoin:round;stroke-miterlimit:10;}
	.st18{fill:none;stroke:#527FFF;stroke-width:2;stroke-linecap:round;stroke-linejoin:round;stroke-miterlimit:10;}
	.st19{fill:none;stroke:#232F3E;stroke-width:2;stroke-linejoin:round;stroke-miterlimit:10;stroke-dasharray:2,2;}
	.st20{fill:#9DA5A9;stroke:#232F3E;stroke-width:2;stroke-miterlimit:10;}
	.st21{fill:#232F3E;stroke:#232F3E;stroke-width:2;stroke-miterlimit:10;}
	.st22{fill:none;stroke:#527FFF;stroke-width:2;stroke-linejoin:round;stroke-miterlimit:10;stroke-dasharray:4,6;}
	.st23{fill:#FFFFFF;stroke:#232F3E;stroke-width:2;stroke-linejoin:round;stroke-miterlimit:10;}
	.st24{fill:#527FFF;stroke:#232F3E;stroke-width:2;stroke-linejoin:round;stroke-miterlimit:10;}
	.st25{fill:#E5E5E5;stroke:#232F3E;stroke-width:2;stroke-linejoin:round;stroke-miterlimit:10;}
	.st26{clip-path:url(#SVGID_4_);}
	.st27{clip-path:url(#SVGID_5_);}
	.st28{clip-path:url(#SVGID_10_);}
	.st29{clip-path:url(#SVGID_11_);}
	.st30{fill:none;stroke:#232F3E;stroke-width:2;stroke-linejoin:round;stroke-dasharray:3.9281,5.8922;}
	.st31{fill:none;stroke:#232F3E;stroke-width:2;stroke-linejoin:round;stroke-miterlimit:10;stroke-dasharray:4,6;}
	.st32{fill:none;}
	.st33{fill:none;stroke:#527FFF;stroke-width:2;stroke-linejoin:round;stroke-dasharray:11.5983,11.5983;}
	.st34{fill:none;stroke:#527FFF;stroke-width:2;stroke-linejoin:round;stroke-dasharray:10.6,10.6;}
	.st35{fill:#252F3E;}
</style>
<g id="Layer_2">
</g>
<g id="Layer_1">
	<g>
		<g>
			<g>
				<g>
					<line class="st2" x1="104.2" y1="107.9" x2="151.3" y2="107.9"/>
					<line class="st2" x1="104.2" y1="58.2" x2="130.9" y2="58.2"/>
					<line class="st2" x1="104.2" y1="43.8" x2="130.9" y2="43.8"/>
					<line class="st0" x1="161.1" y1="49.4" x2="161.1" y2="54.7"/>
				</g>
				<g>
					<line class="st2" x1="130.4" y1="69.5" x2="122.1" y2="96.6"/>
					<polyline class="st2" points="119.2,75.8 109.6,81.1 109.6,82.3 119.2,87.4 					"/>
					<polyline class="st2" points="134.1,75.8 143.6,81.1 143.6,82.3 134.1,87.4 					"/>
				</g>
			</g>
			<g>
				<g>
					<circle class="st0" cx="161.7" cy="75" r="13.1"/>
				</g>
				<polyline class="st0" points="154.8,76.2 158.7,80.1 168.4,70.5 				"/>
			</g>
			<path class="st0" d="M138.8,27.1H96.9c-1.4,0-2.6,1.2-2.6,2.6v90.6c0,1.4,1.2,2.6,2.6,2.6h61.5c1.4,0,2.6-1.2,2.6-2.6V95.2"/>
			<polygon class="st0" points="138.8,49.4 161.1,49.4 138.8,27.1 			"/>
		</g>
		<g>
			<g>
				<g id="Choose_AWS_application_35_">
					<g>
						<g>
							<path class="st0" d="M25.2,163.7l0,6.4l0.4,0.3c2.1,1.6,4.6,2.4,7.2,2.4l115.1,0c2.2,0,4.3-0.7,6-2.1l0.8-0.7v-6.4
								L25.2,163.7z"/>
						</g>
					</g>
				</g>
				<path class="st0" d="M137.7,129.4l0,23.8c0,1.4-1.2,2.6-2.6,2.6l-89.2,0c-1.4,0-2.6-1.2-2.6-2.6l0-59.6c0-1.4,1.2-2.6,2.6-2.6
					h41.6"/>
				<path class="st0" d="M87.5,84.9H39.1c-1.4,0-2.6,1.2-2.6,2.6v73.3c0,1.4,1.2,2.6,2.6,2.6h102c1.4,0,2.6-1.2,2.6-2.6v-31.4"/>
			</g>
		</g>
	</g>
</g>
</svg>
