<?xml version="1.0" encoding="utf-8"?>
<!-- Generator: Adobe Illustrator 22.0.0, SVG Export Plug-In . SVG Version: 6.00 Build 0)  -->
<svg version="1.1" xmlns="http://www.w3.org/2000/svg" xmlns:xlink="http://www.w3.org/1999/xlink" x="0px" y="0px"
	 viewBox="0 0 200 200" style="enable-background:new 0 0 200 200;" xml:space="preserve">
<style type="text/css">
	.st0{fill:none;stroke:#232F3E;stroke-width:2;stroke-linejoin:round;stroke-miterlimit:10;}
	.st1{fill:#232F3E;}
	.st2{fill:none;stroke:#527FFF;stroke-width:2;stroke-linejoin:round;stroke-miterlimit:10;}
	.st3{fill:none;stroke:#527FFF;stroke-width:2;stroke-miterlimit:10;}
	.st4{fill:none;stroke:#232F3E;stroke-width:2;stroke-linejoin:round;}
	.st5{fill:none;stroke:#527FFF;stroke-width:2;stroke-linejoin:round;}
	.st6{fill:#527FFF;}
	.st7{fill:#879196;stroke:#232F3E;stroke-width:2;stroke-miterlimit:10;}
	.st8{fill:none;stroke:#232F3E;stroke-width:2;stroke-miterlimit:10;}
	.st9{fill:none;stroke:#232F3E;stroke-width:2;stroke-linecap:round;stroke-linejoin:round;stroke-miterlimit:10;}
	.st10{fill:none;stroke:#527FFF;stroke-width:2;stroke-linejoin:round;stroke-miterlimit:10;stroke-dasharray:2,2;}
	.st11{fill:none;stroke:#232F3E;stroke-width:2;stroke-linecap:square;stroke-linejoin:round;stroke-miterlimit:10;}
	.st12{fill:none;stroke:#527FFF;stroke-width:2;stroke-linecap:square;stroke-linejoin:round;stroke-miterlimit:10;}
	.st13{fill:none;stroke:#232F3E;stroke-width:2;stroke-linecap:square;stroke-miterlimit:10;}
	.st14{fill-rule:evenodd;clip-rule:evenodd;fill:none;stroke:#232F3E;stroke-width:2;stroke-linejoin:round;stroke-miterlimit:10;}
	.st15{fill-rule:evenodd;clip-rule:evenodd;fill:none;stroke:#527FFF;stroke-width:2;stroke-linejoin:round;stroke-miterlimit:10;}
	.st16{fill:none;stroke:#232F3E;stroke-width:2;stroke-linejoin:round;stroke-dasharray:5.7138,5.7138;}
	.st17{fill:#FFFFFF;stroke:#527FFF;stroke-width:2;stroke-linejoin:round;stroke-miterlimit:10;}
	.st18{fill:none;stroke:#527FFF;stroke-width:2;stroke-linecap:round;stroke-linejoin:round;stroke-miterlimit:10;}
	.st19{fill:none;stroke:#232F3E;stroke-width:2;stroke-linejoin:round;stroke-miterlimit:10;stroke-dasharray:2,2;}
	.st20{fill:#9DA5A9;stroke:#232F3E;stroke-width:2;stroke-miterlimit:10;}
	.st21{fill:#232F3E;stroke:#232F3E;stroke-width:2;stroke-miterlimit:10;}
	.st22{fill:none;stroke:#527FFF;stroke-width:2;stroke-linejoin:round;stroke-miterlimit:10;stroke-dasharray:4,6;}
	.st23{fill:#FFFFFF;stroke:#232F3E;stroke-width:2;stroke-linejoin:round;stroke-miterlimit:10;}
	.st24{fill:#527FFF;stroke:#232F3E;stroke-width:2;stroke-linejoin:round;stroke-miterlimit:10;}
	.st25{fill:#E5E5E5;stroke:#232F3E;stroke-width:2;stroke-linejoin:round;stroke-miterlimit:10;}
	.st26{clip-path:url(#SVGID_4_);}
	.st27{clip-path:url(#SVGID_5_);}
	.st28{clip-path:url(#SVGID_10_);}
	.st29{clip-path:url(#SVGID_11_);}
	.st30{fill:none;stroke:#232F3E;stroke-width:2;stroke-linejoin:round;stroke-dasharray:3.9281,5.8922;}
	.st31{fill:none;stroke:#232F3E;stroke-width:2;stroke-linejoin:round;stroke-miterlimit:10;stroke-dasharray:4,6;}
	.st32{fill:none;}
	.st33{fill:none;stroke:#527FFF;stroke-width:2;stroke-linejoin:round;stroke-dasharray:11.5983,11.5983;}
	.st34{fill:none;stroke:#527FFF;stroke-width:2;stroke-linejoin:round;stroke-dasharray:10.6,10.6;}
	.st35{fill:#252F3E;}
</style>
<g id="Layer_2">
</g>
<g id="Layer_1">
	<g>
		<g>
			<g>
				<g>
					<path class="st0" d="M87.2,95.6l3.3-4.7l2.2-3.1l-1.9-2.1l-1.9-2.1l-1.9-2.1l-12.7,6.5c-2.8-2-5.9-3.5-9.1-4.5l-2.5-14L60,69.2
						L57.1,69l-2.8-0.2L50,82.3c-3.3,0.6-6.6,1.7-9.7,3.3l-11.7-8.1l-2.1,1.9l-2.1,1.9l-2.1,1.9l6.5,12.6c-2,2.8-3.5,5.9-4.5,9.2
						l-14,2.5l-0.2,2.8L9.9,113l-0.2,2.8l13.5,4.4c0.6,3.3,1.7,6.6,3.3,9.6l-8.1,11.7l1.9,2.1l1.9,2.1l1.9,2.1l12.7-6.5
						c2.8,2,5.9,3.5,9.1,4.5l2.5,14l2.8,0.2l2.8,0.2l2.8,0.2l4.4-13.6c3.3-0.6,6.5-1.7,9.5-3.2l11.8,8.1l2.1-1.9l2.1-1.9l2.1-1.9
						l-2.7-5.2l-2.3-4.4"/>
					<path class="st2" d="M67.3,128.6c-2.2,1.9-4.8,3.2-7.7,3.9c-1.3,0.3-2.7,0.5-4.1,0.5c-10.1,0-18.3-8.2-18.3-18.3
						s8.2-18.3,18.3-18.3c2.2,0,4.4,0.4,6.3,1.1c2.4,0.9,4.5,2.2,6.3,3.9"/>
				</g>
				<g>
					<path class="st0" d="M102.3,86l1.2,1.4l1.2,1.4l1.2,1.4l8.1-4.2c1.8,1.3,3.8,2.2,5.8,2.9l1.6,9l1.8,0.1L125,98l1.8,0.1l2.8-8.7
						c2.1-0.4,4.2-1.1,6.1-2.1l7.5,5.2l1.4-1.2l1.4-1.2l1.4-1.2l-4.2-8.1c1.3-1.8,2.2-3.7,2.9-5.8l9-1.6l0.1-1.8l0.1-1.8l0.1-1.8
						l-8.7-2.8c-0.4-2.1-1-4.2-2.1-6.1l5.2-7.5l-1.2-1.4l-1.2-1.4l-1.2-1.4l-8.1,4.1c-1.8-1.3-3.8-2.2-5.8-2.9l-1.6-8.9l-1.8-0.1
						l-1.8-0.1l-1.8-0.1l-2.8,8.6c-2.1,0.4-4.2,1.1-6.2,2.1l-7.4-5.2l-1.4,1.2l-1.4,1.2l-1.4,1.2l4.1,8.1c-1.3,1.8-2.2,3.8-2.9,5.8
						l-8.9,1.6L97,66l-0.1,1.8l-0.1,1.8l8.6,2.8c0.4,2.1,1.1,4.2,2.1,6.1L102.3,86z"/>
					<circle class="st2" cx="126" cy="68.8" r="11.7"/>
				</g>
			</g>
			<g>
				<path class="st0" d="M80.7,99.6c6.3,0,11.8,3.6,14.3,8.9l63.1,0c2.6-5.3,8-8.9,14.3-8.9c7,0,12.9,4.5,15.1,10.8h-13l0,10.3h13
					c-2.2,6.3-8.1,10.8-15.1,10.8c-6.3,0-11.7-3.7-14.3-8.9l-63.1,0c-2.6,5.3-8,8.9-14.3,8.9c-7,0-12.9-4.5-15.1-10.8h13l0-10.3h-13
					C67.8,104.1,73.7,99.5,80.7,99.6z"/>
			</g>
			<circle class="st0" cx="54.6" cy="114.8" r="5"/>
		</g>
		<circle class="st0" cx="126" cy="68.8" r="3.6"/>
	</g>
</g>
</svg>
