<?xml version="1.0" encoding="utf-8"?>
<!-- Generator: Adobe Illustrator 18.1.1, SVG Export Plug-In . SVG Version: 6.00 Build 0)  -->
<svg version="1.1" xmlns="http://www.w3.org/2000/svg" xmlns:xlink="http://www.w3.org/1999/xlink" x="0px" y="0px" width="128px"
   height="128px" viewBox="0 0 128 128" style="enable-background:new 0 0 128 128;" xml:space="preserve">
<g id="BASE">
  <linearGradient id="SVGID_1_" gradientUnits="userSpaceOnUse" x1="63.9997" y1="7.0336" x2="63.9997" y2="120.7894">
    <stop  offset="0" style="stop-color:#4387FD"/>
    <stop  offset="1" style="stop-color:#4683EA"/>
  </linearGradient>
  <path style="fill:url(#SVGID_1_);" d="M27.7906,115.2166L1.54,69.7493c-2.0541-3.5578-2.0541-7.9412,0-11.499l26.2506-45.4672
    c2.0541-3.5578,5.8503-5.7495,9.9585-5.7495h52.5012c4.1082,0,7.9044,2.1917,9.9585,5.7495l26.2506,45.4672
    c2.0541,3.5578,2.0541,7.9412,0,11.499l-26.2506,45.4672c-2.0541,3.5578-5.8503,5.7495-9.9585,5.7495H37.7491
    C33.6409,120.9661,29.8448,118.7744,27.7906,115.2166z"/>
</g>
<g id="shadow">
  <g>
    <defs>
      <path id="SVGID_5_" d="M27.7911,115.2166L1.5406,69.7493c-2.0541-3.5578-2.0541-7.9412,0-11.499l26.2505-45.4672
        c2.0541-3.5578,5.8502-5.7495,9.9585-5.7495h52.501c4.1082,0,7.9044,2.1917,9.9585,5.7495l26.2505,45.4672
        c2.0541,3.5578,2.0541,7.9412,0,11.499l-26.2505,45.4672c-2.0541,3.5578-5.8502,5.7495-9.9585,5.7495h-52.501
        C33.6413,120.9661,29.8452,118.7744,27.7911,115.2166z"/>
    </defs>
    <clipPath id="SVGID_2_">
      <use xlink:href="#SVGID_5_"  style="overflow:visible;"/>
    </clipPath>
    <polygon style="opacity:0.07;clip-path:url(#SVGID_2_);" points="124.0521,82.8645 89.629,48.4413 64,36.9998 39.5,50.3124
      38.4734,79.6451 81.0156,122.1874 97.6671,122.0415"/>
  </g>
</g>
<g id="art">
  <path style="fill:#FFFFFF;" d="M89.0257,47.9933L65.3493,34.3237c-0.8349-0.4821-1.8636-0.4821-2.6986,0L38.9743,47.9933
    c-0.8349,0.4821-1.3493,1.3729-1.3493,2.337v27.3392c0,0.9641,0.5143,1.855,1.3493,2.337l23.6764,13.6696
    c0.8349,0.4821,1.8636,0.4821,2.6986,0l23.6764-13.6696c0.8349-0.4821,1.3493-1.3729,1.3493-2.337V50.3303
    C90.375,49.3662,89.8607,48.4753,89.0257,47.9933z M85.7774,75.0503l-8.2604-4.7691V57.7186l-12.1982,7.0427v14.0853
    l10.8795-6.2813l8.2604,4.7691L64,89.1462L43.5414,77.3344l8.2604-4.7691l10.8795,6.2813V64.7613L50.483,57.7186v12.5626
    l-8.2604,4.7691V51.4267l20.4586-11.8118v9.5383l-10.8795,6.2813L64,62.4771l12.1982-7.0427l-10.8795-6.2813v-9.5383
    l20.4586,11.8118V75.0503z"/>
</g>
<g id="Guides" style="display:none;">
</g>
</svg>
